<?xml version="1.0" standalone="no"?>
<!DOCTYPE svg PUBLIC "-//W3C//DTD SVG 1.1//EN" "http://www.w3.org/Graphics/SVG/1.1/DTD/svg11.dtd" >
<svg xmlns="http://www.w3.org/2000/svg" xmlns:xlink="http://www.w3.org/1999/xlink" version="1.1">
<metadata>
Created by FontForge 20170731 at Sat Feb 11 15:48:38 2023
 By Aleksey,,,
Copyright (c) 2022 by Radmir Volk. All rights reserved.
</metadata>
<defs>
<font id="volksans_Black" horiz-adv-x="1208" >
  <font-face 
    font-family="volksans Test Black"
    font-weight="900"
    font-stretch="normal"
    units-per-em="2048"
    panose-1="2 11 5 3 3 0 0 2 0 4"
    ascent="1638"
    descent="-410"
    x-height="1024"
    cap-height="1434"
    bbox="-143 -430 2007 1454"
    underline-thickness="81"
    underline-position="-470"
    unicode-range="U+0020-007A"
  />
<missing-glyph horiz-adv-x="1187" 
 />
    <glyph glyph-name=".notdef" horiz-adv-x="1187" 
 />
    <glyph glyph-name=".null" horiz-adv-x="0" 
 />
    <glyph glyph-name="nonmarkingreturn" horiz-adv-x="682" 
 />
    <glyph glyph-name="space" unicode=" " horiz-adv-x="307" 
 />
    <glyph glyph-name="comma" unicode="," horiz-adv-x="614" 
d="M328 -205h-267v21l62 512h369v-21z" />
    <glyph glyph-name="hyphen" unicode="-" horiz-adv-x="798" 
d="M717 451h-635v143h635v-143z" />
    <glyph glyph-name="period" unicode="." horiz-adv-x="655" 
d="M532 0h-409v328h409v-328z" />
    <glyph glyph-name="zero" unicode="0" horiz-adv-x="1187" 
d="M594 -20q-241 0 -387 146t-146 366v450q0 220 146 366t387 146q120 0 221 -39.5t168.5 -108.5t105 -163t37.5 -201v-450q0 -107 -37.5 -201t-105 -163t-168.5 -108.5t-221 -39.5zM594 266q78 0 121 47t43 138v532q0 91 -43 137.5t-121 46.5t-121 -46.5t-43 -137.5v-532
q0 -91 43 -138t121 -47z" />
    <glyph glyph-name="one" unicode="1" horiz-adv-x="880" 
d="M737 0h-368v1004h-21l-164 -164h-123v307l287 287h389v-1434z" />
    <glyph glyph-name="two" unicode="2" horiz-adv-x="1187" 
d="M1126 0h-1065v307l328 287q79 69 126.5 113t106 106.5t87 114.5t28.5 96q0 65 -35 104t-108 39q-76 0 -109.5 -48t-33.5 -156h-369v20q0 218 134.5 344.5t377.5 126.5q238 0 375 -117t137 -293q0 -71 -26.5 -144t-61.5 -129t-94.5 -121.5t-101 -104.5t-105.5 -94
l-164 -144v-20h573v-287z" />
    <glyph glyph-name="three" unicode="3" 
d="M594 -20q-244 0 -398.5 122t-154.5 308v20h369q0 -78 46.5 -121t137.5 -43t137.5 43t46.5 121q0 64 -47.5 103.5t-136.5 39.5h-123v287h123q143 0 143 164q0 65 -35 104t-108 39q-143 0 -143 -163h-369v20q0 190 136 310t376 120q119 0 217.5 -32t162 -86t98 -123.5
t34.5 -147.5q0 -104 -54.5 -181.5t-150.5 -125.5v-21q108 -31 177 -128t69 -220q0 -86 -35 -159.5t-102.5 -129.5t-174 -88t-241.5 -32z" />
    <glyph glyph-name="four" unicode="4" horiz-adv-x="1167" 
d="M1065 0h-369v246h-655v307l410 881h368v-21l-389 -860v-21h266v349h369v-881z" />
    <glyph glyph-name="five" unicode="5" horiz-adv-x="1269" 
d="M655 -20q-127 0 -233 35.5t-175 95t-107 137t-38 162.5v20h369q0 -78 46.5 -121t137.5 -43q78 0 121 47t43 138v41q0 91 -43 137.5t-121 46.5q-72 0 -109.5 -26.5t-53.5 -76.5h-349l-20 21l61 840h942v-287h-614l-20 -266h20q35 35 98 58.5t148 23.5q120 0 219.5 -61
t155 -164.5t55.5 -225.5v-82q0 -85 -38 -165.5t-105 -144t-169 -102t-221 -38.5z" />
    <glyph glyph-name="six" unicode="6" 
d="M614 -20q-120 0 -221 39.5t-168.5 108.5t-105 163t-37.5 201v450q0 107 37.5 201t105 163t168.5 108.5t221 39.5q94 0 174.5 -22.5t135 -58.5t94.5 -83t61 -93t27 -91v-21h-369q-13 27 -23 41t-36 27.5t-64 13.5q-78 0 -120.5 -46.5t-42.5 -137.5v-102h20q35 35 98 58.5
t148 23.5q120 0 219.5 -61t155 -164.5t55.5 -225.5v-82q0 -85 -38 -165.5t-105 -144t-169 -102t-221 -38.5zM614 266q78 0 121 47t43 138v41q0 91 -43 137.5t-121 46.5t-120.5 -46.5t-42.5 -137.5v-41q0 -91 42.5 -138t120.5 -47z" />
    <glyph glyph-name="seven" unicode="7" horiz-adv-x="1126" 
d="M573 0h-389v20l512 1106v21h-635v287h1024v-308z" />
    <glyph glyph-name="eight" unicode="8" horiz-adv-x="1228" 
d="M614 -20q-133 0 -241 35t-174.5 93t-102 130.5t-35.5 150.5q0 123 69 220t177 128v21q-96 48 -150.5 125.5t-54.5 181.5q0 78 34.5 147.5t98 123.5t162 86t217.5 32t217.5 -32t162 -86t98 -123.5t34.5 -147.5q0 -104 -54 -181.5t-150 -125.5v-21q108 -31 176.5 -128
t68.5 -220q0 -78 -35.5 -150.5t-102 -130.5t-174.5 -93t-241 -35zM614 860q144 0 144 164q0 65 -35.5 104t-108.5 39t-108 -39t-35 -104q0 -164 143 -164zM614 266q185 0 185 185q0 70 -43 116.5t-142 46.5t-141.5 -46t-42.5 -117q0 -185 184 -185z" />
    <glyph glyph-name="nine" unicode="9" 
d="M594 1454q120 0 221 -39.5t168.5 -108.5t105 -163t37.5 -201v-450q0 -107 -37.5 -201t-105 -163t-168.5 -108.5t-221 -39.5q-94 0 -174.5 22.5t-135 58.5t-94.5 83t-61 93t-27 91v20h369q13 -27 23 -41t36 -27.5t64 -13.5q78 0 121 47t43 138v102h-21q-82 -82 -245 -82
q-120 0 -219.5 61t-155.5 164.5t-56 225.5v82q0 85 38 165.5t105 144t169 102t221 38.5zM594 1167q-78 0 -121 -46.5t-43 -137.5v-41q0 -91 43 -137.5t121 -46.5t121 46.5t43 137.5v41q0 91 -43 137.5t-121 46.5z" />
    <glyph glyph-name="A" unicode="A" horiz-adv-x="1454" 
d="M369 0h-369v20l512 1414h430l512 -1414v-20h-369l-81 246h-553zM553 553v-21h348v21l-164 491h-20z" />
    <glyph glyph-name="B" unicode="B" horiz-adv-x="1413" 
d="M860 0h-737v1434h676q215 0 353 -110.5t138 -279.5q0 -94 -46.5 -167.5t-137.5 -118.5v-21q111 -32 178.5 -123t67.5 -225q0 -110 -67.5 -200t-180 -139.5t-244.5 -49.5zM492 1147v-287h286q76 0 110 34t34 110t-33.5 109.5t-110.5 33.5h-286zM492 573v-286h348
q73 0 108 39t35 104t-35 104t-108 39h-348z" />
    <glyph glyph-name="C" unicode="C" horiz-adv-x="1351" 
d="M696 -20q-186 0 -328 72t-224.5 217t-82.5 345v205q0 300 175.5 467.5t459.5 167.5q255 0 417 -133.5t177 -337.5v-20h-368q0 86 -56 145t-170 59q-124 0 -195 -74.5t-71 -211.5v-328q0 -137 71 -212t195 -75q114 0 170 59.5t56 145.5h368v-20q-15 -204 -177 -337.5
t-417 -133.5z" />
    <glyph glyph-name="D" unicode="D" horiz-adv-x="1413" 
d="M717 0h-594v1434h594q284 0 459.5 -167.5t175.5 -467.5v-164q0 -300 -175.5 -467.5t-459.5 -167.5zM492 1147v-860h225q124 0 195 74.5t71 211.5v287q0 137 -71 212t-195 75h-225z" />
    <glyph glyph-name="E" unicode="E" horiz-adv-x="1310" 
d="M1229 0h-1106v1434h1106v-287h-737v-287h675v-287h-675v-286h737v-287z" />
    <glyph glyph-name="F" unicode="F" 
d="M492 0h-369v1434h1044v-287h-675v-287h614v-287h-614v-573z" />
    <glyph glyph-name="G" unicode="G" horiz-adv-x="1372" 
d="M696 -20q-186 0 -328 72t-224.5 217t-82.5 345v205q0 300 175.5 467.5t459.5 167.5q255 0 417 -133.5t177 -337.5v-20h-368q0 86 -56 145t-170 59q-124 0 -195 -74.5t-71 -211.5v-328q0 -137 71 -212t195 -75q121 0 183.5 70t62.5 196h-287v287h635l21 -20v-185
q0 -302 -166.5 -468t-448.5 -166z" />
    <glyph glyph-name="H" unicode="H" horiz-adv-x="1474" 
d="M492 0h-369v1434h369v-574h491v574h369v-1434h-369v573h-491v-573z" />
    <glyph glyph-name="I" unicode="I" horiz-adv-x="614" 
d="M492 0h-369v1434h369v-1434z" />
    <glyph glyph-name="J" unicode="J" horiz-adv-x="901" 
d="M389 0h-369v287h308q46 0 64 18t18 64v1065h368v-1045q0 -71 -24 -138.5t-70 -124.5t-122.5 -91.5t-172.5 -34.5z" />
    <glyph glyph-name="K" unicode="K" horiz-adv-x="1454" 
d="M492 0h-369v1434h369v-512h20l512 512h410v-21l-512 -512v-20l532 -861v-20h-389l-389 635h-21l-163 -164v-471z" />
    <glyph glyph-name="L" unicode="L" horiz-adv-x="1167" 
d="M1167 0h-1044v1434h369v-1147h675v-287z" />
    <glyph glyph-name="M" unicode="M" horiz-adv-x="1904" 
d="M492 0h-369v1434h471l348 -1004h21l348 1004h471v-1434h-369v840h-20l-287 -820h-307l-287 820h-20v-840z" />
    <glyph glyph-name="N" unicode="N" horiz-adv-x="1556" 
d="M492 0h-369v1434h409l512 -861h21v861h369v-1434h-410l-512 860h-20v-860z" />
    <glyph glyph-name="O" unicode="O" horiz-adv-x="1392" 
d="M696 -20q-186 0 -328 72t-224.5 217t-82.5 345v205q0 300 175.5 467.5t459.5 167.5t459.5 -167.5t175.5 -467.5v-205q0 -200 -82.5 -345t-224.5 -217t-328 -72zM696 266q124 0 195.5 75t71.5 212v328q0 136 -71.5 211t-195.5 75t-195 -74.5t-71 -211.5v-328
q0 -137 71 -212t195 -75z" />
    <glyph glyph-name="P" unicode="P" horiz-adv-x="1372" 
d="M492 0h-369v1434h717q222 0 367 -121t145 -330t-145 -330t-367 -121h-348v-532zM492 1147v-328h327q88 0 126 41.5t38 122.5t-38 122.5t-126 41.5h-327z" />
    <glyph glyph-name="Q" unicode="Q" horiz-adv-x="1392" 
d="M1188 -143h-21l-184 184h-20q-122 -61 -267 -61q-186 0 -328 72t-224.5 217t-82.5 345v205q0 300 175.5 467.5t459.5 167.5t459.5 -167.5t175.5 -467.5v-205q0 -258 -143 -430v-20l143 -144v-20zM696 266h41v21l-205 205v20h308l82 -82h20q21 64 21 123v328
q0 136 -71.5 211t-195.5 75t-195 -74.5t-71 -211.5v-328q0 -137 71 -212t195 -75z" />
    <glyph glyph-name="R" unicode="R" horiz-adv-x="1392" 
d="M492 0h-369v1434h717q222 0 367 -121t145 -330q0 -95 -30.5 -172.5t-81 -128t-104 -81.5t-112.5 -48v-21l328 -512v-20h-389l-328 532h-143v-532zM492 1147v-328h327q88 0 126 41.5t38 122.5t-38 122.5t-126 41.5h-327z" />
    <glyph glyph-name="S" unicode="S" horiz-adv-x="1351" 
d="M676 -20q-273 0 -444 134.5t-171 336.5v20h369q0 -96 66 -150.5t200 -54.5q105 0 165.5 40.5t60.5 103.5q0 30 -10 52.5t-25 36t-42 25t-49 17t-59 12.5l-205 41q-83 17 -155 48t-136 81.5t-101.5 128t-37.5 172.5q0 187 158 308.5t416 121.5q257 0 415 -134t158 -337
v-20h-368q0 204 -226 204q-89 0 -136.5 -39.5t-47.5 -103.5q0 -111 164 -143l205 -41q53 -11 90 -19.5t88 -26t86 -36.5t73 -50.5t60.5 -69t37.5 -91t15 -117.5q0 -200 -169 -325t-445 -125z" />
    <glyph glyph-name="T" unicode="T" horiz-adv-x="1269" 
d="M819 0h-368v1147h-451v287h1270v-287h-451v-1147z" />
    <glyph glyph-name="U" unicode="U" horiz-adv-x="1392" 
d="M696 -20q-269 0 -431.5 154.5t-162.5 438.5v861h369v-922q0 -122 58 -184t167 -62t167.5 62.5t58.5 183.5v922h368v-861q0 -284 -162.5 -438.5t-431.5 -154.5z" />
    <glyph glyph-name="V" unicode="V" horiz-adv-x="1372" 
d="M901 0h-430l-491 1413v21h368l328 -1024h20l328 1024h369v-21z" />
    <glyph glyph-name="W" unicode="W" horiz-adv-x="2027" 
d="M778 0h-409l-349 1413v21h369l184 -942h21l225 921h389l226 -921h20l184 942h369v-21l-348 -1413h-410l-225 922h-20z" />
    <glyph glyph-name="X" unicode="X" horiz-adv-x="1331" 
d="M389 0h-389v20l410 717v21l-390 655v21h390l245 -451h21l246 451h389v-21l-389 -655v-21l409 -717v-20h-389l-266 512h-21z" />
    <glyph glyph-name="Y" unicode="Y" horiz-adv-x="1351" 
d="M860 0h-368v573l-492 840v21h389l266 -512h41l267 512h389v-21l-492 -840v-573z" />
    <glyph glyph-name="Z" unicode="Z" horiz-adv-x="1351" 
d="M1270 0h-1188v307l717 819v21h-697v287h1147v-308l-717 -819v-20h738v-287z" />
    <glyph glyph-name="a" unicode="a" horiz-adv-x="1146" 
d="M410 -20q-168 0 -268.5 84t-100.5 223q0 149 109 238t342 89h225v41q0 144 -144 144q-43 0 -73.5 -13t-44.5 -34t-19.5 -39t-5.5 -37h-348v20q0 45 17 91.5t56 93t94.5 82.5t139.5 58.5t184 22.5q127 0 223 -36t154 -100.5t86.5 -148.5t28.5 -186v-573h-328l-20 61h-21
q-121 -81 -286 -81zM512 225q58 0 100.5 17t64 45.5t31 58.5t9.5 64h-185q-82 0 -112.5 -31t-30.5 -72q0 -82 123 -82z" />
    <glyph glyph-name="b" unicode="b" 
d="M717 -20q-86 0 -148.5 23t-97.5 58h-20l-21 -61h-328v1434h349v-471h20q35 35 97.5 58t148.5 23q199 0 324.5 -137.5t125.5 -353.5v-82q0 -216 -125.5 -353.5t-324.5 -137.5zM635 246q90 0 137 55t47 150v122q0 95 -47 150t-137 55t-137 -55t-47 -150v-122q0 -95 47 -150
t137 -55z" />
    <glyph glyph-name="c" unicode="c" horiz-adv-x="1105" 
d="M573 -20q-120 0 -221 39.5t-168.5 108.5t-105 163t-37.5 201v40q0 107 37.5 201t105 163t168.5 108.5t221 39.5q94 0 174.5 -22.5t135 -58.5t94.5 -83t61 -93t27 -91v-20h-348q-33 102 -144 102q-90 0 -137 -55t-47 -150v-122q0 -95 47 -150t137 -55q111 0 144 102h348
v-20q-6 -45 -27 -91t-61 -93t-94.5 -83t-135 -58.5t-174.5 -22.5z" />
    <glyph glyph-name="d" unicode="d" 
d="M492 -20q-199 0 -325 137.5t-126 353.5v82q0 216 126 353.5t325 137.5q164 0 245 -81h21v471h348v-1434h-328l-20 61h-21q-81 -81 -245 -81zM573 246q90 0 137.5 55t47.5 150v122q0 95 -47.5 150t-137.5 55t-137 -55t-47 -150v-122q0 -95 47 -150t137 -55z" />
    <glyph glyph-name="e" unicode="e" horiz-adv-x="1146" 
d="M573 -20q-120 0 -221 39.5t-168.5 108.5t-105 163t-37.5 201v40q0 107 37.5 201t105 163t168.5 108.5t221 39.5q241 0 387 -146t146 -366v-81l-21 -21h-696q0 -95 47 -150t137 -55q124 0 164 123h348v-20q-8 -57 -43.5 -115.5t-96 -111.5t-158 -87t-214.5 -34zM389 635
h369q0 67 -49 115.5t-136 48.5t-135.5 -48.5t-48.5 -115.5z" />
    <glyph glyph-name="f" unicode="f" horiz-adv-x="880" 
d="M573 0h-348v758h-184v266h184v61q0 94 39 172t120 127.5t189 49.5h308v-267h-246q-62 0 -62 -61v-82h246v-266h-246v-758z" />
    <glyph glyph-name="g" unicode="g" 
d="M573 -430q-117 0 -214.5 34t-158 87t-96 111.5t-43.5 115.5v21h349q40 -123 163 -123q90 0 137.5 54.5t47.5 149.5v62h-21q-82 -82 -245 -82q-199 0 -325 138t-126 354v61q0 216 126 353.5t325 137.5q164 0 245 -81h21l20 61h328v-942q0 -220 -146 -366t-387 -146z
M573 266q90 0 137.5 55t47.5 150v102q0 95 -47.5 150t-137.5 55t-137 -55t-47 -150v-102q0 -95 47 -150t137 -55z" />
    <glyph glyph-name="h" unicode="h" 
d="M451 0h-349v1434h349v-471h20q35 35 97.5 58t148.5 23q192 0 300.5 -116.5t108.5 -292.5v-635h-348v614q0 164 -143 164q-90 0 -137 -55t-47 -150v-573z" />
    <glyph glyph-name="i" unicode="i" horiz-adv-x="552" 
d="M451 1167h-349v267h349v-267zM451 0h-349v1024h349v-1024z" />
    <glyph glyph-name="j" unicode="j" horiz-adv-x="552" 
d="M451 1167h-349v267h349v-267zM102 -410h-245v267h184q61 0 61 61v1106h349v-1085q0 -94 -39.5 -172t-120.5 -127.5t-189 -49.5z" />
    <glyph glyph-name="k" unicode="k" 
d="M451 0h-349v1434h349v-758h20l348 348h369v-20l-348 -349v-20l368 -615v-20h-368l-226 410h-20l-143 -144v-266z" />
    <glyph glyph-name="l" unicode="l" horiz-adv-x="552" 
d="M451 0h-349v1434h349v-1434z" />
    <glyph glyph-name="m" unicode="m" horiz-adv-x="1761" 
d="M451 0h-349v1024h328l21 -61h20q35 35 97.5 58t148.5 23q184 0 266 -122h21q56 56 126 89t181 33q170 0 269 -103t99 -286v-655h-348v635q0 75 -30 109t-93 34q-64 0 -103.5 -47.5t-39.5 -136.5v-594h-348v635q0 75 -30 109t-93 34q-64 0 -103.5 -47.5t-39.5 -136.5v-594
z" />
    <glyph glyph-name="n" unicode="n" 
d="M451 0h-349v1024h328l21 -61h20q35 35 97.5 58t148.5 23q192 0 300.5 -116.5t108.5 -292.5v-635h-348v614q0 164 -143 164q-90 0 -137 -55t-47 -150v-573z" />
    <glyph glyph-name="o" unicode="o" horiz-adv-x="1146" 
d="M573 -20q-120 0 -221 39.5t-168.5 108.5t-105 163t-37.5 201v40q0 107 37.5 201t105 163t168.5 108.5t221 39.5q241 0 387 -146t146 -366v-40q0 -220 -146 -366t-387 -146zM573 246q90 0 137.5 55t47.5 150v122q0 95 -47.5 150t-137.5 55t-137 -55t-47 -150v-122
q0 -95 47 -150t137 -55z" />
    <glyph glyph-name="p" unicode="p" 
d="M717 1044q199 0 324.5 -137.5t125.5 -353.5v-82q0 -216 -125.5 -353.5t-324.5 -137.5q-86 0 -148.5 23t-97.5 58h-20v-471h-349v1434h328l21 -61h20q35 35 97.5 58t148.5 23zM635 778q-90 0 -137 -55t-47 -150v-122q0 -95 47 -150t137 -55t137 55t47 150v122
q0 95 -47 150t-137 55z" />
    <glyph glyph-name="q" unicode="q" 
d="M492 1044q164 0 245 -81h21l20 61h328v-1434h-348v471h-21q-81 -81 -245 -81q-199 0 -325 137.5t-126 353.5v82q0 216 126 353.5t325 137.5zM573 778q-90 0 -137 -55t-47 -150v-122q0 -95 47 -150t137 -55t137.5 55t47.5 150v122q0 95 -47.5 150t-137.5 55z" />
    <glyph glyph-name="r" unicode="r" horiz-adv-x="839" 
d="M451 0h-349v1024h328l21 -61h20q32 32 87 46.5t159 14.5h102v-266h-184q-94 0 -139 -52.5t-45 -173.5v-532z" />
    <glyph glyph-name="s" unicode="s" horiz-adv-x="1064" 
d="M532 -20q-100 0 -184 22.5t-139.5 58.5t-94.5 82.5t-56 93t-17 91.5v20h348q0 -64 37 -93.5t127 -29.5q58 0 90.5 24.5t32.5 57.5q0 10 -2 16t-11 14.5t-31.5 16.5t-58.5 15l-204 41q-149 30 -228.5 113t-79.5 194q0 63 28 120.5t83.5 104.5t148.5 74.5t211 27.5
q117 0 211 -34t149 -87t83.5 -112t28.5 -115v-20h-349q0 63 -34 93t-109 30q-47 0 -74.5 -16t-27.5 -46q0 -32 24.5 -50t97.5 -32l205 -41q145 -29 216 -107.5t71 -178.5q0 -71 -28.5 -132.5t-86 -110.5t-154.5 -77t-223 -28z" />
    <glyph glyph-name="t" unicode="t" horiz-adv-x="860" 
d="M799 0h-246q-108 0 -189 49t-120 127t-39 172v410h-185v266h185v287h348v-287h225v-266h-225v-430q0 -62 61 -62h185v-266z" />
    <glyph glyph-name="u" unicode="u" horiz-adv-x="1187" 
d="M471 -20q-184 0 -286.5 114.5t-102.5 315.5v614h348v-614q0 -78 31 -121t92 -43q90 0 137 55t47 150v573h348v-1024h-327l-21 61h-20q-35 -35 -97.5 -58t-148.5 -23z" />
    <glyph glyph-name="v" unicode="v" horiz-adv-x="1126" 
d="M778 0h-430l-348 1004v20h348l205 -635h20l205 635h348v-20z" />
    <glyph glyph-name="w" unicode="w" horiz-adv-x="1658" 
d="M676 0h-369l-287 1004v20h349l123 -573h20l143 553h349l143 -553h20l123 573h348v-20l-286 -1004h-369l-143 553h-21z" />
    <glyph glyph-name="x" unicode="x" horiz-adv-x="1085" 
d="M369 0h-369v20l287 492v20l-267 472v20h369l143 -307h21l143 307h369v-20l-266 -472v-20l286 -492v-20h-368l-164 328h-21z" />
    <glyph glyph-name="y" unicode="y" horiz-adv-x="1126" 
d="M266 -410h-205v267h185q67 0 88 9t35 52l20 62v20l-389 1004v20h348l205 -655h20l205 655h348v-20l-389 -1065q-27 -75 -51 -123.5t-61.5 -95.5t-84 -73t-115 -41.5t-159.5 -15.5z" />
    <glyph glyph-name="z" unicode="z" horiz-adv-x="1085" 
d="M1024 0h-963v287l492 450v21h-471v266h922v-287l-492 -450v-21h512v-266z" />
    </font>
</defs>
</svg>
