<?xml version="1.0" standalone="no"?>
<!DOCTYPE svg PUBLIC "-//W3C//DTD SVG 1.1//EN" "http://www.w3.org/Graphics/SVG/1.1/DTD/svg11.dtd" >
<svg xmlns="http://www.w3.org/2000/svg" xmlns:xlink="http://www.w3.org/1999/xlink" version="1.1">
<metadata>
Created by FontForge 20170731 at Sat Feb 11 15:48:39 2023
 By Aleksey,,,
Copyright (c) 2022 by Radmir Volk. All rights reserved.
</metadata>
<defs>
<font id="volksans_Normal" horiz-adv-x="1126" >
  <font-face 
    font-family="volksans Test Normal"
    font-weight="400"
    font-stretch="normal"
    units-per-em="2048"
    panose-1="2 11 5 3 3 0 0 2 0 4"
    ascent="1638"
    descent="-410"
    x-height="1024"
    cap-height="1434"
    bbox="-102 -430 1843 1454"
    underline-thickness="81"
    underline-position="-470"
    unicode-range="U+0020-007A"
  />
<missing-glyph horiz-adv-x="1228" 
 />
    <glyph glyph-name=".notdef" horiz-adv-x="1228" 
 />
    <glyph glyph-name=".null" horiz-adv-x="0" 
 />
    <glyph glyph-name="nonmarkingreturn" horiz-adv-x="682" 
 />
    <glyph glyph-name="space" unicode=" " horiz-adv-x="389" 
 />
    <glyph glyph-name="comma" unicode="," horiz-adv-x="512" 
d="M225 -164h-123v21l62 368h184v-20z" />
    <glyph glyph-name="hyphen" unicode="-" horiz-adv-x="880" 
d="M758 451h-635v122h635v-122z" />
    <glyph glyph-name="period" unicode="." horiz-adv-x="532" 
d="M369 0h-205v225h205v-225z" />
    <glyph glyph-name="zero" unicode="0" horiz-adv-x="1105" 
d="M553 -20q-111 0 -199.5 38.5t-142 102.5t-81.5 143t-28 166v574q0 87 28 166t81.5 143t142 102.5t199.5 38.5t199.5 -38.5t142 -102.5t81.5 -143t28 -166v-574q0 -87 -28 -166t-81.5 -143t-142 -102.5t-199.5 -38.5zM553 123q123 0 205 82t82 205v614q0 123 -82 205
t-205 82t-205 -82t-82 -205v-614q0 -123 82 -205t205 -82z" />
    <glyph glyph-name="one" unicode="1" horiz-adv-x="778" 
d="M594 0h-164v1229h-20l-267 -266h-41v163l308 308h184v-1434z" />
    <glyph glyph-name="two" unicode="2" horiz-adv-x="1105" 
d="M1004 0h-902v164l390 389q65 65 96.5 97.5t78 84t67.5 84t44.5 76t32 84.5t8.5 86q0 101 -68.5 173.5t-197.5 72.5q-134 0 -200 -82t-66 -225h-164v20q0 188 117 309t313 121q97 0 179 -32t136.5 -85.5t84.5 -124t30 -147.5q0 -83 -21 -154t-70.5 -145t-105 -136.5
t-151.5 -158.5l-307 -307v-21h676v-143z" />
    <glyph glyph-name="three" unicode="3" 
d="M553 -20q-111 0 -202.5 34.5t-149 91t-88.5 125t-31 138.5v20h164q0 -114 80 -190t227 -76t227 76t80 190t-80 190t-227 76h-123v144h123q123 0 194.5 71.5t71.5 194.5q0 101 -68.5 173.5t-197.5 72.5q-131 0 -198.5 -76t-67.5 -191h-164v21q0 77 30 147.5t84.5 124
t136.5 85.5t179 32t179 -32t136.5 -85.5t84.5 -124t30 -147.5q0 -220 -205 -307v-21q112 -48 179 -138.5t67 -209.5q0 -78 -31 -150.5t-88.5 -130.5t-149 -93t-202.5 -35z" />
    <glyph glyph-name="four" unicode="4" horiz-adv-x="1085" 
d="M942 0h-164v307h-696v164l430 963h143v-21l-409 -942v-20h532v471h164v-922z" />
    <glyph glyph-name="five" unicode="5" horiz-adv-x="1187" 
d="M614 -20q-118 0 -211 34.5t-148 91.5t-83.5 124t-28.5 139v20h164q0 -122 84 -194t223 -72q123 0 205 82t82 205v122q0 123 -82 205t-205 82q-100 0 -174.5 -58t-91.5 -126h-164l-20 20l41 779h799v-144h-656l-20 -471h20q43 72 123 108t164 36q83 0 154.5 -25
t121.5 -67.5t85 -98t52 -116.5t17 -124v-102q0 -87 -28 -166t-81.5 -143t-142 -102.5t-199.5 -38.5z" />
    <glyph glyph-name="six" unicode="6" 
d="M573 -20q-111 0 -199 38.5t-141.5 102.5t-81.5 143t-28 166v574q0 87 28 166t81.5 143t141.5 102.5t199 38.5q87 0 158 -22.5t113.5 -55.5t73.5 -77.5t44.5 -80t20.5 -71.5v-21h-164q-8 34 -24.5 64t-44 58.5t-73.5 45.5t-104 17q-123 0 -204.5 -82t-81.5 -205v-205h20
q43 72 123 108t164 36q83 0 154.5 -25t121.5 -67.5t85 -98t52 -116.5t17 -124v-102q0 -87 -28 -166t-81.5 -143t-142 -102.5t-199.5 -38.5zM573 123q123 0 205 82t82 205v122q0 123 -82 205t-205 82t-204.5 -82t-81.5 -205v-122q0 -123 81.5 -205t204.5 -82z" />
    <glyph glyph-name="seven" unicode="7" horiz-adv-x="1044" 
d="M410 0h-164v20l553 1250v20h-697v144h861v-164z" />
    <glyph glyph-name="eight" unicode="8" horiz-adv-x="1146" 
d="M573 -20q-111 0 -202.5 35t-149 93t-88.5 130.5t-31 150.5q0 119 67 209.5t179 138.5v21q-96 48 -150.5 125.5t-54.5 181.5q0 77 30 147.5t84.5 124t136.5 85.5t179 32q193 0 312 -114.5t119 -274.5q0 -220 -205 -307v-21q111 -48 178 -138.5t67 -209.5q0 -78 -31 -150.5
t-88.5 -130.5t-149 -93t-202.5 -35zM573 799q123 0 195 71.5t72 194.5q0 101 -68.5 173.5t-198.5 72.5q-129 0 -197.5 -72.5t-68.5 -173.5q0 -123 71.5 -194.5t194.5 -71.5zM573 123q147 0 227.5 76t80.5 190t-80.5 190t-227.5 76t-227 -76t-80 -190t80 -190t227 -76z" />
    <glyph glyph-name="nine" unicode="9" 
d="M553 1454q111 0 199.5 -38.5t142 -102.5t81.5 -143t28 -166v-574q0 -87 -28 -166t-81.5 -143t-142 -102.5t-199.5 -38.5q-87 0 -158 22.5t-113.5 55.5t-73.5 77.5t-44.5 80t-20.5 71.5v20h164q8 -34 24.5 -64t44 -58.5t73.5 -45t104 -16.5q123 0 205 82t82 205v204h-21
q-43 -72 -122.5 -107.5t-164.5 -35.5q-103 0 -187.5 38t-136 100.5t-79 137.5t-27.5 154v103q0 87 28 166t81.5 143t142 102.5t199.5 38.5zM553 1311q-123 0 -205 -82t-82 -205v-123q0 -123 82 -205t205 -82t205 82t82 205v123q0 123 -82 205t-205 82z" />
    <glyph glyph-name="A" unicode="A" horiz-adv-x="1372" 
d="M205 0h-164v20l532 1414h226l532 -1414v-20h-164l-123 328h-716zM389 492v-21h594v21l-287 778h-20z" />
    <glyph glyph-name="B" unicode="B" horiz-adv-x="1290" 
d="M778 0h-614v1434h573q169 0 279 -110.5t110 -279.5q0 -94 -46.5 -167.5t-137.5 -118.5v-21q110 -32 178 -119.5t68 -207.5q0 -184 -113 -297t-297 -113zM328 1290v-491h389q111 0 178.5 63t67.5 182q0 111 -63.5 178.5t-182.5 67.5h-389zM328 655v-512h430q134 0 200 70
t66 197q0 111 -63.5 178t-182.5 67h-450z" />
    <glyph glyph-name="C" unicode="C" horiz-adv-x="1269" 
d="M655 -20q-246 0 -399.5 153t-153.5 399v369q0 246 153.5 399.5t399.5 153.5q119 0 215 -35t157.5 -96t96.5 -136.5t43 -162.5v-20h-163q-16 134 -103 220.5t-246 86.5q-169 0 -279 -110t-110 -279v-410q0 -169 110 -279t279 -110q159 0 246 86.5t103 220.5h163v-20
q-8 -87 -43 -162.5t-96.5 -136.5t-157.5 -96t-215 -35z" />
    <glyph glyph-name="D" unicode="D" horiz-adv-x="1331" 
d="M676 0h-512v1434h512q246 0 399.5 -153.5t153.5 -399.5v-328q0 -246 -153.5 -399.5t-399.5 -153.5zM328 1290v-1147h348q169 0 279 110t110 279v369q0 169 -110 279t-279 110h-348z" />
    <glyph glyph-name="E" unicode="E" horiz-adv-x="1228" 
d="M1106 0h-942v1434h942v-144h-778v-491h716v-144h-716v-512h778v-143z" />
    <glyph glyph-name="F" unicode="F" 
d="M328 0h-164v1434h880v-144h-716v-491h655v-144h-655v-655z" />
    <glyph glyph-name="G" unicode="G" horiz-adv-x="1290" 
d="M655 -20q-246 0 -399.5 153t-153.5 399v369q0 246 153.5 399.5t399.5 153.5q119 0 215 -35t157.5 -96t96.5 -136.5t43 -162.5v-20h-163q-16 134 -103 220.5t-246 86.5q-169 0 -279 -110t-110 -279v-410q0 -169 110 -279t279 -110q167 0 268 109t101 280v61h-410v144h553
l21 -21v-164q0 -248 -144.5 -400t-388.5 -152z" />
    <glyph glyph-name="H" unicode="H" horiz-adv-x="1351" 
d="M328 0h-164v1434h164v-635h696v635h164v-1434h-164v655h-696v-655z" />
    <glyph glyph-name="I" unicode="I" horiz-adv-x="491" 
d="M328 0h-164v1434h164v-1434z" />
    <glyph glyph-name="J" unicode="J" horiz-adv-x="778" 
d="M307 0h-246v143h226q88 0 126 41.5t38 122.5v1127h163v-1127q0 -138 -84.5 -222.5t-222.5 -84.5z" />
    <glyph glyph-name="K" unicode="K" horiz-adv-x="1331" 
d="M328 0h-164v1434h164v-717h20l717 717h205v-21l-512 -512v-20l532 -861v-20h-184l-471 758h-21l-286 -287v-471z" />
    <glyph glyph-name="L" unicode="L" horiz-adv-x="1085" 
d="M1044 0h-880v1434h164v-1291h716v-143z" />
    <glyph glyph-name="M" unicode="M" horiz-adv-x="1781" 
d="M328 0h-164v1434h266l451 -1188h20l451 1188h266v-1434h-164v1208h-20l-471 -1188h-144l-471 1188h-20v-1208z" />
    <glyph glyph-name="N" unicode="N" horiz-adv-x="1433" 
d="M328 0h-164v1434h225l696 -1188h21v1188h164v-1434h-226l-696 1188h-20v-1188z" />
    <glyph glyph-name="O" unicode="O" horiz-adv-x="1310" 
d="M655 -20q-246 0 -399.5 153t-153.5 399v369q0 246 153.5 399.5t399.5 153.5t399.5 -153.5t153.5 -399.5v-369q0 -246 -153.5 -399t-399.5 -153zM655 123q169 0 279 110t110 279v410q0 169 -110 279t-279 110t-279 -110t-110 -279v-410q0 -169 110 -279t279 -110z" />
    <glyph glyph-name="P" unicode="P" horiz-adv-x="1249" 
d="M328 0h-164v1434h614q184 0 297 -113t113 -297t-113 -297t-297 -113h-450v-614zM328 1290v-532h430q134 0 200 69.5t66 196.5t-66 196.5t-200 69.5h-430z" />
    <glyph glyph-name="Q" unicode="Q" horiz-adv-x="1310" 
d="M1126 -82h-20l-143 143h-21q-60 -45 -126.5 -63t-160.5 -18q-246 0 -399.5 153t-153.5 399v369q0 246 153.5 399.5t399.5 153.5t399.5 -153.5t153.5 -399.5v-369q0 -215 -123 -368v-21l123 -123v-20zM655 123q41 0 63.5 1.5t58 11t63.5 28.5v20l-226 226v20h185l164 -164
h20q61 91 61 246v410q0 169 -110 279t-279 110t-279 -110t-110 -279v-410q0 -169 110 -279t279 -110z" />
    <glyph glyph-name="R" unicode="R" horiz-adv-x="1269" 
d="M328 0h-164v1434h614q184 0 297 -113t113 -297q0 -176 -100.5 -285t-247.5 -125v-20l348 -574v-20h-184l-369 614h-307v-614zM328 1290v-532h430q134 0 200 69.5t66 196.5t-66 196.5t-200 69.5h-430z" />
    <glyph glyph-name="S" unicode="S" horiz-adv-x="1269" 
d="M635 -20q-126 0 -229 35.5t-168.5 95.5t-100.5 137t-35 162v20h164q0 -63 24 -117.5t70.5 -97.5t122 -67.5t172.5 -24.5q162 0 255.5 76.5t93.5 189.5q0 62 -12 101.5t-45.5 67.5t-80.5 44.5t-129 32.5l-205 41q-67 13 -119.5 30.5t-105 48t-87 70.5t-56 101.5
t-21.5 138.5q0 78 31.5 147.5t91 124t155 86t214.5 31.5t214.5 -35.5t155 -95.5t90.5 -136.5t31 -162.5v-20h-163q0 133 -87.5 220t-261.5 87q-145 0 -226 -73t-81 -173q0 -108 57 -162t209 -84l205 -41q59 -12 101 -23.5t90.5 -31.5t81 -47.5t60.5 -66.5t42 -94.5
t14 -125.5q0 -177 -140.5 -293t-391.5 -116z" />
    <glyph glyph-name="T" unicode="T" horiz-adv-x="1187" 
d="M676 0h-164v1290h-471v144h1106v-144h-471v-1290z" />
    <glyph glyph-name="U" unicode="U" horiz-adv-x="1310" 
d="M655 -20q-242 0 -377 139t-135 373v942h164v-963q0 -157 91.5 -252.5t256.5 -95.5t257 95.5t92 252.5v963h163v-942q0 -234 -135 -373t-377 -139z" />
    <glyph glyph-name="V" unicode="V" horiz-adv-x="1290" 
d="M758 0h-226l-491 1413v21h164l430 -1250h20l430 1250h164v-21z" />
    <glyph glyph-name="W" unicode="W" horiz-adv-x="1904" 
d="M635 0h-225l-349 1413v21h164l287 -1209h20l308 1188h225l307 -1188h21l286 1209h164v-21l-348 -1413h-225l-307 1188h-21z" />
    <glyph glyph-name="X" unicode="X" horiz-adv-x="1249" 
d="M225 0h-184v20l471 717v21l-451 655v21h185l368 -553h21l369 553h184v-21l-451 -655v-21l471 -717v-20h-184l-389 614h-21z" />
    <glyph glyph-name="Y" unicode="Y" horiz-adv-x="1228" 
d="M696 0h-164v573l-491 840v21h184l369 -676h41l369 676h184v-21l-492 -840v-573z" />
    <glyph glyph-name="Z" unicode="Z" horiz-adv-x="1269" 
d="M1147 0h-1024v164l819 1106v20h-799v144h983v-164l-819 -1106v-21h840v-143z" />
    <glyph glyph-name="a" unicode="a" horiz-adv-x="1064" 
d="M430 -20q-154 0 -251 85t-97 222q0 149 108.5 238t341.5 89h246v62q0 101 -58.5 163t-187.5 62q-66 0 -115.5 -17t-76.5 -44.5t-40 -58.5t-13 -64h-164v20q0 34 10.5 71.5t39.5 80.5t73 76.5t118 56t168 22.5q95 0 168.5 -23t118 -60.5t73 -89.5t39.5 -104.5t11 -111.5
v-655h-143l-21 123h-20q-47 -63 -135.5 -103t-192.5 -40zM471 123q137 0 222 81.5t85 205.5v61h-286q-246 0 -246 -184q0 -77 59 -120.5t166 -43.5z" />
    <glyph glyph-name="b" unicode="b" 
d="M614 -20q-84 0 -163.5 35.5t-122.5 107.5h-21l-20 -123h-144v1434h164v-533h21q43 72 122.5 107.5t163.5 35.5q103 0 187.5 -38t136 -100.5t79 -137.5t27.5 -154v-204q0 -79 -27.5 -154t-79 -137.5t-136 -100.5t-187.5 -38zM594 123q123 0 205 82t82 205v204
q0 123 -82 205t-205 82t-205 -82t-82 -205v-204q0 -123 82 -205t205 -82z" />
    <glyph glyph-name="c" unicode="c" horiz-adv-x="1024" 
d="M532 -20q-111 0 -199 38.5t-141.5 102.5t-81.5 143t-28 166v164q0 87 28 166t81.5 143t141.5 102.5t199 38.5q87 0 158 -22.5t113.5 -55.5t73.5 -77.5t44.5 -80t20.5 -71.5v-20h-164q-8 34 -24.5 64t-44 58.5t-73.5 45t-104 16.5q-123 0 -204.5 -82t-81.5 -205v-204
q0 -123 81.5 -205t204.5 -82q58 0 104 16.5t73.5 45t44 58.5t24.5 64h164v-20q-7 -36 -20.5 -71.5t-44.5 -80t-73.5 -77.5t-113.5 -55.5t-158 -22.5z" />
    <glyph glyph-name="d" unicode="d" 
d="M512 -20q-103 0 -187.5 38t-136 100.5t-79 137.5t-27.5 154v204q0 79 27.5 154t79 137.5t136 100.5t187.5 38q85 0 164.5 -35.5t122.5 -107.5h20v533h164v-1434h-143l-21 123h-20q-43 -72 -122.5 -107.5t-164.5 -35.5zM532 123q123 0 205 82t82 205v204q0 123 -82 205
t-205 82t-204.5 -82t-81.5 -205v-204q0 -123 81.5 -205t204.5 -82z" />
    <glyph glyph-name="e" unicode="e" horiz-adv-x="1064" 
d="M532 -20q-111 0 -199 38.5t-141.5 102.5t-81.5 143t-28 166v164q0 87 28 166t81.5 143t141.5 102.5t199 38.5t199.5 -38.5t142 -102.5t81.5 -143t28 -166v-123l-20 -20h-717v-41q0 -123 81.5 -205t204.5 -82q113 0 181 56t86 128h164v-20q-7 -35 -22.5 -71.5t-49.5 -80
t-80 -77t-118.5 -56t-160.5 -22.5zM246 614v-20h573v20q0 123 -82 205t-205 82t-204.5 -82t-81.5 -205z" />
    <glyph glyph-name="f" unicode="f" horiz-adv-x="778" 
d="M430 0h-164v881h-184v143h184v143q0 131 75.5 199t190.5 68h205v-144h-184q-66 0 -94.5 -25t-28.5 -98v-143h246v-143h-246v-881z" />
    <glyph glyph-name="g" unicode="g" 
d="M532 -430q-88 0 -160.5 22.5t-118 56t-79.5 77t-49.5 80t-22.5 71.5v21h164q18 -73 86 -129t180 -56q123 0 205 82t82 205v143h-20q-43 -72 -122.5 -107.5t-164.5 -35.5q-103 0 -187.5 38t-136 100.5t-79 137.5t-27.5 154v184q0 79 27.5 154t79 137.5t136 100.5t187.5 38
q85 0 164.5 -35.5t122.5 -107.5h20l21 123h143v-1004q0 -87 -28 -166t-81.5 -143t-142 -102.5t-199.5 -38.5zM532 143q123 0 205 82t82 205v184q0 123 -82 205t-205 82t-204.5 -82t-81.5 -205v-184q0 -123 81.5 -205t204.5 -82z" />
    <glyph glyph-name="h" unicode="h" 
d="M307 0h-164v1434h164v-533h21q43 72 122.5 107.5t163.5 35.5q83 0 150.5 -23t111 -61t73.5 -89t42.5 -105t12.5 -111v-655h-164v655q0 111 -63.5 178.5t-182.5 67.5q-123 0 -205 -82t-82 -205v-614z" />
    <glyph glyph-name="i" unicode="i" horiz-adv-x="450" 
d="M307 1188h-164v184h164v-184zM307 0h-164v1024h164v-1024z" />
    <glyph glyph-name="j" unicode="j" horiz-adv-x="450" 
d="M307 1188h-164v184h164v-184zM41 -410h-143v144h122q73 0 98 28.5t25 94.5v1167h164v-1167q0 -123 -71.5 -195t-194.5 -72z" />
    <glyph glyph-name="k" unicode="k" horiz-adv-x="1105" 
d="M307 0h-164v1434h164v-922h21l512 512h204v-20l-348 -349v-20l369 -615v-20h-184l-308 512h-20l-246 -246v-266z" />
    <glyph glyph-name="l" unicode="l" horiz-adv-x="450" 
d="M307 0h-164v1434h164v-1434z" />
    <glyph glyph-name="m" unicode="m" horiz-adv-x="1658" 
d="M307 0h-164v1024h144l20 -102h21q33 50 106 86t160 36q191 0 287 -143h20q49 65 127 104t180 39q140 0 234 -98t94 -250v-696h-164v676q0 225 -205 225q-101 0 -173 -68t-72 -198v-635h-164v676q0 225 -205 225q-101 0 -173.5 -68.5t-72.5 -197.5v-635z" />
    <glyph glyph-name="n" unicode="n" 
d="M307 0h-164v1024h144l20 -123h21q43 72 122.5 107.5t163.5 35.5q83 0 150.5 -23t111 -61t73.5 -89t42.5 -105t12.5 -111v-655h-164v655q0 111 -63.5 178.5t-182.5 67.5q-123 0 -205 -82t-82 -205v-614z" />
    <glyph glyph-name="o" unicode="o" horiz-adv-x="1064" 
d="M532 -20q-111 0 -199 38.5t-141.5 102.5t-81.5 143t-28 166v164q0 87 28 166t81.5 143t141.5 102.5t199 38.5t199.5 -38.5t142 -102.5t81.5 -143t28 -166v-164q0 -87 -28 -166t-81.5 -143t-142 -102.5t-199.5 -38.5zM532 123q123 0 205 82t82 205v204q0 123 -82 205
t-205 82t-204.5 -82t-81.5 -205v-204q0 -123 81.5 -205t204.5 -82z" />
    <glyph glyph-name="p" unicode="p" 
d="M614 1044q103 0 187.5 -38t136 -100.5t79 -137.5t27.5 -154v-204q0 -79 -27.5 -154t-79 -137.5t-136 -100.5t-187.5 -38q-84 0 -163.5 35.5t-122.5 107.5h-21v-533h-164v1434h144l20 -123h21q43 72 122.5 107.5t163.5 35.5zM594 901q-123 0 -205 -82t-82 -205v-204
q0 -123 82 -205t205 -82t205 82t82 205v204q0 123 -82 205t-205 82z" />
    <glyph glyph-name="q" unicode="q" 
d="M512 1044q85 0 164.5 -35.5t122.5 -107.5h20l21 123h143v-1434h-164v533h-20q-43 -72 -122.5 -107.5t-164.5 -35.5q-103 0 -187.5 38t-136 100.5t-79 137.5t-27.5 154v204q0 79 27.5 154t79 137.5t136 100.5t187.5 38zM532 901q-123 0 -204.5 -82t-81.5 -205v-204
q0 -123 81.5 -205t204.5 -82t205 82t82 205v204q0 123 -82 205t-205 82z" />
    <glyph glyph-name="r" unicode="r" horiz-adv-x="737" 
d="M307 0h-164v1024h144l20 -123h21q62 123 286 123h62v-143h-103q-111 0 -188.5 -73.5t-77.5 -193.5v-614z" />
    <glyph glyph-name="s" unicode="s" horiz-adv-x="983" 
d="M492 -20q-94 0 -168.5 22.5t-118.5 56t-73 76.5t-39.5 80.5t-10.5 71.5v20h164q0 -33 13 -64t40.5 -58.5t77 -44.5t115.5 -17q128 0 186.5 47t58.5 117q0 61 -33.5 94.5t-109.5 48.5l-205 41q-152 30 -219.5 94t-67.5 172q0 40 10.5 79.5t38.5 81.5t70.5 73.5t112.5 52
t158 20.5t158 -22.5t112 -56t70 -76.5t38.5 -80.5t10.5 -71.5v-20h-164q0 33 -12.5 64t-38 58.5t-70.5 44.5t-104 17q-114 0 -170 -47.5t-56 -116.5q0 -95 144 -123l204 -41q154 -31 220.5 -97t66.5 -189q0 -40 -10.5 -79.5t-39.5 -81.5t-73 -73.5t-118 -52t-168 -20.5z" />
    <glyph glyph-name="t" unicode="t" horiz-adv-x="757" 
d="M655 0h-143q-123 0 -194.5 71.5t-71.5 194.5v615h-185v143h185v287h164v-287h225v-143h-225v-615q0 -66 24.5 -94.5t97.5 -28.5h123v-143z" />
    <glyph glyph-name="u" unicode="u" horiz-adv-x="1105" 
d="M492 -20q-77 0 -140 20.5t-105 55.5t-70.5 83t-41 100t-12.5 109v676h164v-676q0 -107 59 -166t166 -59q123 0 205 82t82 205v614h164v-1024h-144l-20 123h-21q-43 -72 -122.5 -107.5t-163.5 -35.5z" />
    <glyph glyph-name="v" unicode="v" horiz-adv-x="1044" 
d="M635 0h-225l-369 1004v20h164l307 -840h20l308 840h164v-20z" />
    <glyph glyph-name="w" unicode="w" horiz-adv-x="1576" 
d="M573 0h-225l-287 1004v20h164l226 -860h20l205 840h225l205 -840h20l226 860h164v-20l-287 -1004h-225l-205 840h-21z" />
    <glyph glyph-name="x" unicode="x" horiz-adv-x="1003" 
d="M225 0h-184v20l328 492v20l-308 472v20h185l246 -389h20l246 389h184v-20l-307 -472v-20l328 -492v-20h-185l-266 410h-20z" />
    <glyph glyph-name="y" unicode="y" horiz-adv-x="1044" 
d="M246 -410h-144v144h144q36 0 61.5 9.5t41.5 30.5t23 37t17 46l41 123v20l-389 1004v20h164l307 -819h20l308 819h164v-20l-410 -1065q-30 -77 -47.5 -119t-42 -88.5t-46 -68t-53.5 -41t-69.5 -26t-89.5 -6.5z" />
    <glyph glyph-name="z" unicode="z" horiz-adv-x="1003" 
d="M901 0h-799v164l574 696v21h-553v143h758v-164l-574 -696v-21h594v-143z" />
    </font>
</defs>
</svg>
