<svg width="1029" height="943" viewBox="0 0 1029 943" fill="none" xmlns="http://www.w3.org/2000/svg">
<mask id="mask0_132_16372" style="mask-type:alpha" maskUnits="userSpaceOnUse" x="0" y="0" width="1029" height="943">
<path d="M590.885 179.963C621.799 162.621 659.512 162.621 690.426 179.963L711.856 191.983C726.709 200.309 743.379 204.776 760.366 204.983L784.936 205.286C820.379 205.725 853.039 224.581 871.141 255.056L883.689 276.183C892.373 290.802 904.582 303.011 919.201 311.694L940.326 324.242C970.802 342.345 989.658 375.004 990.097 410.447L990.401 435.017C990.616 452.035 995.087 468.722 1003.4 483.528L1015.42 504.958C1023.95 520.133 1028.43 537.282 1028.43 554.728C1028.43 572.175 1023.95 589.323 1015.42 604.498L1003.4 625.929C995.087 640.734 990.616 657.421 990.401 674.439L990.097 699.009C989.658 734.452 970.802 767.111 940.326 785.214L919.201 797.762C904.582 806.446 892.373 818.654 883.689 833.274L871.14 854.4C853.039 884.875 820.379 903.73 784.936 904.17L760.366 904.474C743.379 904.681 726.709 909.147 711.856 917.473L690.426 929.494C659.512 946.835 621.799 946.835 590.885 929.494L569.454 917.473C554.601 909.147 537.931 904.681 520.944 904.474L496.375 904.17C460.932 903.73 428.272 884.875 410.169 854.4L397.621 833.274C388.938 818.654 376.729 806.446 362.109 797.762L340.983 785.213C310.508 767.111 291.653 734.452 291.212 699.009L290.909 674.439C290.694 657.421 286.223 640.734 277.911 625.929L265.89 604.498C257.365 589.323 252.884 572.175 252.884 554.728C252.884 537.282 257.365 520.133 265.89 504.958L277.911 483.528C286.223 468.722 290.694 452.035 290.909 435.017L291.213 410.447C291.653 375.004 310.508 342.345 340.984 324.242L362.11 311.694C376.729 303.011 388.938 290.802 397.621 276.183L410.17 255.056C428.272 224.581 460.932 205.725 496.375 205.286L520.944 204.983C537.931 204.776 554.601 200.309 569.454 191.983L590.885 179.963Z" fill="#FFD9DD"/>
<path d="M34.0528 544.553L0 941.659H539.717H615.421C644.862 941.659 978.487 695.201 978.487 695.201V255.278L671.553 0.5L348.447 97.9069L136.211 303.808L34.0528 544.553Z" fill="#FFD9DD"/>
</mask>
<g mask="url(#mask0_132_16372)">
<path d="M590.885 179.963C621.799 162.621 659.512 162.621 690.426 179.963L711.856 191.983C726.709 200.309 743.379 204.776 760.366 204.983L784.936 205.286C820.379 205.725 853.039 224.581 871.141 255.056L883.69 276.183C892.373 290.802 904.582 303.011 919.201 311.694L940.326 324.242C970.802 342.345 989.658 375.004 990.097 410.447L990.401 435.017C990.616 452.035 995.087 468.722 1003.4 483.528L1015.42 504.958C1023.95 520.133 1028.43 537.282 1028.43 554.728C1028.43 572.175 1023.95 589.323 1015.42 604.498L1003.4 625.929C995.087 640.734 990.616 657.421 990.401 674.439L990.097 699.009C989.658 734.452 970.802 767.111 940.326 785.214L919.201 797.762C904.582 806.446 892.373 818.654 883.69 833.274L871.14 854.4C853.039 884.875 820.379 903.73 784.936 904.17L760.366 904.474C743.379 904.681 726.709 909.147 711.856 917.473L690.426 929.494C659.512 946.835 621.799 946.835 590.885 929.494L569.455 917.473C554.601 909.147 537.931 904.681 520.944 904.474L496.375 904.17C460.932 903.73 428.272 884.875 410.169 854.4L397.621 833.274C388.938 818.654 376.729 806.446 362.109 797.762L340.983 785.213C310.508 767.111 291.653 734.452 291.212 699.009L290.909 674.439C290.694 657.421 286.223 640.734 277.911 625.929L265.89 604.498C257.365 589.323 252.884 572.175 252.884 554.728C252.884 537.282 257.365 520.133 265.89 504.958L277.911 483.528C286.223 468.722 290.694 452.035 290.909 435.017L291.213 410.447C291.653 375.004 310.508 342.345 340.984 324.242L362.11 311.694C376.729 303.011 388.938 290.802 397.621 276.183L410.17 255.056C428.272 224.581 460.932 205.725 496.375 205.286L520.944 204.983C537.931 204.776 554.601 200.309 569.455 191.983L590.885 179.963Z" fill="#FFD9DD"/>
<path d="M230.935 511.517H205.665V941.019H230.935V511.517Z" fill="#FFBE21"/>
<path d="M230.946 517.423H205.665" stroke="#A15842" stroke-width="4" stroke-miterlimit="10"/>
<path d="M90.9922 854.837C93.552 847.496 98.3325 841.133 104.671 836.63C111.009 832.127 118.592 829.708 126.366 829.708C134.141 829.708 141.724 832.127 148.062 836.63C154.4 841.133 159.181 847.496 161.741 854.837C164.184 847.828 168.654 841.703 174.584 837.239C180.513 832.774 187.636 830.172 195.047 829.762C191.738 823.865 187.798 818.345 183.297 813.3L169.694 798C165.466 793.246 162.802 787.307 162.066 780.987C161.33 774.668 162.556 768.275 165.579 762.677L177.123 741.224C173.882 744.485 155.145 762.028 126.706 762.028C98.2667 762.028 79.53 744.485 76.2889 741.224H76.2375L87.7922 762.677C90.8015 768.286 92.0091 774.687 91.2506 781.008C90.492 787.328 87.8043 793.261 83.5531 798L69.9611 813.238C65.4512 818.284 61.5011 823.804 58.1799 829.701C65.5115 830.211 72.5311 832.866 78.3652 837.336C84.1993 841.805 88.5905 847.891 90.9922 854.837Z" fill="#4756DF"/>
<path d="M197.115 876.517C189.338 876.518 181.754 878.94 175.415 883.446C169.077 887.952 164.298 894.319 161.741 901.663C159.186 894.317 154.407 887.949 148.068 883.442C141.729 878.935 134.144 876.514 126.366 876.514C118.589 876.514 111.004 878.935 104.665 883.442C98.3258 887.949 93.5472 894.317 90.9922 901.663C87.8983 892.787 81.5822 885.397 73.296 880.959C65.0097 876.52 55.3582 875.357 46.2548 877.7C46.7774 901.444 56.3464 924.093 73.0067 941.02H180.21C196.836 924.129 206.403 901.538 206.962 877.844C203.753 876.964 200.442 876.518 197.115 876.517Z" fill="#4756DF"/>
<path d="M126.624 762.07C155.063 762.07 173.8 744.527 177.041 741.265H76.2067C79.4478 744.496 98.1844 762.07 126.624 762.07Z" fill="#30242A"/>
<path d="M90.9923 901.663C93.5472 894.317 98.3259 887.949 104.665 883.442C111.004 878.935 118.589 876.514 126.367 876.514C134.144 876.514 141.729 878.935 148.068 883.442C154.407 887.949 159.186 894.317 161.741 901.663C164.86 892.693 171.272 885.242 179.677 880.82C188.082 876.398 197.853 875.334 207.013 877.844C207.436 861.033 203.309 844.421 195.067 829.762C187.656 830.172 180.534 832.775 174.604 837.239C168.675 841.703 164.204 847.828 161.761 854.837C159.202 847.496 154.421 841.133 148.083 836.63C141.744 832.128 134.162 829.708 126.387 829.708C118.612 829.708 111.03 832.128 104.692 836.63C98.3531 841.133 93.5726 847.496 91.0128 854.837C88.5963 847.909 84.1987 841.842 78.3658 837.39C72.5328 832.938 65.5211 830.297 58.2006 829.793C49.9963 844.402 45.877 860.95 46.2754 877.7C55.3789 875.357 65.0303 876.52 73.3166 880.958C81.6028 885.397 87.9189 892.787 91.0128 901.663H90.9923Z" fill="#3EC1F3"/>
<path d="M134.094 759.127C136.151 746.533 145.504 696.61 169.025 669.477" stroke="#30242A" stroke-width="4" stroke-miterlimit="10" stroke-linecap="round"/>
<path d="M123.238 759.487C123.084 745.185 121.613 674.961 107.65 633.064" stroke="#30242A" stroke-width="4" stroke-miterlimit="10" stroke-linecap="round"/>
<path d="M185.123 710.351C205.747 701.276 220.81 690.159 218.769 685.519C216.727 680.88 198.354 684.475 177.731 693.549C157.107 702.624 142.044 713.741 144.085 718.381C146.127 723.02 164.5 719.425 185.123 710.351Z" fill="#30242A"/>
<path d="M185.111 582.697C192.526 572.673 195.703 562.452 192.208 559.867C188.713 557.282 179.869 563.311 172.455 573.335C165.041 583.358 161.864 593.58 165.359 596.165C168.854 598.75 177.697 592.72 185.111 582.697Z" fill="#30242A"/>
<path d="M73.4541 717.476C100.339 713.41 121.552 706.265 120.834 701.517C120.116 696.77 97.7392 696.217 70.8538 700.283C43.9685 704.349 22.7557 711.494 23.4737 716.242C24.1917 720.99 46.5687 721.542 73.4541 717.476Z" fill="#30242A"/>
<path d="M54.6712 647.345V647.417C58.6436 649.639 61.6397 653.268 63.0688 657.589C64.4978 661.91 64.2562 666.609 62.3914 670.761C60.5267 674.913 57.1742 678.215 52.9949 680.018C48.8156 681.82 44.1128 681.991 39.8136 680.497V680.559C62.3469 690.683 83.9645 691.455 88.0802 682.287C92.1959 673.12 77.2148 657.47 54.6712 647.345Z" fill="#FF7235"/>
<path d="M121.294 573.963C116.499 572.718 110.264 579.972 105.706 591.197C100.221 577.564 92.2679 568.437 86.9073 570.207C81.5466 571.977 80.5897 584.036 84.3041 598.255C73.9532 591.958 64.6312 589.839 61.5135 593.697C57.5419 598.616 65.1971 611.374 78.6142 622.209C82.4313 625.318 86.5384 628.054 90.8789 630.378C91.6187 627.439 93.0811 624.732 95.1332 622.502C97.1852 620.272 99.762 618.59 102.629 617.608C105.497 616.627 108.564 616.377 111.552 616.883C114.54 617.388 117.355 618.631 119.74 620.501C121.751 616.172 123.356 611.667 124.535 607.042C128.867 590.364 127.416 575.547 121.294 573.963Z" fill="#FF7235"/>
<path d="M225.894 649.701C224.412 644.968 214.956 643.528 203.021 645.586C211.684 633.722 215.224 622.147 210.892 618.535C206.56 614.924 195.808 620.49 185.704 631.16C185.581 619.04 182.443 610.006 177.524 609.399C171.258 608.627 164.467 621.879 162.368 638.98C161.746 643.869 161.595 648.807 161.916 653.725C164.802 652.794 167.876 652.601 170.856 653.161C173.837 653.721 176.63 655.018 178.982 656.933C181.334 658.848 183.169 661.321 184.322 664.127C185.474 666.932 185.907 669.981 185.581 672.996C190.32 672.397 194.993 671.363 199.543 669.909C215.975 664.796 227.777 655.731 225.894 649.701Z" fill="#FF7235"/>
<path d="M179.119 657.038C176.766 655.075 173.955 653.739 170.947 653.154C167.939 652.57 164.832 652.755 161.916 653.694C162.502 661.832 164.56 668.098 167.657 670.372C170.548 673.048 177.236 673.943 185.56 672.965C185.885 669.985 185.466 666.971 184.342 664.191C183.218 661.412 181.424 658.955 179.119 657.038Z" fill="#30242A"/>
<path d="M102.814 617.548C99.905 618.508 97.2854 620.187 95.1988 622.43C93.1122 624.673 91.6262 627.407 90.8789 630.378C98.0813 634.185 104.481 635.729 108.082 634.329C111.879 633.3 116.17 628.084 119.74 620.501C117.382 618.65 114.602 617.411 111.649 616.896C108.695 616.381 105.66 616.605 102.814 617.548Z" fill="#30242A"/>
<path d="M56.6778 677.894C54.743 676.815 53.2839 675.049 52.5895 672.945C51.8951 670.841 52.016 668.553 52.9283 666.535C53.8407 664.516 55.4778 662.913 57.5157 662.044C59.5535 661.175 61.8433 661.103 63.9317 661.843C63.6901 658.866 62.7188 655.994 61.1037 653.482C59.4886 650.969 57.2794 648.893 54.6714 647.438L39.783 680.497C42.5969 681.48 45.6092 681.756 48.555 681.302C51.5008 680.848 54.2901 679.678 56.6778 677.894Z" fill="#F5EBDD"/>
<path d="M52.8913 666.545C51.994 668.563 51.8849 670.845 52.5858 672.939C53.2866 675.034 54.7464 676.791 56.6778 677.863C59.1508 676.024 61.1145 673.585 62.3837 670.777C63.6529 667.969 64.1856 664.883 63.9316 661.812C61.8336 661.065 59.5308 661.137 57.4839 662.015C55.437 662.892 53.7967 664.51 52.8913 666.545Z" fill="#4856DF"/>
<path d="M732.863 683.152H471.178L475.603 665.598H590.471L634.282 494.262C640.251 470.924 653.819 450.237 672.846 435.463C691.873 420.689 715.277 412.67 739.366 412.669C798.313 412.669 841.445 468.231 826.824 525.336L799.753 631.201C795.954 646.058 787.318 659.228 775.207 668.634C763.096 678.04 748.198 683.148 732.863 683.152Z" fill="#FFB7D5"/>
<path d="M473.205 845.299V863.881H639.983V845.299H473.205Z" fill="#A15842"/>
<path d="M667.455 931.039L624.076 672.831H489.102L445.723 931.039C445.518 932.267 445.583 933.525 445.914 934.725C446.245 935.926 446.833 937.04 447.638 937.99C448.443 938.939 449.445 939.702 450.575 940.226C451.705 940.749 452.935 941.02 454.18 941.019C456.137 941.017 458.034 940.347 459.557 939.12C461.08 937.892 462.138 936.181 462.556 934.269L519.373 672.831H593.846L650.642 934.269C651.058 936.182 652.116 937.894 653.639 939.122C655.163 940.35 657.061 941.019 659.018 941.019C660.261 941.017 661.489 940.744 662.616 940.219C663.744 939.695 664.743 938.931 665.546 937.982C666.349 937.032 666.935 935.919 667.265 934.72C667.594 933.521 667.659 932.265 667.455 931.039Z" fill="#A15842"/>
<path d="M611.368 845.299V863.881H778.146V845.299H611.368Z" fill="#FFBE21"/>
<path d="M805.618 931.039L762.198 672.831H627.275L583.896 931.039C583.691 932.267 583.757 933.525 584.087 934.725C584.418 935.926 585.007 937.04 585.812 937.99C586.617 938.939 587.619 939.702 588.749 940.226C589.879 940.749 591.109 941.02 592.354 941.019C594.31 941.019 596.206 940.349 597.728 939.121C599.25 937.893 600.305 936.181 600.719 934.269L657.515 672.831H731.999L788.795 934.269C789.211 936.183 790.271 937.897 791.796 939.125C793.322 940.353 795.222 941.022 797.181 941.019C798.424 941.017 799.652 940.744 800.78 940.219C801.907 939.695 802.907 938.931 803.709 937.982C804.512 937.032 805.099 935.919 805.428 934.72C805.758 933.521 805.823 932.265 805.618 931.039Z" fill="#FFBE21"/>
<path d="M669.297 631.201L685.842 566.493H576.19C554.687 566.493 533.796 573.651 516.811 586.837C499.826 600.023 487.714 618.488 482.383 639.32L471.178 683.151H602.396C617.733 683.15 632.633 678.043 644.746 668.637C656.859 659.231 665.497 646.06 669.297 631.201Z" fill="#FFB7D5"/>
<path d="M478.308 663.88H617.521" stroke="#A15842" stroke-width="4" stroke-linecap="round" stroke-linejoin="round"/>
<path d="M590.965 663.232L615.36 567.851" stroke="#A15842" stroke-width="4" stroke-linecap="round" stroke-linejoin="round"/>
<path d="M814.673 564.281H748.822" stroke="#A15842" stroke-width="4" stroke-linecap="round" stroke-linejoin="round"/>
<path d="M827.02 517.979H742.648" stroke="#A15842" stroke-width="4" stroke-linecap="round" stroke-linejoin="round"/>
<path d="M519.692 497.071C519.692 497.071 437.141 519.553 402.076 537.096C344.261 565.999 344.456 585.075 309.205 691.867C276.661 790.561 273.08 838.395 228.188 840.288C193.915 841.729 182.679 852.944 177.123 868.316L312.745 932.665C314.299 933.4 316.076 933.514 317.712 932.982C319.347 932.45 320.718 931.313 321.542 929.804C322.382 928.261 322.587 926.452 322.112 924.76C321.637 923.069 320.521 921.63 319.001 920.75L316.151 919.103C328.755 903.834 353.068 871.3 377.31 821.881L392.743 829.083C392.743 829.083 417.674 796.683 421.625 759.93C426.77 712.466 423.683 680.476 445.362 661.904L698.168 497.03L519.692 497.071Z" fill="#FF7235"/>
<path d="M214.864 847.912C217.549 842.325 232.469 808.289 241.05 812.404C252.214 817.755 223.239 851.925 223.239 851.925L214.864 847.912Z" fill="#30242A"/>
<path d="M177.113 868.8L312.735 933.138C314.305 933.887 316.104 933.999 317.755 933.45C319.406 932.902 320.78 931.735 321.589 930.195C322.399 928.655 322.58 926.861 322.096 925.191C321.611 923.52 320.498 922.102 318.991 921.233L316.14 919.587L316.429 919.237L223.208 875.23C224.605 871.36 225.585 867.352 226.131 863.274C240.083 865.692 268.316 868.295 268.46 856.658C268.615 845.814 237.778 850.166 226.511 853.232C226.268 849.064 225.458 844.948 224.104 840.998C193.02 843.138 182.443 854.045 177.113 868.8Z" fill="#30242A"/>
<path d="M402.076 537.096C395.583 540.338 389.832 543.455 384.677 546.583L376.765 571.925L407.221 550.472L435.3 572.862L424.949 542.169L456.753 527.6L432.172 524.513C421.923 528.17 411.877 532.37 402.076 537.096Z" fill="#FFB7D5"/>
<path d="M491.808 523.906L489.75 537.313L503.167 532.158L491.808 523.906Z" fill="#FFB7D5"/>
<path d="M414.423 590.971L394.822 616.766L366.959 603.359L383.462 631.212L357.667 652.881L390.685 648.755L402.045 686.938L413.394 648.755L449.509 638.435L414.423 623.989V590.971Z" fill="#FFB7D5"/>
<path d="M304.226 787.926L306.633 781.053L339.559 779.304L312.807 761.092L324.722 732.56L297.774 750.525L292.63 744.969C288.514 758.52 284.872 770.589 281.312 781.197H281.476C281.867 780.035 282.258 778.862 282.649 777.668L304.226 787.926Z" fill="#FFB7D5"/>
<path d="M304.225 787.927L282.618 777.709C282.227 778.903 281.836 780.076 281.445 781.239C268.388 820.132 256.494 839.578 228.209 840.772C226.82 840.772 225.482 840.906 224.165 840.998C225.52 844.948 226.33 849.064 226.573 853.232C237.891 850.145 268.676 845.814 268.522 856.658C268.357 868.296 240.144 865.692 226.192 863.274C225.636 867.354 224.646 871.362 223.239 875.23L316.459 919.237C329.136 903.804 353.243 871.434 377.299 822.426L304.225 787.927Z" fill="#EAA58B"/>
<path d="M386.56 709.636L383.473 737.499L354.581 736.47L379.347 755.053L370.087 788.071L394.873 766.391L417.15 781.249C417.767 779.28 418.333 777.287 418.847 775.271L410.307 754.003L423.539 739.506C423.755 736.81 423.961 734.155 424.156 731.573L401.047 735.431L386.56 709.636Z" fill="#FFB7D5"/>
<path d="M322.201 651.718C319.598 659.764 316.799 668.5 313.712 677.997L341.164 679.674L322.201 651.718Z" fill="#FFB7D5"/>
<path d="M419.135 903.083C419.567 896.91 420.915 859.766 430.402 860.434C442.749 861.299 428.396 903.731 428.396 903.731L419.135 903.083Z" fill="#30242A"/>
<path d="M647.648 498.584C647.648 498.584 544.458 517.722 487.703 541.449C430.402 565.412 430.958 607.968 441.267 723.568C450.528 827.056 467.073 877.309 433.036 892.784C401.819 906.983 390.974 924.783 392.455 941.061H546.125C546.991 941.061 547.848 940.89 548.649 940.559C549.449 940.227 550.176 939.741 550.788 939.129C551.401 938.517 551.887 937.789 552.218 936.989C552.549 936.189 552.72 935.331 552.72 934.465C552.72 932.716 552.025 931.038 550.788 929.802C549.551 928.565 547.874 927.87 546.125 927.87H543.532C548.378 912.014 555.406 881.064 556.373 829.845H575.428C575.428 829.845 585.224 784.572 574.399 744.197C563.081 701.899 552.73 694.676 546.546 665.783H639.016C709.63 665.783 762.486 600.468 747.124 531.551C742.329 510.015 735.374 498.625 735.374 498.625L647.648 498.584Z" fill="#FF7235"/>
<path d="M583.67 558.982L564.727 582.811L535.228 572.676L552.71 601.291L530.012 632.251L559.933 619.863L576.611 650.607L578.505 616.766L607.397 610.582L582.641 595.097L583.67 558.982Z" fill="#FFB7D5"/>
<path d="M542.451 742.932L559.943 771.546L537.245 802.506L567.166 790.159L578.258 810.604C579.884 794.717 580.686 771.217 575.5 748.653L571.961 753.108L542.451 742.932Z" fill="#FFB7D5"/>
<path d="M465.303 829.803L463.975 813.855L497.477 800.932L465.766 794.357L469.264 759.549L448.686 786.476L448.068 786.218C450.044 802.835 451.772 817.354 452.74 829.917V829.803H465.303Z" fill="#FFB7D5"/>
<path d="M546.125 927.829H543.532C548.378 911.973 555.406 881.023 556.373 829.804H452.709V829.896C452.791 830.925 452.863 831.954 452.935 832.983C452.935 833.076 452.935 833.179 452.935 833.271C455.086 865.425 451.577 884.234 432.995 892.681C401.778 906.88 390.933 924.68 392.414 940.958H546.125C547.874 940.958 549.551 940.263 550.788 939.026C552.025 937.789 552.72 936.112 552.72 934.362C552.72 932.613 552.025 930.936 550.788 929.699C549.551 928.462 547.874 927.767 546.125 927.767V927.829Z" fill="#EAA58B"/>
<path d="M683.712 501.249L636.309 505.447L641.248 524.502L610.926 540.677L648.697 545.729L661.477 574.035L674.616 544.721L713.036 538.65L679.668 521.467L683.712 501.249Z" fill="#FFB7D5"/>
<path d="M457.782 635.338L469.1 599.223L502.118 604.367L476.323 581.669L494.843 560L460.796 572.347L455.353 563.015C446.597 572.934 441.309 585.25 438.479 601.085L444.282 601.27L457.782 635.338Z" fill="#FFB7D5"/>
<path d="M546.125 522.043C539.159 523.978 532.224 526.005 525.454 528.093L552.73 546.614L546.125 522.043Z" fill="#FFB7D5"/>
<path d="M501.12 688.996L486.674 659.075L479.451 692.093L452.627 690.035L477.382 711.704L461.907 747.819L488.773 722.775L511.038 748.447L504.217 709.636L526.915 679.715L501.12 688.996Z" fill="#FFB7D5"/>
<path d="M439.868 915.76C453.511 911.994 480.14 902.301 475.324 891.714C470.838 881.836 444.807 898.916 435.927 906.52C433.686 902.407 430.822 898.666 427.439 895.428C400.501 909.144 391.046 925.75 392.455 941.02H546.124C547.874 941.02 549.551 940.325 550.788 939.088C552.025 937.851 552.72 936.173 552.72 934.424C552.72 932.675 552.025 930.997 550.788 929.761C549.551 928.524 547.874 927.829 546.124 927.829H442.306C441.92 923.731 441.103 919.686 439.868 915.76Z" fill="#30242A"/>
<path d="M546.125 668.057L519.558 667.687" stroke="#A15842" stroke-width="4" stroke-miterlimit="10" stroke-linecap="round"/>
<path d="M565.88 517.537C538.356 524.554 508.939 533.166 486.653 542.467C439.117 562.377 431.41 595.055 436.03 671.689" stroke="#A15842" stroke-width="4" stroke-miterlimit="10" stroke-linecap="round"/>
<path d="M915.178 511.517H889.907V941.019H915.178V511.517Z" fill="#FFBE21"/>
<path d="M915.178 517.423H889.907" stroke="#A15842" stroke-width="4" stroke-miterlimit="10"/>
<path d="M548.584 188.55C534.179 186.492 501.181 201.977 500.091 232.588C499 263.198 526.328 273.035 530.701 275.226L594.113 265.379L598.486 195.413L548.584 188.55Z" fill="#A15842"/>
<path d="M660.613 112.533C687.832 112.533 709.898 90.4675 709.898 63.248C709.898 36.0285 687.832 13.9627 660.613 13.9627C633.393 13.9627 611.327 36.0285 611.327 63.248C611.327 90.4675 633.393 112.533 660.613 112.533Z" fill="#A15842"/>
<path d="M628.644 97.1406C631.648 98.5297 606.347 38.4922 593.434 47.8554C581.283 56.6938 613.385 90.1028 628.644 97.1406Z" fill="#30242A"/>
<path d="M630.043 100.814C632.801 104.106 697.355 81.5216 688.424 68.4955C679.884 55.9632 627.286 97.511 630.043 100.814Z" fill="#30242A"/>
<path d="M715.742 265.935C715.742 265.935 759.08 229.82 731.176 189.579C713.417 163.928 665.129 174.145 665.129 174.145C666.302 160.059 670.13 119.478 639.612 97.1818C609.094 74.8851 570.376 86.625 556.27 104.22C542.163 121.814 545.713 154.688 541.021 178.158C536.329 201.627 539.457 217.586 553.924 225.097C567.084 231.929 582.569 227.803 582.569 227.803L580.923 252.569C580.923 252.569 551.084 253.691 532.8 260.307C488.742 276.255 411.336 385.629 411.336 385.629C362.843 383.571 317.437 381.513 317.437 381.513L341.174 451.686C341.174 451.686 401.016 471.287 444.354 459.917C488.32 448.404 530.001 386.658 530.001 386.658L544.406 427.928L519.64 497.061H735.302L699.187 433.083C705.432 376.348 715.742 265.935 715.742 265.935Z" fill="#EAA58B"/>
<path d="M646.444 249.997L589.854 352.611L566.703 253.598C556.527 254.627 542.966 256.623 532.903 260.266C488.742 276.255 411.336 385.629 411.336 385.629C362.843 383.571 317.437 381.513 317.437 381.513L341.174 451.686C341.174 451.686 401.016 471.287 444.354 459.917C488.32 448.403 530.001 386.658 530.001 386.658L544.406 427.928L519.64 497.061H735.302L699.187 433.093C705.36 376.338 715.649 265.925 715.649 265.925C706.095 260.108 695.634 255.935 684.7 253.578C672.383 250.799 658.843 252.456 646.444 249.997Z" fill="#4756DF"/>
<path d="M353.377 489.849H532.08L491.448 361.522C490.253 357.74 487.885 354.437 484.686 352.093C481.487 349.749 477.624 348.485 473.658 348.485H322.633C319.698 348.483 316.805 349.174 314.187 350.501C311.57 351.828 309.302 353.753 307.569 356.121C305.836 358.489 304.685 361.232 304.212 364.129C303.738 367.025 303.954 369.992 304.843 372.788L338.427 478.911C339.434 482.086 341.426 484.857 344.114 486.823C346.802 488.79 350.046 489.849 353.377 489.849Z" fill="#30242A"/>
<path d="M380.005 406.537C384.749 400.055 406.263 417.176 407.848 418.585C408.671 417.176 419.876 400.065 428.087 406.537C435.217 412.155 419.547 437.25 415.38 443.65C415.205 443.844 414.991 443.999 414.753 444.105C414.515 444.211 414.257 444.266 413.996 444.266C413.735 444.266 413.477 444.211 413.238 444.105C413 443.999 412.786 443.844 412.612 443.65C405.008 437.25 375.89 412.155 380.005 406.537Z" fill="#A15842"/>
<path d="M406.075 410.877C407.871 410.317 407.939 405.408 406.227 399.912C404.516 394.416 401.672 390.414 399.876 390.974C398.08 391.533 398.012 396.442 399.724 401.938C401.436 407.434 404.279 411.436 406.075 410.877Z" fill="#A15842"/>
<path d="M635.846 475.402C636.364 477.062 636.484 478.821 636.197 480.536C635.91 482.251 635.225 483.875 634.196 485.276C633.167 486.678 631.823 487.818 630.272 488.605C628.722 489.392 627.008 489.804 625.269 489.807H353.377C350.046 489.808 346.802 488.749 344.114 486.782C341.426 484.816 339.434 482.044 338.427 478.87L337.316 475.361L635.846 475.402Z" fill="#30242A"/>
<path d="M958.721 489.848H162.121V515.643H958.721V489.848Z" fill="#FFBE21"/>
<path d="M799.743 631.201L816.288 566.493H719.775C698.274 566.494 677.385 573.652 660.401 586.838C643.418 600.024 631.307 618.489 625.979 639.32L614.764 683.151H732.832C748.17 683.15 763.071 678.044 775.186 668.638C787.301 659.232 795.941 646.061 799.743 631.201Z" fill="#FFB7D5"/>
<path d="M617.048 666.185L613.231 682.318" stroke="#A15842" stroke-width="4" stroke-linecap="round" stroke-linejoin="round"/>
<path d="M308.835 385.228C296.827 391.226 290.829 401.228 290.829 408.234C290.829 418.462 301.242 420.386 301.242 420.386C301.242 420.386 293.473 432.599 306.983 438.33C306.983 438.33 306.983 450.904 319.567 450.904C319.567 450.904 317.9 460.709 331.029 461.635C344.158 462.561 357.667 455.709 358.81 451.274C360.116 446.037 356.587 441.654 347.059 440.265C347.059 440.265 359.921 434.256 357.884 426.673C355.846 419.09 347.152 419.264 347.152 419.264C347.152 419.264 355.476 414.274 351.031 406.917C346.586 399.561 338.087 402.112 338.087 402.112C338.087 402.112 340.31 396.968 336.42 393.048C331.79 388.417 311.881 394.262 311.881 394.262L308.835 385.228Z" fill="#EAA58A"/>
<path d="M319.659 451.387C330.494 448.79 341.006 444.994 351 440.069" stroke="#A15842" stroke-width="4" stroke-miterlimit="10" stroke-linecap="round"/>
<path d="M306.952 438.269C321.974 434.149 336.317 427.865 349.529 419.614" stroke="#A15842" stroke-width="4" stroke-miterlimit="10" stroke-linecap="round"/>
<path d="M300.213 421.847C314.134 417.729 327.286 411.358 339.147 402.987" stroke="#A15842" stroke-width="4" stroke-miterlimit="10" stroke-linecap="round"/>
<path d="M731.227 189.579C713.468 163.928 665.181 174.145 665.181 174.145C666.354 160.059 670.181 119.478 639.664 97.1818C609.146 74.8851 570.428 86.625 556.321 104.22C550.58 111.422 547.771 121.114 546.135 131.692C555.498 133.266 569.234 130.045 569.234 130.045C588.012 151.169 604.835 154.523 604.835 154.523C617.974 141.384 641.022 141.816 644.767 161.726C648.656 182.397 615.638 191.688 615.638 191.688C615.638 191.688 612.552 228.832 629.014 242.249C634.067 246.254 640.041 248.932 646.393 250.038C658.74 252.497 672.332 250.841 684.741 253.598C695.675 255.955 706.136 260.129 715.691 265.945C719.46 262.624 722.906 258.951 725.98 254.977C736.804 241.251 749.748 216.331 731.227 189.579Z" fill="#A15842"/>
<path d="M588.825 122.514C582.651 127.658 575.449 130.745 567.156 132.803" stroke="#EAA58B" stroke-width="4" stroke-miterlimit="10" stroke-linecap="round"/>
<path d="M582.229 230.118C587.021 228.52 591.643 226.452 596.027 223.945" stroke="#A15842" stroke-width="4" stroke-miterlimit="10" stroke-linecap="round"/>
<path d="M616.904 170.935L626.288 165.07" stroke="#A15842" stroke-width="4" stroke-miterlimit="10" stroke-linecap="round"/>
<path d="M563.061 198.479C565.005 199.683 572.321 200.619 575.222 195.032" stroke="#A15842" stroke-width="4" stroke-miterlimit="10" stroke-linecap="round"/>
<path d="M582.178 172.077C584.121 172.077 585.697 170.501 585.697 168.558C585.697 166.614 584.121 165.039 582.178 165.039C580.234 165.039 578.659 166.614 578.659 168.558C578.659 170.501 580.234 172.077 582.178 172.077Z" fill="#30242A"/>
<path d="M553.008 167.416C554.951 167.416 556.527 165.84 556.527 163.897C556.527 161.954 554.951 160.378 553.008 160.378C551.065 160.378 549.489 161.954 549.489 163.897C549.489 165.84 551.065 167.416 553.008 167.416Z" fill="#30242A"/>
<path d="M562.916 177.489C562.217 179.701 561.61 182.109 562.011 182.911C562.562 183.928 563.399 184.762 564.419 185.309" stroke="#A15842" stroke-width="4" stroke-miterlimit="10" stroke-linecap="round"/>
<path d="M621.318 205.414C628.126 205.414 633.644 199.895 633.644 193.087C633.644 186.28 628.126 180.761 621.318 180.761C614.51 180.761 608.991 186.28 608.991 193.087C608.991 199.895 614.51 205.414 621.318 205.414Z" fill="#F5EBDD"/>
<path d="M562.019 165.875C564.152 154.915 557.882 144.473 548.014 142.553C538.147 140.633 528.419 147.962 526.286 158.923C524.154 169.884 530.424 180.325 540.292 182.245C550.159 184.165 559.887 176.836 562.019 165.875Z" stroke="#30242A" stroke-width="4" stroke-miterlimit="10" stroke-linecap="round"/>
<path d="M606.726 171.357C608.859 160.396 602.588 149.955 592.721 148.035C582.854 146.115 573.126 153.444 570.993 164.405C568.861 175.366 575.131 185.807 584.998 187.727C594.866 189.647 604.594 182.318 606.726 171.357Z" stroke="#30242A" stroke-width="4" stroke-miterlimit="10" stroke-linecap="round"/>
<path d="M562.865 164.216L569.975 164.977" stroke="#30242A" stroke-width="4" stroke-miterlimit="10" stroke-linecap="round"/>
<path d="M667.537 175.503L665.489 188.673" stroke="#30242A" stroke-width="4" stroke-miterlimit="10" stroke-linecap="round"/>
<path d="M518.663 359.834L528.623 388.819" stroke="#30242A" stroke-width="4" stroke-linecap="round" stroke-linejoin="round"/>
<path d="M571.282 425.87H545.096" stroke="#30242A" stroke-width="4" stroke-linecap="round" stroke-linejoin="round"/>
<path d="M591.922 351.582L600.174 391.823V428.967" stroke="#30242A" stroke-width="4" stroke-linecap="round" stroke-linejoin="round"/>
<path d="M537.039 259.37L552.71 294.827L534.138 292.769L600.174 391.823" stroke="#30242A" stroke-width="4" stroke-linecap="round" stroke-linejoin="round"/>
<path d="M689.721 255.152L663.123 292.769L687.889 290.701L597.077 371.183" stroke="#30242A" stroke-width="4" stroke-linecap="round" stroke-linejoin="round"/>
<path d="M703.549 381.287L683.763 353.65" stroke="#30242A" stroke-width="4" stroke-linecap="round" stroke-linejoin="round"/>
<path d="M726.443 483.15C715.67 479.559 696.336 472.624 684.679 465.659" stroke="#30242A" stroke-width="4" stroke-linecap="round" stroke-linejoin="round"/>
<path d="M429.291 227.124C440.468 227.124 449.53 218.063 449.53 206.885C449.53 195.708 440.468 186.646 429.291 186.646C418.113 186.646 409.052 195.708 409.052 206.885C409.052 218.063 418.113 227.124 429.291 227.124Z" fill="#FFB7D5"/>
<path d="M368.803 126.342L357.019 112.133C355.206 109.946 351.962 109.644 349.775 111.457L349.522 111.668C347.335 113.481 347.032 116.725 348.846 118.912L360.629 133.12C362.443 135.307 365.687 135.61 367.874 133.796L368.127 133.586C370.314 131.772 370.617 128.529 368.803 126.342Z" fill="#4756DF"/>
<path d="M389.996 143.607L378.143 129.305L165.085 305.97C163.227 307.512 162.057 309.729 161.833 312.133C161.61 314.537 162.35 316.932 163.891 318.791L164.128 319.079C164.891 319.998 165.827 320.759 166.883 321.316C167.94 321.874 169.096 322.218 170.286 322.329C171.475 322.44 172.675 322.315 173.816 321.962C174.958 321.61 176.019 321.035 176.938 320.272L243.55 265.019V458.899H262.143V249.585L389.996 143.607Z" fill="#3EC1F3"/>
<path d="M355.661 147.722L361.598 154.925C363.666 157.424 365.237 160.294 366.228 163.382" stroke="#4756DF" stroke-width="4" stroke-miterlimit="10"/>
<path d="M252.841 269.31C266.235 269.31 277.093 258.452 277.093 245.058C277.093 231.664 266.235 220.806 252.841 220.806C239.447 220.806 228.59 231.664 228.59 245.058C228.59 258.452 239.447 269.31 252.841 269.31Z" fill="#4756DF"/>
<path d="M252.841 254.38C257.99 254.38 262.163 250.207 262.163 245.058C262.163 239.91 257.99 235.736 252.841 235.736C247.693 235.736 243.519 239.91 243.519 245.058C243.519 250.207 247.693 254.38 252.841 254.38Z" fill="#3EC1F3"/>
<path d="M445.908 195.392L414.886 221.033" stroke="#A15842" stroke-width="4" stroke-miterlimit="10"/>
<path d="M405.718 141.014C399.195 140.247 393.218 136.997 389.029 131.939L380.798 121.989C377.888 118.486 373.708 116.282 369.174 115.859C364.641 115.437 360.125 116.831 356.618 119.736C354.883 121.175 353.448 122.941 352.396 124.935C351.344 126.928 350.694 129.109 350.485 131.354C350.276 133.598 350.511 135.862 351.176 138.015C351.842 140.169 352.926 142.17 354.365 143.905L362.596 153.886C366.767 158.93 368.84 165.383 368.389 171.912L366.331 201.998C365.311 216.718 369.048 231.377 376.991 243.813L379.625 247.929L478.329 166.058L474.79 162.734C464.046 152.627 450.34 146.239 435.691 144.512L405.718 141.014Z" fill="#3EC1F3"/>
<path d="M262.143 458.899H243.55L216.068 466.389C210.922 467.793 206.381 470.85 203.144 475.089C199.907 479.329 198.153 484.515 198.154 489.848H307.528C307.528 484.513 305.774 479.326 302.535 475.087C299.296 470.848 294.752 467.791 289.604 466.389L262.143 458.899Z" fill="#3EC1F3"/>
<path d="M459.603 151.498L369.274 226.157" stroke="#4756DF" stroke-width="4" stroke-miterlimit="10" stroke-linecap="round"/>
<path d="M243.097 456.769H262.143" stroke="#4756DF" stroke-width="4" stroke-miterlimit="10" stroke-linecap="round"/>
<path d="M201.766 476.987H303.3" stroke="#4756DF" stroke-width="4" stroke-miterlimit="10" stroke-linecap="round"/>
<path d="M921.098 755.289C919.04 737.797 920.069 698.534 942.767 668.613C965.465 638.692 934.536 651.121 925.275 659.353C910.459 672.523 897.412 685.148 886.063 727.457L921.098 755.289Z" fill="#30242A"/>
<path d="M647.024 941.019H525.89V937.058C525.892 931.474 528.113 926.119 532.062 922.172C536.012 918.224 541.368 916.006 546.952 916.006H647.652L647.024 941.019Z" fill="#A15842"/>
<path d="M942.52 825.369L916.972 941.019H869.498V933.817C869.498 929.173 871.339 924.719 874.618 921.43C877.897 918.142 882.346 916.288 886.989 916.274C886.989 916.274 863.262 898.484 848.816 880.941C848.816 880.941 824.05 911.119 788.964 905.954L786.423 918.301C785.101 924.709 781.612 930.467 776.543 934.605C771.474 938.742 765.134 941.008 758.59 941.019H643.526C592.492 941.019 567.386 933.23 565.946 904.174C565.901 903.065 566.081 901.96 566.475 900.923C566.869 899.886 567.468 898.939 568.237 898.139C569.006 897.34 569.928 896.704 570.949 896.27C571.97 895.836 573.068 895.612 574.177 895.613H606.3C607.625 895.615 608.933 895.318 610.128 894.747C611.323 894.175 612.374 893.343 613.204 892.31L626.878 875.343C630.932 870.322 636.341 866.571 642.464 864.533C648.587 862.496 655.166 862.259 661.419 863.85L688.922 870.878C688.922 870.878 737.652 800.85 781.793 752.213C823.978 705.777 903.329 700.767 934.587 761.247C944.637 781.039 947.443 803.724 942.52 825.369Z" fill="#A15842"/>
<path d="M654.875 941.019V937.058C654.875 934.293 655.42 931.554 656.478 929C657.537 926.445 659.089 924.124 661.045 922.169C663 920.214 665.322 918.663 667.878 917.606C670.433 916.549 673.172 916.005 675.937 916.006H689.961" stroke="#30242A" stroke-width="4" stroke-miterlimit="10"/>
<path d="M846.903 881.764C839.7 873.193 815.119 841.636 816.879 810.768C818.762 777.74 838.548 760.207 838.548 760.207" stroke="#30242A" stroke-width="4" stroke-miterlimit="10" stroke-linecap="round"/>
<path d="M795.209 862.348C795.209 862.348 793.892 886.765 791.248 904.997" stroke="#30242A" stroke-width="4" stroke-miterlimit="10" stroke-linecap="round"/>
<path d="M894.264 930.452V939.99" stroke="#30242A" stroke-width="4" stroke-miterlimit="10" stroke-linecap="round"/>
<path d="M882.915 930.452V939.99" stroke="#30242A" stroke-width="4" stroke-miterlimit="10" stroke-linecap="round"/>
<path d="M677.573 930.452V939.99" stroke="#30242A" stroke-width="4" stroke-miterlimit="10" stroke-linecap="round"/>
<path d="M666.224 930.452V939.99" stroke="#30242A" stroke-width="4" stroke-miterlimit="10" stroke-linecap="round"/>
<path d="M635.789 902.589C633.226 902.589 631.148 900.512 631.148 897.949C631.148 895.386 633.226 893.309 635.789 893.309C638.352 893.309 640.429 895.386 640.429 897.949C640.429 900.512 638.352 902.589 635.789 902.589Z" fill="#30242A"/>
<path d="M661.11 863.758V863.634L688.963 870.837L661.46 863.809L661.11 863.758Z" fill="#30242A"/>
<path d="M729.657 916.47C737.724 920.585 749.124 928.642 748.178 940.845H703.379L693.964 925.997C692.425 923.569 690.298 921.569 687.78 920.182C685.262 918.795 682.434 918.067 679.559 918.064H676.565L661.213 864.067L661.44 863.83L688.943 870.857L715.273 904.586C719.149 909.543 724.057 913.598 729.657 916.47Z" fill="#30242A"/>
<path d="M795.086 777.421C795.086 777.421 807.546 820.554 767.305 836.841C746.902 845.073 729.955 838.827 718.195 830.668C735.964 807.003 759.475 776.876 781.803 752.264C787.401 746.104 793.692 740.611 800.55 735.894C806.641 744.187 813.308 764.704 795.086 777.421Z" fill="#EAA58B"/>
<path d="M897.875 808.7C888.47 808.7 880.846 801.076 880.846 791.672C880.846 782.267 888.47 774.643 897.875 774.643C907.28 774.643 914.904 782.267 914.904 791.672C914.904 801.076 907.28 808.7 897.875 808.7Z" fill="#EAA58B"/>
<path d="M574.136 895.613H580.309C580.649 897.335 580.604 899.11 580.177 900.812C579.75 902.514 578.952 904.101 577.84 905.458C576.728 906.815 575.329 907.909 573.744 908.662C572.159 909.415 570.427 909.808 568.672 909.812C567.947 909.812 567.224 909.743 566.512 909.607C566.197 907.81 565.995 905.996 565.904 904.174C565.86 903.066 566.04 901.96 566.434 900.923C566.828 899.886 567.427 898.939 568.196 898.139C568.965 897.34 569.887 896.704 570.908 896.27C571.929 895.836 573.027 895.612 574.136 895.613Z" fill="#30242A"/>
<path d="M549.627 930.452V939.754" stroke="#30242A" stroke-width="4" stroke-miterlimit="10" stroke-linecap="round"/>
<path d="M538.278 930.452V939.754" stroke="#30242A" stroke-width="4" stroke-miterlimit="10" stroke-linecap="round"/>
<path d="M611.897 939.785C586.668 937.243 571.625 930.411 566.162 915.873" stroke="#30242A" stroke-width="4" stroke-linecap="round" stroke-linejoin="round"/>
<path d="M684.792 398.439C672.095 397.302 659.328 397.161 646.609 398.017C628.418 399.509 603.96 404.273 594.134 409.027C584.308 413.78 546.68 430.562 556.815 436.19C566.075 441.335 585.501 433.597 585.501 433.597C585.501 433.597 566.116 451.418 562.783 458.878C559.449 466.338 570.469 470.525 570.469 470.525C573.37 483.263 586.355 477.789 586.355 477.789C594.535 495.188 638.727 457.489 638.727 457.489C649.241 458.581 659.858 458.134 670.243 456.162C670.243 456.162 675.84 459.3 684.823 463.662L684.792 398.439Z" fill="#EAA58A"/>
<path d="M795.195 485.722C877.745 446.51 758.082 300.002 715.742 265.935L692.015 361.902L721.936 403.172C708.828 400.909 696.295 399.355 684.792 398.439V463.662C710.988 476.4 766.036 499.613 795.195 485.722Z" fill="#4756DF"/>
<path d="M581.55 434.678C588.876 428.617 601.038 418.822 610.113 412.916" stroke="#A15842" stroke-width="4" stroke-miterlimit="10" stroke-linecap="round"/>
<path d="M620.114 427.393C599.032 441.047 579.822 459.29 570.314 468.838" stroke="#A15842" stroke-width="4" stroke-miterlimit="10" stroke-linecap="round"/>
<path d="M629.467 442.837C615.062 452.725 598.342 467.716 587.425 478.006" stroke="#A15842" stroke-width="4" stroke-miterlimit="10" stroke-linecap="round"/>
<path d="M877.128 437.291C878.688 437.294 880.184 437.915 881.287 439.018C882.39 440.121 883.011 441.617 883.014 443.177V444.051C883.011 445.611 882.39 447.107 881.287 448.21C880.184 449.313 878.688 449.934 877.128 449.937H846.806V437.291H877.128ZM877.128 429.06H839.686C839.539 429.06 839.394 429.089 839.258 429.145C839.123 429.202 839 429.285 838.896 429.389C838.793 429.493 838.711 429.617 838.656 429.753C838.601 429.889 838.573 430.035 838.575 430.181V457.088C838.575 457.382 838.692 457.665 838.9 457.873C839.108 458.082 839.391 458.199 839.686 458.199H877.128C878.985 458.199 880.823 457.833 882.538 457.121C884.252 456.41 885.81 455.367 887.121 454.053C888.432 452.739 889.472 451.179 890.179 449.463C890.887 447.747 891.249 445.908 891.245 444.051V443.146C891.245 439.402 889.758 435.811 887.11 433.164C884.463 430.516 880.872 429.029 877.128 429.029V429.06Z" fill="#3EC1F3"/>
<path d="M831.855 424.625C801.194 424.625 787.025 400.188 787.025 400.188L807.604 489.848H856.045L876.624 400.188C871.845 407.722 865.229 413.918 857.398 418.192C849.566 422.467 840.777 424.681 831.855 424.625Z" fill="#3EC1F3"/>
<path d="M831.855 424.625C840.787 424.691 849.589 422.482 857.432 418.207C865.275 413.932 871.901 407.731 876.685 400.188H787.025C787.025 400.188 801.194 424.625 831.855 424.625Z" fill="#30242A"/>
</g>
</svg>
