<svg width="600" height="491" viewBox="0 0 600 491" fill="none" xmlns="http://www.w3.org/2000/svg">
<path d="M349.344 223.825C349.344 223.825 362.491 141.414 391.244 92.245H271.85C271.85 92.245 240.424 142.483 229.094 227.673C241.173 227.032 349.344 223.825 349.344 223.825Z" fill="white"/>
<path d="M224.926 364.918H414.333L272.705 287.851L224.926 303.243V364.918Z" fill="white"/>
<path d="M16.4929 72.5239H194.997C194.997 72.5239 194.569 27.8445 168.061 27.8445C150.959 27.8445 146.469 40.9917 146.469 40.9917C146.469 40.9917 145.721 5.39783 112.158 5.39783C95.0561 5.39783 79.2365 20.6829 74.6403 43.5571C46.208 21.1105 17.9894 42.2744 16.4929 72.5239Z" fill="#E2E8F0"/>
<path d="M580.544 280.797H374.57C374.57 248.089 401.613 216.557 443.727 244.027C467.99 186.948 564.618 192.507 578.834 261.45L580.544 280.797Z" fill="#E2E8F0"/>
<path d="M224.391 78.5633L261.375 75.2497C261.375 75.2497 263.406 87.3281 270.567 85.6179C270.995 89.8935 272.491 102.827 272.491 102.827C272.491 102.827 288.204 102.827 285.959 85.6179C284.677 75.8911 278.049 65.5229 271.102 66.4849C268.429 59.0027 260.52 50.7722 247.265 53.3376C234.011 55.9029 226.529 64.7746 217.55 60.0715C214.451 63.7058 211.565 78.1357 224.391 78.5633Z" fill="#E6416A"/>
<path d="M270.428 85.6177C263.374 87.1141 261.236 75.2495 261.236 75.2495L222.221 78.6699C219.229 79.5251 213.991 81.7697 213.457 84.2282C212.601 88.0762 214.632 90.7484 221.153 92.031C227.673 93.3137 229.917 103.254 229.917 103.254C229.917 103.254 234.407 122.281 254.074 112.019L255.998 120.036C255.998 120.036 264.015 124.953 273.1 116.829C272.459 110.523 271.497 96.5204 271.497 96.5204C271.497 96.5204 279.834 98.6581 279.407 91.3897C278.979 84.1213 274.522 84.1213 270.428 85.6177Z" fill="white"/>
<path d="M167.815 190.689L217.198 184.704C219.928 170.03 223.678 155.565 228.421 141.414C235.903 119.608 255.571 117.577 255.571 117.577L272.993 113.516C272.993 113.516 295.547 108.278 308.374 126.235C311.366 130.511 320.773 141.307 328.682 159.585C330.23 163.084 330.902 166.908 330.641 170.726C330.38 174.543 329.195 178.24 327.186 181.497L327.934 184.917C327.934 184.917 337.661 225.535 337.982 230.024H167.815V190.689Z" fill="white"/>
<path d="M60.5312 253.433L43.8245 255.998C43.8245 255.998 22.4468 213.884 7.80302 207.043C2.77926 205.013 1.60348 214.098 3.74125 219.229C5.87902 224.359 25.8672 284.858 26.2948 294.371L66.2711 285.713L60.5312 253.433Z" fill="white"/>
<path d="M26.3266 295.333C26.0995 295.311 25.8803 295.238 25.6853 295.12C25.4653 294.923 25.3152 294.661 25.2577 294.371C24.8302 284.965 4.73513 224.252 2.81114 219.656C1.20781 215.701 1.2078 209.395 3.77313 206.83C4.34458 206.244 5.08798 205.855 5.89531 205.721C6.70264 205.586 7.53185 205.712 8.26245 206.081C22.158 212.708 41.5048 249.157 44.4977 254.929L60.4241 252.578C60.6918 252.546 60.9617 252.616 61.1797 252.775C61.3978 252.933 61.5479 253.168 61.5999 253.433L67.3718 285.5C67.4174 285.782 67.3547 286.071 67.1961 286.309C67.0375 286.547 66.7948 286.716 66.5167 286.782C66.1961 286.889 31.9917 294.371 26.5404 295.44C26.4849 295.379 26.4087 295.341 26.3266 295.333ZM6.44534 207.685C5.99942 207.706 5.57855 207.897 5.26956 208.219C3.55934 209.929 3.23868 215.274 4.73512 218.694C6.65911 223.183 25.4715 279.941 27.1817 292.982C34.3433 291.485 59.569 285.927 64.9134 284.751L59.569 254.716L43.9632 257.067C43.7521 257.095 43.5376 257.059 43.3471 256.963C43.1567 256.868 42.999 256.718 42.8944 256.533C42.6806 256.105 21.5166 214.739 7.40733 208.005C7.1172 207.798 6.76985 207.686 6.41328 207.685H6.44534Z" fill="black"/>
<path d="M236.47 227.673C236.47 227.673 313.75 225.535 334.38 223.932C335.449 232.697 309.154 262.305 309.154 262.305L185.27 269.253L62.6688 306.022L50.1628 240.393L167.206 227.673H236.47Z" fill="#B7194A"/>
<path d="M181.711 344.823H17.7755C17.7755 344.823 17.5617 292.661 73.3576 280.903C99.2246 276.414 122.206 281.865 130.436 285.927C136.743 277.91 161.541 239.644 204.296 267.97" fill="white"/>
<path d="M181.711 345.892H17.7755C17.6327 345.901 17.4895 345.88 17.3556 345.83C17.2216 345.779 17.1 345.701 16.9988 345.6C16.8975 345.499 16.8191 345.377 16.7688 345.243C16.7184 345.109 16.6972 344.966 16.7067 344.823C17.0589 335.108 19.4248 325.571 23.6544 316.818C30.0677 303.35 43.8564 286.034 73.1438 279.835C98.1558 275.452 120.816 280.262 130.115 284.538C130.329 284.217 130.65 283.896 130.864 283.576C138.987 272.78 163.785 239.858 204.937 267.008C205.178 267.164 205.348 267.409 205.408 267.69C205.468 267.97 205.414 268.263 205.258 268.504C205.102 268.745 204.857 268.915 204.576 268.975C204.296 269.035 204.003 268.981 203.762 268.825C164.32 242.744 140.484 274.49 132.574 284.858C132.039 285.5 131.612 286.141 131.291 286.569C131.144 286.758 130.938 286.893 130.705 286.951C130.473 287.009 130.227 286.987 130.009 286.889C121.564 282.614 98.7971 277.483 73.6783 281.972C23.7613 292.554 19.3789 336.379 19.0582 343.754H181.956C182.099 343.745 182.242 343.766 182.376 343.816C182.51 343.867 182.632 343.945 182.733 344.046C182.834 344.147 182.913 344.269 182.963 344.403C183.014 344.537 183.035 344.68 183.025 344.823C183.025 345.464 182.277 345.892 181.711 345.892Z" fill="black"/>
<path d="M198.524 407.673L200.662 426.592C200.662 426.592 158.013 462.828 154.379 481.854C153.096 490.191 155.876 490.191 162.075 487.84C168.275 485.488 232.087 440.488 232.087 440.488V405.856L198.524 407.673Z" fill="white"/>
<path d="M156.838 490.084C155.989 490.133 155.151 489.867 154.486 489.336C152.99 488.16 152.669 485.809 153.31 481.533C156.838 463.148 194.783 430.12 199.486 425.951L197.455 407.673C197.476 407.378 197.548 407.088 197.669 406.818C197.878 406.614 198.136 406.467 198.417 406.391L231.98 404.36C232.121 404.356 232.261 404.383 232.39 404.438C232.519 404.493 232.635 404.576 232.729 404.68C232.923 404.883 233.037 405.149 233.049 405.429V440.061C233.019 440.389 232.867 440.694 232.622 440.916C230.057 442.733 168.596 486.129 162.396 488.481C160.68 489.41 158.784 489.957 156.838 490.084ZM199.7 408.635L201.624 426.379C201.632 426.727 201.519 427.067 201.303 427.341C200.876 427.661 158.976 463.576 155.448 481.961C154.807 485.916 155.341 487.305 155.876 487.733C156.838 488.481 159.51 487.626 161.755 486.771C166.458 484.954 208.893 455.452 231.125 439.847V406.818L199.7 408.635Z" fill="black"/>
<path d="M262.23 122.601C259.881 122.596 257.565 122.048 255.464 120.998C255.231 120.836 255.046 120.615 254.929 120.357L253.005 112.34C252.938 112.198 252.902 112.043 252.901 111.885C252.9 111.728 252.934 111.573 253 111.43C253.066 111.287 253.163 111.161 253.284 111.06C253.404 110.959 253.546 110.886 253.698 110.846C253.85 110.806 254.009 110.8 254.164 110.828C254.319 110.857 254.465 110.919 254.593 111.011C254.721 111.102 254.827 111.221 254.903 111.359C254.98 111.496 255.025 111.648 255.036 111.805L256.853 119.395C258.457 120.143 264.763 122.601 271.925 116.509C271.283 109.988 270.428 96.841 270.428 96.7341C270.42 96.5669 270.455 96.4002 270.53 96.2504C270.605 96.1006 270.717 95.9727 270.856 95.879C270.987 95.7688 271.143 95.6919 271.311 95.6547C271.478 95.6175 271.652 95.6211 271.818 95.6653C272.78 95.879 275.773 96.3066 277.269 95.0239C278.124 94.3826 278.445 93.2068 278.338 91.6035C278.231 89.0382 277.483 87.3279 276.2 86.4728C274.597 85.4039 272.352 85.9384 270.642 86.5797C270.485 86.6388 270.315 86.66 270.148 86.6414C269.981 86.6228 269.821 86.5651 269.68 86.4728C269.541 86.3792 269.429 86.2512 269.354 86.1014C269.279 85.9516 269.244 85.785 269.253 85.6177C269.146 84.0144 268.932 81.7697 268.932 81.7697C268.918 81.6294 268.932 81.4876 268.972 81.3525C269.013 81.2175 269.08 81.0918 269.169 80.9826C269.259 80.8734 269.369 80.7829 269.493 80.7162C269.617 80.6495 269.753 80.608 269.894 80.594C270.034 80.5799 270.176 80.5937 270.311 80.6344C270.446 80.6752 270.572 80.7421 270.681 80.8314C270.79 80.9208 270.881 81.0307 270.947 81.155C271.014 81.2794 271.056 81.4156 271.07 81.556C271.07 81.6628 271.283 82.8386 271.39 84.2282C273.849 83.5868 275.88 83.6937 277.483 84.7626C279.3 85.9384 280.369 88.183 280.583 91.4966C280.707 92.46 280.597 93.4391 280.262 94.3509C279.927 95.2627 279.377 96.0802 278.659 96.7341C277.815 97.3318 276.86 97.7535 275.85 97.9738C274.84 98.1942 273.796 98.2088 272.78 98.0168C272.994 101.651 273.742 111.805 274.276 116.936C274.284 117.252 274.169 117.559 273.956 117.791C270.777 120.791 266.599 122.505 262.23 122.601Z" fill="black"/>
<path d="M243.631 116.188C241.957 116.173 240.296 115.884 238.715 115.333C231.125 112.554 229.095 103.896 228.988 103.575C228.988 103.468 226.85 94.3826 221.078 93.2069C217.016 92.4586 214.451 91.0691 213.275 89.1451C212.826 88.3983 212.528 87.57 212.4 86.7079C212.271 85.8457 212.315 84.9667 212.527 84.1213C213.489 79.632 223.109 77.8149 224.178 77.6011C224.318 77.573 224.463 77.5729 224.603 77.6007C224.743 77.6285 224.877 77.6836 224.996 77.763C225.115 77.8424 225.218 77.9445 225.297 78.0635C225.377 78.1824 225.432 78.3159 225.46 78.4562C225.488 78.5966 225.489 78.7411 225.461 78.8815C225.433 79.022 225.378 79.1556 225.298 79.2747C225.219 79.3938 225.117 79.4961 224.998 79.5757C224.879 79.6554 224.746 79.7108 224.605 79.7389C220.757 80.4871 215.199 82.4111 214.665 84.6558C214.479 85.2222 214.421 85.8225 214.495 86.4139C214.569 87.0052 214.773 87.5729 215.092 88.0762C216.054 89.4658 218.192 90.5347 221.612 91.176C228.774 92.5655 231.125 102.72 231.232 103.148C231.232 103.254 233.156 111.057 239.677 113.409C244.914 115.333 251.755 113.302 259.985 107.316C260.098 107.232 260.225 107.171 260.361 107.136C260.497 107.101 260.639 107.093 260.778 107.113C260.917 107.133 261.051 107.18 261.171 107.252C261.292 107.323 261.398 107.418 261.482 107.53C261.566 107.642 261.627 107.77 261.662 107.906C261.697 108.042 261.705 108.183 261.685 108.322C261.665 108.461 261.618 108.595 261.546 108.716C261.475 108.837 261.38 108.942 261.268 109.026C254.534 113.729 248.655 116.188 243.631 116.188Z" fill="black"/>
<path d="M234.973 88.504C235.859 88.504 236.577 87.7862 236.577 86.9007C236.577 86.0152 235.859 85.2974 234.973 85.2974C234.088 85.2974 233.37 86.0152 233.37 86.9007C233.37 87.7862 234.088 88.504 234.973 88.504Z" fill="black"/>
<path d="M241.707 88.8246C242.593 88.8246 243.311 88.1067 243.311 87.2212C243.311 86.3358 242.593 85.6179 241.707 85.6179C240.822 85.6179 240.104 86.3358 240.104 87.2212C240.104 88.1067 240.822 88.8246 241.707 88.8246Z" fill="black"/>
<path d="M270.995 67.5538C270.81 67.5704 270.624 67.5333 270.46 67.4469C270.22 67.2908 270.045 67.0535 269.967 66.7786C269.888 66.5036 269.911 66.2095 270.033 65.9504C271.422 63.492 275.27 59.4302 279.866 61.3542C280 61.4033 280.122 61.4783 280.226 61.5747C280.331 61.6711 280.415 61.7871 280.475 61.9162C280.534 62.0452 280.568 62.1847 280.573 62.3267C280.579 62.4687 280.557 62.6104 280.508 62.7438C280.458 62.8771 280.384 62.9995 280.287 63.1039C280.191 63.2083 280.075 63.2927 279.946 63.3522C279.817 63.4118 279.677 63.4453 279.535 63.451C279.393 63.4566 279.251 63.4342 279.118 63.3851C274.949 61.7818 271.957 67.0193 271.85 67.1262C271.743 67.4469 271.422 67.5538 270.995 67.5538Z" fill="black"/>
<path d="M238.18 202.447C237.95 202.442 237.726 202.368 237.539 202.233C237.335 202.024 237.188 201.767 237.111 201.485L234.76 167.281C234.769 167.006 234.868 166.742 235.042 166.53C235.215 166.317 235.454 166.168 235.722 166.105L295.152 161.509C295.426 161.518 295.69 161.617 295.902 161.791C296.115 161.965 296.264 162.203 296.327 162.471C296.434 163.005 295.9 163.54 295.365 163.646L237.004 168.136L239.142 200.202L309.154 192.079C312.712 191.66 316.123 190.415 319.114 188.442C322.105 186.47 324.593 183.825 326.379 180.72C328.166 177.614 329.201 174.134 329.402 170.557C329.604 166.98 328.965 163.406 327.539 160.119C322.771 149.193 316.629 138.92 309.261 129.549C308.513 128.48 307.871 127.625 307.337 126.984C295.045 109.775 273.346 114.585 273.133 114.691C272.991 114.759 272.835 114.795 272.678 114.796C272.521 114.797 272.365 114.763 272.222 114.697C272.08 114.631 271.953 114.534 271.852 114.413C271.751 114.292 271.678 114.151 271.638 113.999C271.598 113.847 271.592 113.688 271.621 113.533C271.649 113.378 271.712 113.232 271.803 113.104C271.895 112.976 272.014 112.87 272.151 112.793C272.289 112.717 272.441 112.671 272.598 112.661C272.812 112.554 296.007 107.423 309.047 125.808C309.475 126.449 310.116 127.304 310.971 128.373C318.474 137.866 324.725 148.284 329.57 159.371C331.13 162.964 331.829 166.873 331.61 170.784C331.39 174.695 330.259 178.501 328.307 181.898C326.354 185.294 323.634 188.186 320.364 190.344C317.094 192.501 313.365 193.864 309.475 194.324L238.287 202.554C238.287 202.526 238.276 202.498 238.256 202.478C238.235 202.458 238.208 202.447 238.18 202.447Z" fill="black"/>
<path d="M167.815 191.758C167.553 191.746 167.304 191.644 167.109 191.469C166.914 191.293 166.786 191.056 166.746 190.796C166.732 190.656 166.745 190.514 166.785 190.378C166.826 190.243 166.893 190.117 166.982 190.008C167.072 189.898 167.182 189.808 167.306 189.741C167.431 189.675 167.568 189.634 167.708 189.621L216.236 183.742C218.976 169.291 222.69 155.043 227.352 141.093C234.941 118.86 255.25 116.616 255.464 116.616C255.606 116.591 255.751 116.597 255.891 116.634C256.03 116.671 256.16 116.737 256.272 116.828C256.383 116.919 256.474 117.033 256.537 117.163C256.601 117.292 256.636 117.434 256.64 117.578C256.654 117.718 256.641 117.86 256.601 117.995C256.56 118.131 256.493 118.257 256.404 118.366C256.314 118.475 256.204 118.566 256.08 118.632C255.955 118.699 255.818 118.74 255.678 118.753C254.929 118.86 236.545 120.998 229.383 141.841C224.651 155.915 220.936 170.311 218.267 184.917C218.221 185.145 218.102 185.352 217.929 185.506C217.755 185.66 217.536 185.754 217.305 185.773L167.922 191.758H167.815Z" fill="black"/>
<path d="M221.612 222.542H221.398C221.134 222.49 220.899 222.34 220.74 222.122C220.582 221.904 220.511 221.634 220.543 221.366L232.408 147.72C232.388 147.556 232.406 147.389 232.462 147.234C232.517 147.078 232.608 146.937 232.727 146.822C232.846 146.707 232.99 146.622 233.148 146.572C233.305 146.522 233.472 146.51 233.636 146.536C233.799 146.561 233.954 146.625 234.089 146.721C234.224 146.816 234.334 146.942 234.412 147.088C234.49 147.234 234.533 147.396 234.538 147.561C234.542 147.727 234.508 147.891 234.439 148.041L222.574 221.687C222.553 221.925 222.441 222.146 222.262 222.305C222.084 222.464 221.851 222.549 221.612 222.542Z" fill="black"/>
<path d="M236.363 221.473H112.051V227.566H236.363V221.473Z" fill="white"/>
<path d="M236.47 228.742H112.051C111.908 228.751 111.765 228.73 111.631 228.68C111.497 228.629 111.376 228.551 111.275 228.45C111.173 228.348 111.095 228.227 111.045 228.093C110.994 227.959 110.973 227.816 110.982 227.673V221.58C110.973 221.437 110.994 221.294 111.045 221.16C111.095 221.026 111.173 220.905 111.275 220.803C111.376 220.702 111.497 220.624 111.631 220.573C111.765 220.523 111.908 220.502 112.051 220.511H236.363C236.506 220.502 236.649 220.523 236.783 220.573C236.917 220.624 237.038 220.702 237.14 220.803C237.241 220.905 237.319 221.026 237.37 221.16C237.42 221.294 237.441 221.437 237.432 221.58V227.673C237.443 227.807 237.427 227.942 237.385 228.07C237.342 228.198 237.273 228.316 237.183 228.416C237.093 228.517 236.983 228.597 236.86 228.653C236.737 228.709 236.605 228.739 236.47 228.742ZM113.12 226.604H235.294V222.649H113.12V226.604Z" fill="black"/>
<path d="M151.814 170.701H71.4338L112.051 221.473H192.539L151.814 170.701Z" fill="white"/>
<path d="M192.538 222.542H112.051C111.884 222.551 111.717 222.516 111.567 222.441C111.418 222.366 111.29 222.253 111.196 222.115L70.4714 171.343C70.3484 171.175 70.2734 170.977 70.2546 170.769C70.2357 170.562 70.2738 170.354 70.3646 170.167C70.4465 169.979 70.5808 169.818 70.7514 169.705C70.9219 169.591 71.1216 169.529 71.3266 169.525H151.782C151.949 169.517 152.116 169.552 152.265 169.627C152.415 169.702 152.543 169.814 152.637 169.953L193.361 220.832C193.484 221 193.559 221.198 193.578 221.405C193.597 221.612 193.559 221.821 193.468 222.008C193.387 222.182 193.255 222.327 193.088 222.423C192.922 222.518 192.729 222.56 192.538 222.542ZM112.586 220.404H190.262L151.247 171.77H73.5392L112.586 220.404Z" fill="black"/>
<path d="M337.907 231.414C337.641 231.415 337.384 231.317 337.187 231.14C336.989 230.962 336.865 230.717 336.838 230.452C336.624 226.925 329.676 197.21 326.149 182.031C326.132 181.783 326.202 181.537 326.347 181.335C326.492 181.132 326.703 180.987 326.943 180.924C327.184 180.861 327.439 180.883 327.665 180.988C327.891 181.092 328.073 181.272 328.18 181.497C328.608 183.314 338.655 225.642 338.976 230.238C338.964 230.528 338.85 230.805 338.654 231.02C338.459 231.235 338.195 231.374 337.907 231.414Z" fill="black"/>
<path d="M205.045 178.076C205.045 178.076 191.897 183.955 191.684 189.407C191.684 192.506 195.318 192.934 197.242 191.758C199.166 190.582 209 183.635 205.045 178.076Z" fill="white"/>
<path d="M194.997 193.469C194.134 193.485 193.283 193.264 192.538 192.827C191.945 192.485 191.459 191.983 191.138 191.378C190.816 190.773 190.672 190.09 190.721 189.407C190.935 183.421 203.334 177.649 204.724 177.115C204.94 177.001 205.189 176.972 205.426 177.031C205.662 177.09 205.869 177.234 206.006 177.435C206.479 178.132 206.808 178.917 206.973 179.743C207.138 180.569 207.137 181.42 206.968 182.245C205.792 187.803 197.99 192.613 197.883 192.72C197.002 193.216 196.007 193.474 194.997 193.469ZM204.617 179.466C199.807 181.818 192.859 186.2 192.752 189.514C192.728 189.808 192.785 190.103 192.917 190.366C193.049 190.63 193.251 190.853 193.5 191.01C194.01 191.23 194.561 191.334 195.116 191.316C195.67 191.297 196.213 191.156 196.707 190.903C198.203 190.048 203.975 185.879 204.83 181.818C204.977 181.029 204.903 180.215 204.617 179.466Z" fill="black"/>
<path d="M235.935 167.174C235.935 167.174 214.878 168.991 205.9 177.435C198.524 184.276 193.607 196.996 199.379 203.623C201.09 205.654 205.258 205.975 205.365 201.485C208.037 203.837 210.603 206.509 213.275 201.058C215.199 202.768 218.085 206.723 221.612 201.058C223.109 202.982 226.208 204.692 228.026 202.234C229.843 199.775 226.315 191.01 226.315 191.01C226.315 191.01 229.736 194.644 237.752 194.11C237.293 188.338 235.935 167.174 235.935 167.174Z" fill="white"/>
<path d="M202.265 206.081C201.531 206.075 200.806 205.909 200.142 205.595C199.478 205.282 198.889 204.827 198.417 204.264C192.325 197.316 196.921 184.062 205.045 176.58C214.237 168.029 234.866 166.105 235.722 166.105C235.985 166.111 236.243 166.185 236.47 166.319C236.574 166.413 236.657 166.528 236.712 166.658C236.768 166.787 236.794 166.926 236.79 167.067L238.608 193.896C238.601 194.159 238.528 194.417 238.394 194.644C238.3 194.748 238.184 194.831 238.055 194.886C237.926 194.942 237.786 194.969 237.646 194.965C234.433 195.294 231.191 194.778 228.239 193.468C229.201 196.461 230.163 200.844 228.667 202.661C228.297 203.162 227.814 203.569 227.256 203.848C226.699 204.127 226.083 204.269 225.46 204.264C223.977 204.197 222.57 203.588 221.505 202.554C221.112 203.158 220.593 203.671 219.985 204.058C219.376 204.445 218.692 204.698 217.978 204.799C216.054 205.012 214.451 203.73 213.275 202.554C212.968 203.145 212.545 203.667 212.03 204.089C211.516 204.512 210.921 204.826 210.282 205.012C208.679 205.333 207.182 204.371 205.9 203.302C205.736 203.86 205.436 204.368 205.025 204.779C204.614 205.19 204.106 205.49 203.548 205.654C203.375 205.809 203.172 205.927 202.951 206C202.73 206.074 202.497 206.101 202.265 206.081ZM234.866 168.349C230.484 168.884 214.023 171.236 206.541 178.183C199.273 184.917 194.89 196.996 200.128 202.875C200.471 203.288 200.924 203.597 201.434 203.767C201.944 203.937 202.491 203.961 203.014 203.837C203.976 203.516 204.189 202.34 204.296 201.378C204.3 201.173 204.362 200.973 204.476 200.803C204.589 200.632 204.75 200.498 204.938 200.416C205.129 200.316 205.349 200.282 205.562 200.321C205.775 200.36 205.969 200.469 206.113 200.63L206.541 200.951C207.824 202.126 209.213 203.302 210.175 203.088C210.923 202.981 211.672 202.019 212.42 200.523C212.475 200.368 212.576 200.233 212.71 200.138C212.844 200.042 213.004 199.99 213.168 199.989C213.334 199.944 213.508 199.941 213.675 199.978C213.843 200.015 213.999 200.092 214.13 200.202L214.771 200.844C215.733 201.806 216.909 202.981 218.085 202.875C218.94 202.768 219.902 202.019 220.864 200.523C221.077 200.249 221.38 200.06 221.719 199.989C221.886 199.98 222.053 200.015 222.203 200.09C222.353 200.165 222.481 200.277 222.574 200.416C222.962 200.95 223.457 201.397 224.028 201.728C224.598 202.06 225.232 202.268 225.888 202.34C226.185 202.318 226.474 202.23 226.733 202.082C226.992 201.934 227.214 201.73 227.384 201.485C228.453 200.095 226.85 194.644 225.46 191.331C225.37 191.094 225.366 190.834 225.45 190.595C225.533 190.357 225.699 190.156 225.917 190.028C226.135 189.899 226.391 189.853 226.64 189.896C226.889 189.938 227.115 190.068 227.277 190.262C227.277 190.262 230.163 193.148 236.79 193.041L234.866 168.349Z" fill="black"/>
<path d="M205.226 201.378C205.226 201.378 203.195 194.644 204.906 190.903L205.226 201.378Z" fill="white"/>
<path d="M205.226 202.447C204.997 202.429 204.777 202.351 204.589 202.219C204.401 202.087 204.252 201.908 204.157 201.699C204.05 201.378 202.019 194.537 203.943 190.476C204.084 190.267 204.293 190.115 204.535 190.045C204.776 189.976 205.035 189.993 205.264 190.096C205.494 190.198 205.68 190.377 205.791 190.603C205.901 190.829 205.928 191.087 205.867 191.331C204.585 194.11 205.654 199.347 206.188 201.058C206.239 201.191 206.26 201.333 206.248 201.476C206.237 201.618 206.194 201.755 206.122 201.879C206.05 202.002 205.952 202.107 205.833 202.187C205.715 202.267 205.581 202.319 205.44 202.34C205.472 202.447 205.365 202.447 205.226 202.447Z" fill="black"/>
<path d="M213.169 200.951C213.169 200.951 210.816 193.789 211.779 190.155L213.169 200.951Z" fill="white"/>
<path d="M213.168 202.019C212.95 202.008 212.742 201.93 212.57 201.796C212.398 201.662 212.271 201.479 212.206 201.271C212.099 200.951 209.747 193.789 210.816 189.834C210.923 189.61 211.106 189.43 211.331 189.325C211.557 189.22 211.812 189.198 212.053 189.261C212.293 189.324 212.504 189.47 212.649 189.672C212.794 189.874 212.864 190.12 212.847 190.369C212.099 193.148 213.595 198.706 214.237 200.63C214.288 200.763 214.311 200.905 214.307 201.048C214.302 201.19 214.269 201.33 214.209 201.46C214.149 201.589 214.064 201.706 213.959 201.802C213.853 201.898 213.73 201.972 213.595 202.019H213.168Z" fill="black"/>
<path d="M221.613 200.951C221.613 200.951 217.763 193.682 220.33 188.765L221.613 200.951Z" fill="white"/>
<path d="M221.612 202.02C221.419 202.021 221.23 201.972 221.061 201.878C220.893 201.785 220.751 201.649 220.65 201.485C220.436 201.164 216.588 193.682 219.367 188.231C219.438 188.105 219.532 187.993 219.645 187.904C219.758 187.814 219.888 187.747 220.027 187.707C220.166 187.668 220.312 187.656 220.455 187.672C220.599 187.689 220.738 187.733 220.864 187.803C220.99 187.874 221.102 187.968 221.191 188.081C221.281 188.194 221.348 188.324 221.388 188.463C221.427 188.602 221.439 188.747 221.423 188.891C221.406 189.035 221.362 189.174 221.291 189.3C218.94 193.682 222.467 200.416 222.574 200.523C222.649 200.648 222.697 200.788 222.716 200.932C222.735 201.077 222.724 201.224 222.684 201.364C222.643 201.504 222.575 201.634 222.483 201.747C222.391 201.86 222.276 201.953 222.147 202.02H221.612Z" fill="black"/>
<path d="M334.38 223.932L332.424 250.119C331.908 257.168 329.363 263.917 325.095 269.55C320.828 275.184 315.02 279.461 308.374 281.865L241.141 306.343L246.485 416.652L171.663 414.621L182.032 303.671C183.047 296.639 185.52 289.898 189.294 283.879C193.067 277.86 198.057 272.696 203.944 268.718L257.816 232.483C257.955 232.376 323.157 231.521 334.38 223.932Z" fill="#B7194A"/>
<path d="M174.474 385.441C174.18 385.416 173.907 385.281 173.708 385.063C173.51 384.845 173.402 384.56 173.405 384.265L180.995 303.671C182.024 296.464 184.553 289.554 188.42 283.386C192.286 277.218 197.403 271.93 203.441 267.863L241.921 241.996C242.04 241.919 242.174 241.866 242.314 241.84C242.453 241.815 242.597 241.817 242.736 241.846C242.875 241.876 243.006 241.933 243.123 242.014C243.24 242.094 243.34 242.197 243.418 242.317C243.495 242.436 243.548 242.569 243.573 242.709C243.599 242.849 243.597 242.992 243.567 243.131C243.537 243.27 243.48 243.402 243.4 243.519C243.319 243.636 243.216 243.736 243.097 243.813L204.617 269.68C198.821 273.563 193.911 278.627 190.208 284.54C186.506 290.453 184.095 297.082 183.132 303.991L175.543 384.479C175.517 384.743 175.392 384.988 175.195 385.166C174.997 385.344 174.74 385.442 174.474 385.441Z" fill="black"/>
<path d="M230.591 311.26C230.373 311.248 230.165 311.17 229.993 311.036C229.821 310.903 229.694 310.72 229.629 310.512C229.578 310.378 229.554 310.236 229.559 310.094C229.563 309.951 229.597 309.811 229.656 309.682C229.716 309.552 229.801 309.436 229.907 309.34C230.012 309.244 230.136 309.17 230.27 309.122L257.634 299.181C257.903 299.082 258.201 299.094 258.461 299.214C258.722 299.335 258.924 299.553 259.023 299.823C259.122 300.092 259.11 300.39 258.99 300.65C258.87 300.911 258.651 301.113 258.382 301.212L231.018 311.153C230.888 311.227 230.74 311.264 230.591 311.26Z" fill="black"/>
<path d="M131.184 203.836C135.021 203.836 138.132 200.726 138.132 196.889C138.132 193.052 135.021 189.941 131.184 189.941C127.347 189.941 124.236 193.052 124.236 196.889C124.236 200.726 127.347 203.836 131.184 203.836Z" fill="#E6416A"/>
<path d="M363.347 365.987H247.372C247.089 365.987 246.817 365.874 246.617 365.674C246.416 365.473 246.304 365.201 246.304 364.918C246.304 364.634 246.416 364.363 246.617 364.162C246.817 363.962 247.089 363.849 247.372 363.849H363.347C363.63 363.849 363.902 363.962 364.102 364.162C364.303 364.363 364.416 364.634 364.416 364.918C364.416 365.201 364.303 365.473 364.102 365.674C363.902 365.874 363.63 365.987 363.347 365.987Z" fill="black"/>
<path d="M270.995 297.044C270.995 297.044 277.622 229.704 340.472 224.466C340.472 224.466 396.589 214.419 407.064 271.925C457.943 232.376 482.634 293.409 481.138 313.825C490.972 304.312 504.867 298.967 524 303.777C540.568 307.946 561.625 331.996 561.625 364.811H398.513" fill="white"/>
<path d="M561.625 365.987H398.513C398.229 365.987 397.957 365.874 397.757 365.674C397.556 365.473 397.444 365.201 397.444 364.918C397.444 364.634 397.556 364.362 397.757 364.162C397.957 363.962 398.229 363.849 398.513 363.849H560.556C560.128 331.355 538.964 308.801 523.679 304.953C506.898 300.785 492.895 303.991 481.779 314.68C481.635 314.842 481.441 314.95 481.228 314.989C481.015 315.028 480.795 314.994 480.603 314.894C480.407 314.794 480.243 314.64 480.129 314.451C480.016 314.262 479.958 314.045 479.962 313.825C480.817 302.174 472.266 273.956 453.24 263.694C439.986 256.533 424.594 259.632 407.598 272.78C407.451 272.902 407.271 272.977 407.08 272.996C406.89 273.015 406.698 272.977 406.529 272.887C406.348 272.827 406.188 272.714 406.074 272.56C405.959 272.407 405.894 272.223 405.888 272.032C401.612 248.623 389.32 233.659 369.439 227.566C360.044 224.81 350.17 224.082 340.472 225.428C314.712 227.566 295.365 240.179 282.966 263.053C277.324 273.656 273.563 285.156 271.85 297.044C271.801 297.318 271.656 297.566 271.44 297.743C271.224 297.919 270.953 298.012 270.674 298.006C270.533 297.992 270.397 297.951 270.272 297.885C270.147 297.818 270.037 297.728 269.948 297.618C269.858 297.509 269.791 297.383 269.751 297.248C269.71 297.112 269.697 296.97 269.712 296.83C271.384 284.667 275.222 272.901 281.042 262.091C289.807 245.951 307.23 226.069 340.152 223.29C350.103 221.887 360.239 222.652 369.867 225.535C383.869 229.811 401.612 241.034 407.491 269.894C428.869 253.967 444.582 256.533 454.095 261.663C472.8 271.711 481.672 297.685 481.993 311.26C493.323 301.426 507.432 298.54 524 302.709C540.14 306.77 562.48 330.607 562.48 364.811C562.535 364.946 562.555 365.092 562.537 365.237C562.519 365.381 562.465 365.519 562.38 365.637C562.294 365.755 562.18 365.849 562.048 365.91C561.915 365.971 561.77 365.997 561.625 365.987Z" fill="black"/>
<path d="M349.344 224.894H349.131C348.866 224.842 348.631 224.692 348.472 224.474C348.314 224.256 348.243 223.986 348.275 223.718C348.382 222.863 361.53 142.269 389.428 93.3138H293.228C292.944 93.3138 292.672 93.2012 292.472 93.0007C292.272 92.8003 292.159 92.5284 292.159 92.2449C292.159 91.9614 292.272 91.6896 292.472 91.4891C292.672 91.2887 292.944 91.176 293.228 91.176H391.213C391.405 91.175 391.595 91.2236 391.764 91.3173C391.932 91.4109 392.074 91.5463 392.175 91.7105C392.279 91.8692 392.335 92.055 392.335 92.2449C392.335 92.4349 392.279 92.6207 392.175 92.7794C363.849 141.2 350.488 223.183 350.381 224.039C350.332 224.278 350.203 224.494 350.014 224.649C349.825 224.805 349.589 224.891 349.344 224.894Z" fill="black"/>
<path d="M469.38 132.97C469.237 132.979 469.094 132.958 468.96 132.907C468.826 132.857 468.704 132.779 468.603 132.677C468.502 132.576 468.424 132.455 468.373 132.321C468.323 132.187 468.302 132.043 468.311 131.901C468.308 128.868 467.102 125.961 464.958 123.817C462.814 121.672 459.906 120.466 456.874 120.464C454.858 120.478 452.881 121.018 451.137 122.03C449.394 123.042 447.945 124.492 446.933 126.236C446.863 126.362 446.769 126.473 446.656 126.563C446.542 126.653 446.413 126.72 446.274 126.759C446.135 126.799 445.989 126.811 445.846 126.794C445.702 126.778 445.563 126.733 445.437 126.663C445.311 126.593 445.199 126.499 445.109 126.385C445.02 126.272 444.953 126.142 444.913 126.003C444.874 125.864 444.862 125.719 444.878 125.575C444.895 125.432 444.939 125.293 445.009 125.167C446.211 123.107 447.925 121.394 449.986 120.195C452.047 118.996 454.383 118.352 456.767 118.326C460.36 118.34 463.801 119.776 466.339 122.319C468.877 124.863 470.304 128.308 470.31 131.901C470.33 132.034 470.321 132.17 470.283 132.299C470.246 132.429 470.18 132.548 470.092 132.65C470.004 132.752 469.894 132.833 469.771 132.888C469.648 132.943 469.515 132.971 469.38 132.97Z" fill="black"/>
<path d="M469.38 132.97C469.237 132.979 469.094 132.958 468.96 132.907C468.826 132.857 468.704 132.779 468.603 132.677C468.502 132.576 468.424 132.455 468.373 132.321C468.323 132.187 468.302 132.043 468.311 131.901C468.305 128.907 469.289 125.996 471.111 123.621C472.933 121.246 475.49 119.541 478.383 118.772C481.276 118.003 484.341 118.214 487.102 119.37C489.863 120.527 492.163 122.565 493.644 125.167C493.714 125.293 493.759 125.432 493.775 125.575C493.792 125.719 493.78 125.864 493.74 126.003C493.7 126.142 493.633 126.272 493.544 126.385C493.454 126.499 493.343 126.593 493.216 126.663C493.09 126.733 492.951 126.778 492.807 126.794C492.664 126.811 492.518 126.799 492.379 126.759C492.24 126.72 492.111 126.653 491.998 126.563C491.884 126.473 491.79 126.362 491.72 126.236C490.708 124.492 489.259 123.042 487.516 122.03C485.772 121.018 483.795 120.478 481.779 120.464C480.275 120.461 478.785 120.754 477.394 121.328C476.003 121.901 474.739 122.743 473.674 123.805C472.609 124.867 471.764 126.129 471.186 127.518C470.609 128.907 470.311 130.396 470.31 131.901C470.33 132.034 470.321 132.17 470.283 132.299C470.246 132.429 470.181 132.548 470.092 132.65C470.004 132.752 469.894 132.833 469.771 132.888C469.648 132.943 469.515 132.971 469.38 132.97Z" fill="black"/>
<path d="M81.8017 414.407C81.6589 414.417 81.5157 414.395 81.3817 414.345C81.2478 414.295 81.1261 414.216 81.0249 414.115C80.9237 414.014 80.8453 413.892 80.7949 413.758C80.7445 413.624 80.7234 413.481 80.7328 413.338C80.73 410.306 79.5241 407.398 77.3798 405.254C75.2356 403.11 72.3282 401.904 69.2957 401.901C67.2798 401.915 65.3025 402.455 63.5592 403.468C61.8158 404.48 60.3667 405.929 59.3551 407.673C59.2133 407.928 58.9761 408.117 58.6954 408.197C58.4148 408.277 58.1138 408.243 57.8587 408.101C57.6035 407.959 57.4151 407.722 57.3349 407.441C57.2548 407.16 57.2894 406.859 57.4311 406.604C58.6323 404.545 60.3469 402.832 62.4077 401.633C64.4684 400.434 66.8048 399.79 69.1888 399.763C72.7874 399.769 76.2369 401.201 78.7815 403.746C81.326 406.29 82.758 409.74 82.7637 413.338C82.7864 413.475 82.7782 413.614 82.7395 413.747C82.7008 413.88 82.6327 414.002 82.5403 414.105C82.4478 414.207 82.3334 414.288 82.2055 414.34C82.0777 414.393 81.9396 414.415 81.8017 414.407Z" fill="black"/>
<path d="M81.802 414.407C81.6592 414.417 81.516 414.396 81.3821 414.345C81.2481 414.295 81.1264 414.216 81.0252 414.115C80.924 414.014 80.8456 413.892 80.7953 413.758C80.7449 413.624 80.7237 413.481 80.7331 413.338C80.7266 410.345 81.7111 407.434 83.5331 405.059C85.355 402.684 87.9119 400.979 90.8047 400.21C93.6975 399.441 96.7635 399.651 99.5242 400.808C102.285 401.965 104.585 404.003 106.066 406.604C106.136 406.731 106.181 406.87 106.197 407.013C106.214 407.157 106.202 407.302 106.162 407.441C106.122 407.58 106.056 407.71 105.966 407.823C105.876 407.936 105.765 408.031 105.638 408.101C105.512 408.171 105.373 408.216 105.229 408.232C105.086 408.249 104.94 408.237 104.801 408.197C104.662 408.157 104.533 408.091 104.42 408.001C104.306 407.911 104.212 407.8 104.142 407.673C103.13 405.93 101.681 404.48 99.9377 403.468C98.1943 402.455 96.217 401.915 94.2011 401.901C91.1687 401.904 88.2613 403.11 86.117 405.254C83.9727 407.399 82.7669 410.306 82.764 413.338C82.7868 413.475 82.7785 413.614 82.7398 413.747C82.7011 413.88 82.633 414.002 82.5406 414.105C82.4482 414.207 82.3338 414.288 82.2059 414.34C82.078 414.393 81.94 414.416 81.802 414.407Z" fill="black"/>
<path d="M468.632 408.101C439.772 408.101 421.708 395.381 405.781 384.158C392.527 374.752 380.021 365.987 363.347 365.987C363.063 365.987 362.791 365.874 362.591 365.674C362.39 365.473 362.278 365.201 362.278 364.918C362.278 364.634 362.39 364.363 362.591 364.162C362.791 363.962 363.063 363.849 363.347 363.849C380.663 363.849 393.489 372.828 407.064 382.448C422.777 393.457 440.52 406.07 468.632 406.07C468.775 406.061 468.918 406.082 469.052 406.132C469.186 406.182 469.307 406.261 469.409 406.362C469.51 406.463 469.588 406.585 469.639 406.719C469.689 406.853 469.71 406.996 469.701 407.139C469.701 407.78 469.241 408.101 468.632 408.101Z" fill="black"/>
<path d="M414.011 76.746C435.204 76.746 452.384 59.5658 452.384 38.373C452.384 17.1802 435.204 0 414.011 0C392.819 0 375.638 17.1802 375.638 38.373C375.638 59.5658 392.819 76.746 414.011 76.746Z" fill="#E6416A"/>
<path d="M60.4243 172.091C58.349 172.126 56.2874 171.748 54.3603 170.977C52.4332 170.206 50.6792 169.059 49.201 167.601C43.0014 161.295 42.0394 149.217 46.2081 131.58C46.2189 131.423 46.2643 131.27 46.341 131.133C46.4176 130.996 46.5236 130.877 46.6515 130.785C46.7793 130.694 46.9258 130.631 47.0805 130.603C47.2352 130.574 47.3943 130.58 47.5464 130.62C47.6986 130.66 47.84 130.733 47.9606 130.834C48.0812 130.935 48.1781 131.062 48.2442 131.204C48.3104 131.347 48.3442 131.503 48.3433 131.66C48.3424 131.817 48.3068 131.972 48.239 132.114C44.2841 148.789 45.1392 160.547 50.6974 166.212C55.6143 171.236 62.8827 169.846 62.8827 169.846C63.1662 169.789 63.4606 169.848 63.7011 170.008C63.9417 170.168 64.1087 170.418 64.1654 170.701C64.2221 170.985 64.1638 171.279 64.0035 171.52C63.8431 171.76 63.5937 171.927 63.3103 171.984C63.3103 171.77 62.1345 172.091 60.4243 172.091Z" fill="black"/>
<path d="M9.75906 129.122L113.12 135.214L111.089 59.1095L1.10107 67.0192L2.49063 128.266" fill="white"/>
<path d="M113.12 136.283L9.75895 130.19C9.47546 130.162 9.21484 130.022 9.03443 129.802C8.85402 129.581 8.76859 129.298 8.79694 129.015C8.82529 128.731 8.96509 128.471 9.18559 128.29C9.40609 128.11 9.68924 128.024 9.97272 128.053L112.158 134.145L110.234 60.2852L2.13779 67.9812L3.52734 128.266C3.53679 128.409 3.51561 128.552 3.46523 128.686C3.41486 128.82 3.33645 128.942 3.23525 129.043C3.13404 129.144 3.01239 129.223 2.87842 129.273C2.74445 129.324 2.60127 129.345 2.45845 129.335C2.17497 129.335 1.90309 129.223 1.70264 129.022C1.50218 128.822 1.38957 128.55 1.38957 128.266L1.34355e-05 67.0192C-0.0013191 66.7533 0.0965128 66.4965 0.274395 66.2988C0.452277 66.1012 0.69743 65.9769 0.962004 65.9503L110.95 58.1475C111.234 58.1475 111.506 58.2601 111.706 58.4605C111.907 58.661 112.019 58.9329 112.019 59.2163L114.05 135.321C114.065 135.463 114.043 135.606 113.987 135.737C113.931 135.868 113.842 135.982 113.729 136.069C113.559 136.213 113.343 136.289 113.12 136.283Z" fill="black"/>
<path d="M37.1223 106.461C36.8952 106.439 36.676 106.366 36.481 106.247L25.0439 98.0168C24.905 97.9232 24.7927 97.7953 24.7178 97.6455C24.6429 97.4956 24.6079 97.329 24.6163 97.1617C24.6465 96.8331 24.7991 96.5279 25.0439 96.3066L36.481 88.0762C36.5933 87.992 36.721 87.9307 36.857 87.8959C36.993 87.861 37.1345 87.8533 37.2735 87.8732C37.4124 87.893 37.5461 87.94 37.6669 88.0116C37.7877 88.0831 37.8932 88.1777 37.9774 88.29C38.0616 88.4023 38.1229 88.5301 38.1577 88.666C38.1926 88.802 38.2003 88.9435 38.1805 89.0825C38.1606 89.2214 38.1136 89.3551 38.042 89.4759C37.9705 89.5967 37.8759 89.7022 37.7636 89.7864L27.6092 97.0549L37.7636 104.323C37.8759 104.407 37.9705 104.513 38.042 104.634C38.1136 104.755 38.1606 104.888 38.1805 105.027C38.2003 105.166 38.1926 105.308 38.1577 105.444C38.1229 105.58 38.0616 105.707 37.9774 105.82C37.8705 106.354 37.5499 106.461 37.1223 106.461Z" fill="black"/>
<path d="M77.0986 106.461C76.9313 106.47 76.7647 106.435 76.6148 106.36C76.465 106.285 76.3371 106.172 76.2435 106.034C76.0932 105.8 76.0321 105.52 76.0713 105.246C76.1106 104.971 76.2476 104.719 76.4572 104.537L86.6116 97.2687L76.4572 90.0003C76.2304 89.8302 76.0805 89.577 76.0404 89.2963C76.0003 89.0157 76.0734 88.7306 76.2435 88.5039C76.4135 88.2771 76.6668 88.1271 76.9474 88.087C77.228 88.047 77.5131 88.12 77.7399 88.2901L89.177 96.5205C89.3158 96.6142 89.4282 96.7421 89.5031 96.8919C89.578 97.0417 89.6129 97.2083 89.6045 97.3756C89.5744 97.7042 89.4217 98.0094 89.177 98.2307L77.7399 106.461C77.5261 106.354 77.3123 106.461 77.0986 106.461Z" fill="black"/>
<path d="M43.6427 115.012C43.4156 114.99 43.1964 114.917 43.0014 114.798C42.7917 114.616 42.6548 114.365 42.6155 114.09C42.5762 113.815 42.6373 113.535 42.7876 113.302L69.7235 79.8458C69.8077 79.7335 69.9133 79.6389 70.034 79.5674C70.1548 79.4958 70.2885 79.4488 70.4275 79.429C70.5664 79.4091 70.7079 79.4168 70.8439 79.4517C70.9799 79.4865 71.1077 79.5478 71.22 79.632C71.3323 79.7162 71.4269 79.8217 71.4984 79.9425C71.5699 80.0633 71.6169 80.197 71.6368 80.3359C71.6566 80.4749 71.6489 80.6164 71.6141 80.7524C71.5792 80.8883 71.518 81.0161 71.4337 81.1284L44.4978 114.585C44.4042 114.723 44.2762 114.836 44.1264 114.911C43.9766 114.986 43.81 115.021 43.6427 115.012Z" fill="black"/>
<path d="M598.929 365.987H573.276C572.992 365.987 572.72 365.874 572.52 365.674C572.319 365.473 572.207 365.201 572.207 364.918C572.207 364.635 572.319 364.363 572.52 364.162C572.72 363.962 572.992 363.849 573.276 363.849H598.929C599.072 363.84 599.215 363.861 599.349 363.911C599.483 363.962 599.604 364.04 599.706 364.141C599.807 364.242 599.885 364.364 599.936 364.498C599.986 364.632 600.007 364.775 599.998 364.918C599.998 365.201 599.885 365.473 599.685 365.674C599.484 365.874 599.212 365.987 598.929 365.987Z" fill="black"/>
</svg>
