<svg width="1112" height="885" viewBox="0 0 1112 885" fill="none" xmlns="http://www.w3.org/2000/svg">
<g clip-path="url(#clip0_2_780)">
<path d="M579.95 121.18H425.02V350.37H579.95V121.18Z" fill="#3EC1F3"/>
<path d="M379.63 121.18H425.02V350.37H323.26V177.55C323.26 162.6 329.199 148.262 339.771 137.69C350.342 127.119 364.68 121.18 379.63 121.18Z" fill="#3EC1F3"/>
<path d="M371.39 305.45C383.811 305.45 393.88 294.445 393.88 280.87C393.88 267.295 383.811 256.29 371.39 256.29C358.969 256.29 348.9 267.295 348.9 280.87C348.9 294.445 358.969 305.45 371.39 305.45Z" fill="#F4E6D8"/>
<path d="M403.02 281.4H339.76C339.758 287.683 341.628 293.824 345.131 299.039C348.635 304.254 353.613 308.307 359.43 310.68V318.68H383.35V310.68C389.168 308.307 394.146 304.254 397.649 299.039C401.153 293.824 403.023 287.683 403.02 281.4Z" fill="#4756DF"/>
<path d="M322.09 220L423.09 179" stroke="#4756DF" stroke-width="4" stroke-miterlimit="10" stroke-linecap="round"/>
<path d="M423.19 121.18V350.37" stroke="#4756DF" stroke-width="4" stroke-miterlimit="10"/>
<path d="M992.49 722.57V634.57L939.32 580.48H789.89L736.72 634.57V716.16H550.62V682.23C491.03 675.81 509.36 631.81 476.36 631.81H417.69C413.414 631.794 409.224 633.009 405.62 635.31L322.79 584.12H237.54L130.74 650.12H130.97V733.22L59.2402 777.55V853.64H1045.66V776.64L992.49 722.57Z" fill="#F5EBDD"/>
<path d="M1081.42 853.66H1023.66C1023.66 837.72 1036.59 821.58 1052.54 821.58C1068.49 821.58 1081.42 837.72 1081.42 853.66Z" fill="#FFB7D5"/>
<path d="M1111.49 853.66H1068.58C1068.58 841.82 1078.19 829.83 1090.03 829.83C1101.87 829.83 1111.49 841.82 1111.49 853.66Z" fill="#FFB7D5"/>
<path d="M268.56 468.66C296.56 459.99 332.56 447.53 442.11 537.12C551.66 626.71 593.11 568.12 581.9 554.58C572.9 543.68 522.64 573.09 560.05 612.74C595.6 650.44 699.79 614.38 728.36 591.3C769.02 558.46 827.23 532.63 878.54 530.77" stroke="#FFB7D5" stroke-width="4" stroke-linecap="round" stroke-linejoin="round" stroke-dasharray="12 12"/>
<path d="M344.35 650.14L237.54 584.14" stroke="#FFB7D5" stroke-width="4" stroke-linecap="round" stroke-linejoin="round"/>
<path d="M131.97 650.14H344.58V852.66" stroke="#FFB7D5" stroke-width="4" stroke-linecap="round" stroke-linejoin="round"/>
<path d="M128.22 853.04L129.22 734.22" stroke="#FFB7D5" stroke-width="4" stroke-linecap="round" stroke-linejoin="round"/>
<path d="M60.2402 777.57H127.99" stroke="#FFB7D5" stroke-width="4" stroke-linecap="round" stroke-linejoin="round"/>
<path d="M129.37 763.36H342.97" stroke="#FFB7D5" stroke-width="4" stroke-linecap="round" stroke-linejoin="round"/>
<path d="M734.42 793.62H885.69" stroke="#FFB7D5" stroke-width="4" stroke-linecap="round" stroke-linejoin="round"/>
<path d="M344.35 650.14H394.19" stroke="#FFB7D5" stroke-width="4" stroke-linecap="round" stroke-linejoin="round"/>
<path d="M737.72 634.56H886.15V852.66" stroke="#FFB7D5" stroke-width="4" stroke-linecap="round" stroke-linejoin="round"/>
<path d="M886.15 851.66V634.56H990.49" stroke="#FFB7D5" stroke-width="4" stroke-linecap="round" stroke-linejoin="round"/>
<path d="M492.86 684.06H549.62" stroke="#FFB7D5" stroke-width="4" stroke-linecap="round" stroke-linejoin="round"/>
<path d="M939.32 852.66V776.66H1044.09" stroke="#FFB7D5" stroke-width="4" stroke-linecap="round" stroke-linejoin="round"/>
<path d="M938.74 581.06L886.15 634.56" stroke="#FFB7D5" stroke-width="4" stroke-linecap="round" stroke-linejoin="round"/>
<path d="M886.15 722.57L939.32 776.66" stroke="#FFB7D5" stroke-width="4" stroke-linecap="round" stroke-linejoin="round"/>
<path d="M990.95 720.28H886.61" stroke="#FFB7D5" stroke-width="4" stroke-linecap="round" stroke-linejoin="round"/>
<path d="M418.81 633.64C385.81 633.64 404.14 677.64 344.55 684.06H493.09C433.47 677.65 451.81 633.64 418.81 633.64Z" stroke="#FFB7D5" stroke-width="4" stroke-linecap="round" stroke-linejoin="round"/>
<path d="M344.55 851.66V684.07H493.06V852.66" stroke="#FFB7D5" stroke-width="4" stroke-linecap="round" stroke-linejoin="round"/>
<path d="M492.86 851.66V732.65H734.43V852.66" stroke="#FFB7D5" stroke-width="4" stroke-linecap="round" stroke-linejoin="round"/>
<path d="M493.29 730.41L549.09 714.31" stroke="#FFB7D5" stroke-width="4" stroke-linecap="round" stroke-linejoin="round"/>
<path d="M734.43 717.15V732.65H492.86" stroke="#FFB7D5" stroke-width="4" stroke-linecap="round" stroke-linejoin="round"/>
<path d="M540.85 760.16H541.09C545.429 760.16 549.59 761.884 552.658 764.952C555.727 768.02 557.45 772.181 557.45 776.52V853.67H524.45V776.52C524.45 774.368 524.875 772.238 525.699 770.25C526.524 768.263 527.733 766.457 529.256 764.938C530.78 763.418 532.588 762.214 534.577 761.394C536.567 760.574 538.698 760.155 540.85 760.16Z" fill="#FFB7D5"/>
<path d="M688.45 760.16H688.73C693.069 760.16 697.23 761.884 700.298 764.952C703.366 768.02 705.09 772.181 705.09 776.52V853.67H672.09V776.52C672.09 772.181 673.813 768.02 676.882 764.952C679.95 761.884 684.111 760.16 688.45 760.16Z" fill="#FFB7D5"/>
<path d="M614.65 760.16H614.93C619.269 760.16 623.43 761.884 626.498 764.952C629.566 768.02 631.29 772.181 631.29 776.52V853.67H598.29V776.52C598.29 772.181 600.014 768.02 603.082 764.952C606.15 761.884 610.311 760.16 614.65 760.16Z" fill="#FFB7D5"/>
<path d="M994.19 797.74H994.47C998.809 797.74 1002.97 799.464 1006.04 802.532C1009.11 805.6 1010.83 809.761 1010.83 814.1V853.66H977.83V814.1C977.83 809.761 979.554 805.6 982.622 802.532C985.69 799.464 989.851 797.74 994.19 797.74Z" fill="#FFB7D5"/>
<path d="M174.84 797.74H175.09C179.429 797.74 183.59 799.464 186.658 802.532C189.727 805.6 191.45 809.761 191.45 814.1V853.66H158.45V814.1C158.45 811.952 158.873 809.824 159.696 807.839C160.518 805.854 161.723 804.051 163.242 802.532C164.761 801.013 166.565 799.808 168.549 798.985C170.534 798.163 172.662 797.74 174.81 797.74H174.84Z" fill="#FFB7D5"/>
<path d="M300.43 797.74H300.71C302.86 797.737 304.989 798.159 306.977 798.98C308.964 799.801 310.77 801.005 312.291 802.525C313.812 804.044 315.019 805.848 315.843 807.835C316.666 809.821 317.09 811.95 317.09 814.1V853.66H284.09V814.1C284.09 809.765 285.811 805.606 288.875 802.539C291.938 799.471 296.094 797.745 300.43 797.74Z" fill="#FFB7D5"/>
<path d="M237.63 797.74H237.91C242.249 797.74 246.41 799.464 249.478 802.532C252.546 805.6 254.27 809.761 254.27 814.1V853.66H221.27V814.1C221.27 809.761 222.994 805.6 226.062 802.532C229.13 799.464 233.291 797.74 237.63 797.74Z" fill="#FFB7D5"/>
<path d="M191.47 679.48H158.47V735.4H191.47V679.48Z" fill="#FFB7D5"/>
<path d="M317.07 679.48H284.07V735.4H317.07V679.48Z" fill="#FFB7D5"/>
<path d="M254.27 679.48H221.27V735.4H254.27V679.48Z" fill="#FFB7D5"/>
<path d="M406.42 712.48H379V753.73H406.42V712.48Z" fill="#FFB7D5"/>
<path d="M458.6 712.48H431.18V753.73H458.6V712.48Z" fill="#FFB7D5"/>
<path d="M406.42 784.91H379V826.16H406.42V784.91Z" fill="#FFB7D5"/>
<path d="M458.6 784.91H431.18V826.16H458.6V784.91Z" fill="#FFB7D5"/>
<path d="M797.88 657.48H770.46V698.73H797.88V657.48Z" fill="#FFB7D5"/>
<path d="M850.06 657.48H822.64V698.73H850.06V657.48Z" fill="#FFB7D5"/>
<path d="M955.49 657.48H928.07V698.73H955.49V657.48Z" fill="#FFB7D5"/>
<path d="M797.88 729.9H770.46V771.15H797.88V729.9Z" fill="#FFB7D5"/>
<path d="M850.06 729.9H822.64V771.15H850.06V729.9Z" fill="#FFB7D5"/>
<path d="M273.76 416.83C273.76 437.46 251.76 461.29 243.04 461.29C234.32 461.29 212.33 437.46 212.33 416.83C212.475 408.78 215.775 401.109 221.52 395.467C227.264 389.825 234.994 386.664 243.045 386.664C251.097 386.664 258.826 389.825 264.571 395.467C270.315 401.109 273.615 408.78 273.76 416.83Z" fill="#FFB7D5"/>
<path d="M243.04 426.46C248.359 426.46 252.67 422.149 252.67 416.83C252.67 411.512 248.359 407.2 243.04 407.2C237.722 407.2 233.41 411.512 233.41 416.83C233.41 422.149 237.722 426.46 243.04 426.46Z" fill="white"/>
<path d="M944.82 484.58C944.82 505.21 922.82 529.04 914.11 529.04C905.4 529.04 883.4 505.21 883.4 484.58C883.4 476.435 886.636 468.624 892.395 462.865C898.154 457.106 905.966 453.87 914.11 453.87C922.255 453.87 930.066 457.106 935.826 462.865C941.585 468.624 944.82 476.435 944.82 484.58Z" fill="#FFB7D5"/>
<path d="M914.11 494.21C919.428 494.21 923.74 489.899 923.74 484.58C923.74 479.262 919.428 474.95 914.11 474.95C908.791 474.95 904.48 479.262 904.48 484.58C904.48 489.899 908.791 494.21 914.11 494.21Z" fill="white"/>
<path d="M30.6299 853.66H88.3899C88.3899 837.72 75.4599 821.58 59.5099 821.58C43.5599 821.58 30.6299 837.72 30.6299 853.66Z" fill="#FFB7D5"/>
<path d="M0.560059 853.66H43.4701C43.4701 841.82 33.8601 829.83 22.0201 829.83C10.18 829.83 0.560059 841.82 0.560059 853.66Z" fill="#FFB7D5"/>
<path d="M523.88 286C452.71 329.51 427.96 450.71 412.88 494.93C396.57 542.75 360.65 541.66 318.97 555.58C277.29 569.5 278.84 599.85 278.84 599.85C269.098 606.487 259.789 613.738 250.97 621.56L303.74 689C316.19 680.41 334.67 669.64 360.02 654.33C412.38 622.7 459.25 593 489.5 560C519.75 527 599.25 382.3 599.25 382.3L523.88 286Z" fill="#4856DF"/>
<path d="M303.74 689L250.96 621.57C227.36 642.57 213.22 662.57 206.11 674.21L280.52 769.27C291 750.27 282.67 723.53 283.52 711.86C284.09 704.83 290.47 698.16 303.74 689Z" fill="#30242A"/>
<path d="M200.33 684.69L273.49 778.16C276.306 775.615 278.673 772.613 280.49 769.28L206.09 674.22C203.983 677.604 202.06 681.099 200.33 684.69Z" fill="#3EC1F3"/>
<path d="M276.68 693L290.85 700.89" stroke="white" stroke-width="4" stroke-linecap="round" stroke-linejoin="round"/>
<path d="M270.37 707.26L284.57 710.48" stroke="white" stroke-width="4" stroke-linecap="round" stroke-linejoin="round"/>
<path d="M295.71 626.72L270.43 646.48" stroke="#3EC1F3" stroke-width="4" stroke-miterlimit="10" stroke-linecap="round"/>
<path d="M282.91 610.35L257.63 630.11" stroke="#3EC1F3" stroke-width="4" stroke-miterlimit="10" stroke-linecap="round"/>
<path d="M308.51 643.09L283.23 662.85" stroke="#3EC1F3" stroke-width="4" stroke-miterlimit="10" stroke-linecap="round"/>
<path d="M321.31 659.46L296.03 679.22" stroke="#3EC1F3" stroke-width="4" stroke-miterlimit="10" stroke-linecap="round"/>
<path d="M276.55 600.72L332.02 671.68" stroke="#3EC1F3" stroke-width="4" stroke-miterlimit="10" stroke-linecap="round"/>
<path d="M545.91 474.48C533.86 455.48 522.07 434.48 513.11 412.81" stroke="#30242A" stroke-width="4" stroke-linecap="round" stroke-linejoin="round"/>
<path d="M565.74 19.42C570.551 19.42 574.45 15.5204 574.45 10.71C574.45 5.89961 570.551 2 565.74 2C560.93 2 557.03 5.89961 557.03 10.71C557.03 15.5204 560.93 19.42 565.74 19.42Z" fill="#4756DF"/>
<path d="M593.39 137.68L592.79 127.56C604.44 129.02 613.07 127.29 619.24 124.13L592.79 102.84C592.79 102.84 601.95 99.18 596.45 79.92L625.89 69.22C624.34 65.22 623.31 55.58 620.34 45.22L602.81 52.85C598.717 60.7036 592.848 67.4936 585.67 72.68C582.704 69.613 579.392 66.9014 575.8 64.6C575.32 64.29 574.8 64 574.32 63.71H574.27C573.78 63.43 573.27 63.16 572.78 62.9H572.7C572.2 62.65 571.7 62.4 571.19 62.18L571.09 62C570.6 61.77 570.09 61.57 569.58 61.37H569.44C568.93 61.19 568.44 61.02 567.92 60.86H567.75C567.25 60.71 566.75 60.58 566.23 60.47H566.05C565.54 60.36 565.05 60.28 564.53 60.22H564.33C563.83 60.17 563.33 60.14 562.82 60.13C558.45 60.07 554.12 61.85 550.51 66.9C548.355 69.8279 547.185 73.3645 547.17 77C547.24 87.75 557.24 98 566.17 101C559.11 115.89 536.3 125.18 527.55 128.27C527.83 131.68 528.1 134.85 528.34 137.68H593.39Z" fill="#EAA58B"/>
<path d="M771.33 199.1C767.19 199.1 765.19 195.74 766.86 191.6L780.86 157.03L780.75 156.93L780.99 156.7C784.86 153.064 788.463 149.154 791.77 145C798.09 136.95 799.99 131.1 797.77 128.71C797.133 128.068 796.291 127.671 795.39 127.59C794.475 127.479 793.547 127.533 792.65 127.75C785.51 129.31 773.28 139.04 759.65 155.09C743.16 174.48 711.09 212.85 711.09 212.85C707.75 210.3 702.9 205.98 697.09 200.77L650.95 260.09C660.838 267.786 671.393 274.583 682.49 280.4C684.584 273.919 688.58 268.219 693.958 264.04C699.336 259.862 705.848 257.4 712.645 256.974C719.443 256.547 726.211 258.177 732.069 261.651C737.927 265.125 742.604 270.281 745.49 276.45C773.29 255.68 795.25 218.62 805.54 199.1H771.33Z" fill="#EAA58B"/>
<path d="M618.46 150.51H604.36C631.25 166.71 619.36 197.27 619.36 197.27C619.36 197.27 656.09 222.94 631.29 254.11C633.11 252.195 634.652 250.034 635.87 247.69C635.87 247.69 641.79 253.13 650.87 260.09L697.01 200.77C675.58 181.65 640.79 150.51 618.46 150.51Z" fill="#FFB7D5"/>
<path d="M477.28 200C477.28 200 450.28 222.51 468.53 252.65L478.14 198.65L477.28 200Z" fill="#FF7235"/>
<path d="M528.3 137.68V138.01L529.46 137.68H528.3Z" fill="#FF7235"/>
<path d="M566.09 101C557.2 98 547.2 87.78 547.09 77L524.18 87C525.07 99.62 526.36 115.53 527.43 128.27C536.26 125.18 559.09 115.89 566.09 101Z" fill="#30242A"/>
<path d="M592.79 102.84L619.24 124.13C624.48 121.605 628.631 117.273 630.93 111.93C634.83 102.17 632.31 93.77 629.27 82.87C629.27 82.87 637.02 77.68 635.81 72.87C634.81 68.96 625.98 69.5 625.98 69.5L625.89 69.25L596.45 79.95C601.95 99.18 592.79 102.84 592.79 102.84Z" fill="#30242A"/>
<path d="M585.67 72.66C592.849 67.4736 598.717 60.6836 602.81 52.83L575.81 64.58C579.399 66.8821 582.708 69.5936 585.67 72.66Z" fill="#30242A"/>
<path d="M550.49 66.8C554.1 61.75 558.43 59.97 562.8 60.03H562.7C560.19 32.28 566.38 17.19 570.97 10.03C566.569 10.68 562.223 11.6628 557.97 12.97C526.16 22.6 522.51 53.97 523.4 72.63C523.57 76.37 523.89 81.35 524.28 86.97L547.19 76.97C547.179 73.3151 548.335 69.7521 550.49 66.8Z" fill="#4756DF"/>
<path d="M574.27 63.66C573.78 63.38 573.27 63.11 572.78 62.85C573.29 63.11 573.78 63.38 574.27 63.66Z" fill="#3EC1F3"/>
<path d="M575.8 64.58C575.32 64.27 574.8 63.98 574.32 63.69C574.82 64 575.32 64.27 575.8 64.58Z" fill="#3EC1F3"/>
<path d="M567.73 60.81C567.23 60.66 566.73 60.53 566.21 60.42C566.72 60.53 567.23 60.66 567.73 60.81Z" fill="#3EC1F3"/>
<path d="M564.31 60.12C563.81 60.07 563.31 60.04 562.8 60.03C563.3 60 563.81 60.07 564.31 60.12Z" fill="#3EC1F3"/>
<path d="M566.03 60.39C565.52 60.28 565.03 60.2 564.51 60.14C565.02 60.2 565.52 60.28 566.03 60.39Z" fill="#3EC1F3"/>
<path d="M569.42 61.36C568.91 61.18 568.42 61.01 567.9 60.85C568.41 61 568.91 61.18 569.42 61.36Z" fill="#3EC1F3"/>
<path d="M571.09 62C570.6 61.77 570.09 61.57 569.58 61.37C570.09 61.61 570.58 61.81 571.09 62Z" fill="#3EC1F3"/>
<path d="M562.7 60H562.8C563.3 60 563.8 60 564.31 60.09H564.51C565.02 60.15 565.51 60.23 566.03 60.34H566.21C566.72 60.45 567.21 60.58 567.73 60.73H567.9C568.41 60.89 568.9 61.06 569.42 61.24H569.56C570.07 61.44 570.56 61.64 571.07 61.87L571.19 61.92C571.7 62.14 572.19 62.39 572.7 62.64H572.78C573.29 62.9 573.78 63.17 574.27 63.45H574.32C574.82 63.74 575.32 64.03 575.8 64.34L602.8 52.59L620.33 44.96C614.98 26.3 603.33 5.22 570.96 9.82C566.38 17.18 560.19 32.27 562.7 60Z" fill="#3EC1F3"/>
<path d="M714.71 256.86C707.529 256.862 700.534 259.142 694.732 263.372C688.93 267.602 684.619 273.564 682.42 280.4C697.14 287.88 712.71 292.48 724.8 288.03C732.206 285.179 739.163 281.28 745.46 276.45C742.732 270.595 738.389 265.641 732.942 262.171C727.494 258.7 721.169 256.858 714.71 256.86Z" fill="#CA7358"/>
<path d="M623.09 313.24C656.09 291.69 633.09 255 631.29 254.11C656.04 222.94 619.37 197.27 619.37 197.27C619.37 197.27 631.25 166.71 604.37 150.51H594.15L593.39 137.68H529.49L528.33 138.01L529.41 150.51H508.79L478.14 198.66L468.53 252.66L469.02 253.47C468.693 254.077 468.36 254.687 468.02 255.3C461.82 267.5 460.91 277.88 462.5 286.3C465.81 303.91 479.99 313.19 479.99 313.19H623.09V313.24Z" fill="#FF7235"/>
<path d="M480.03 329.31H623.04V316.45V313.24H480.03V316.45V329.31Z" fill="#30242A"/>
<path d="M465.09 197.27H619.37" stroke="#A15842" stroke-width="4" stroke-miterlimit="10" stroke-linecap="round"/>
<path d="M468.77 254.11H632.09" stroke="#A15842" stroke-width="4" stroke-miterlimit="10" stroke-linecap="round"/>
<path d="M596.45 156.93L596.11 151.51" stroke="#A15842" stroke-width="4" stroke-miterlimit="10" stroke-linecap="round"/>
<path d="M579.03 154.18L578.12 139.51" stroke="#A15842" stroke-width="4" stroke-miterlimit="10" stroke-linecap="round"/>
<path d="M565.28 154.18L564.37 139.51" stroke="#A15842" stroke-width="4" stroke-miterlimit="10" stroke-linecap="round"/>
<path d="M551.53 154.18L550.62 139.51" stroke="#A15842" stroke-width="4" stroke-miterlimit="10" stroke-linecap="round"/>
<path d="M709.17 212.08L698.21 225.69" stroke="#A15842" stroke-width="4" stroke-linecap="round" stroke-linejoin="round"/>
<path d="M579.95 126.68C584.004 128.098 588.203 129.06 592.47 129.55" stroke="#A15842" stroke-width="4" stroke-miterlimit="10" stroke-linecap="round"/>
<path d="M791.77 145C791.82 147.69 793.77 149.59 796.84 149.59H826.75C830.89 149.59 835.61 146.23 837.29 142.08L846.41 119.5C848.08 115.36 846.08 112 841.94 112H812.02C807.88 112 803.16 115.36 801.49 119.5L797.77 128.71C799.99 131.11 798.09 137 791.77 145Z" fill="#F5EBDD"/>
<path d="M853.36 97.34H845.28L844.57 99.09C844.009 100.393 843.102 101.517 841.948 102.34C840.793 103.163 839.434 103.654 838.02 103.76H822.6C820.03 103.76 818.78 101.67 819.82 99.09L820.53 97.34H812.45C808.3 97.34 803.59 100.7 801.91 104.85L792.65 127.76C793.547 127.543 794.475 127.489 795.39 127.6C796.291 127.682 797.133 128.078 797.77 128.72L801.49 119.51C803.16 115.37 807.88 112.01 812.02 112.01H841.94C846.08 112.01 848.08 115.37 846.41 119.51L837.29 142.09C835.61 146.24 830.89 149.6 826.75 149.6H796.84C793.73 149.6 791.84 147.7 791.77 145.01C788.452 149.161 784.84 153.068 780.96 156.7L780.83 157.03L766.83 191.6C765.16 195.74 767.16 199.1 771.3 199.1H812.22C816.36 199.1 821.08 195.74 822.75 191.6L857.75 104.85C859.51 100.7 857.51 97.34 853.36 97.34ZM813.36 185.34C812.815 186.606 811.933 187.699 810.81 188.5C809.696 189.365 808.34 189.862 806.93 189.92H784.09C781.55 189.92 780.33 187.87 781.35 185.34C781.905 184.063 782.798 182.961 783.933 182.154C785.068 181.347 786.401 180.865 787.79 180.76H810.71C813.19 180.77 814.41 182.82 813.39 185.35L813.36 185.34Z" fill="#4756DF"/>
<path d="M810.66 180.77H787.74C786.351 180.875 785.018 181.357 783.883 182.164C782.748 182.971 781.855 184.073 781.3 185.35C780.3 187.88 781.5 189.93 784.04 189.93H806.96C808.37 189.872 809.726 189.375 810.84 188.51C811.963 187.709 812.845 186.616 813.39 185.35C814.41 182.82 813.19 180.77 810.66 180.77Z" fill="#3EC1F3"/>
<path d="M822.6 103.76H838.02C839.434 103.654 840.793 103.163 841.948 102.34C843.102 101.517 844.009 100.393 844.57 99.09L845.28 97.34H820.53L819.82 99.09C818.78 101.67 820.03 103.76 822.6 103.76Z" fill="#3EC1F3"/>
<path d="M643.21 36.84L581.79 64.34" stroke="#30242A" stroke-width="4" stroke-linecap="round" stroke-linejoin="round"/>
<path d="M623.48 94.2C621.64 94.69 615.62 93.68 614.63 88.51" stroke="black" stroke-width="4" stroke-miterlimit="10" stroke-linecap="round"/>
<path d="M614.01 68.05C615.645 68.05 616.97 66.7248 616.97 65.09C616.97 63.4552 615.645 62.13 614.01 62.13C612.375 62.13 611.05 63.4552 611.05 65.09C611.05 66.7248 612.375 68.05 614.01 68.05Z" fill="#30242A"/>
<path d="M563.2 78.52L573.95 85.36" stroke="#A15842" stroke-width="4" stroke-miterlimit="10" stroke-linecap="round"/>
<path d="M586.37 70.76L598.29 79.92" stroke="#30242A" stroke-width="4" stroke-linecap="round" stroke-linejoin="round"/>
<path d="M563.45 101.93L595.54 102.84" stroke="#30242A" stroke-width="4" stroke-linecap="round" stroke-linejoin="round"/>
<path d="M688.09 316.45C691.737 316.45 695.234 317.899 697.813 320.477C700.391 323.056 701.84 326.553 701.84 330.2C701.845 332.01 701.493 333.802 700.805 335.476C700.116 337.149 699.105 338.67 697.827 339.952C696.55 341.234 695.033 342.251 693.362 342.946C691.691 343.641 689.899 343.999 688.09 344" stroke="#FF7235" stroke-width="4" stroke-miterlimit="10"/>
<path d="M707.38 316.45C711.02 316.461 714.507 317.914 717.077 320.491C719.647 323.069 721.09 326.56 721.09 330.2C721.101 333.848 719.662 337.35 717.092 339.938C714.521 342.526 711.028 343.987 707.38 344" stroke="#FF7235" stroke-width="4" stroke-miterlimit="10"/>
<path d="M806.49 318.28H655.03C648.502 318.28 643.21 323.572 643.21 330.1V330.3C643.21 336.828 648.502 342.12 655.03 342.12H806.49C813.018 342.12 818.31 336.828 818.31 330.3V330.1C818.31 323.572 813.018 318.28 806.49 318.28Z" fill="#30242A"/>
<path d="M831.892 826.408L740.665 318.882L717.201 323.1L808.428 830.626L831.892 826.408Z" fill="#30242A"/>
<path d="M655.23 318.28H655.03C648.502 318.28 643.21 323.572 643.21 330.1V330.3C643.21 336.828 648.502 342.12 655.03 342.12H655.23C661.758 342.12 667.05 336.828 667.05 330.3V330.1C667.05 323.572 661.758 318.28 655.23 318.28Z" stroke="#FF7235" stroke-width="4" stroke-miterlimit="10"/>
<path d="M769.65 317.2C772.349 318.139 774.69 319.895 776.346 322.225C778.001 324.554 778.891 327.342 778.89 330.2C778.889 332.871 778.111 335.484 776.649 337.72C775.188 339.956 773.106 341.718 770.66 342.79" stroke="#FF7235" stroke-width="4" stroke-miterlimit="10" stroke-linecap="round"/>
<path d="M785.65 317.2C788.349 318.139 790.69 319.895 792.346 322.225C794.001 324.554 794.891 327.342 794.89 330.2C794.889 332.871 794.111 335.484 792.649 337.72C791.188 339.956 789.106 341.718 786.66 342.79" stroke="#FF7235" stroke-width="4" stroke-miterlimit="10" stroke-linecap="round"/>
<path d="M820.14 829.83H485.53V853.67H820.14V829.83Z" fill="#30242A"/>
<path d="M506.15 883C522.354 883 535.49 869.864 535.49 853.66C535.49 837.456 522.354 824.32 506.15 824.32C489.946 824.32 476.81 837.456 476.81 853.66C476.81 869.864 489.946 883 506.15 883Z" fill="#30242A"/>
<path d="M506.15 864.66C512.225 864.66 517.15 859.735 517.15 853.66C517.15 847.585 512.225 842.66 506.15 842.66C500.075 842.66 495.15 847.585 495.15 853.66C495.15 859.735 500.075 864.66 506.15 864.66Z" fill="#FFB7D5"/>
<path d="M825.34 883C841.544 883 854.68 869.864 854.68 853.66C854.68 837.456 841.544 824.32 825.34 824.32C809.136 824.32 796 837.456 796 853.66C796 869.864 809.136 883 825.34 883Z" fill="#30242A"/>
<path d="M825.34 864.66C831.415 864.66 836.34 859.735 836.34 853.66C836.34 847.585 831.415 842.66 825.34 842.66C819.265 842.66 814.34 847.585 814.34 853.66C814.34 859.735 819.265 864.66 825.34 864.66Z" fill="#FFB7D5"/>
<path d="M551.99 853.66H460.32C460.498 841.621 465.405 830.135 473.981 821.685C482.558 813.234 494.115 808.497 506.155 808.497C518.195 808.497 529.752 813.234 538.328 821.685C546.905 830.135 551.812 841.621 551.99 853.66Z" fill="#FF7235"/>
<path d="M871.17 853.66H779.5C779.678 841.621 784.585 830.135 793.161 821.685C801.738 813.234 813.295 808.497 825.335 808.497C837.375 808.497 848.932 813.234 857.508 821.685C866.085 830.135 870.992 841.621 871.17 853.66Z" fill="#FF7235"/>
<path d="M596.73 750.07H682.47C683.47 735.07 686.31 714.13 689.8 685.37C697.16 624.64 702.68 569.43 695.32 525.27C687.96 481.11 623.04 329.27 623.04 329.27H500.77C491.17 412.12 571.35 506.33 596.87 545.46C624.47 587.79 601.47 615.39 586.75 656.79C572.03 698.19 596.87 715.68 596.87 715.68C596.109 727.129 596.062 738.615 596.73 750.07Z" fill="#4856DF"/>
<path d="M610.59 818.83H731.31C722.78 798.83 696.62 788.94 687.96 781.06C682.63 776.22 681.39 766.78 682.47 750.06H596.73C598.6 782.06 605.73 805.89 610.59 818.83Z" fill="#30242A"/>
<path d="M615.27 829.83H733.97C733.712 826.039 732.813 822.32 731.31 818.83H610.59C611.95 822.578 613.513 826.25 615.27 829.83Z" fill="#3EC1F3"/>
<path d="M630.07 718.9V749" stroke="#3EC1F3" stroke-width="4" stroke-miterlimit="10" stroke-linecap="round"/>
<path d="M609.29 718.9V749" stroke="#3EC1F3" stroke-width="4" stroke-miterlimit="10" stroke-linecap="round"/>
<path d="M650.85 718.9V749" stroke="#3EC1F3" stroke-width="4" stroke-miterlimit="10" stroke-linecap="round"/>
<path d="M671.63 718.9V749" stroke="#3EC1F3" stroke-width="4" stroke-miterlimit="10" stroke-linecap="round"/>
<path d="M597.09 717.98H685.09" stroke="#3EC1F3" stroke-width="4" stroke-miterlimit="10" stroke-linecap="round"/>
<path d="M652.34 400.44C649.34 393.02 646.48 385.84 643.73 379.09L598.73 371.19V371.35C597.841 376.412 598.998 381.619 601.948 385.827C604.898 390.035 609.398 392.9 614.46 393.79L652.34 400.44Z" fill="#3EC1F3"/>
<path d="M668.88 774.82L683.09 769" stroke="white" stroke-width="4" stroke-linecap="round" stroke-linejoin="round"/>
<path d="M676.22 788.58L688.09 779" stroke="white" stroke-width="4" stroke-linecap="round" stroke-linejoin="round"/>
<path d="M823.81 189C823.81 189 839.55 189.62 840.81 175.87C840.81 175.87 852.05 170.7 849.11 160.43C849.11 160.43 859.39 157.49 856.45 147.21C856.26 146.56 862.29 145.39 861.99 136.92C861.55 124.56 853.17 115.66 849.51 114.74C838.51 111.99 842.69 129.86 842.17 129.41C835.76 123.91 826.4 121.41 823.06 124.21C817.24 129.09 821.28 135.61 821.28 135.61C821.28 135.61 813.82 133.85 810.17 139.24C805.73 145.78 813.67 151.88 813.67 151.88C813.67 151.88 805.35 152.81 806.74 160.51C808.28 169.12 821.21 171.04 827.34 180.06L823.81 189Z" fill="#EAA58B"/>
<path d="M813.33 150.3C822.09 153.59 837.33 160.88 841.66 172.91" stroke="#A15842" stroke-width="4" stroke-linecap="round" stroke-linejoin="round"/>
<path d="M823.15 135C830.65 139.09 843.9 147.49 849.87 158.45" stroke="#A15842" stroke-width="4" stroke-linecap="round" stroke-linejoin="round"/>
<path d="M843.59 128C848.52 132.38 853.87 138.21 857.14 145" stroke="#A15842" stroke-width="4" stroke-linecap="round" stroke-linejoin="round"/>
<path d="M529.53 150.51C529.53 150.51 562.39 200 553.37 247.69C546.95 281.61 469.94 311 425.02 321V294.44C425.02 294.44 518.53 271.53 529.53 230.27C536.2 205.27 509.36 150.51 509.36 150.51" fill="#F5EBDD"/>
<path d="M746.8 311C741.3 297.24 723.88 282.58 703.71 275.24C664.95 261.15 570.78 281.66 570.78 281.66L556.67 251.53L487.24 285.53C497.24 305.04 509.24 321.44 521.5 332.78C525.674 327.611 531.276 323.783 537.607 321.771C543.939 319.759 550.723 319.652 557.115 321.463C563.507 323.274 569.227 326.923 573.562 331.958C577.897 336.992 580.658 343.19 581.5 349.78C619.89 346.78 662.35 329.23 674.39 318.4C674.39 318.4 681.72 324.82 689.97 325.73C689.97 328.48 677.14 365.15 700.06 356.9C700.06 356.9 706.47 365.15 715.64 355.99C715.64 355.99 722.06 365.15 731.23 356.9C731.23 356.9 736.23 360.03 743.14 352.32C751.38 343 753.82 328.49 746.8 311Z" fill="#EAA58B"/>
<path d="M509.36 150.51H507.09C488.48 150.51 458.01 164.27 461.68 199.91C464.902 229.744 473.561 258.736 487.23 285.45L556.66 251.45L509.36 150.51Z" fill="#FFB7D5"/>
<path d="M547.87 320.11C542.813 320.106 537.82 321.235 533.257 323.414C528.694 325.593 524.676 328.766 521.5 332.7C524.04 335.071 526.711 337.297 529.5 339.37C542.41 348.81 561.38 351.23 581.5 349.66C580.443 341.489 576.446 333.983 570.257 328.544C564.067 323.106 556.109 320.108 547.87 320.11Z" fill="#CA7358"/>
<path d="M700.86 355.36C704.86 347.36 713.94 326.62 707.38 312.78" stroke="#A15842" stroke-width="4" stroke-linecap="round" stroke-linejoin="round"/>
<path d="M546.95 284.36L568.56 279.93" stroke="#A15842" stroke-width="4" stroke-linecap="round" stroke-linejoin="round"/>
<path d="M717.09 355C721.25 346.56 730.25 326.21 723.88 312.78" stroke="#A15842" stroke-width="4" stroke-linecap="round" stroke-linejoin="round"/>
<path d="M733.09 356C737.09 347.94 745.98 326.54 739.47 312.78" stroke="#A15842" stroke-width="4" stroke-linecap="round" stroke-linejoin="round"/>
</g>
<defs>
<clipPath id="clip0_2_780">
<rect width="1110.93" height="885" fill="white" transform="translate(0.560059)"/>
</clipPath>
</defs>
</svg>
