<svg viewBox="0 0 800 793" fill="none" id=".9942599528282903" xmlns="http://www.w3.org/2000/svg">
    <path d="M348.66 13.287c31.889-17.716 70.791-17.716 102.68 0l22.106 12.28a105.726 105.726 0 0 0 50.04 13.28l25.344.31c36.561.448 70.251 19.711 88.924 50.844l12.944 21.582c8.957 14.935 21.551 27.407 36.631 36.278l21.792 12.819c31.437 18.493 50.887 51.857 51.34 88.065l.314 25.1a103.152 103.152 0 0 0 13.408 49.557l12.401 21.893a103.052 103.052 0 0 1 0 101.688l-12.401 21.893a103.149 103.149 0 0 0-13.408 49.557l-.314 25.1c-.453 36.208-19.903 69.572-51.34 88.065l-21.792 12.819c-15.08 8.871-27.674 21.343-36.631 36.278l-12.945 21.582c-18.672 31.133-52.362 50.395-88.923 50.844l-25.344.311a105.717 105.717 0 0 0-50.04 13.279l-22.106 12.28c-31.889 17.716-70.791 17.716-102.68 0l-22.106-12.28a105.717 105.717 0 0 0-50.04-13.279l-25.344-.311c-36.561-.449-70.251-19.711-88.924-50.844l-12.944-21.582c-8.957-14.935-21.551-27.407-36.632-36.278l-21.792-12.82c-31.436-18.492-50.886-51.856-51.34-88.064l-.313-25.1a103.15 103.15 0 0 0-13.408-49.557l-12.4-21.893a103.05 103.05 0 0 1 0-101.688l12.4-21.893a103.15 103.15 0 0 0 13.408-49.557l.314-25.1c.453-36.208 19.903-69.572 51.34-88.065l21.792-12.819c15.08-8.871 27.674-21.343 36.631-36.278l12.945-21.582c18.672-31.133 52.362-50.396 88.923-50.844l25.344-.31a105.726 105.726 0 0 0 50.04-13.28z" fill="#F5D9FF" />
</svg>