<svg width="553" height="398" viewBox="0 0 553 398" fill="none" xmlns="http://www.w3.org/2000/svg">
<path d="M551.363 397.119H160.912C160.638 397.119 160.376 397 160.182 396.789C159.989 396.578 159.88 396.291 159.88 395.992C159.88 395.693 159.989 395.407 160.182 395.195C160.376 394.984 160.638 394.865 160.912 394.865H551.466C551.604 394.856 551.742 394.878 551.871 394.931C552.001 394.984 552.118 395.067 552.216 395.173C552.314 395.28 552.389 395.408 552.438 395.55C552.487 395.691 552.507 395.842 552.498 395.992C552.499 396.15 552.469 396.307 552.411 396.451C552.353 396.596 552.267 396.725 552.16 396.832C552.053 396.938 551.927 397.018 551.789 397.068C551.652 397.117 551.507 397.135 551.363 397.119Z" fill="black"/>
<path d="M108.129 247.456C108.129 247.456 118.172 173.925 123.611 161.137C129.05 148.348 130.041 137.081 146.555 134.828C163.069 132.574 184.217 140.36 184.217 140.36C184.217 140.36 193.64 144.563 196.417 150.399C199.193 156.235 203.714 166.917 203.518 172.28C203.322 177.643 200.752 202.037 194.291 201.665C187.83 201.293 186.87 200.076 186.87 200.076L194.962 234.239C194.962 234.239 133.716 258.689 108.129 247.456Z" fill="white"/>
<path d="M111.133 297.651C111.154 300.178 112.084 302.595 113.72 304.382C115.357 306.168 117.571 307.183 119.885 307.206H171.213C173.539 307.206 175.771 306.197 177.416 304.401C179.061 302.605 179.986 300.169 179.986 297.629C179.986 295.089 179.061 292.653 177.416 290.857C175.771 289.061 173.539 288.052 171.213 288.052H119.885C118.732 288.05 117.59 288.298 116.525 288.78C115.46 289.263 114.492 289.971 113.679 290.863C112.865 291.755 112.221 292.814 111.785 293.979C111.348 295.145 111.126 296.393 111.133 297.651Z" fill="white"/>
<path d="M111.133 297.651C111.154 300.178 112.084 302.595 113.72 304.382C115.357 306.168 117.571 307.183 119.885 307.206H171.213C173.539 307.206 175.771 306.197 177.416 304.401C179.061 302.605 179.986 300.169 179.986 297.629C179.986 295.089 179.061 292.653 177.416 290.857C175.771 289.061 173.539 288.052 171.213 288.052H119.885C118.732 288.05 117.59 288.298 116.525 288.78C115.46 289.263 114.492 289.971 113.679 290.863C112.865 291.755 112.221 292.814 111.785 293.979C111.348 295.145 111.126 296.393 111.133 297.651ZM113.786 297.798C113.809 296.04 114.46 294.362 115.599 293.118C116.737 291.875 118.275 291.165 119.885 291.139H171.213C172.83 291.139 174.382 291.841 175.526 293.089C176.67 294.338 177.312 296.032 177.312 297.798C177.312 299.564 176.67 301.258 175.526 302.507C174.382 303.755 172.83 304.457 171.213 304.457H119.885C118.275 304.431 116.737 303.721 115.599 302.478C114.46 301.234 113.809 299.556 113.786 297.798Z" fill="black"/>
<path d="M186.457 397.096H186.725C186.895 397.056 187.054 396.978 187.194 396.868C187.334 396.757 187.452 396.615 187.539 396.452C187.627 396.289 187.682 396.107 187.702 395.92C187.722 395.732 187.705 395.542 187.654 395.361L166.836 305.471C166.749 305.106 166.532 304.794 166.234 304.604C165.936 304.414 165.581 304.361 165.247 304.457C164.913 304.552 164.627 304.789 164.453 305.114C164.279 305.44 164.23 305.827 164.318 306.192L185.136 396.094C185.255 396.373 185.44 396.613 185.673 396.79C185.905 396.966 186.175 397.072 186.457 397.096Z" fill="black"/>
<path d="M104.641 397.096C104.945 397.091 105.239 396.978 105.479 396.775C105.719 396.572 105.892 396.289 105.972 395.97L126.79 306.181C126.834 306 126.844 305.812 126.821 305.627C126.797 305.442 126.741 305.264 126.655 305.103C126.569 304.942 126.454 304.801 126.318 304.688C126.182 304.575 126.027 304.493 125.861 304.445C125.696 304.398 125.524 304.387 125.354 304.412C125.185 304.437 125.022 304.499 124.874 304.593C124.727 304.687 124.597 304.812 124.494 304.961C124.391 305.109 124.315 305.279 124.272 305.459L103.444 395.35C103.372 395.714 103.427 396.093 103.599 396.415C103.771 396.736 104.047 396.975 104.373 397.085L104.641 397.096Z" fill="black"/>
<path d="M145.616 397.096C145.793 397.108 145.97 397.078 146.135 397.01C146.301 396.942 146.451 396.836 146.577 396.7C146.702 396.564 146.8 396.4 146.864 396.22C146.928 396.04 146.957 395.847 146.948 395.654V305.752C146.918 305.391 146.766 305.054 146.52 304.808C146.275 304.563 145.954 304.427 145.621 304.427C145.288 304.427 144.968 304.563 144.722 304.808C144.477 305.054 144.324 305.391 144.295 305.752V395.654C144.284 395.847 144.311 396.039 144.374 396.219C144.437 396.4 144.534 396.563 144.659 396.7C144.783 396.836 144.933 396.942 145.098 397.01C145.263 397.079 145.44 397.108 145.616 397.096Z" fill="black"/>
<path d="M62.2103 213.394H350.502C350.833 213.362 351.142 213.196 351.367 212.928C351.591 212.66 351.716 212.31 351.716 211.947C351.716 211.583 351.591 211.233 351.367 210.965C351.142 210.697 350.833 210.531 350.502 210.499H62.2103C62.0327 210.487 61.8549 210.517 61.6886 210.586C61.5223 210.655 61.3713 210.762 61.2455 210.899C61.1197 211.036 61.022 211.201 60.9588 211.383C60.8956 211.564 60.8684 211.758 60.8789 211.952C60.8789 212.143 60.9134 212.331 60.9804 212.507C61.0475 212.682 61.1457 212.842 61.2695 212.976C61.3933 213.11 61.5401 213.216 61.7016 213.288C61.8631 213.36 62.036 213.396 62.2103 213.394Z" fill="black"/>
<path d="M346.384 397.096H346.518C346.85 397.012 347.147 396.811 347.363 396.524C347.58 396.237 347.704 395.879 347.715 395.508L324.369 211.659C324.363 211.459 324.321 211.263 324.243 211.082C324.165 210.901 324.054 210.74 323.916 210.608C323.779 210.476 323.618 210.377 323.444 210.316C323.269 210.255 323.085 210.234 322.903 210.254C322.721 210.275 322.545 210.336 322.385 210.433C322.226 210.531 322.086 210.664 321.976 210.823C321.866 210.983 321.786 211.165 321.743 211.359C321.701 211.554 321.695 211.755 321.726 211.952L345.063 395.947C345.117 396.281 345.282 396.582 345.525 396.793C345.768 397.005 346.073 397.113 346.384 397.096Z" fill="black"/>
<path d="M66.3183 397.096C66.6422 397.082 66.9513 396.945 67.1925 396.708C67.4336 396.472 67.5916 396.151 67.6394 395.801L90.9859 211.952C91.0036 211.762 90.9867 211.57 90.9363 211.387C90.886 211.204 90.803 211.033 90.6923 210.885C90.5817 210.737 90.4453 210.615 90.2912 210.524C90.137 210.433 89.968 210.377 89.7938 210.358C89.6197 210.338 89.4437 210.357 89.2761 210.412C89.1084 210.467 88.9523 210.557 88.8167 210.678C88.6811 210.799 88.5686 210.948 88.4857 211.116C88.4028 211.284 88.351 211.469 88.3334 211.659L65.0178 395.508C64.99 395.7 64.9997 395.896 65.0465 396.084C65.0933 396.271 65.176 396.446 65.2891 396.596C65.4023 396.746 65.5433 396.868 65.7029 396.955C65.8625 397.041 66.0371 397.089 66.2151 397.096H66.3183Z" fill="black"/>
<path d="M167.899 143.041C167.899 143.041 173.597 137.408 175.052 135.075C176.507 132.743 178.902 131.605 180.357 134.061C180.75 135.059 180.92 136.145 180.852 137.229C180.784 138.312 180.48 139.362 179.965 140.292C178.768 141.734 171.078 144.776 167.899 143.041Z" fill="white"/>
<path d="M167.497 144.483C167.128 144.211 166.849 143.816 166.702 143.357C166.665 143.119 166.682 142.876 166.753 142.648C166.823 142.42 166.944 142.214 167.105 142.05C168.56 140.461 172.802 136.112 173.999 134.23C174.413 133.373 175.02 132.645 175.761 132.113C176.503 131.581 177.356 131.263 178.241 131.188C178.886 131.199 179.518 131.391 180.075 131.746C180.632 132.102 181.095 132.608 181.42 133.216C182.618 135.098 182.349 139.154 181.028 141.182C179.831 142.771 174.526 145.092 170.418 145.092C169.418 145.088 168.428 144.881 167.497 144.483ZM178.241 134.061C177.581 134.061 176.776 134.794 176.115 135.943C174.449 138.167 172.631 140.25 170.676 142.174C173.865 142.027 178.107 140.292 178.768 139.424C179.115 138.721 179.33 137.949 179.399 137.153C179.468 136.358 179.39 135.556 179.17 134.794C178.768 134.061 178.376 134.061 178.241 134.061Z" fill="black"/>
<path d="M183.938 158.241C182.095 158.326 180.264 157.875 178.633 156.934C178.074 159.87 177.367 162.77 176.518 165.621L161.397 153.464C161.397 153.464 164.184 144.45 169.086 142.467C173.989 140.484 183.144 138.985 189.904 142.467C192.164 143.909 193 147.098 189.904 148.101C191.762 149.543 193.888 153.306 189.512 154.861C191.37 156.461 191.236 158.342 190.038 159.785C186.859 163.694 180.099 161.666 177.704 161.666" fill="white"/>
<path d="M175.723 166.466L160.602 154.309C160.365 154.146 160.185 153.901 160.089 153.613C159.994 153.325 159.989 153.011 160.076 152.72C160.2 152.427 163.121 143.165 168.56 140.844C174.391 138.388 183.681 137.374 190.575 140.991C191.405 141.446 192.096 142.152 192.567 143.026C193.037 143.899 193.267 144.902 193.228 145.915C193.222 146.359 193.126 146.796 192.948 147.195C192.77 147.595 192.513 147.946 192.196 148.224C193.078 149.403 193.507 150.91 193.393 152.427C193.303 152.995 193.101 153.535 192.802 154.009C192.503 154.484 192.113 154.882 191.659 155.176C192.114 156.046 192.295 157.054 192.176 158.047C192.057 159.04 191.643 159.963 190.998 160.675C188.088 164.438 182.648 163.717 179.459 163.289C179.067 163.289 178.799 163.142 178.541 163.142C178.138 164.731 177.736 165.891 177.736 166.038C177.704 166.272 177.613 166.491 177.472 166.67C177.332 166.85 177.147 166.982 176.941 167.052H176.487C176.324 167.034 176.168 166.971 176.034 166.869C175.9 166.766 175.793 166.627 175.723 166.466ZM176.383 161.261C176.801 159.795 177.067 158.284 177.178 156.754C177.231 156.53 177.331 156.322 177.468 156.146C177.606 155.971 177.779 155.832 177.973 155.74C178.168 155.656 178.378 155.625 178.587 155.648C178.795 155.672 178.995 155.75 179.17 155.875C180.552 156.682 182.119 157.034 183.681 156.889C184.012 156.921 184.321 157.087 184.545 157.355C184.77 157.623 184.895 157.973 184.895 158.337C184.895 158.7 184.77 159.05 184.545 159.318C184.321 159.586 184.012 159.753 183.681 159.785C182.244 159.833 180.81 159.639 179.428 159.21C179.407 159.702 179.32 160.188 179.17 160.652H179.697C182.483 161.092 186.86 161.666 188.851 159.064C189.178 158.666 189.364 158.155 189.378 157.621C189.33 157.319 189.223 157.033 189.062 156.781C188.901 156.53 188.692 156.321 188.449 156.168C188.247 156.005 188.091 155.783 187.998 155.528C187.905 155.274 187.879 154.996 187.923 154.726C187.983 154.47 188.099 154.235 188.261 154.038C188.423 153.842 188.625 153.692 188.851 153.599C189.646 153.306 190.441 152.878 190.575 152.145C190.535 151.561 190.37 150.995 190.094 150.492C189.819 149.989 189.439 149.564 188.986 149.25C188.772 149.098 188.606 148.878 188.51 148.62C188.414 148.363 188.393 148.079 188.449 147.807C188.49 147.543 188.6 147.297 188.764 147.097C188.929 146.898 189.141 146.754 189.378 146.681C189.78 146.534 190.41 146.388 190.41 145.813C190.41 145.239 190.007 144.371 189.213 143.785C182.721 140.315 173.834 141.903 169.458 143.785C166.362 145.092 164.019 150.151 162.956 152.912L175.826 163.187C175.95 162.601 176.218 162.061 176.353 161.306L176.383 161.261Z" fill="black"/>
<path d="M189.904 149.565C190.144 149.566 190.379 149.501 190.589 149.374C190.798 149.248 190.975 149.066 191.101 148.844C191.192 148.674 191.25 148.486 191.273 148.29C191.296 148.095 191.282 147.897 191.233 147.708C191.184 147.519 191.1 147.342 190.987 147.189C190.874 147.036 190.734 146.909 190.575 146.816C188.592 145.57 186.359 144.873 184.073 144.788C183.741 144.82 183.433 144.986 183.208 145.254C182.983 145.522 182.858 145.872 182.858 146.236C182.858 146.599 182.983 146.949 183.208 147.217C183.433 147.485 183.741 147.651 184.073 147.683C185.861 147.775 187.597 148.373 189.109 149.419C189.365 149.517 189.634 149.567 189.904 149.565Z" fill="black"/>
<path d="M189.512 156.326C189.751 156.326 189.986 156.26 190.196 156.133C190.405 156.007 190.582 155.825 190.709 155.604C190.798 155.433 190.855 155.245 190.876 155.049C190.897 154.854 190.882 154.656 190.832 154.467C190.782 154.278 190.698 154.102 190.585 153.949C190.471 153.796 190.331 153.669 190.173 153.576C188.16 152.394 185.954 151.655 183.681 151.402C183.327 151.402 182.989 151.555 182.739 151.827C182.489 152.1 182.349 152.47 182.349 152.855C182.34 153.048 182.369 153.241 182.432 153.421C182.496 153.601 182.594 153.765 182.72 153.901C182.845 154.037 182.996 154.143 183.161 154.211C183.327 154.279 183.504 154.309 183.681 154.297C185.534 154.502 187.335 155.091 188.986 156.033C189.047 156.123 189.126 156.196 189.217 156.247C189.309 156.298 189.41 156.325 189.512 156.326Z" fill="black"/>
<path d="M134.614 181.114L154.637 148.247L180.099 168.37L140.363 208.043C137.809 210.544 134.504 211.935 131.073 211.952C129.049 211.952 127.05 211.465 125.218 210.526C123.386 209.586 121.766 208.217 120.474 206.516C119.182 204.815 118.249 202.824 117.743 200.685C117.236 198.545 117.168 196.31 117.542 194.139C120.99 174.015 124.571 148.112 131.466 142.749" fill="white"/>
<path d="M130.898 213.394C134.673 213.364 138.306 211.82 141.106 209.056L180.894 169.384C181.15 169.076 181.29 168.674 181.286 168.258C181.246 167.823 181.058 167.421 180.76 167.131L155.297 147.007C155.001 146.768 154.631 146.663 154.265 146.715C154.082 146.738 153.905 146.803 153.746 146.903C153.586 147.004 153.447 147.139 153.336 147.3L133.313 180.156C133.217 180.318 133.152 180.499 133.121 180.688C133.089 180.878 133.092 181.073 133.13 181.261C133.167 181.449 133.238 181.628 133.338 181.786C133.439 181.944 133.567 182.08 133.716 182.184C133.864 182.288 134.03 182.36 134.203 182.394C134.377 182.428 134.555 182.425 134.728 182.384C134.9 182.343 135.064 182.266 135.209 182.156C135.354 182.046 135.478 181.907 135.573 181.745L154.802 150.196L177.735 168.438L139.124 206.735C137.875 207.956 136.414 208.889 134.827 209.479C133.24 210.069 131.561 210.304 129.889 210.169C128.218 210.035 126.588 209.534 125.098 208.696C123.608 207.858 122.288 206.701 121.217 205.293C120.057 203.757 119.219 201.963 118.761 200.036C118.303 198.109 118.235 196.097 118.564 194.139C118.967 191.829 119.359 189.361 119.761 186.905C122.672 169.677 126.253 148.112 131.827 143.616C132.107 143.386 132.293 143.044 132.342 142.664C132.391 142.285 132.301 141.9 132.09 141.594C131.879 141.287 131.566 141.085 131.218 141.031C130.871 140.977 130.518 141.076 130.237 141.306C123.869 146.365 120.422 166.782 117.109 186.375C116.706 188.832 116.314 191.288 115.912 193.609C115.508 196.018 115.592 198.493 116.157 200.863C116.722 203.233 117.754 205.439 119.182 207.328C120.609 209.216 122.397 210.742 124.421 211.798C126.445 212.853 128.655 213.414 130.898 213.439V213.394Z" fill="black"/>
<path d="M193.362 196.167L179.944 168.517L207.13 158.962L216.038 194.634C216.55 196.684 216.623 198.834 216.25 200.919C215.878 203.004 215.07 204.968 213.89 206.657C212.71 208.346 211.19 209.716 209.446 210.659C207.703 211.603 205.784 212.096 203.838 212.099C200.723 212.045 197.721 210.814 195.344 208.617L187.84 201.237" fill="white"/>
<path d="M203.838 213.394C205.996 213.381 208.122 212.828 210.053 211.776C211.983 210.724 213.667 209.201 214.973 207.327C216.28 205.452 217.174 203.274 217.588 200.963C218.001 198.651 217.923 196.266 217.359 193.992L208.482 158.579C208.348 158.14 208.224 157.847 207.822 157.711C207.508 157.52 207.138 157.468 206.79 157.565L179.583 167.075C179.396 167.137 179.225 167.249 179.087 167.4C178.948 167.551 178.846 167.738 178.788 167.942C178.661 168.305 178.661 168.706 178.788 169.069L192.206 196.719C192.293 196.89 192.411 197.04 192.551 197.161C192.692 197.283 192.853 197.373 193.026 197.426C193.198 197.479 193.379 197.495 193.557 197.472C193.735 197.45 193.907 197.389 194.064 197.293C194.22 197.198 194.358 197.07 194.469 196.916C194.58 196.763 194.663 196.587 194.712 196.398C194.76 196.21 194.775 196.013 194.754 195.819C194.733 195.624 194.677 195.436 194.59 195.265L181.998 169.069L206.397 160.528L214.881 194.691C215.355 196.543 215.421 198.491 215.075 200.376C214.728 202.261 213.98 204.031 212.889 205.541C211.836 207.064 210.475 208.3 208.912 209.154C207.349 210.008 205.627 210.457 203.879 210.465C201.088 210.44 198.4 209.311 196.314 207.288L188.759 199.896C188.491 199.681 188.159 199.583 187.828 199.624C187.498 199.664 187.193 199.839 186.976 200.113C186.758 200.388 186.643 200.742 186.654 201.105C186.665 201.468 186.801 201.813 187.035 202.071L194.59 209.451C197.126 211.958 200.417 213.361 203.838 213.394Z" fill="black"/>
<path d="M194.683 232.797C194.683 232.797 186.065 195.153 184.733 187.728L194.683 232.797Z" fill="white"/>
<path d="M194.683 234.239H194.951C195.119 234.196 195.277 234.116 195.415 234.004C195.554 233.893 195.67 233.751 195.757 233.589C195.844 233.427 195.9 233.247 195.921 233.06C195.942 232.874 195.928 232.684 195.88 232.504C195.746 232.076 187.262 194.871 185.931 187.435C185.859 187.051 185.651 186.713 185.352 186.497C185.053 186.28 184.688 186.202 184.336 186.28C183.984 186.357 183.675 186.584 183.477 186.911C183.278 187.237 183.207 187.637 183.278 188.021C184.609 195.547 192.825 231.591 193.228 233.18C193.351 233.491 193.554 233.756 193.812 233.944C194.07 234.132 194.373 234.234 194.683 234.239Z" fill="black"/>
<path d="M200.917 161.137C200.917 161.137 198.398 149.407 191.896 146.23L200.917 161.137Z" fill="white"/>
<path d="M200.783 162.579H201.051C201.219 162.537 201.378 162.458 201.518 162.347C201.657 162.236 201.774 162.094 201.861 161.931C201.948 161.769 202.004 161.588 202.024 161.401C202.044 161.214 202.03 161.024 201.98 160.844C201.846 160.415 199.193 148.393 192.299 145.069C191.986 144.94 191.64 144.948 191.332 145.09C191.024 145.233 190.779 145.499 190.646 145.834C190.513 146.168 190.503 146.546 190.619 146.888C190.735 147.231 190.967 147.511 191.267 147.672C196.964 150.421 199.524 161.429 199.524 161.565C199.635 161.839 199.809 162.076 200.03 162.254C200.251 162.432 200.51 162.544 200.783 162.579Z" fill="black"/>
<path d="M185.662 166.342C185.662 166.342 183.01 162.297 181.689 162.151L185.662 166.342Z" fill="white"/>
<path d="M185.662 167.796C185.945 167.767 186.217 167.667 186.457 167.503C186.615 167.405 186.75 167.27 186.852 167.106C186.954 166.943 187.021 166.756 187.047 166.561C187.073 166.365 187.057 166.165 187.002 165.977C186.946 165.789 186.851 165.617 186.725 165.475C185.693 163.739 183.546 160.844 181.823 160.697C181.646 160.667 181.466 160.678 181.294 160.729C181.121 160.78 180.961 160.87 180.822 160.993C180.684 161.116 180.571 161.27 180.491 161.445C180.411 161.619 180.365 161.81 180.357 162.004C180.339 162.195 180.355 162.387 180.406 162.571C180.456 162.754 180.539 162.925 180.651 163.073C180.762 163.221 180.9 163.343 181.055 163.432C181.21 163.521 181.38 163.576 181.554 163.593C182.743 164.631 183.787 165.853 184.651 167.221C184.762 167.401 184.913 167.548 185.09 167.648C185.266 167.749 185.463 167.799 185.662 167.796Z" fill="black"/>
<path d="M119.72 181.406C119.72 181.406 112.031 217.743 108.181 240.177L119.72 181.406Z" fill="white"/>
<path d="M108.656 241.72C108.968 241.728 109.272 241.612 109.513 241.395C109.754 241.178 109.915 240.873 109.967 240.537C113.496 218.183 120.546 182.015 120.68 181.576C120.744 181.19 120.666 180.792 120.461 180.47C120.257 180.148 119.944 179.928 119.591 179.857C119.238 179.787 118.874 179.873 118.579 180.096C118.283 180.319 118.081 180.661 118.017 181.046C117.893 181.474 110.792 217.789 107.304 240.143C107.26 240.517 107.34 240.896 107.529 241.212C107.718 241.528 108.004 241.76 108.336 241.867C108.376 241.819 108.426 241.78 108.481 241.755C108.536 241.73 108.596 241.718 108.656 241.72Z" fill="black"/>
<path d="M44.3755 397.446H434.826C435.1 397.446 435.362 397.327 435.556 397.116C435.749 396.905 435.858 396.618 435.858 396.319C435.858 396.02 435.749 395.734 435.556 395.522C435.362 395.311 435.1 395.192 434.826 395.192H44.2929C44.155 395.182 44.0167 395.205 43.8874 395.258C43.758 395.311 43.6406 395.394 43.5428 395.5C43.4451 395.607 43.3694 395.735 43.3208 395.876C43.2721 396.018 43.2517 396.169 43.2608 396.319C43.2603 396.475 43.2895 396.629 43.3465 396.772C43.4034 396.915 43.4869 397.044 43.5917 397.149C43.6964 397.255 43.8202 397.336 43.9551 397.387C44.09 397.438 44.2332 397.458 44.3755 397.446Z" fill="black"/>
<path d="M357.923 225.293H8.13782C7.2696 225.296 6.4094 225.111 5.60675 224.75C4.80409 224.389 4.07483 223.858 3.4609 223.187C2.84697 222.517 2.36051 221.721 2.02951 220.845C1.69852 219.969 1.52953 219.03 1.53226 218.082C1.52953 217.134 1.69852 216.195 2.02951 215.319C2.36051 214.442 2.84697 213.646 3.4609 212.976C4.07483 212.306 4.80409 211.775 5.60675 211.414C6.4094 211.052 7.2696 210.868 8.13782 210.871H357.923C358.791 210.868 359.651 211.052 360.454 211.414C361.257 211.775 361.986 212.306 362.6 212.976C363.214 213.646 363.7 214.442 364.031 215.319C364.362 216.195 364.531 217.134 364.529 218.082C364.518 219.991 363.818 221.818 362.582 223.168C361.345 224.517 359.672 225.281 357.923 225.293Z" fill="white"/>
<path d="M357.923 226.419H8.13768C6.11204 226.419 4.16936 225.541 2.73702 223.977C1.30468 222.414 0.5 220.293 0.5 218.082C0.5 215.87 1.30468 213.75 2.73702 212.186C4.16936 210.622 6.11204 209.744 8.13768 209.744H357.923C359.948 209.744 361.891 210.622 363.324 212.186C364.756 213.75 365.561 215.87 365.561 218.082C365.561 220.293 364.756 222.414 363.324 223.977C361.891 225.541 359.948 226.419 357.923 226.419ZM8.13768 212.11C6.65951 212.11 5.24188 212.751 4.19666 213.892C3.15143 215.033 2.56424 216.581 2.56424 218.194C2.56424 219.808 3.15143 221.356 4.19666 222.497C5.24188 223.638 6.65951 224.279 8.13768 224.279H357.923C359.401 224.279 360.819 223.638 361.864 222.497C362.909 221.356 363.496 219.808 363.496 218.194C363.496 216.581 362.909 215.033 361.864 213.892C360.819 212.751 359.401 212.11 357.923 212.11H8.13768Z" fill="black"/>
<path d="M230.363 366.866L234.182 377.796C234.182 377.796 272.061 381.965 274.951 387.711C277.841 393.457 273.196 395.035 267.21 395.035H199.606L199.09 365.74L230.363 366.866Z" fill="white"/>
<path d="M198.677 395.192L198.161 365.897C198.173 365.602 198.283 365.322 198.471 365.109C198.562 364.999 198.673 364.911 198.798 364.853C198.923 364.795 199.058 364.767 199.193 364.771L230.467 365.897C230.669 365.879 230.87 365.936 231.039 366.059C231.208 366.181 231.333 366.363 231.396 366.573L235.008 376.827C242.646 377.728 273.093 381.446 275.88 387.305C277.015 389.559 277.118 391.474 276.293 393.052C275.157 395.192 272.164 396.206 267.21 396.206H199.606C199.09 396.161 198.574 395.711 198.677 395.192ZM200.122 366.911L200.638 393.953H267.21C272.577 393.953 274.125 392.713 274.538 391.925C274.951 391.136 274.744 389.897 274.022 388.319C272.164 384.488 248.529 380.545 234.079 378.967C233.893 378.966 233.713 378.9 233.564 378.778C233.415 378.656 233.306 378.486 233.253 378.291L229.641 368.038L200.122 366.911Z" fill="black"/>
<path d="M193.62 366.866L193.413 377.796C193.413 377.796 235.421 381.965 238.207 387.711C240.994 393.457 236.453 395.035 230.466 395.035H154.812L162.347 365.74L193.62 366.866Z" fill="white"/>
<path d="M153.986 395.71C153.88 395.572 153.806 395.407 153.77 395.231C153.734 395.054 153.737 394.871 153.78 394.696L161.315 365.401C161.383 365.164 161.521 364.958 161.708 364.815C161.894 364.673 162.119 364.601 162.347 364.613L193.62 365.739C193.894 365.739 194.156 365.858 194.35 366.069C194.543 366.281 194.652 366.567 194.652 366.866L194.446 376.781C203.322 377.683 236.35 381.514 239.136 387.26C240.272 389.513 240.375 391.429 239.549 393.006C238.414 395.147 235.421 396.161 230.466 396.161H154.812C154.651 396.17 154.49 396.133 154.345 396.054C154.2 395.975 154.077 395.857 153.986 395.71ZM163.172 366.866L156.154 393.908H230.466C235.834 393.908 237.382 392.668 237.795 391.88C238.207 391.091 238.001 389.851 237.278 388.274C235.524 384.668 210.547 380.612 193.31 378.922C193.055 378.894 192.818 378.763 192.646 378.555C192.474 378.346 192.38 378.076 192.381 377.795L192.588 367.993L163.172 366.866Z" fill="black"/>
<path d="M188.872 248.447L204.457 246.644C209.518 246.079 214.606 247.396 218.896 250.382C223.186 253.367 226.426 257.847 228.093 263.094L249.045 368.331L205.592 372.838L188.872 248.447Z" fill="#E6416A"/>
<path d="M108.573 240.898L181.854 237.518C187.024 237.289 192.082 239.207 196.008 242.887C199.934 246.567 202.437 251.734 203.012 257.348L205.696 372.838L147.897 371.035L162.863 285.066H127.255C124.323 285.064 121.421 284.429 118.716 283.197C116.011 281.965 113.556 280.161 111.493 277.887C109.43 275.614 107.8 272.918 106.696 269.953C105.593 266.989 105.038 263.815 105.064 260.616V250.813L108.573 240.898Z" fill="#B7194A"/>
<path d="M205.489 373.965C205.634 373.966 205.777 373.933 205.91 373.87C206.042 373.806 206.161 373.713 206.258 373.596C206.355 373.479 206.429 373.341 206.475 373.191C206.52 373.041 206.536 372.882 206.521 372.725L203.838 257.236C203.55 254.187 202.708 251.231 201.361 248.542C200.014 245.853 198.189 243.484 195.994 241.574C195.896 241.455 195.776 241.361 195.642 241.297C195.508 241.233 195.363 241.2 195.217 241.202C195.071 241.204 194.927 241.239 194.794 241.306C194.661 241.373 194.543 241.47 194.447 241.591C194.352 241.711 194.28 241.853 194.239 242.006C194.197 242.159 194.185 242.32 194.204 242.478C194.224 242.636 194.274 242.788 194.351 242.923C194.428 243.059 194.531 243.175 194.652 243.264C196.637 244.993 198.281 247.142 199.487 249.581C200.693 252.021 201.436 254.701 201.67 257.461L204.354 372.951C204.429 373.224 204.577 373.467 204.779 373.647C204.982 373.828 205.229 373.939 205.489 373.965Z" fill="black"/>
<path d="M120.443 286.193H170.397C170.671 286.193 170.933 286.074 171.127 285.863C171.321 285.651 171.429 285.365 171.429 285.066C171.429 284.767 171.321 284.48 171.127 284.269C170.933 284.058 170.671 283.939 170.397 283.939H120.443C120.305 283.929 120.167 283.951 120.037 284.005C119.908 284.058 119.79 284.14 119.693 284.247C119.595 284.354 119.519 284.482 119.471 284.623C119.422 284.764 119.401 284.915 119.411 285.066C119.411 285.365 119.519 285.651 119.713 285.863C119.906 286.074 120.169 286.193 120.443 286.193Z" fill="black"/>
<path d="M184.744 84.8007C184.744 84.8007 195.333 84.3275 195.333 90.4343C195.333 94.5244 187.84 96.8567 185.384 98.851C182.927 100.845 184.207 116.022 177.787 123.38C174.577 126.997 167.941 129.453 161.418 128.056L160.881 127.932L159.384 136.349C159.384 136.349 152.851 139.965 147.928 137.396C147.505 131.673 146.545 113.104 146.545 113.104C146.545 113.104 139.588 116.135 137.978 109.239C136.368 102.344 142.582 98.6144 147.267 102.006L145.451 82.7275L182.607 82.0289L184.744 84.8007Z" fill="white"/>
<path d="M147.34 102.243L147.99 83.674L182.762 82.1529C182.762 82.1529 195.715 64.6323 176.456 59.8437C170.676 58.717 168.199 66.1534 168.199 66.1534C168.199 66.1534 158.672 54.7058 145.73 60.0803C132.787 65.4548 134.934 79.7079 134.934 79.7079C134.934 79.7079 125.51 82.7501 126.481 91.3921C127.451 100.034 132.787 103.313 132.787 103.313C132.787 103.313 123.271 110.321 129.051 118.727C134.83 127.132 147.02 120.248 147.02 120.248L146.7 113.352C146.7 113.352 142.747 114.873 140.714 113.352C139.334 112.221 138.412 110.548 138.144 108.687C137.913 107.508 137.969 106.284 138.306 105.136C138.643 103.987 139.249 102.955 140.063 102.141C143.387 99.2792 147.34 102.243 147.34 102.243Z" fill="#B7194A"/>
<path d="M165.133 129.769C162.379 129.751 159.653 129.158 157.103 128.022C156.976 127.964 156.86 127.88 156.763 127.773C156.665 127.667 156.588 127.54 156.535 127.401C156.483 127.262 156.455 127.113 156.456 126.962C156.456 126.812 156.483 126.663 156.536 126.524C156.589 126.384 156.666 126.258 156.764 126.152C156.861 126.045 156.977 125.961 157.105 125.903C157.232 125.846 157.369 125.816 157.507 125.816C157.644 125.816 157.781 125.846 157.908 125.904C165.133 129.284 173.318 126.839 176.848 122.749C180.594 118.434 181.554 111.189 182.308 105.848C182.844 101.758 183.268 99.0877 184.547 97.961C185.55 97.1776 186.626 96.5129 187.757 95.9779C190.327 94.5808 193.95 92.5977 193.95 90.4908C193.962 90.0703 193.892 89.6519 193.744 89.2633C193.596 88.8748 193.375 88.525 193.093 88.2373C191.029 86.1303 186.24 85.8937 184.527 85.9838C184.253 85.9838 183.991 85.8651 183.797 85.6538C183.603 85.4425 183.495 85.1559 183.495 84.8571C183.495 84.5583 183.603 84.2717 183.797 84.0604C183.991 83.8491 184.253 83.7304 184.527 83.7304C184.857 83.7304 191.597 83.3811 194.693 86.6599C195.191 87.1391 195.585 87.7338 195.846 88.4005C196.107 89.0672 196.228 89.789 196.2 90.5133C196.2 94.1301 192.134 96.3497 188.81 98.1074C187.807 98.6066 186.84 99.1905 185.92 99.8539C185.28 100.327 184.888 103.595 184.527 106.164C183.784 111.797 182.607 119.482 178.427 124.27C175.702 127.549 170.562 129.769 165.133 129.769Z" fill="black"/>
<path d="M168.106 92.0456C168.995 92.0456 169.716 91.2587 169.716 90.2879C169.716 89.3172 168.995 88.5302 168.106 88.5302C167.217 88.5302 166.496 89.3172 166.496 90.2879C166.496 91.2587 167.217 92.0456 168.106 92.0456Z" fill="black"/>
<path d="M174.846 91.4597C175.735 91.4597 176.456 90.6727 176.456 89.702C176.456 88.7312 175.735 87.9443 174.846 87.9443C173.956 87.9443 173.236 88.7312 173.236 89.702C173.236 90.6727 173.956 91.4597 174.846 91.4597Z" fill="black"/>
<path d="M152.056 139.695C150.473 139.684 148.908 139.328 147.453 138.647C147.302 138.549 147.174 138.413 147.081 138.25C146.988 138.088 146.931 137.903 146.916 137.712C146.596 133.036 145.884 119.369 145.637 114.929C143.821 115.458 141.896 115.295 140.177 114.467C139.367 113.999 138.666 113.334 138.129 112.523C137.592 111.713 137.233 110.778 137.08 109.791C136.337 106.287 137.194 103.133 139.65 101.262C140.904 100.343 142.384 99.862 143.895 99.8841C145.405 99.9062 146.873 100.43 148.103 101.386C148.223 101.47 148.325 101.58 148.406 101.707C148.487 101.835 148.544 101.979 148.573 102.131C148.603 102.282 148.605 102.439 148.579 102.592C148.554 102.744 148.501 102.89 148.423 103.02C148.346 103.15 148.246 103.262 148.129 103.35C148.012 103.438 147.88 103.5 147.741 103.533C147.602 103.565 147.459 103.568 147.319 103.539C147.179 103.511 147.046 103.453 146.927 103.369C146.052 102.698 145.013 102.329 143.944 102.308C142.875 102.288 141.825 102.619 140.93 103.256C140.12 103.964 139.524 104.923 139.22 106.006C138.916 107.089 138.919 108.248 139.227 109.33C139.322 109.995 139.558 110.626 139.916 111.174C140.275 111.722 140.746 112.171 141.291 112.484C143.428 113.611 146.318 112.36 146.452 112.36C146.609 112.294 146.779 112.271 146.946 112.292C147.113 112.314 147.273 112.38 147.412 112.484C147.689 112.714 147.88 113.047 147.949 113.42C147.949 113.645 148.805 130.704 149.239 137.013C152.769 138.534 157.258 136.664 158.652 135.965L159.973 128.157C159.99 127.993 160.038 127.834 160.115 127.691C160.191 127.548 160.294 127.424 160.417 127.327C160.539 127.23 160.679 127.161 160.827 127.126C160.975 127.091 161.129 127.09 161.277 127.123C161.426 127.156 161.566 127.222 161.69 127.317C161.814 127.413 161.918 127.535 161.997 127.677C162.075 127.819 162.125 127.977 162.145 128.141C162.164 128.305 162.152 128.472 162.109 128.63L160.613 137.036C160.526 137.37 160.337 137.66 160.076 137.858C159.653 137.712 156.009 139.695 152.056 139.695Z" fill="black"/>
<path d="M469.051 189.001L465.088 155.075C465.088 155.075 476.028 149.644 472.044 132.27C468.06 114.896 460.02 89.2061 449.173 83.4147C438.325 77.6233 435.755 79.167 425.052 76.4065L424.02 62.5477C424.02 62.5477 435.156 62.0181 431.72 58.0408C428.283 54.0634 426.91 51.6297 423.122 52.8578L420.428 38.4357L384.779 38.0188C384.779 38.0188 378.163 43.213 374.385 43.7651C370.608 44.3172 377.864 53.3987 381.693 54.8296C385.522 56.2606 384.356 71.7305 391.488 75.8093C398.619 79.8881 411.583 74.9981 411.583 74.9981L410.551 80.4627C406.028 79.8752 401.453 80.8925 397.501 83.364C393.549 85.8356 390.431 89.6301 388.608 94.1863C381.538 110.546 370.701 128.991 369.596 139.864C368.853 147.267 370.381 152.19 381.424 155.796L374.757 186.218C374.757 186.218 388.494 195.761 469.051 189.001Z" fill="white"/>
<path d="M508.654 221.248H432.359C430.264 221.236 428.258 220.321 426.777 218.703C425.297 217.084 424.461 214.893 424.453 212.606C424.459 210.317 425.293 208.124 426.774 206.505C428.255 204.886 430.263 203.972 432.359 203.964H508.654C510.76 203.973 512.776 204.894 514.26 206.525C515.745 208.155 516.575 210.363 516.57 212.662C516.548 214.941 515.706 217.12 514.224 218.727C512.743 220.333 510.742 221.239 508.654 221.248Z" fill="white"/>
<path d="M508.654 222.656H432.359C429.97 222.569 427.705 221.471 426.042 219.595C424.38 217.719 423.451 215.21 423.451 212.6C423.451 209.99 424.38 207.482 426.042 205.606C427.705 203.729 429.97 202.631 432.359 202.544H508.654C509.889 202.499 511.121 202.726 512.274 203.211C513.428 203.696 514.481 204.429 515.369 205.367C516.258 206.306 516.965 207.43 517.447 208.672C517.93 209.915 518.179 211.251 518.179 212.6C518.179 213.95 517.93 215.286 517.447 216.528C516.965 217.771 516.258 218.895 515.369 219.833C514.481 220.771 513.428 221.505 512.274 221.99C511.121 222.475 509.889 222.701 508.654 222.656ZM432.359 205.519C430.605 205.519 428.922 206.28 427.681 207.634C426.44 208.989 425.743 210.826 425.743 212.741C425.743 214.657 426.44 216.494 427.681 217.848C428.922 219.202 430.605 219.963 432.359 219.963H508.654C510.408 219.963 512.091 219.202 513.332 217.848C514.572 216.494 515.269 214.657 515.269 212.741C515.269 210.826 514.572 208.989 513.332 207.634C512.091 206.28 510.408 205.519 508.654 205.519H432.359Z" fill="black"/>
<path d="M418.354 395.744H418.096C417.756 395.661 417.459 395.437 417.267 395.12C417.075 394.803 417.002 394.417 417.063 394.043L443.661 220.82C443.73 220.443 443.932 220.112 444.224 219.898C444.517 219.685 444.875 219.607 445.22 219.682C445.565 219.756 445.868 219.978 446.064 220.297C446.259 220.616 446.33 221.006 446.262 221.383L419.654 394.607C419.599 394.936 419.438 395.232 419.199 395.441C418.96 395.65 418.66 395.758 418.354 395.744Z" fill="black"/>
<path d="M522.67 395.744C522.365 395.758 522.066 395.652 521.827 395.445C521.589 395.238 521.426 394.945 521.369 394.618L494.772 221.383C494.703 221.006 494.775 220.616 494.97 220.297C495.166 219.978 495.469 219.756 495.814 219.682C496.159 219.607 496.517 219.685 496.809 219.898C497.101 220.112 497.304 220.443 497.373 220.82L523.97 394.066C524.013 394.437 523.932 394.813 523.743 395.125C523.554 395.437 523.268 395.665 522.938 395.767L522.67 395.744Z" fill="black"/>
<path d="M470.506 395.744C470.333 395.756 470.16 395.727 469.998 395.66C469.836 395.593 469.689 395.488 469.567 395.354C469.444 395.219 469.35 395.058 469.29 394.881C469.229 394.703 469.204 394.514 469.216 394.325V221.248C469.2 221.051 469.222 220.854 469.28 220.667C469.337 220.48 469.43 220.309 469.552 220.163C469.674 220.018 469.822 219.902 469.987 219.822C470.152 219.743 470.331 219.702 470.512 219.702C470.692 219.702 470.871 219.743 471.036 219.822C471.201 219.902 471.349 220.018 471.471 220.163C471.593 220.309 471.686 220.48 471.744 220.667C471.801 220.854 471.823 221.051 471.807 221.248V394.471C471.803 394.65 471.766 394.826 471.698 394.988C471.629 395.151 471.531 395.296 471.409 395.415C471.287 395.535 471.144 395.625 470.989 395.682C470.834 395.739 470.669 395.76 470.506 395.744Z" fill="black"/>
<path d="M513.329 335.126H427.663C427.318 335.126 426.987 334.977 426.743 334.711C426.5 334.444 426.363 334.083 426.363 333.707C426.363 333.33 426.5 332.969 426.743 332.703C426.987 332.437 427.318 332.287 427.663 332.287H513.329C513.674 332.287 514.005 332.437 514.249 332.703C514.492 332.969 514.629 333.33 514.629 333.707C514.629 334.083 514.492 334.444 514.249 334.711C514.005 334.977 513.674 335.126 513.329 335.126Z" fill="black"/>
<path d="M408.229 358.63L397.98 394.325H336.218C336.218 394.325 330.025 394.607 333.235 388.95C336.445 383.294 367.491 376.77 367.491 376.77L373.333 357.616L408.229 358.63Z" fill="white"/>
<path d="M336.093 395.744C335.309 395.744 332.584 395.598 331.418 393.491C330.644 392.071 330.902 390.235 332.068 388.251C335.309 382.73 359.832 377.063 366.448 375.643L372.032 357.233C372.116 356.933 372.29 356.672 372.526 356.493C372.762 356.313 373.045 356.225 373.332 356.241L408.228 357.086C408.624 357.128 408.992 357.329 409.26 357.649C409.375 357.837 409.446 358.051 409.468 358.275C409.489 358.499 409.461 358.725 409.384 358.934L399.135 394.617C399.054 394.917 398.883 395.179 398.648 395.359C398.414 395.539 398.131 395.627 397.845 395.609H336.217C336.217 395.645 336.204 395.679 336.181 395.705C336.158 395.73 336.126 395.744 336.093 395.744ZM374.282 359.204L368.832 377.333C368.745 377.576 368.605 377.793 368.426 377.965C368.246 378.138 368.032 378.261 367.8 378.325C355.993 380.736 336.537 386.111 334.328 389.795C333.678 390.922 333.42 391.778 333.678 392.206C333.936 392.634 335.361 393.051 336.145 393.051H397.04L406.505 360.049L374.282 359.204Z" fill="black"/>
<path d="M426.394 186.544H379.948L351.947 212.031C346.618 216.871 343.068 223.648 341.95 231.116C340.831 238.584 342.219 246.243 345.858 252.683L386.461 324.355L421.553 273.934L388.856 245.461L409.498 224.222L426.394 186.544Z" fill="#E6416A"/>
<path d="M467.544 186.544H422.502L352.05 362.033L420.944 370.821L465.841 212.031C466.923 207.642 467.495 203.122 467.544 198.578V186.544Z" fill="#B7194A"/>
<path d="M371.557 315.014C371.371 315.036 371.185 314.984 371.031 314.868C370.724 314.715 370.485 314.437 370.365 314.093C370.245 313.749 370.254 313.368 370.391 313.031L408.404 218.386C408.462 218.203 408.554 218.036 408.674 217.894C408.794 217.752 408.94 217.639 409.102 217.562C409.265 217.485 409.44 217.445 409.617 217.446C409.794 217.446 409.969 217.487 410.131 217.565C410.293 217.643 410.438 217.757 410.558 217.9C410.677 218.043 410.768 218.211 410.825 218.394C410.882 218.577 410.904 218.771 410.888 218.963C410.873 219.156 410.821 219.343 410.736 219.513L372.723 314.158C372.609 314.395 372.442 314.597 372.239 314.746C372.035 314.896 371.801 314.988 371.557 315.014Z" fill="black"/>
<path d="M382.673 253.675C382.503 253.682 382.334 253.649 382.177 253.577C382.02 253.504 381.879 253.396 381.765 253.258C381.64 253.132 381.54 252.978 381.472 252.808C381.404 252.637 381.368 252.453 381.368 252.267C381.368 252.081 381.404 251.896 381.472 251.726C381.54 251.555 381.64 251.402 381.765 251.275L405.122 226.487C405.238 226.351 405.378 226.242 405.535 226.167C405.691 226.093 405.859 226.054 406.03 226.054C406.201 226.054 406.369 226.093 406.526 226.167C406.682 226.242 406.822 226.351 406.938 226.487C407.061 226.615 407.158 226.769 407.225 226.94C407.291 227.11 407.325 227.293 407.325 227.479C407.325 227.664 407.291 227.847 407.225 228.018C407.158 228.188 407.061 228.342 406.938 228.47L383.581 253.258C383.466 253.395 383.325 253.502 383.169 253.574C383.012 253.646 382.843 253.681 382.673 253.675Z" fill="black"/>
<path d="M396.328 253.224C396.045 253.216 395.772 253.114 395.544 252.931L388.504 246.464C388.272 246.212 388.136 245.872 388.124 245.515C388.113 245.157 388.226 244.808 388.441 244.539C388.657 244.269 388.958 244.099 389.284 244.063C389.61 244.027 389.937 244.128 390.197 244.346L397.205 250.858C397.336 250.977 397.443 251.124 397.521 251.289C397.598 251.455 397.644 251.635 397.656 251.821C397.667 252.006 397.644 252.192 397.588 252.367C397.532 252.543 397.444 252.704 397.329 252.841C397.041 253.081 396.69 253.215 396.328 253.224Z" fill="black"/>
<path d="M384.779 38.0189L420.438 38.4471L423.132 52.8692C423.132 52.8692 426.724 50.6157 428.644 53.2861C429.84 54.9649 430.474 57.0407 430.439 59.1676C430.439 65.3308 424.03 62.5478 424.03 62.5478L424.67 75.0094C424.67 75.0094 458.668 44.0356 426.259 32.2726C425.361 25.6925 415.102 11.6872 393.81 19.8109C377.337 26.9544 384.779 38.0189 384.779 38.0189Z" fill="#B7194A"/>
<path d="M397.99 78.5811C395.041 78.7374 392.131 77.8003 389.733 75.922C384.985 71.8545 384.479 64.4406 384.221 60.5196C384.221 59.8097 384.087 59.2576 384.087 58.8295C383.705 55.4493 381.785 54.7732 381.651 54.7732C381.517 54.7732 373.312 52.6775 373.312 46.8861C373.312 41.0947 381.569 40.0244 381.785 39.8892C381.953 39.8673 382.124 39.8827 382.286 39.9342C382.448 39.9857 382.599 40.0725 382.73 40.1892C382.861 40.3059 382.97 40.4502 383.048 40.6136C383.127 40.7769 383.175 40.9559 383.189 41.1398C383.219 41.3253 383.212 41.5154 383.168 41.6976C383.125 41.8798 383.046 42.0497 382.938 42.1959C382.829 42.3422 382.693 42.4613 382.539 42.5454C382.385 42.6295 382.216 42.6766 382.043 42.6834C382.043 42.6834 375.748 43.5285 375.748 46.8861C375.748 49.8269 380.495 51.6522 382.167 52.0691C382.291 52.0691 385.883 53.1958 386.533 58.514C386.533 58.9309 386.657 59.6407 386.657 60.328C386.915 64.1138 387.297 70.5475 391.271 73.7699C393.717 75.8769 397.174 76.429 401.798 75.4487C409.023 74.0516 414.184 72.508 414.369 72.508C414.694 72.4153 415.039 72.4672 415.328 72.6521C415.617 72.8369 415.828 73.1398 415.912 73.4939C415.997 73.848 415.95 74.2244 415.78 74.5403C415.611 74.8562 415.334 75.0857 415.009 75.1783C415.009 75.1783 409.488 76.7107 402.304 78.2543C400.684 78.3445 399.27 78.5811 397.99 78.5811Z" fill="black"/>
<path d="M392.21 47.4046C393.133 47.4046 393.882 46.5874 393.882 45.5793C393.882 44.5712 393.133 43.754 392.21 43.754C391.286 43.754 390.538 44.5712 390.538 45.5793C390.538 46.5874 391.286 47.4046 392.21 47.4046Z" fill="black"/>
<path d="M399.27 47.5398C400.193 47.5398 400.942 46.7225 400.942 45.7145C400.942 44.7064 400.193 43.8892 399.27 43.8892C398.346 43.8892 397.598 44.7064 397.598 45.7145C397.598 46.7225 398.346 47.5398 399.27 47.5398Z" fill="black"/>
<path d="M416.589 86.4683C413.925 86.5286 411.341 85.4768 409.364 83.5275C409.239 83.4039 409.14 83.2523 409.074 83.0831C409.008 82.9138 408.977 82.731 408.982 82.5472V74.9869C408.982 74.6163 409.117 74.261 409.357 73.9989C409.597 73.7369 409.922 73.5897 410.262 73.5897C410.601 73.5897 410.927 73.7369 411.167 73.9989C411.407 74.261 411.541 74.6163 411.541 74.9869V81.9613C412.697 82.9416 416.805 85.6007 423.607 81.2628C423.607 75.3812 422.833 62.6379 422.833 62.5027C422.82 62.2626 422.86 62.0226 422.95 61.8029C423.04 61.5833 423.176 61.3905 423.349 61.2408C423.54 61.1162 423.753 61.0385 423.974 61.0132C424.195 60.9879 424.418 61.0156 424.629 61.0943C425.269 61.376 427.323 62.0745 428.344 61.376C429.118 60.8126 429.242 59.4155 429.118 58.3C428.86 56.0465 427.963 54.0973 426.807 53.3987C426.298 53.192 425.751 53.122 425.212 53.1946C424.673 53.2671 424.158 53.4801 423.71 53.8156C423.422 53.9949 423.082 54.0471 422.759 53.9615C422.437 53.8759 422.156 53.659 421.976 53.3552C421.795 53.0513 421.728 52.6836 421.787 52.3272C421.847 51.9708 422.029 51.6528 422.296 51.4382C424.866 49.7594 426.786 50.1763 427.942 50.8749C430.006 52.0016 431.41 54.6607 431.668 58.0183C431.792 60.6774 431.152 62.5252 429.738 63.652C428.421 64.4847 426.862 64.7347 425.382 64.3505C425.63 68.418 426.022 77.6572 426.022 81.9951C426.022 82.2293 425.962 82.4586 425.849 82.6576C425.736 82.8566 425.574 83.0173 425.382 83.1219C422.82 85.164 419.759 86.3288 416.589 86.4683Z" fill="black"/>
<path d="M426.26 33.512C426.09 33.5152 425.923 33.4787 425.768 33.4048C425.613 33.3309 425.474 33.2214 425.362 33.0838C425.24 32.9575 425.143 32.8054 425.077 32.6369C425.01 32.4684 424.976 32.2869 424.976 32.1035C424.976 31.9202 425.01 31.7387 425.077 31.5702C425.143 31.4016 425.24 31.2496 425.362 31.1233C425.496 30.9881 429.335 27.0671 433.443 28.6107C433.602 28.6817 433.747 28.7863 433.869 28.9184C433.992 29.0506 434.089 29.2077 434.156 29.3809C434.222 29.554 434.257 29.7398 434.258 29.9276C434.259 30.1154 434.226 30.3016 434.16 30.4754C434.095 30.6493 434 30.8074 433.879 30.9409C433.757 31.0743 433.614 31.1804 433.455 31.2532C433.296 31.3259 433.126 31.3638 432.954 31.3647C432.782 31.3656 432.612 31.3295 432.452 31.2585C429.758 30.2782 426.941 33.219 426.941 33.219C426.75 33.3961 426.51 33.4991 426.26 33.512Z" fill="black"/>
<path d="M459.432 156.213C458.615 156.185 457.8 156.091 456.996 155.931L393.758 143.74C393.419 143.664 393.12 143.445 392.927 143.131C392.734 142.817 392.662 142.433 392.726 142.061L397.598 110.975C397.598 110.558 397.856 110.276 398.248 109.994C398.393 109.874 398.566 109.798 398.747 109.775C398.928 109.751 399.112 109.78 399.28 109.859L456.108 127.639C456.431 127.732 456.707 127.961 456.876 128.275C457.044 128.59 457.091 128.965 457.006 129.318C456.921 129.67 456.712 129.972 456.423 130.156C456.135 130.34 455.791 130.391 455.468 130.298L400.044 112.935L395.554 141.103L457.481 153.148C459.394 153.506 461.358 153.334 463.195 152.65C465.032 151.966 466.682 150.79 467.996 149.23C469.31 147.671 470.245 145.777 470.715 143.722C471.186 141.666 471.178 139.515 470.692 137.464L463.024 105.623C461.442 99.0005 458.057 93.0582 453.315 88.5818C448.573 84.1054 442.698 81.3057 436.467 80.553L424.794 79.1558C424.475 79.07 424.19 78.8728 423.984 78.5941C423.777 78.3155 423.659 77.9707 423.648 77.6122C423.705 77.2532 423.878 76.9284 424.136 76.6968C424.393 76.4652 424.718 76.3423 425.052 76.3503L436.725 77.7474C443.477 78.5741 449.841 81.6176 454.975 86.476C460.109 91.3343 463.772 97.7788 465.48 104.958L473.18 136.743C473.804 139.257 473.826 141.905 473.242 144.43C472.658 146.956 471.489 149.276 469.846 151.165C468.523 152.745 466.915 154.01 465.123 154.878C463.33 155.747 461.393 156.201 459.432 156.213Z" fill="black"/>
<path d="M385.924 158.173C383.019 158.158 380.163 157.346 377.62 155.812C375.077 154.278 372.927 152.07 371.37 149.393C369.812 146.715 368.895 143.653 368.705 140.488C368.514 137.323 369.055 134.156 370.277 131.278L386.317 93.0484C387.786 89.6529 389.944 86.6663 392.626 84.3143C395.308 81.9622 398.444 80.3062 401.798 79.4713L410.004 77.646C410.342 77.5777 410.692 77.6574 410.977 77.8679C411.262 78.0785 411.46 78.403 411.527 78.7714C411.595 79.1397 411.527 79.5224 411.339 79.8368C411.15 80.1512 410.856 80.372 410.52 80.4516L402.263 82.2656C399.289 82.9632 396.504 84.4009 394.123 86.4666C391.742 88.5324 389.83 91.1704 388.536 94.1751L372.589 132.405C371.397 135.233 370.979 138.377 371.388 141.458C371.796 144.539 373.013 147.425 374.891 149.768C376.748 152.148 379.212 153.872 381.968 154.72C384.725 155.569 387.65 155.504 390.373 154.534L417.321 145.52C417.644 145.428 417.988 145.479 418.276 145.663C418.565 145.846 418.774 146.148 418.859 146.5C418.944 146.853 418.897 147.228 418.729 147.543C418.56 147.858 418.284 148.087 417.961 148.179L391.023 157.193C389.394 157.862 387.665 158.194 385.924 158.173Z" fill="black"/>
<path d="M395.936 130.58C395.712 130.591 395.49 130.532 395.296 130.411L382.467 123.121C382.324 123.038 382.197 122.925 382.094 122.789C381.991 122.653 381.913 122.496 381.866 122.327C381.819 122.158 381.802 121.98 381.817 121.804C381.833 121.628 381.88 121.457 381.956 121.301C382.032 121.145 382.135 121.007 382.26 120.894C382.385 120.782 382.529 120.697 382.683 120.646C382.838 120.594 383.001 120.576 383.162 120.593C383.323 120.609 383.48 120.661 383.623 120.743L396.452 128.022C396.601 128.099 396.733 128.209 396.841 128.345C396.948 128.481 397.029 128.64 397.076 128.812C397.124 128.984 397.138 129.165 397.118 129.344C397.097 129.522 397.043 129.694 396.958 129.847C396.881 130.072 396.741 130.265 396.557 130.397C396.373 130.528 396.155 130.593 395.936 130.58Z" fill="black"/>
<path d="M384.903 124.281H384.645C384.482 124.241 384.328 124.165 384.193 124.057C384.059 123.949 383.946 123.812 383.861 123.655C383.777 123.497 383.724 123.323 383.704 123.142C383.684 122.961 383.699 122.777 383.747 122.603C384.561 119.143 386.589 116.173 389.392 114.332C390.833 113.532 392.416 113.08 394.031 113.008C395.647 112.936 397.258 113.246 398.754 113.915C398.915 113.978 399.064 114.076 399.191 114.202C399.317 114.328 399.42 114.481 399.492 114.651C399.564 114.821 399.604 115.005 399.61 115.192C399.617 115.379 399.588 115.566 399.528 115.741C399.481 115.925 399.399 116.097 399.285 116.242C399.171 116.388 399.03 116.505 398.87 116.585C398.711 116.664 398.537 116.704 398.362 116.703C398.187 116.701 398.014 116.657 397.856 116.575C395.038 115.594 392.468 115.594 390.548 116.856C387.215 118.817 386.182 123.301 386.182 123.301C386.069 123.574 385.89 123.81 385.665 123.982C385.44 124.154 385.177 124.258 384.903 124.281Z" fill="black"/>
<path d="M444.941 127.031C444.638 127.044 444.34 126.938 444.103 126.731C443.866 126.524 443.705 126.23 443.651 125.904L442.113 116.101L425.444 120.867C425.13 120.93 424.806 120.861 424.536 120.675C424.267 120.488 424.071 120.197 423.989 119.86C423.907 119.523 423.944 119.165 424.094 118.857C424.243 118.549 424.493 118.313 424.794 118.197L442.753 113.014C443.101 112.912 443.472 112.965 443.785 113.161C443.927 113.277 444.047 113.424 444.135 113.593C444.224 113.761 444.28 113.948 444.301 114.141L446.097 125.487C446.136 125.855 446.054 126.227 445.865 126.535C445.676 126.842 445.392 127.066 445.065 127.166C445.065 127.031 445.065 127.031 444.941 127.031Z" fill="black"/>
<path d="M454.178 130.016C453.825 129.988 453.495 129.813 453.255 129.529C453.016 129.244 452.884 128.871 452.888 128.484C453.28 124.281 452.506 121.341 450.71 119.47C448.016 116.958 443.785 117.791 443.785 117.791C443.616 117.831 443.441 117.832 443.272 117.797C443.102 117.761 442.941 117.688 442.797 117.583C442.654 117.478 442.531 117.343 442.437 117.185C442.342 117.027 442.278 116.85 442.247 116.665C442.201 116.48 442.192 116.286 442.221 116.097C442.25 115.908 442.315 115.728 442.413 115.569C442.511 115.41 442.639 115.275 442.788 115.175C442.938 115.074 443.105 115.01 443.279 114.986C443.537 114.986 448.801 113.724 452.393 117.363C454.828 119.744 455.861 123.526 455.489 128.709C455.452 129.063 455.299 129.39 455.058 129.631C454.817 129.871 454.504 130.008 454.178 130.016Z" fill="black"/>
<path d="M374.767 186.173H374.509C374.17 186.097 373.872 185.878 373.679 185.564C373.485 185.25 373.413 184.866 373.477 184.494L378.865 155.199C378.898 155.015 378.964 154.841 379.059 154.685C379.154 154.53 379.276 154.396 379.418 154.292C379.561 154.188 379.72 154.115 379.888 154.079C380.056 154.042 380.229 154.042 380.397 154.078C380.565 154.114 380.725 154.186 380.868 154.29C381.011 154.394 381.133 154.527 381.228 154.682C381.324 154.838 381.39 155.012 381.424 155.195C381.457 155.379 381.458 155.568 381.424 155.751L376.037 185.046C375.987 185.37 375.83 185.663 375.597 185.871C375.363 186.078 375.068 186.186 374.767 186.173Z" fill="black"/>
<path d="M470.341 190.24C470.027 190.221 469.728 190.086 469.493 189.857C469.258 189.627 469.103 189.317 469.051 188.978C468.287 180.156 463.282 154.252 463.158 153.97C463.124 153.787 463.123 153.598 463.157 153.414C463.19 153.231 463.255 153.056 463.35 152.9C463.445 152.744 463.567 152.61 463.709 152.506C463.852 152.401 464.012 152.329 464.18 152.292C464.348 152.255 464.521 152.254 464.689 152.29C464.857 152.326 465.017 152.398 465.16 152.502C465.303 152.605 465.426 152.739 465.521 152.894C465.617 153.049 465.684 153.224 465.717 153.407C465.975 154.534 470.878 179.739 471.621 188.696C471.64 188.881 471.624 189.067 471.576 189.245C471.528 189.423 471.448 189.589 471.34 189.733C471.232 189.877 471.099 189.995 470.949 190.082C470.799 190.17 470.635 190.223 470.465 190.24H470.341Z" fill="black"/>
<path d="M333.106 62.6499L269.735 63.0121L270.095 137.984L333.466 137.621L333.106 62.6499Z" fill="white"/>
<path d="M333.699 138.839L269.935 139.256C269.795 139.274 269.654 139.257 269.521 139.207C269.388 139.157 269.268 139.074 269.168 138.966C269.069 138.857 268.993 138.725 268.947 138.581C268.901 138.436 268.886 138.281 268.903 138.129L268.531 63.0435C268.514 62.8993 268.526 62.7527 268.567 62.6144C268.608 62.476 268.677 62.3493 268.768 62.2436C268.847 62.1259 268.955 62.0362 269.08 61.9861C269.205 61.9359 269.341 61.9275 269.47 61.9619L333.131 61.5563C333.271 61.5358 333.414 61.5509 333.547 61.6003C333.681 61.6497 333.803 61.7321 333.903 61.8411C334.002 61.9501 334.078 62.0828 334.123 62.2288C334.168 62.3748 334.182 62.5302 334.163 62.683L334.545 137.757C334.564 137.904 334.551 138.053 334.508 138.194C334.465 138.335 334.393 138.463 334.298 138.568C334.219 138.654 334.126 138.722 334.023 138.768C333.92 138.815 333.81 138.839 333.699 138.839ZM270.998 137.036L332.718 136.698L332.409 63.8435L270.678 64.1815L270.998 137.036Z" fill="black"/>
<path d="M333.493 82.2768L282.919 82.6036C282.779 82.624 282.636 82.6089 282.503 82.5595C282.369 82.5101 282.247 82.4277 282.148 82.3187C282.048 82.2097 281.972 82.077 281.927 81.931C281.882 81.785 281.868 81.6296 281.887 81.4768C281.876 81.3259 281.895 81.1741 281.943 81.032C281.991 80.8899 282.067 80.7609 282.165 80.6538C282.263 80.5467 282.381 80.4641 282.511 80.4117C282.641 80.3593 282.78 80.3383 282.919 80.3501L333.4 80.0234C333.54 80.0029 333.682 80.018 333.816 80.0674C333.949 80.1168 334.071 80.1992 334.171 80.3082C334.271 80.4172 334.346 80.5499 334.391 80.6959C334.437 80.8419 334.451 80.9973 334.432 81.1501C334.433 81.4321 334.337 81.7044 334.163 81.913C333.989 82.1216 333.75 82.2514 333.493 82.2768Z" fill="black"/>
<path d="M275.57 82.6036L269.646 82.6937C269.506 82.7141 269.363 82.699 269.23 82.6496C269.096 82.6002 268.974 82.5178 268.875 82.4088C268.775 82.2998 268.699 82.1672 268.654 82.0212C268.609 81.8752 268.595 81.7197 268.614 81.567C268.665 80.8909 269.037 80.4402 269.646 80.4402L275.467 80.3614C275.607 80.341 275.749 80.356 275.883 80.4054C276.017 80.4549 276.138 80.5373 276.238 80.6462C276.338 80.7552 276.413 80.8879 276.459 81.0339C276.504 81.1799 276.518 81.3353 276.499 81.4881C276.509 81.6288 276.492 81.7703 276.45 81.9038C276.408 82.0373 276.342 82.16 276.255 82.2644C276.168 82.3689 276.062 82.4528 275.945 82.5111C275.827 82.5695 275.699 82.6009 275.57 82.6036Z" fill="black"/>
<path d="M282.898 70.2208C282.756 70.2332 282.613 70.2133 282.478 70.1623C282.343 70.1113 282.219 70.0303 282.114 69.9244C282.01 69.8185 281.926 69.69 281.869 69.5471C281.812 69.4042 281.783 69.2499 281.783 69.094V56.4859C281.783 56.1871 281.892 55.9005 282.086 55.6892C282.279 55.4779 282.542 55.3592 282.816 55.3592C283.089 55.3592 283.352 55.4779 283.545 55.6892C283.739 55.9005 283.848 56.1871 283.848 56.4859V69.094C283.861 69.2379 283.846 69.3832 283.804 69.5203C283.762 69.6575 283.694 69.7834 283.604 69.8898C283.515 69.9962 283.405 70.0807 283.284 70.1377C283.162 70.1948 283.031 70.2231 282.898 70.2208Z" fill="black"/>
<path d="M301.6 70.1983C301.459 70.2091 301.317 70.188 301.183 70.1363C301.049 70.0845 300.927 70.0032 300.823 69.8975C300.72 69.7918 300.637 69.6638 300.581 69.5217C300.524 69.3796 300.495 69.2264 300.496 69.0715L300.341 56.362C300.341 56.0632 300.45 55.7766 300.643 55.5653C300.837 55.354 301.099 55.2353 301.373 55.2353C301.647 55.2353 301.909 55.354 302.103 55.5653C302.296 55.7766 302.405 56.0632 302.405 56.362V68.9701C302.432 69.1091 302.432 69.2526 302.405 69.3915C302.378 69.5304 302.325 69.6618 302.25 69.7772C302.174 69.8927 302.077 69.9897 301.965 70.0622C301.854 70.1347 301.729 70.181 301.6 70.1983Z" fill="black"/>
<path d="M320.199 70.0857C320.057 70.0965 319.915 70.0754 319.782 70.0236C319.648 69.9719 319.526 69.8906 319.422 69.7849C319.318 69.6792 319.236 69.5513 319.179 69.4091C319.123 69.267 319.094 69.1138 319.095 68.9589V56.3508C319.085 56.2003 319.106 56.0494 319.155 55.9081C319.203 55.7669 319.279 55.6387 319.377 55.532C319.474 55.4253 319.592 55.3427 319.721 55.2896C319.851 55.2365 319.989 55.2141 320.127 55.2241C320.267 55.2037 320.409 55.2188 320.543 55.2682C320.677 55.3176 320.798 55.4 320.898 55.509C320.998 55.618 321.073 55.7506 321.118 55.8966C321.164 56.0426 321.178 56.1981 321.159 56.3508V68.9589C321.159 69.2446 321.061 69.5198 320.882 69.729C320.704 69.9382 320.46 70.0657 320.199 70.0857Z" fill="black"/>
<path d="M290.512 95.152L278.591 95.2202L278.648 107.118L290.569 107.05L290.512 95.152Z" fill="white"/>
<path d="M307.572 95.066L295.651 95.1341L295.708 107.032L307.629 106.964L307.572 95.066Z" fill="white"/>
<path d="M324.643 94.9682L312.722 95.0364L312.779 106.934L324.7 106.866L324.643 94.9682Z" fill="white"/>
<path d="M290.546 112.999L278.625 113.067L278.682 124.965L290.603 124.897L290.546 112.999Z" fill="white"/>
<path d="M307.606 112.913L295.685 112.981L295.742 124.879L307.663 124.811L307.606 112.913Z" fill="white"/>
<path d="M324.677 112.826L312.756 112.895L312.813 124.793L324.734 124.725L324.677 112.826Z" fill="white"/>
<path d="M290.577 108.147C290.444 108.162 290.31 108.145 290.184 108.099C290.057 108.052 289.941 107.976 289.844 107.876L277.923 96.3385C277.782 96.1345 277.708 95.8839 277.715 95.6281C277.721 95.3723 277.807 95.1265 277.958 94.9311C278.11 94.7357 278.317 94.6024 278.547 94.5531C278.777 94.5037 279.016 94.5413 279.224 94.6597L291.145 106.197C291.249 106.288 291.335 106.4 291.398 106.529C291.46 106.657 291.498 106.798 291.509 106.942C291.519 107.087 291.503 107.233 291.46 107.37C291.416 107.508 291.348 107.634 291.258 107.741C291.179 107.859 291.077 107.957 290.959 108.027C290.842 108.097 290.711 108.138 290.577 108.147Z" fill="black"/>
<path d="M278.718 108.214C278.56 108.235 278.399 108.212 278.251 108.147C278.103 108.082 277.973 107.977 277.872 107.842C277.694 107.619 277.605 107.328 277.622 107.033C277.64 106.738 277.762 106.462 277.964 106.265L289.834 94.2541C290.041 94.1087 290.289 94.0491 290.533 94.086C290.777 94.1229 291.001 94.2539 291.165 94.4553C291.328 94.6567 291.42 94.9152 291.424 95.1841C291.428 95.4531 291.343 95.7147 291.186 95.9217L279.317 107.933C279.241 108.024 279.149 108.096 279.045 108.145C278.942 108.193 278.83 108.217 278.718 108.214Z" fill="black"/>
<path d="M217.059 80.6431C220.109 80.7587 223.123 79.897 225.729 78.1643C229.857 75.3475 232.231 70.1645 232.644 62.7281C232.658 62.5801 232.644 62.4307 232.605 62.2884C232.566 62.146 232.501 62.0135 232.415 61.8984C232.328 61.7833 232.222 61.6879 232.102 61.6176C231.982 61.5473 231.851 61.5035 231.715 61.4887C231.58 61.4739 231.443 61.4884 231.312 61.5314C231.182 61.5743 231.06 61.6449 230.955 61.7391C230.85 61.8332 230.762 61.9491 230.698 62.0802C230.633 62.2112 230.593 62.3548 230.58 62.5028C230.167 69.1505 228.206 73.7701 224.593 76.2489C217.988 80.7558 208.183 76.5869 208.08 76.4742C207.819 76.3696 207.532 76.3821 207.28 76.5089C207.029 76.6357 206.834 76.8664 206.738 77.1503C206.642 77.4341 206.653 77.7479 206.77 78.0226C206.886 78.2973 207.097 78.5104 207.357 78.615C210.44 79.9698 213.735 80.6586 217.059 80.6431Z" fill="black"/>
<path d="M220.568 28.5881C220.568 20.363 225.832 13.7153 232.334 13.7153C238.837 13.7153 244.1 20.363 244.1 28.5881C244.1 34.5598 241.314 39.7427 237.288 42.1089H227.38C225.253 40.7118 223.502 38.725 222.306 36.3503C221.109 33.9756 220.51 31.2976 220.568 28.5881Z" fill="white"/>
<path d="M237.289 41.9962V56.3057H227.277V41.9962H227.38H237.289Z" fill="white"/>
<path d="M226.245 56.3057V42.109C226.236 41.9584 226.256 41.8075 226.305 41.6663C226.354 41.5251 226.429 41.3968 226.527 41.2901C226.625 41.1834 226.742 41.1008 226.872 41.0477C227.001 40.9946 227.139 40.9723 227.277 40.9822H237.289C237.427 40.9723 237.565 40.9946 237.694 41.0477C237.824 41.1008 237.941 41.1834 238.039 41.2901C238.136 41.3968 238.212 41.5251 238.261 41.6663C238.309 41.8075 238.33 41.9584 238.321 42.109V56.3057C238.33 56.4563 238.309 56.6072 238.261 56.7484C238.212 56.8897 238.136 57.0179 238.039 57.1246C237.941 57.2313 237.824 57.3139 237.694 57.367C237.565 57.4201 237.427 57.4424 237.289 57.4325H227.277C227.01 57.4115 226.758 57.2861 226.569 57.0792C226.379 56.8722 226.264 56.5977 226.245 56.3057ZM236.257 43.2357H228.309V55.179H236.257V43.2357Z" fill="black"/>
<path d="M233.883 43.123C234.103 43.1044 234.316 43.0214 234.497 42.8826C234.679 42.7439 234.823 42.5546 234.915 42.3343L238.321 29.8276C238.363 29.6529 238.367 29.4696 238.331 29.2931C238.295 29.1166 238.221 28.9521 238.114 28.8136C238.024 28.6672 237.9 28.5488 237.756 28.4698C237.611 28.3909 237.45 28.354 237.289 28.3629H232.221C231.947 28.3629 231.685 28.4816 231.491 28.6929C231.297 28.9042 231.189 29.1908 231.189 29.4896C231.189 29.7884 231.297 30.075 231.491 30.2863C231.685 30.4976 231.947 30.6163 232.221 30.6163H235.833L232.737 41.771C232.687 41.9112 232.668 42.0618 232.679 42.2116C232.69 42.3614 232.731 42.5066 232.801 42.6364C232.87 42.7662 232.965 42.8773 233.079 42.9616C233.193 43.0458 233.323 43.101 233.459 43.123H233.883Z" fill="black"/>
<path d="M230.786 43.123H231.096C231.342 43.0246 231.548 42.8357 231.68 42.5889C231.812 42.3421 231.861 42.0529 231.818 41.771L228.722 30.6163H232.334C232.608 30.6163 232.871 30.4976 233.064 30.2863C233.258 30.075 233.367 29.7884 233.367 29.4896C233.367 29.1908 233.258 28.9042 233.064 28.6929C232.871 28.4816 232.608 28.3629 232.334 28.3629H227.277C227.116 28.354 226.955 28.3909 226.81 28.4698C226.665 28.5488 226.542 28.6672 226.451 28.8136C226.286 29.1193 226.214 29.4743 226.245 29.8276L229.754 42.447C229.851 42.6539 229.999 42.8271 230.181 42.9466C230.364 43.0661 230.573 43.1273 230.786 43.123Z" fill="black"/>
<path d="M232.334 9.09574C232.472 9.1057 232.611 9.08337 232.74 9.03027C232.869 8.97717 232.987 8.89452 233.084 8.78784C233.182 8.68116 233.258 8.55291 233.307 8.4117C233.355 8.27048 233.376 8.11955 233.366 7.96901V1.77199C233.366 1.47317 233.258 1.18658 233.064 0.975274C232.871 0.763972 232.608 0.645264 232.334 0.645264C232.061 0.645264 231.798 0.763972 231.605 0.975274C231.411 1.18658 231.302 1.47317 231.302 1.77199V7.96901C231.293 8.11955 231.314 8.27048 231.362 8.4117C231.411 8.55291 231.487 8.68116 231.584 8.78784C231.682 8.89452 231.799 8.97717 231.929 9.03027C232.058 9.08337 232.196 9.1057 232.334 9.09574Z" fill="black"/>
<path d="M220.362 14.5041C220.497 14.5081 220.632 14.4799 220.757 14.4216C220.882 14.3632 220.993 14.276 221.084 14.1661C221.273 13.9555 221.379 13.6723 221.379 13.3774C221.379 13.0824 221.273 12.7993 221.084 12.5886L217.059 8.1944C216.86 8.03166 216.614 7.95266 216.367 7.97189C216.119 7.99112 215.886 8.10728 215.71 8.29907C215.534 8.49085 215.428 8.74537 215.41 9.01591C215.393 9.28645 215.465 9.55484 215.614 9.77181L219.639 14.1661C219.835 14.3708 220.091 14.4909 220.362 14.5041Z" fill="black"/>
<path d="M209.731 27.5742H215.408C215.681 27.5742 215.944 27.4555 216.137 27.2442C216.331 27.0329 216.44 26.7463 216.44 26.4475C216.44 26.1486 216.331 25.8621 216.137 25.6508C215.944 25.4394 215.681 25.3207 215.408 25.3207H209.731C209.457 25.3207 209.195 25.4394 209.001 25.6508C208.808 25.8621 208.699 26.1486 208.699 26.4475C208.699 26.7463 208.808 27.0329 209.001 27.2442C209.195 27.4555 209.457 27.5742 209.731 27.5742Z" fill="black"/>
<path d="M249.158 27.5741H254.835C255.108 27.5741 255.371 27.4554 255.564 27.2441C255.758 27.0328 255.867 26.7462 255.867 26.4473C255.867 26.1485 255.758 25.8619 255.564 25.6506C255.371 25.4393 255.108 25.3206 254.835 25.3206H249.158C249.02 25.3106 248.882 25.333 248.752 25.3861C248.623 25.4392 248.506 25.5218 248.408 25.6285C248.31 25.7352 248.234 25.8634 248.186 26.0046C248.137 26.1459 248.117 26.2968 248.126 26.4473C248.126 26.7462 248.234 27.0328 248.428 27.2441C248.622 27.4554 248.884 27.5741 249.158 27.5741Z" fill="black"/>
<path d="M244.204 14.5041C244.339 14.5081 244.474 14.4799 244.599 14.4216C244.724 14.3632 244.835 14.276 244.926 14.1661L248.951 9.77181C249.1 9.55484 249.173 9.28645 249.155 9.01591C249.138 8.74537 249.031 8.49085 248.855 8.29907C248.68 8.10728 248.447 7.99112 248.199 7.97189C247.951 7.95266 247.705 8.03166 247.506 8.1944L243.481 12.5886C243.292 12.7993 243.186 13.0824 243.186 13.3774C243.186 13.6723 243.292 13.9555 243.481 14.1661C243.676 14.3708 243.933 14.4909 244.204 14.5041Z" fill="black"/>
</svg>


