<svg width="389" height="359" viewBox="0 0 389 359" fill="none" xmlns="http://www.w3.org/2000/svg">
<path d="M289.049 7.48286H138.914V189.067H289.049V7.48286Z" fill="white"/>
<path d="M288.951 190.065H138.914C138.783 190.074 138.652 190.054 138.529 190.007C138.406 189.96 138.294 189.887 138.202 189.793C138.109 189.698 138.037 189.585 137.991 189.459C137.944 189.334 137.925 189.201 137.934 189.067V7.48287C137.925 7.34957 137.944 7.21592 137.991 7.09087C138.037 6.96582 138.109 6.85227 138.202 6.7578C138.294 6.66333 138.406 6.59015 138.529 6.54313C138.652 6.49611 138.783 6.47633 138.914 6.48515H289.049C289.18 6.47633 289.311 6.49611 289.434 6.54313C289.557 6.59015 289.668 6.66333 289.761 6.7578C289.854 6.85227 289.926 6.96582 289.972 7.09087C290.018 7.21592 290.038 7.34957 290.029 7.48287V189.067C290.007 189.342 289.883 189.597 289.683 189.782C289.483 189.968 289.221 190.069 288.951 190.065ZM139.895 188.07H288.068V8.48059H139.895V188.07Z" fill="black"/>
<path d="M176.57 31.927H156.565V46.1943H176.57V31.927Z" fill="#E2E8F0"/>
<path d="M208.147 31.927H188.142V46.1943H208.147V31.927Z" fill="#E2E8F0"/>
<path d="M239.723 31.927H219.718V46.1943H239.723V31.927Z" fill="#E2E8F0"/>
<path d="M271.201 31.927H251.196V46.1943H271.201V31.927Z" fill="#E2E8F0"/>
<path d="M176.57 57.269H156.565V71.5363H176.57V57.269Z" fill="#E2E8F0"/>
<path d="M208.147 57.269H188.142V71.5363H208.147V57.269Z" fill="#E2E8F0"/>
<path d="M239.723 57.269H219.718V71.5363H239.723V57.269Z" fill="#E2E8F0"/>
<path d="M271.201 57.269H251.196V71.5363H271.201V57.269Z" fill="#E2E8F0"/>
<path d="M176.57 82.611H156.565V96.8784H176.57V82.611Z" fill="#E2E8F0"/>
<path d="M208.147 82.611H188.142V96.8784H208.147V82.611Z" fill="#E2E8F0"/>
<path d="M239.723 82.611H219.718V96.8784H239.723V82.611Z" fill="#E2E8F0"/>
<path d="M271.201 82.611H251.196V96.8784H271.201V82.611Z" fill="#E2E8F0"/>
<path d="M248.745 134.193H138.914C138.654 134.193 138.405 134.088 138.221 133.901C138.037 133.714 137.934 133.46 137.934 133.195C137.934 132.931 138.037 132.677 138.221 132.49C138.405 132.303 138.654 132.198 138.914 132.198H248.745C248.876 132.189 249.007 132.208 249.13 132.255C249.253 132.303 249.364 132.376 249.457 132.47C249.55 132.565 249.622 132.678 249.668 132.803C249.715 132.928 249.734 133.062 249.725 133.195C249.725 133.46 249.622 133.714 249.438 133.901C249.254 134.088 249.005 134.193 248.745 134.193Z" fill="black"/>
<path d="M288.951 134.193H257.276C257.016 134.193 256.767 134.088 256.583 133.901C256.399 133.714 256.296 133.46 256.296 133.195C256.296 132.931 256.399 132.677 256.583 132.49C256.767 132.303 257.016 132.198 257.276 132.198H288.951C289.211 132.198 289.46 132.303 289.644 132.49C289.828 132.677 289.931 132.931 289.931 133.195C289.931 133.46 289.828 133.714 289.644 133.901C289.46 134.088 289.211 134.193 288.951 134.193Z" fill="black"/>
<path d="M239.723 72.5341C239.515 72.5134 239.313 72.4452 239.135 72.3346L219.13 58.0672C219.027 57.9886 218.94 57.8901 218.874 57.7774C218.809 57.6646 218.765 57.5398 218.747 57.4101C218.729 57.2804 218.736 57.1483 218.768 57.0214C218.8 56.8945 218.856 56.7752 218.934 56.6704C219.011 56.5656 219.108 56.4773 219.218 56.4105C219.329 56.3438 219.452 56.2999 219.579 56.2813C219.707 56.2628 219.837 56.27 219.961 56.3025C220.086 56.335 220.203 56.3922 220.306 56.4709L240.311 70.7382C240.427 70.8063 240.526 70.9002 240.6 71.0128C240.675 71.1253 240.724 71.2537 240.743 71.3882C240.761 71.5227 240.75 71.6597 240.709 71.7891C240.669 71.9185 240.6 72.0367 240.507 72.135C240.421 72.2646 240.304 72.3695 240.167 72.4394C240.029 72.5093 239.876 72.5419 239.723 72.5341Z" fill="black"/>
<path d="M219.718 72.5341C219.565 72.5419 219.412 72.5093 219.274 72.4394C219.137 72.3695 219.019 72.2646 218.934 72.135C218.792 71.9184 218.733 71.6562 218.769 71.3985C218.805 71.1407 218.934 70.9057 219.13 70.7382L239.135 56.4709C239.238 56.3922 239.355 56.335 239.48 56.3025C239.604 56.27 239.734 56.2628 239.862 56.2813C239.989 56.2999 240.112 56.3438 240.222 56.4105C240.333 56.4773 240.43 56.5656 240.507 56.6704C240.585 56.7752 240.641 56.8945 240.673 57.0214C240.705 57.1483 240.712 57.2804 240.694 57.4101C240.675 57.5398 240.632 57.6646 240.567 57.7774C240.501 57.8901 240.414 57.9886 240.311 58.0672L220.306 72.3345C220.229 72.4106 220.136 72.468 220.035 72.5025C219.933 72.5371 219.825 72.5479 219.718 72.5341Z" fill="black"/>
<path d="M156.566 15.8637C156.434 15.8725 156.303 15.8528 156.18 15.8057C156.057 15.7587 155.946 15.6855 155.853 15.5911C155.76 15.4966 155.688 15.383 155.642 15.258C155.596 15.133 155.576 14.9993 155.585 14.866V0.997717C155.585 0.733106 155.688 0.479332 155.872 0.292224C156.056 0.105116 156.305 0 156.566 0C156.826 0 157.075 0.105116 157.259 0.292224C157.443 0.479332 157.546 0.733106 157.546 0.997717V14.866C157.555 14.9993 157.535 15.133 157.489 15.258C157.443 15.383 157.371 15.4966 157.278 15.5911C157.185 15.6855 157.074 15.7587 156.951 15.8057C156.828 15.8528 156.697 15.8725 156.566 15.8637Z" fill="black"/>
<path d="M185.298 15.8637C185.167 15.8725 185.036 15.8528 184.913 15.8057C184.79 15.7587 184.678 15.6855 184.585 15.5911C184.492 15.4966 184.421 15.383 184.374 15.258C184.328 15.133 184.309 14.9993 184.317 14.866V0.997717C184.317 0.733106 184.421 0.479332 184.605 0.292224C184.788 0.105116 185.038 0 185.298 0C185.558 0 185.807 0.105116 185.991 0.292224C186.175 0.479332 186.279 0.733106 186.279 0.997717V14.866C186.279 15.1306 186.175 15.3844 185.991 15.5715C185.807 15.7586 185.558 15.8637 185.298 15.8637Z" fill="black"/>
<path d="M213.932 15.8637C213.801 15.8725 213.67 15.8528 213.547 15.8057C213.424 15.7587 213.313 15.6855 213.22 15.5911C213.127 15.4966 213.055 15.383 213.009 15.258C212.962 15.133 212.943 14.9993 212.952 14.866V0.997717C212.952 0.733106 213.055 0.479332 213.239 0.292224C213.423 0.105116 213.672 0 213.932 0C214.192 0 214.442 0.105116 214.626 0.292224C214.81 0.479332 214.913 0.733106 214.913 0.997717V14.866C214.922 14.9993 214.902 15.133 214.856 15.258C214.81 15.383 214.738 15.4966 214.645 15.5911C214.552 15.6855 214.441 15.7587 214.318 15.8057C214.195 15.8528 214.063 15.8725 213.932 15.8637Z" fill="black"/>
<path d="M242.567 15.8637C242.436 15.8725 242.304 15.8528 242.181 15.8057C242.059 15.7587 241.947 15.6855 241.854 15.5911C241.761 15.4966 241.689 15.383 241.643 15.258C241.597 15.133 241.577 14.9993 241.586 14.866V0.997717C241.586 0.733106 241.689 0.479332 241.873 0.292224C242.057 0.105116 242.307 0 242.567 0C242.827 0 243.076 0.105116 243.26 0.292224C243.444 0.479332 243.547 0.733106 243.547 0.997717V14.866C243.556 14.9993 243.537 15.133 243.49 15.258C243.444 15.383 243.372 15.4966 243.279 15.5911C243.187 15.6855 243.075 15.7587 242.952 15.8057C242.829 15.8528 242.698 15.8725 242.567 15.8637Z" fill="black"/>
<path d="M271.299 15.8637C271.168 15.8725 271.037 15.8528 270.914 15.8057C270.791 15.7587 270.679 15.6855 270.586 15.5911C270.494 15.4966 270.422 15.383 270.376 15.258C270.329 15.133 270.31 14.9993 270.319 14.866V0.997717C270.319 0.733106 270.422 0.479332 270.606 0.292224C270.79 0.105116 271.039 0 271.299 0C271.559 0 271.809 0.105116 271.993 0.292224C272.176 0.479332 272.28 0.733106 272.28 0.997717V14.866C272.28 15.1306 272.176 15.3844 271.993 15.5715C271.809 15.7586 271.559 15.8637 271.299 15.8637Z" fill="black"/>
<path d="M79.9685 99.4724L75.7518 63.5546L111.937 64.652L113.31 67.8447C113.31 67.8447 120.174 68.2438 120.665 71.9354C121.155 75.6269 114.585 76.2256 113.408 77.3231C111.153 79.3185 110.564 83.1098 110.368 86.4023C110.142 88.0227 109.579 89.5754 108.716 90.9569C107.853 92.3384 106.711 93.5169 105.366 94.4139C104.02 95.3108 102.502 95.9056 100.913 96.1585C99.3234 96.4114 97.6994 96.3167 96.1489 95.8806L95.7566 95.7808L95.0702 101.468C95.0702 101.468 88.4019 102.166 84.3813 100.57L79.9685 99.4724Z" fill="white"/>
<path d="M42.7045 188.269C42.9987 182.882 47.0193 161.73 47.0193 161.73L47.4116 159.535C43.8266 157.813 40.9983 154.797 39.4761 151.073C37.9539 147.349 37.8464 143.182 39.1743 139.381C43.4891 127.009 49.0786 111.146 50.5496 107.953C53.0992 102.565 59.4733 100.67 59.4733 100.67L95.3644 99.5722L100.071 100.171C106.249 100.969 109.485 106.057 111.251 111.046L115.369 122.62L110.074 143.671C110.662 148.859 115.369 191.961 115.369 191.961L42.7045 188.269Z" fill="white"/>
<path d="M147.436 76.954C135.472 75.1581 134.197 88.0287 134.197 88.0287L152.143 93.0173C152.143 93.0173 161.263 79.119 147.436 76.954Z" fill="white"/>
<path d="M191.76 221.942H10.3438V357.213H191.76V221.942Z" fill="white"/>
<path d="M9.46118 357.213V221.942C9.46118 221.493 9.85343 221.194 10.4418 221.194H191.858C192.447 221.194 192.839 221.493 192.839 221.942V357.213C192.839 357.662 192.447 357.961 191.858 357.961H10.4418C9.85343 357.961 9.46118 357.592 9.46118 357.213ZM190.78 222.69H11.3244V356.464H190.78V222.69Z" fill="black"/>
<path d="M136.521 309.193L135.835 320.367C135.835 320.367 164.371 337.229 164.273 341.02C164.175 344.811 159.37 343.514 159.37 343.514L106.22 327.65L113.084 303.107L136.521 309.193Z" fill="white"/>
<path d="M159.301 344.412L106.122 328.548C105.877 328.478 105.669 328.314 105.541 328.091C105.413 327.867 105.375 327.602 105.435 327.351L112.3 302.807C112.369 302.558 112.53 302.346 112.75 302.216C112.969 302.086 113.23 302.047 113.477 302.109L137.012 308.295C137.218 308.36 137.398 308.494 137.522 308.675C137.646 308.855 137.708 309.072 137.698 309.292L137.012 319.868C145.935 325.256 165.45 337.228 165.352 341.119C165.359 341.677 165.238 342.229 165 342.731C164.762 343.233 164.412 343.672 163.979 344.013C163.167 344.562 162.208 344.841 161.233 344.811C160.567 344.839 159.904 344.702 159.301 344.412ZM113.702 304.433L107.426 327.082L159.694 342.646C160.728 342.973 161.845 342.902 162.832 342.446C163.028 342.347 163.42 342.047 163.42 341.149C163.028 338.855 148.907 329.376 135.472 321.395C135.322 321.3 135.197 321.168 135.111 321.011C135.026 320.854 134.981 320.677 134.982 320.497L135.668 310.12L113.702 304.433Z" fill="black"/>
<path d="M143.023 198.675C148.522 200.657 153.223 204.43 156.397 209.41C159.572 214.39 161.041 220.296 160.576 226.212L153.614 316.107L101.15 304.932L117.429 228.208L47.4116 222.122V188.199H114.094L143.023 198.675Z" fill="#F34470"/>
<path d="M97.0315 231.371L107.034 236.16C107.034 236.16 107.818 269.683 111.153 271.379C114.487 273.075 115.663 268.186 115.663 268.186L127.529 213.112L103.111 207.425L97.0315 231.371Z" fill="white"/>
<path d="M110.662 272.377C107.23 270.581 106.347 247.434 106.053 236.858L96.6392 232.368C96.4483 232.242 96.2993 232.061 96.2118 231.847C96.1243 231.633 96.1024 231.398 96.1489 231.171L102.131 207.126C102.2 206.877 102.361 206.665 102.58 206.535C102.8 206.405 103.061 206.366 103.307 206.428L127.725 212.115C127.855 212.138 127.979 212.189 128.09 212.262C128.2 212.336 128.295 212.431 128.368 212.543C128.441 212.655 128.492 212.781 128.516 212.913C128.54 213.045 128.538 213.181 128.51 213.312L116.644 268.386C116.546 268.785 115.86 271.579 113.898 272.477C113.472 272.692 113 272.794 112.525 272.776C111.886 272.759 111.254 272.624 110.662 272.377ZM103.994 208.623L98.4043 230.872L107.622 235.262C107.795 235.338 107.942 235.464 108.046 235.623C108.15 235.782 108.208 235.968 108.211 236.16C108.505 252.023 109.976 269.184 111.741 270.581C112.525 270.98 113.016 270.78 113.114 270.681C113.971 270.017 114.563 269.06 114.781 267.987L126.45 213.911L103.994 208.623Z" fill="black"/>
<path d="M114.389 192.061C114.291 191.362 106.74 122.42 106.151 117.232C106.138 117.101 106.151 116.968 106.188 116.842C106.226 116.716 106.287 116.599 106.369 116.497C106.451 116.395 106.552 116.311 106.666 116.248C106.78 116.186 106.905 116.147 107.034 116.134C107.163 116.121 107.293 116.134 107.417 116.172C107.541 116.21 107.656 116.273 107.756 116.356C107.856 116.439 107.939 116.542 108 116.658C108.062 116.774 108.1 116.901 108.113 117.032C108.701 122.22 116.252 191.163 116.35 191.861C116.342 192.117 116.251 192.363 116.091 192.562C115.932 192.76 115.712 192.9 115.467 192.959H115.369C115.125 192.96 114.89 192.868 114.708 192.702C114.527 192.536 114.413 192.308 114.389 192.061Z" fill="black"/>
<path d="M153.192 82.7108C153.192 82.7108 153.977 88.1982 154.271 89.1959C154.565 90.1936 155.153 93.6856 157.311 92.7877C159.468 91.8898 158.88 85.2051 158.095 83.2096C157.311 81.2142 156.036 81.4137 156.036 81.4137C155.153 81.1144 153.192 82.7108 153.192 82.7108Z" fill="white"/>
<path d="M155.575 93.6857C154.202 92.9873 153.712 90.892 153.418 89.7946L153.32 89.4953C153.025 88.4975 152.241 83.5089 152.143 82.9103C152.134 82.7398 152.165 82.5697 152.234 82.4137C152.302 82.2577 152.405 82.1202 152.535 82.0124C153.222 81.5135 154.889 80.2165 156.163 80.416C156.948 80.416 158.223 80.9149 159.007 82.9103C159.596 84.6064 160.87 92.3886 157.634 93.7854C157.283 93.8915 156.921 93.9584 156.556 93.985C156.204 94.0088 155.856 93.9025 155.575 93.6857ZM155.771 82.2119C155.168 82.4104 154.604 82.7143 154.104 83.1099C154.398 85.3048 154.889 88.298 155.085 88.8966L155.183 89.2957C155.379 89.8943 155.771 91.5905 156.36 91.8898C156.458 91.9895 156.556 91.9895 156.85 91.8898C158.125 91.3909 157.929 85.8037 157.144 83.6087C156.752 82.7108 156.36 82.4115 156.163 82.4115C155.967 82.4115 155.967 82.4115 155.771 82.2119Z" fill="black"/>
<path d="M153.025 86.2028C154.693 87.1007 156.556 83.3094 157.046 82.0124C157.536 80.7153 158.419 76.8242 157.046 75.8265C155.673 74.8288 152.829 75.8265 152.829 75.8265C150.378 77.0238 151.358 85.3048 153.025 86.2028Z" fill="white"/>
<path d="M152.633 87.1007C151.064 86.2028 150.378 82.1121 150.476 79.5181C150.574 77.1236 151.26 75.627 152.437 75.0283H152.535C152.829 74.9286 155.771 73.8311 157.634 75.1281C160.086 76.7245 158.125 82.2119 158.027 82.4115C157.929 82.611 156.458 86.4023 154.398 87.2005C154.145 87.2826 153.879 87.3165 153.614 87.3003C153.279 87.2821 152.949 87.2149 152.633 87.1007ZM153.222 76.8242C152.927 77.0238 152.535 77.6224 152.437 79.0192C152.143 81.8128 153.123 85.0055 153.614 85.4046H153.712C154.496 85.1053 155.673 83.0101 156.163 81.7131C156.85 79.8174 157.242 77.1236 156.556 76.7245C156.201 76.5085 155.792 76.4043 155.379 76.4251C154.633 76.4299 153.893 76.5649 153.192 76.8242H153.222Z" fill="black"/>
<path d="M147.044 80.9449C147.338 82.1421 147.926 84.6364 150.182 84.836C152.437 85.0355 153.123 82.1421 153.123 78.7499C153.123 75.3577 151.849 70.7682 149.985 71.267C148.719 71.7122 147.622 72.5495 146.847 73.6615C146.847 73.6615 146.651 79.8174 147.044 80.9449Z" fill="white"/>
<path d="M150.182 85.8036C147.534 85.5043 146.651 82.8105 146.259 81.5135L146.161 81.2141C145.769 79.9171 145.867 75.0283 145.867 73.5317C145.867 73.3322 145.965 73.2324 146.063 73.0329C146.98 71.7204 148.286 70.7413 149.789 70.2393C150.117 70.1736 150.455 70.1844 150.777 70.2708C151.1 70.3573 151.399 70.517 151.653 70.7381C153.222 72.1349 154.104 75.8265 154.104 78.7199C154.104 81.8128 153.516 83.908 152.339 85.0055C151.796 85.4956 151.103 85.7778 150.378 85.8036H150.182ZM150.182 72.3345C149.685 72.444 149.218 72.6612 148.812 72.9711C148.406 73.281 148.07 73.6764 147.828 74.1303C147.754 76.3273 147.82 78.5269 148.024 80.7153L148.122 81.0146C148.613 82.4114 149.103 83.8082 150.378 83.908C150.498 83.9526 150.629 83.9574 150.753 83.9215C150.876 83.8857 150.985 83.8111 151.064 83.7084C151.358 83.4091 152.143 82.3116 152.143 78.8196C152.143 76.2255 151.26 73.2324 150.378 72.4342C150.327 72.3773 150.257 72.3417 150.182 72.3345Z" fill="black"/>
<path d="M136.453 74.5295C136.257 72.135 137.826 69.94 139.1 69.541C142.337 68.5432 145.867 70.5387 146.946 74.4298C148.024 78.3209 148.907 83.6088 146.946 84.3072C144.984 85.0056 142.925 83.9081 142.238 80.9149C141.552 77.9218 140.473 73.033 140.473 73.033" fill="white"/>
<path d="M143.611 84.9357C142.949 84.5312 142.385 83.9805 141.961 83.3242C141.537 82.6679 141.263 81.9229 141.16 81.1444C140.473 78.1512 139.395 73.2624 139.395 73.2624L141.356 72.8633C141.356 72.8633 142.435 77.7521 143.121 80.7453C143.175 81.2444 143.334 81.7257 143.588 82.1562C143.842 82.5867 144.185 82.9563 144.592 83.2396C145.21 83.5234 145.911 83.559 146.553 83.3393C147.338 83.1398 147.436 80.0469 145.965 74.759C145.508 73.153 144.452 71.7924 143.023 70.9677C141.879 70.3463 140.542 70.2031 139.297 70.5686C138.61 70.7681 137.237 72.564 137.335 74.5594C137.361 74.8241 137.283 75.0883 137.117 75.2942C136.952 75.5 136.713 75.6305 136.453 75.6569C136.193 75.6834 135.933 75.6036 135.731 75.4352C135.528 75.2668 135.4 75.0236 135.374 74.759C135.276 71.8656 137.041 69.1718 138.806 68.6729C140.548 68.1668 142.417 68.382 144.004 69.2715C144.932 69.8062 145.748 70.522 146.404 71.3781C147.061 72.2341 147.544 73.2135 147.828 74.2601C148.907 77.9517 150.28 84.3371 147.24 85.3348C146.773 85.5299 146.273 85.6315 145.769 85.6341C144.994 85.6486 144.236 85.4032 143.611 84.9357Z" fill="black"/>
<path d="M125.96 79.5181C125.834 78.9362 125.938 78.3271 126.25 77.8229C126.562 77.3186 127.057 76.9598 127.627 76.8242L167.931 66.847C168.503 66.7185 169.101 66.8245 169.597 67.142C170.093 67.4595 170.445 67.9629 170.579 68.5432C170.705 69.125 170.601 69.7341 170.289 70.2383C169.977 70.7426 169.482 71.1014 168.912 71.237L128.608 81.2142C128.324 81.2891 128.028 81.3042 127.739 81.2585C127.449 81.2128 127.172 81.1073 126.924 80.9484C126.675 80.7895 126.462 80.5806 126.296 80.3346C126.131 80.0886 126.016 79.8107 125.96 79.5181Z" fill="white"/>
<path d="M124.979 79.8174C124.873 79.398 124.849 78.9612 124.91 78.5324C124.97 78.1036 125.115 77.6914 125.334 77.3199C125.553 76.9484 125.842 76.625 126.186 76.3686C126.529 76.1122 126.919 75.9279 127.333 75.8265L167.637 65.8493C168.05 65.736 168.482 65.7129 168.905 65.7817C169.327 65.8505 169.731 66.0096 170.088 66.2484C170.46 66.4539 170.784 66.7385 171.038 67.0828C171.292 67.4272 171.47 67.8232 171.559 68.2439C171.666 68.6632 171.69 69.1001 171.629 69.5289C171.568 69.9577 171.424 70.3699 171.205 70.7414C170.986 71.1129 170.696 71.4363 170.353 71.6927C170.01 71.9491 169.62 72.1333 169.206 72.2347L128.902 82.2119C128.649 82.2941 128.383 82.3279 128.117 82.3117C127.396 82.3113 126.695 82.0657 126.127 81.6138C125.558 81.1618 125.154 80.5296 124.979 79.8174ZM128.412 80.3162L168.715 70.2393C168.872 70.2033 169.019 70.1355 169.149 70.0398C169.279 69.9442 169.389 69.8228 169.471 69.6829C169.554 69.5431 169.607 69.3876 169.629 69.226C169.651 69.0645 169.64 68.9 169.598 68.7427C169.493 68.4182 169.287 68.1377 169.01 67.9446C168.7 67.8133 168.358 67.7786 168.029 67.8448L127.725 77.8219C127.431 77.9217 127.039 78.1213 126.941 78.4206C126.812 78.736 126.778 79.0832 126.843 79.4183C126.947 79.7428 127.154 80.0233 127.431 80.2165C127.741 80.3477 128.082 80.3824 128.412 80.3162Z" fill="black"/>
<path d="M112.427 122.52H152.143L136.453 179.489H96.7372L112.427 122.52Z" fill="white"/>
<path d="M95.9528 180.088C95.8517 179.965 95.7811 179.82 95.7469 179.663C95.7128 179.507 95.7161 179.345 95.7566 179.19L111.447 122.32C111.534 122.125 111.671 121.957 111.843 121.835C112.016 121.712 112.217 121.638 112.427 121.622H152.143C152.444 121.65 152.724 121.792 152.927 122.021C153.028 122.144 153.099 122.289 153.133 122.445C153.167 122.602 153.164 122.764 153.123 122.919L137.433 179.789C137.346 179.984 137.209 180.151 137.037 180.274C136.864 180.397 136.663 180.471 136.453 180.487H96.7373C96.4358 180.459 96.1558 180.316 95.9528 180.088ZM150.77 123.617H113.114L98.0121 178.492H135.668L150.77 123.617Z" fill="black"/>
<path d="M103.602 73.5318C104.306 73.5318 104.877 72.9511 104.877 72.2348C104.877 71.5184 104.306 70.9377 103.602 70.9377C102.898 70.9377 102.327 71.5184 102.327 72.2348C102.327 72.9511 102.898 73.5318 103.602 73.5318Z" fill="black"/>
<path d="M98.2082 74.1303C98.9123 74.1303 99.4831 73.5496 99.4831 72.8333C99.4831 72.1169 98.9123 71.5363 98.2082 71.5363C97.5042 71.5363 96.9334 72.1169 96.9334 72.8333C96.9334 73.5496 97.5042 74.1303 98.2082 74.1303Z" fill="black"/>
<path d="M84.0871 101.468C83.9648 101.422 83.8525 101.352 83.7568 101.262C83.661 101.172 83.5836 101.064 83.5289 100.943C83.4743 100.823 83.4435 100.693 83.4383 100.56C83.4332 100.428 83.4537 100.295 83.4988 100.171C83.5438 100.046 83.6126 99.9321 83.701 99.8347C83.7895 99.7372 83.896 99.6585 84.0143 99.6029C84.1327 99.5473 84.2607 99.516 84.391 99.5107C84.5212 99.5054 84.6513 99.5263 84.7736 99.5722C87.8136 100.769 92.4225 100.57 94.2857 100.47L94.8741 95.5813C94.887 95.4503 94.9251 95.3231 94.9862 95.2071C95.0474 95.0911 95.1305 94.9884 95.2306 94.9051C95.3308 94.8217 95.4461 94.7592 95.57 94.7211C95.6939 94.6831 95.824 94.6703 95.9528 94.6834C96.0816 94.6965 96.2065 94.7353 96.3206 94.7975C96.4346 94.8597 96.5355 94.9442 96.6175 95.0462C96.6994 95.1481 96.7608 95.2654 96.7982 95.3915C96.8356 95.5175 96.8482 95.6498 96.8353 95.7809L96.1489 101.468C96.0508 101.967 95.7566 102.366 95.2663 102.366C94.0986 102.548 92.9164 102.614 91.736 102.565C89.1434 102.65 86.5558 102.278 84.0871 101.468Z" fill="black"/>
<path d="M110.172 49.387C103.798 41.9041 93.7954 42.3032 90.069 43.8995C86.3426 45.4959 83.4007 45.2963 79.8704 44.4981C73.2021 43.0016 71.9273 46.5933 70.1622 50.9833C65.161 48.1897 59.9636 49.0876 57.512 53.1783C53.9818 59.1646 60.1597 62.4571 54.4721 67.745C48.7844 73.0329 53.2953 76.8242 53.7857 82.6109C54.276 88.3977 45.2542 98.0756 45.2542 98.0756L80.3607 109.749C80.3607 109.749 78.8898 104.162 81.0472 100.47C82.4636 98.2518 83.2418 95.6747 83.2937 93.0299C83.3457 90.3852 82.6695 87.7784 81.3414 85.5043C79.3801 82.0123 81.9297 78.0215 83.7929 74.0306C85.6561 70.0397 82.0278 64.652 82.0278 64.652H113.408C113.408 64.652 115.271 55.0739 110.172 49.387Z" fill="#B7194A"/>
<path d="M69.2797 51.183C69.2797 51.0832 67.9068 45.1967 62.3172 43.8996C62.1872 43.8759 62.0632 43.8257 61.9528 43.7521C61.8423 43.6784 61.7476 43.5828 61.6743 43.471C61.601 43.3592 61.5507 43.2335 61.5264 43.1014C61.5021 42.9693 61.5042 42.8336 61.5327 42.7024C61.556 42.5701 61.6053 42.444 61.6777 42.3316C61.7501 42.2192 61.8441 42.1228 61.954 42.0483C62.0639 41.9737 62.1874 41.9226 62.3173 41.8978C62.4471 41.873 62.5805 41.8752 62.7095 41.9042C69.4758 43.5005 71.0448 50.3848 71.1428 50.6841C71.1757 50.9463 71.1145 51.2118 70.9704 51.4318C70.8263 51.6518 70.6089 51.8114 70.3584 51.8814H70.1622C69.77 51.8814 69.2797 51.582 69.2797 51.183Z" fill="black"/>
<path d="M91.736 95.3818C91.5447 95.2508 91.4049 95.0554 91.3411 94.8299C91.2773 94.6044 91.2937 94.3632 91.3874 94.1488C91.4811 93.9344 91.646 93.7604 91.8533 93.6575C92.0605 93.5545 92.2968 93.5292 92.5206 93.5859C96.9334 95.6811 101.052 95.7809 104.19 93.8852C105.501 93.0855 106.621 91.9993 107.469 90.7051C108.317 89.411 108.872 87.9413 109.093 86.4023C109.289 83.1099 109.78 78.9194 112.427 76.6247C113.192 76.1476 114.017 75.7784 114.879 75.5272C117.527 74.6293 119.586 73.7313 119.39 72.135C119.096 69.8402 114.585 69.042 113.016 68.9423C112.764 68.897 112.536 68.7614 112.374 68.56C112.213 68.3586 112.127 68.1049 112.133 67.8448C112.191 67.5954 112.328 67.3724 112.523 67.2101C112.718 67.0478 112.96 66.9553 113.212 66.9468C113.996 66.9468 120.861 67.4457 121.449 71.8356C121.841 75.2279 118.115 76.4251 115.663 77.3231C115.045 77.4675 114.45 77.7028 113.898 78.0215C111.839 79.8174 111.447 83.7085 111.251 86.4023C110.995 88.2656 110.334 90.0474 109.316 91.618C108.299 93.1886 106.949 94.5085 105.367 95.4816C103.535 96.6125 101.429 97.1999 99.2869 97.1777C96.6776 97.0963 94.1104 96.4857 91.736 95.3818Z" fill="black"/>
<path d="M87.1271 175.199L48.3923 160.932C44.1836 159.36 40.7532 156.164 38.8442 152.037C36.9353 147.91 36.7016 143.184 38.1937 138.882C42.6065 126.311 48.1961 110.547 49.6671 107.354C52.3148 101.667 58.885 99.6719 59.1792 99.5722C59.4069 99.5561 59.633 99.6214 59.8184 99.7568C60.0039 99.8921 60.1372 100.089 60.1952 100.314C60.2533 100.538 60.2326 100.776 60.1367 100.987C60.0407 101.198 59.8755 101.368 59.6695 101.468C59.5714 101.468 53.5896 103.364 51.3341 108.252C50.1574 110.747 46.2349 121.622 39.9588 139.68C38.6447 143.479 38.8547 147.651 40.5435 151.293C42.2323 154.935 45.2637 157.753 48.9806 159.136L86.7349 173.004L94.0896 148.56L60.7482 141.875C60.6182 141.852 60.4942 141.802 60.3838 141.728C60.2733 141.654 60.1786 141.559 60.1053 141.447C60.032 141.335 59.9817 141.209 59.9574 141.077C59.9331 140.945 59.9352 140.809 59.9637 140.678C59.987 140.546 60.0363 140.42 60.1087 140.307C60.1811 140.195 60.2751 140.099 60.385 140.024C60.4949 139.95 60.6184 139.898 60.7483 139.874C60.8781 139.849 61.0115 139.851 61.1404 139.88L95.5606 146.864C95.8391 146.945 96.0816 147.121 96.247 147.363C96.3817 147.605 96.417 147.892 96.345 148.161L88.4019 174.601C88.3639 174.729 88.3008 174.848 88.2166 174.951C88.1324 175.053 88.0286 175.138 87.9116 175.199C87.8136 175.299 87.7155 175.299 87.5194 175.299C87.3821 175.303 87.2463 175.269 87.1271 175.199Z" fill="black"/>
<path d="M126.352 157.14C129.71 157.14 132.432 154.371 132.432 150.955C132.432 147.538 129.71 144.769 126.352 144.769C122.994 144.769 120.272 147.538 120.272 150.955C120.272 154.371 122.994 157.14 126.352 157.14Z" fill="#E6416A"/>
<path d="M89.3825 167.816C89.3825 167.816 100.464 172.904 107.818 174.7C113.212 175.997 117.33 176.496 118.703 174.002C119.978 171.707 115.467 169.512 115.467 169.512C115.467 169.512 124.685 170.709 124.685 166.719C124.685 165.621 124.489 164.324 121.841 162.728C124.979 162.927 126.058 160.832 126.254 159.335C126.45 157.839 124.685 155.943 122.528 155.744C126.254 153.948 125.862 151.154 125.862 151.154C125.862 151.154 125.47 147.463 120.272 149.059C115.075 150.655 104.974 149.458 104.974 149.458C104.974 149.458 107.426 140.977 108.407 136.987C106.347 135.091 103.994 140.977 101.052 142.474C98.1101 143.971 95.4624 147.862 95.4624 147.862L89.3825 167.816Z" fill="white"/>
<path d="M107.818 175.498C100.464 173.603 89.6768 168.714 89.1865 168.514C88.988 168.396 88.8329 168.215 88.7444 167.999C88.656 167.783 88.639 167.544 88.6961 167.317L94.678 147.463C94.6716 147.408 94.677 147.354 94.694 147.302C94.711 147.25 94.739 147.203 94.776 147.163C94.8741 147.064 97.6199 143.073 100.758 141.476C101.934 140.665 102.962 139.652 103.798 138.483C105.073 136.887 106.151 135.59 107.524 135.49C107.834 135.488 108.141 135.549 108.427 135.669C108.713 135.789 108.973 135.965 109.191 136.188C109.326 136.311 109.425 136.469 109.477 136.645C109.528 136.821 109.532 137.008 109.485 137.186C108.701 140.279 107.034 146.066 106.347 148.56C109.191 148.859 116.252 149.259 120.174 148.061C122.332 147.363 124.097 147.463 125.372 148.361C125.813 148.649 126.19 149.029 126.478 149.476C126.765 149.923 126.956 150.427 127.039 150.955C127.12 151.812 126.983 152.675 126.639 153.462C126.295 154.249 125.757 154.932 125.077 155.444C125.631 155.796 126.128 156.234 126.548 156.741C126.87 157.105 127.114 157.531 127.266 157.995C127.418 158.458 127.474 158.949 127.431 159.435C127.333 160.294 127.008 161.11 126.49 161.795C125.972 162.481 125.28 163.01 124.489 163.326C124.944 163.737 125.304 164.245 125.541 164.815C125.779 165.384 125.888 166.001 125.862 166.619C125.874 167.075 125.782 167.528 125.595 167.943C125.408 168.358 125.131 168.724 124.783 169.013C123.41 170.211 120.959 170.61 118.9 170.61C119.316 171.079 119.648 171.619 119.88 172.206C119.994 172.567 120.035 172.947 120.001 173.324C119.968 173.701 119.86 174.067 119.684 174.401C118.703 176.097 116.938 176.696 114.683 176.696C112.351 176.622 110.041 176.219 107.818 175.498ZM115.467 168.215C117.723 168.514 121.841 168.514 123.214 167.317C123.344 167.209 123.448 167.072 123.516 166.916C123.584 166.76 123.615 166.59 123.607 166.419C123.607 165.621 123.607 164.723 121.253 163.326C121.069 163.194 120.925 163.012 120.838 162.8C120.751 162.588 120.725 162.355 120.763 162.129C120.827 161.919 120.959 161.736 121.136 161.61C121.314 161.484 121.527 161.421 121.743 161.431C124.685 161.63 125.077 159.535 125.176 158.936C125.171 158.488 124.995 158.058 124.685 157.739C124.084 157.027 123.246 156.566 122.332 156.442C122.122 156.416 121.926 156.325 121.768 156.183C121.611 156.04 121.499 155.852 121.449 155.644C121.432 155.423 121.479 155.201 121.584 155.006C121.688 154.812 121.846 154.652 122.038 154.546C124.979 153.05 124.783 151.054 124.783 150.955C124.744 150.71 124.654 150.476 124.519 150.269C124.383 150.063 124.206 149.888 123.999 149.757C123.312 149.259 122.038 149.259 120.469 149.757C115.173 151.453 105.171 150.256 104.778 150.256C104.643 150.242 104.512 150.199 104.394 150.13C104.276 150.061 104.173 149.969 104.092 149.857C103.957 149.615 103.922 149.328 103.994 149.059C103.994 148.959 106.053 141.776 107.132 137.585C106.374 138.244 105.684 138.979 105.073 139.78C104.09 141.167 102.859 142.351 101.444 143.272C99.4024 144.566 97.6353 146.262 96.247 148.261L90.5593 167.118C93.207 168.315 101.935 172.106 108.015 173.603C112.231 174.601 116.742 175.399 117.821 173.403C117.904 173.332 117.96 173.232 117.978 173.122C117.996 173.013 117.975 172.9 117.919 172.805C117.625 171.807 116.056 170.809 115.075 170.31C114.877 170.192 114.721 170.011 114.633 169.795C114.545 169.579 114.528 169.34 114.585 169.113C114.672 168.918 114.809 168.75 114.981 168.628C115.154 168.505 115.355 168.431 115.565 168.415C115.565 168.415 115.663 168.415 115.467 168.215Z" fill="black"/>
<path d="M110.466 157.34C110.335 157.349 110.204 157.329 110.081 157.282C109.958 157.235 109.846 157.162 109.753 157.067C109.661 156.973 109.589 156.859 109.542 156.734C109.496 156.609 109.477 156.476 109.485 156.342C109.485 156.078 109.589 155.824 109.773 155.637C109.957 155.45 110.206 155.345 110.466 155.345C115.075 155.444 122.43 154.646 122.528 154.646C122.657 154.632 122.787 154.645 122.911 154.683C123.035 154.72 123.151 154.783 123.251 154.866C123.352 154.95 123.435 155.053 123.496 155.169C123.557 155.285 123.594 155.413 123.606 155.544C123.598 155.8 123.507 156.046 123.348 156.245C123.188 156.443 122.969 156.583 122.724 156.642C122.528 156.642 116.448 157.34 111.741 157.34H110.466Z" fill="black"/>
<path d="M108.505 162.828C108.299 162.727 108.134 162.557 108.038 162.347C107.942 162.136 107.921 161.898 107.979 161.673C108.037 161.449 108.17 161.252 108.356 161.116C108.541 160.981 108.767 160.916 108.995 160.932C113.408 162.029 121.841 161.73 121.939 161.73C122.2 161.73 122.449 161.835 122.633 162.022C122.817 162.209 122.92 162.463 122.92 162.728C122.92 162.992 122.817 163.246 122.633 163.433C122.449 163.62 122.2 163.725 121.939 163.725H119.096C115.544 163.819 111.992 163.518 108.505 162.828Z" fill="black"/>
<path d="M115.467 170.51C115.173 170.51 107.72 169.712 104.582 167.816C104.466 167.751 104.364 167.662 104.282 167.557C104.199 167.451 104.138 167.33 104.102 167.2C104.065 167.071 104.054 166.935 104.07 166.801C104.085 166.667 104.126 166.537 104.19 166.419C104.254 166.301 104.341 166.197 104.445 166.114C104.549 166.03 104.668 165.967 104.795 165.93C104.923 165.893 105.056 165.882 105.188 165.898C105.32 165.913 105.447 165.955 105.563 166.02C108.309 167.616 115.565 168.415 115.663 168.415C115.792 168.427 115.918 168.466 116.032 168.528C116.146 168.59 116.248 168.674 116.33 168.776C116.412 168.878 116.473 168.996 116.51 169.122C116.547 169.248 116.559 169.381 116.546 169.512C116.51 169.754 116.392 169.976 116.214 170.14C116.035 170.303 115.806 170.399 115.565 170.41C115.539 170.41 115.514 170.421 115.496 170.439C115.478 170.458 115.467 170.483 115.467 170.51Z" fill="black"/>
<path d="M114.389 122.849L110.27 111.275C108.113 105.09 104.582 101.697 99.9734 101.099L95.2663 100.5C95.1376 100.487 95.0126 100.448 94.8985 100.386C94.7845 100.324 94.6836 100.239 94.6017 100.137C94.5197 100.035 94.4583 99.918 94.4209 99.792C94.3835 99.6659 94.3709 99.5336 94.3838 99.4026C94.3967 99.2716 94.4348 99.1444 94.4959 99.0284C94.5571 98.9123 94.6402 98.8097 94.7404 98.7263C94.8405 98.6429 94.9558 98.5804 95.0798 98.5424C95.2037 98.5044 95.3337 98.4915 95.4625 98.5046L100.169 99.1033C105.661 99.8017 109.682 103.693 112.133 110.577L116.252 122.151C116.299 122.275 116.32 122.407 116.316 122.54C116.312 122.674 116.281 122.804 116.226 122.925C116.172 123.046 116.093 123.155 115.997 123.244C115.9 123.334 115.787 123.403 115.663 123.448C115.625 123.485 115.578 123.514 115.527 123.531C115.476 123.548 115.422 123.554 115.369 123.547C115.153 123.557 114.939 123.494 114.762 123.368C114.585 123.242 114.453 123.059 114.389 122.849Z" fill="black"/>
<path d="M144.004 122.52L151.162 101.568L126.941 96.4792L120.174 122.52H144.004Z" fill="white"/>
<path d="M119.292 123.118C119.191 122.996 119.12 122.85 119.086 122.694C119.052 122.537 119.055 122.375 119.096 122.22L125.862 96.0801C125.948 95.8426 126.112 95.643 126.327 95.5155C126.542 95.388 126.793 95.3407 127.039 95.3817L151.26 100.47C151.555 100.57 151.849 100.67 151.947 100.969C152.036 101.079 152.093 101.212 152.11 101.353C152.128 101.495 152.105 101.638 152.045 101.767L144.886 122.819C144.827 123.013 144.71 123.184 144.552 123.309C144.395 123.434 144.203 123.506 144.004 123.517H120.174C120.007 123.526 119.84 123.494 119.686 123.425C119.533 123.356 119.398 123.251 119.292 123.118ZM149.887 102.266L127.627 97.5767L121.449 121.522H143.317L149.887 102.266Z" fill="black"/>
<path d="M142.631 86.4024C142.435 85.0056 141.356 83.3095 139.1 81.314C142.631 79.5181 143.023 74.0307 141.16 73.1328C139.297 72.2348 135.962 76.9241 132.726 78.6202C129.49 80.3163 130.569 82.4115 131.059 86.4024C131.55 90.3933 130.177 97.1777 130.177 97.1777C130.177 97.1777 144.592 100.271 146.749 100.67C148.907 101.069 150.77 97.078 151.358 95.1823C152.166 93.1532 153.117 91.186 154.202 89.2958" fill="white"/>
<path d="M146.328 101.767L129.755 98.2752C129.625 98.2514 129.501 98.2013 129.391 98.1276C129.28 98.0539 129.185 97.9584 129.112 97.8465C129.039 97.7347 128.989 97.609 128.964 97.4769C128.94 97.3448 128.942 97.2091 128.971 97.0779C128.971 96.9781 130.245 90.3932 129.853 86.6019C129.755 85.9035 129.657 85.2051 129.559 84.6064C129.167 81.9126 128.774 79.6178 132.011 77.9217C133.333 77.1537 134.553 76.2147 135.639 75.1281C137.796 73.2324 139.659 71.6361 141.327 72.4343C141.878 72.7714 142.325 73.258 142.62 73.8396C142.914 74.4211 143.044 75.0746 142.994 75.7267C143.03 76.8397 142.819 77.9466 142.378 78.9656C141.937 79.9846 141.276 80.8895 140.444 81.6133C142.209 83.3094 143.19 84.9057 143.386 86.4023C143.399 86.5333 143.386 86.6657 143.349 86.7917C143.311 86.9178 143.25 87.0351 143.168 87.137C143.086 87.2389 142.985 87.3234 142.871 87.3857C142.757 87.4479 142.632 87.4867 142.503 87.4998C142.375 87.5129 142.244 87.5001 142.121 87.462C141.997 87.424 141.881 87.3615 141.781 87.2781C141.681 87.1948 141.598 87.0921 141.537 86.9761C141.476 86.86 141.437 86.7329 141.425 86.6019C141.327 85.7039 140.738 84.3071 138.287 82.1121C138.181 81.99 138.101 81.8477 138.05 81.6934C138 81.5392 137.98 81.3763 137.992 81.2142C137.992 81.0478 138.038 80.8847 138.125 80.7436C138.212 80.6024 138.336 80.4889 138.483 80.416C139.293 79.8944 139.961 79.1726 140.424 78.3179C140.887 77.4631 141.13 76.5031 141.13 75.5272C141.13 74.6293 140.836 74.1304 140.64 74.0306C140.15 73.7313 138.287 75.3277 137.11 76.4251C135.912 77.6343 134.559 78.6746 133.089 79.5181C131.226 80.5158 131.226 81.4137 131.716 84.2073C131.814 84.806 131.912 85.5044 132.011 86.3025C132.136 89.6811 131.872 93.0631 131.226 96.3795L146.916 99.672C147.897 99.8715 149.564 97.3772 150.348 94.8829C151.21 92.7971 152.193 90.7649 153.29 88.7968C153.355 88.6789 153.441 88.5751 153.545 88.4912C153.649 88.4073 153.768 88.3451 153.895 88.308C154.023 88.271 154.156 88.2598 154.288 88.2752C154.42 88.2906 154.547 88.3322 154.663 88.3978C154.779 88.4633 154.881 88.5514 154.964 88.657C155.046 88.7627 155.107 88.8838 155.144 89.0135C155.18 89.1432 155.191 89.2789 155.176 89.413C155.161 89.547 155.12 89.6766 155.055 89.7946C154.023 91.6293 153.106 93.5288 152.31 95.4816C152.212 95.6811 150.25 101.667 147.112 101.667C146.847 101.662 146.583 101.696 146.328 101.767Z" fill="black"/>
<path d="M42.7046 189.167C42.4245 189.148 42.1607 189.027 41.9623 188.825C41.7639 188.623 41.6443 188.355 41.6259 188.07C42.0181 182.682 46.1368 160.233 46.3329 159.236C46.3849 158.971 46.5381 158.738 46.7588 158.589C46.9795 158.439 47.2496 158.385 47.5097 158.438C47.7698 158.49 47.9985 158.646 48.1456 158.871C48.2928 159.095 48.3462 159.37 48.2942 159.635C48.2942 159.934 43.9794 182.981 43.6852 188.269C43.6608 188.516 43.5468 188.745 43.3655 188.911C43.1842 189.077 42.9485 189.168 42.7046 189.167Z" fill="black"/>
<path d="M95.4624 251.425L12.305 213.811C7.97547 212.079 4.46378 208.723 2.49343 204.435C0.523091 200.148 0.244193 195.254 1.71421 190.764C3.12936 186.465 6.05171 182.847 9.92291 180.601C13.7941 178.356 18.3427 177.64 22.6997 178.591L109.583 197.548L95.4624 251.425Z" fill="#B7194A"/>
<path d="M109.387 198.546L25.5435 180.288C25.4147 180.261 25.2923 180.21 25.1832 180.135C25.074 180.061 24.9804 179.965 24.9075 179.854C24.8347 179.743 24.7841 179.618 24.7586 179.487C24.7331 179.356 24.7332 179.221 24.759 179.09C24.7848 178.959 24.8356 178.835 24.9087 178.724C24.9818 178.613 25.0756 178.517 25.1849 178.443C25.2942 178.369 25.4167 178.318 25.5456 178.292C25.6744 178.266 25.807 178.266 25.9358 178.292L109.78 196.55C109.91 196.574 110.034 196.624 110.144 196.698C110.255 196.772 110.349 196.867 110.422 196.979C110.496 197.091 110.546 197.216 110.57 197.349C110.595 197.481 110.593 197.616 110.564 197.748C110.518 197.976 110.395 198.181 110.216 198.327C110.037 198.473 109.813 198.55 109.583 198.546H109.387Z" fill="black"/>
<path d="M360.105 358.999H7.58819C7.34112 358.999 7.10416 358.899 6.92945 358.721C6.75474 358.543 6.6566 358.302 6.6566 358.051C6.6566 357.799 6.75474 357.558 6.92945 357.381C7.10416 357.203 7.34112 357.103 7.58819 357.103H360.203C360.327 357.096 360.452 357.115 360.568 357.16C360.684 357.205 360.79 357.275 360.878 357.365C360.966 357.454 361.034 357.561 361.078 357.68C361.123 357.798 361.142 357.924 361.135 358.051C361.128 358.182 361.097 358.31 361.042 358.429C360.986 358.548 360.909 358.654 360.813 358.742C360.717 358.83 360.606 358.898 360.484 358.942C360.363 358.986 360.234 359.005 360.105 358.999Z" fill="black"/>
<path d="M335.678 194.924C335.678 194.924 339.345 173.074 353.809 172.196C363.527 171.537 362.988 179.878 357.801 183.281C352.613 186.683 337.08 192.689 335.589 202.726C335.677 198.765 335.678 194.924 335.678 194.924Z" fill="#E2E8F0"/>
<path d="M335.677 152.531C335.677 152.531 325.959 121.352 313.035 129.254C308.818 132.108 310.005 140.678 320.046 143.641C329.764 146.495 335.736 155.724 335.736 164.174L335.677 152.531Z" fill="#E2E8F0"/>
<path d="M335.678 117.282C335.678 117.282 339.129 93.7855 367.058 85.3548C379.041 82.2818 384.434 84.4768 387.131 87.1107C389.828 89.7447 389.946 100.291 372.235 106.227C354.525 112.163 335.589 121.791 335.589 135.51C335.677 128.486 335.678 117.282 335.678 117.282Z" fill="#E2E8F0"/>
<path d="M335.677 114.318C335.677 114.318 335.677 76.2156 308.22 71.4165C299.159 70.5386 293.863 76.914 300.238 84.2671C306.612 91.6203 335.677 99.3826 335.677 114.318Z" fill="#E2E8F0"/>
<path d="M363.42 357.303H307.936L299.306 264.285H372.049L363.42 357.303Z" fill="#E2E8F0"/>
<path d="M373.236 292.072H298.011C297.725 292.072 297.451 291.956 297.249 291.75C297.046 291.545 296.933 291.265 296.933 290.974C296.933 290.683 297.046 290.404 297.249 290.198C297.451 289.992 297.725 289.877 298.011 289.877H373.236C373.522 289.877 373.796 289.992 373.998 290.198C374.201 290.404 374.314 290.683 374.314 290.974C374.314 291.265 374.201 291.545 373.998 291.75C373.796 291.956 373.522 292.072 373.236 292.072Z" fill="black"/>
<path d="M335.678 266.7C335.532 266.716 335.385 266.698 335.247 266.648C335.109 266.599 334.984 266.518 334.881 266.413C334.777 266.308 334.698 266.181 334.649 266.04C334.601 265.9 334.583 265.75 334.599 265.602V108.721C334.599 108.43 334.713 108.151 334.915 107.945C335.117 107.739 335.392 107.624 335.678 107.624C335.964 107.624 336.238 107.739 336.44 107.945C336.643 108.151 336.756 108.43 336.756 108.721V265.602C336.756 265.893 336.643 266.173 336.44 266.378C336.238 266.584 335.964 266.7 335.678 266.7Z" fill="black"/>
</svg>
