<svg width="362" height="394" viewBox="0 0 362 394" fill="none" xmlns="http://www.w3.org/2000/svg">
<path d="M60.0609 84.1765V125.686H73.5258H84.5253H97.9903V84.1765H60.0609Z" fill="white"/>
<path d="M97.9903 126.701H59.966C59.8394 126.71 59.7123 126.69 59.5935 126.641C59.4747 126.592 59.3667 126.516 59.277 126.418C59.1872 126.32 59.1176 126.202 59.0729 126.072C59.0282 125.943 59.0094 125.804 59.0178 125.666V84.1559C59.0094 84.0176 59.0282 83.879 59.0729 83.7492C59.1176 83.6195 59.1872 83.5017 59.277 83.4037C59.3667 83.3056 59.4747 83.2297 59.5935 83.1809C59.7123 83.1321 59.8394 83.1116 59.966 83.1208H97.9903C98.117 83.1116 98.244 83.1321 98.3629 83.1809C98.4817 83.2297 98.5897 83.3056 98.6794 83.4037C98.7692 83.5017 98.8388 83.6195 98.8835 83.7492C98.9282 83.879 98.947 84.0176 98.9386 84.1559V125.666C98.9386 125.94 98.8387 126.204 98.6608 126.398C98.483 126.592 98.2418 126.701 97.9903 126.701ZM61.0091 124.631H97.1369V85.1911H61.0091V124.631Z" fill="black"/>
<path d="M111.588 42.5632C110.807 41.5774 110.257 40.4 109.983 39.1315C109.71 37.863 109.721 36.541 110.018 35.2786C110.314 34.0162 110.885 32.8508 111.684 31.8819C112.482 30.9131 113.484 30.1696 114.602 29.7149C115.721 29.2603 116.924 29.108 118.108 29.2711C119.293 29.4342 120.423 29.9078 121.404 30.6515C122.384 31.3952 123.185 32.3869 123.738 33.5419C124.291 34.6968 124.579 35.9807 124.579 37.2839C124.584 38.0879 124.488 38.889 124.294 39.6647V42.5632H136.242V1.05334H98.2179V42.5632H111.588Z" fill="white"/>
<path d="M136.015 43.5984H124.067C123.94 43.6075 123.813 43.587 123.694 43.5382C123.575 43.4895 123.468 43.4135 123.378 43.3155C123.288 43.2175 123.218 43.0997 123.174 42.97C123.129 42.8402 123.11 42.7015 123.119 42.5632V39.3542C123.313 38.6848 123.409 37.9861 123.403 37.2839C123.403 35.417 122.724 33.6266 121.514 32.3066C120.305 30.9865 118.665 30.2449 116.955 30.2449C115.245 30.2449 113.605 30.9865 112.396 32.3066C111.186 33.6266 110.507 35.417 110.507 37.2839C110.523 38.9958 111.095 40.646 112.119 41.9421C112.242 42.0956 112.324 42.2824 112.358 42.4829C112.391 42.6834 112.374 42.89 112.309 43.0808C112.236 43.2628 112.117 43.4181 111.966 43.5282C111.814 43.6383 111.637 43.6986 111.455 43.7019H97.9903C97.8636 43.7111 97.7366 43.6906 97.6178 43.6418C97.4989 43.593 97.391 43.5171 97.3012 43.419C97.2114 43.321 97.1419 43.2032 97.0972 43.0735C97.0525 42.9437 97.0337 42.8051 97.0421 42.6668V1.15691C97.0337 1.0186 97.0525 0.879937 97.0972 0.750197C97.1419 0.620458 97.2114 0.50264 97.3012 0.404629C97.391 0.306617 97.4989 0.230677 97.6178 0.181892C97.7366 0.133106 97.8636 0.112602 97.9903 0.121751H136.015C136.141 0.112602 136.268 0.133106 136.387 0.181892C136.506 0.230677 136.614 0.306617 136.704 0.404629C136.794 0.50264 136.863 0.620458 136.908 0.750197C136.952 0.879937 136.971 1.0186 136.963 1.15691V42.6668C136.961 42.7974 136.934 42.9261 136.884 43.0449C136.835 43.1638 136.763 43.2702 136.674 43.3576C136.585 43.4449 136.481 43.5114 136.367 43.5528C136.254 43.5943 136.134 43.6098 136.015 43.5984ZM125.015 41.5281H135.066V2.08855H98.9386V41.5281H109.692C109.056 40.2218 108.73 38.7628 108.743 37.2839C108.743 34.868 109.622 32.551 111.187 30.8426C112.752 29.1343 114.875 28.1745 117.088 28.1745C119.301 28.1745 121.423 29.1343 122.988 30.8426C124.553 32.551 125.432 34.868 125.432 37.2839C125.431 38.1217 125.336 38.9561 125.148 39.7683V41.5281H125.015Z" fill="black"/>
<path d="M102.921 55.3991C101.14 55.3664 99.4129 56.0688 98.0853 57.3659V42.6666H84.6203C85.4012 41.6809 85.9518 40.5035 86.2253 39.2349C86.4988 37.9664 86.4869 36.6445 86.1907 35.382C85.8946 34.1196 85.3229 32.9542 84.5245 31.9853C83.7262 31.0165 82.7249 30.273 81.6061 29.8183C80.4874 29.3637 79.2844 29.2114 78.1001 29.3745C76.9157 29.5376 75.7851 30.0112 74.8048 30.755C73.8245 31.4987 73.0237 32.4903 72.4708 33.6453C71.9178 34.8002 71.6292 36.0841 71.6295 37.3873C71.5996 39.332 72.243 41.2173 73.4312 42.6666H59.9662V84.1765H73.4312C72.6503 85.1622 72.0996 86.3396 71.8262 87.6081C71.5527 88.8767 71.5646 90.1986 71.8608 91.461C72.1569 92.7235 72.7286 93.8889 73.527 94.8577C74.3253 95.8266 75.3266 96.5701 76.4454 97.0247C77.5641 97.4794 78.7671 97.6317 79.9514 97.4686C81.1358 97.3055 82.2664 96.8318 83.2467 96.0881C84.2269 95.3444 85.0278 94.3527 85.5807 93.1978C86.1336 92.0428 86.4223 90.759 86.422 89.4558C86.4519 87.5111 85.8085 85.6258 84.6203 84.1765H98.0853V69.4772C99.1574 70.4886 100.473 71.1425 101.876 71.3612C103.278 71.5798 104.709 71.3541 105.998 70.7107C107.286 70.0674 108.378 69.0335 109.144 67.7321C109.91 66.4307 110.317 64.9166 110.318 63.3698C110.314 62.3155 110.119 61.2723 109.745 60.3004C109.371 59.3284 108.825 58.4467 108.137 57.706C107.45 56.9653 106.635 56.3802 105.74 55.9843C104.845 55.5884 103.887 55.3895 102.921 55.3991Z" fill="white"/>
<path d="M79.0256 98.5652C76.8133 98.5625 74.6923 97.6019 73.1279 95.8941C71.5636 94.1864 70.6836 91.8709 70.6811 89.4558C70.6913 87.98 71.016 86.5269 71.6293 85.2117H59.966C59.8394 85.2208 59.7123 85.2003 59.5935 85.1515C59.4747 85.1027 59.3667 85.0268 59.277 84.9288C59.1872 84.8308 59.1176 84.713 59.0729 84.5832C59.0282 84.4535 59.0094 84.3148 59.0178 84.1765V42.6667C59.0094 42.5284 59.0282 42.3897 59.0729 42.26C59.1176 42.1302 59.1872 42.0124 59.277 41.9144C59.3667 41.8164 59.4747 41.7404 59.5935 41.6916C59.7123 41.6429 59.8394 41.6224 59.966 41.6315H71.6293C70.9941 40.3252 70.6682 38.8662 70.6811 37.3874C70.6811 34.9714 71.5603 32.6544 73.1252 30.946C74.6901 29.2377 76.8125 28.278 79.0256 28.278C81.2387 28.278 83.3611 29.2377 84.926 30.946C86.4909 32.6544 87.3701 34.9714 87.3701 37.3874C87.3599 38.8632 87.0352 40.3162 86.4218 41.6315H98.0852C98.2119 41.6224 98.3389 41.6429 98.4577 41.6916C98.5766 41.7404 98.6845 41.8164 98.7743 41.9144C98.864 42.0124 98.9336 42.1302 98.9783 42.26C99.023 42.3897 99.0418 42.5284 99.0334 42.6667V55.3991C100.23 54.7057 101.566 54.3498 102.921 54.3639C105.134 54.3639 107.257 55.3237 108.822 57.032C110.387 58.7404 111.266 61.0574 111.266 63.4733C111.266 65.8893 110.387 68.2063 108.822 69.9146C107.257 71.623 105.134 72.5827 102.921 72.5827C101.569 72.5716 100.238 72.2172 99.0334 71.5476V84.2593C99.0418 84.3976 99.023 84.5363 98.9783 84.666C98.9336 84.7958 98.864 84.9136 98.7743 85.0116C98.6845 85.1096 98.5766 85.1856 98.4577 85.2343C98.3389 85.2831 98.2119 85.3036 98.0852 85.2945H86.4218C87.057 86.6008 87.383 88.0597 87.3701 89.5386C87.3526 91.9411 86.4654 94.2384 84.9021 95.9295C83.3388 97.6205 81.2264 98.568 79.0256 98.5652ZM61.0091 83.1413H73.5258C73.7076 83.1446 73.8848 83.2049 74.0361 83.3151C74.1874 83.4252 74.3065 83.5805 74.3793 83.7625C74.4682 83.9482 74.4978 84.1611 74.4635 84.3673C74.4291 84.5736 74.3328 84.7614 74.1896 84.9011C73.1362 86.1783 72.5608 87.8409 72.5776 89.5593C72.5776 91.4262 73.2569 93.2166 74.4662 94.5367C75.6754 95.8568 77.3155 96.5984 79.0256 96.5984C80.7357 96.5984 82.3758 95.8568 83.585 94.5367C84.7943 93.2166 85.4736 91.4262 85.4736 89.5593C85.4572 87.8475 84.8861 86.1972 83.8616 84.9011C83.7388 84.7477 83.6562 84.5608 83.6229 84.3603C83.5895 84.1599 83.6064 83.9533 83.672 83.7625C83.7447 83.5805 83.8638 83.4252 84.0151 83.3151C84.1664 83.2049 84.3435 83.1446 84.5254 83.1413H97.0421V69.4773C97.0451 69.2788 97.1004 69.0854 97.2012 68.9202C97.3021 68.755 97.4444 68.625 97.611 68.5456C97.7812 68.4485 97.9762 68.4161 98.1651 68.4536C98.354 68.4911 98.5261 68.5964 98.6541 68.7527C99.824 69.9026 101.347 70.5307 102.921 70.5124C104.631 70.5124 106.271 69.7708 107.481 68.4507C108.69 67.1306 109.369 65.3402 109.369 63.4733C109.369 61.6065 108.69 59.8161 107.481 58.496C106.271 57.1759 104.631 56.4343 102.921 56.4343C101.353 56.4522 99.8414 57.0756 98.6541 58.194C98.5135 58.3282 98.3424 58.4182 98.1587 58.4547C97.9751 58.4911 97.7858 58.4726 97.611 58.4011C97.4444 58.3217 97.3021 58.1917 97.2012 58.0265C97.1004 57.8613 97.0451 57.6679 97.0421 57.4694V43.8053H84.5254C84.3435 43.802 84.1664 43.7417 84.0151 43.6316C83.8638 43.5215 83.7447 43.3662 83.672 43.1842C83.583 42.9985 83.5534 42.7856 83.5877 42.5793C83.6221 42.3731 83.7185 42.1853 83.8616 42.0456C84.915 40.7684 85.4903 39.1058 85.4736 37.3874C85.4736 35.5205 84.7943 33.73 83.585 32.41C82.3758 31.0899 80.7357 30.3483 79.0256 30.3483C77.3155 30.3483 75.6754 31.0899 74.4662 32.41C73.2569 33.73 72.5776 35.5205 72.5776 37.3874C72.594 39.0992 73.1651 40.7495 74.1896 42.0456C74.3124 42.199 74.3949 42.3858 74.4283 42.5863C74.4617 42.7868 74.4448 42.9934 74.3793 43.1842C74.3065 43.3662 74.1874 43.5215 74.0361 43.6316C73.8848 43.7417 73.7076 43.802 73.5258 43.8053H61.0091V83.1413Z" fill="black"/>
<path d="M122.55 84.1765C123.33 85.1623 123.881 86.3397 124.155 87.6082C124.428 88.8767 124.416 90.1987 124.12 91.4611C123.824 92.7235 123.252 93.8889 122.454 94.8578C121.655 95.8266 120.654 96.5701 119.535 97.0248C118.417 97.4794 117.214 97.6317 116.029 97.4686C114.845 97.3055 113.714 96.8319 112.734 96.0882C111.754 95.3445 110.953 94.3528 110.4 93.1978C109.847 92.0429 109.558 90.759 109.559 89.4558C109.529 87.5112 110.172 85.6258 111.36 84.1765H97.8955V98.8758C96.9925 98.0234 95.914 97.4222 94.752 97.1237C93.59 96.8251 92.379 96.8381 91.2226 97.1614C90.0662 97.4847 88.9986 98.1088 88.1111 98.9804C87.2236 99.8519 86.5426 100.945 86.1261 102.166C85.7096 103.388 85.5701 104.701 85.7195 105.994C85.8689 107.287 86.3028 108.521 86.9841 109.591C87.6653 110.661 88.5737 111.535 89.6317 112.139C90.6897 112.743 91.8657 113.058 93.0595 113.057C94.8408 113.09 96.5679 112.388 97.8955 111.091V125.79H135.92V84.2593H122.55V84.1765Z" fill="white"/>
<path d="M136.015 126.701H97.9904C97.8637 126.71 97.7367 126.689 97.6178 126.641C97.499 126.592 97.3911 126.516 97.3013 126.418C97.2115 126.32 97.142 126.202 97.0973 126.072C97.0526 125.943 97.0338 125.804 97.0422 125.666V112.933C95.8456 113.627 94.5091 113.982 93.1544 113.968C90.9413 113.968 88.8189 113.009 87.254 111.3C85.6891 109.592 84.8099 107.275 84.8099 104.859C84.8099 102.443 85.6891 100.126 87.254 98.4175C88.8189 96.7092 90.9413 95.7495 93.1544 95.7495C94.5063 95.7606 95.8374 96.115 97.0422 96.7846V84.0522C97.0338 83.9139 97.0526 83.7752 97.0973 83.6455C97.142 83.5157 97.2115 83.3979 97.3013 83.2999C97.3911 83.2019 97.499 83.1259 97.6178 83.0771C97.7367 83.0284 97.8637 83.0079 97.9904 83.017H111.455C111.637 83.0203 111.814 83.0806 111.966 83.1907C112.117 83.3009 112.236 83.4561 112.309 83.6381C112.398 83.8239 112.427 84.0367 112.393 84.243C112.359 84.4492 112.262 84.6371 112.119 84.7768C111.066 86.0539 110.49 87.7165 110.507 89.435C110.507 91.3019 111.186 93.0923 112.396 94.4124C113.605 95.7324 115.245 96.4741 116.955 96.4741C118.665 96.4741 120.305 95.7324 121.515 94.4124C122.724 93.0923 123.403 91.3019 123.403 89.435C123.387 87.7231 122.816 86.0729 121.791 84.7768C121.668 84.6234 121.586 84.4365 121.552 84.236C121.519 84.0355 121.536 83.8289 121.602 83.6381C121.674 83.4561 121.793 83.3009 121.945 83.1907C122.096 83.0806 122.273 83.0203 122.455 83.017H135.92C136.047 83.0079 136.174 83.0284 136.292 83.0771C136.411 83.1259 136.519 83.2019 136.609 83.2999C136.699 83.3979 136.768 83.5157 136.813 83.6455C136.858 83.7752 136.876 83.9139 136.868 84.0522V125.562C136.897 125.7 136.897 125.844 136.867 125.982C136.837 126.121 136.779 126.249 136.697 126.359C136.614 126.469 136.51 126.557 136.392 126.616C136.274 126.675 136.145 126.704 136.015 126.701ZM98.9387 124.63H135.066V85.1908H124.351C124.987 86.4972 125.313 87.9561 125.3 89.435C125.3 91.851 124.42 94.168 122.856 95.8763C121.291 97.5846 119.168 98.5444 116.955 98.5444C114.742 98.5444 112.62 97.5846 111.055 95.8763C109.49 94.168 108.611 91.851 108.611 89.435C108.621 87.9591 108.946 86.5061 109.559 85.1908H98.8438V98.8549C98.8408 99.0534 98.7856 99.2468 98.6847 99.412C98.5838 99.5772 98.4416 99.7072 98.2749 99.7866C98.1047 99.8837 97.9097 99.916 97.7208 99.8785C97.5319 99.8411 97.3598 99.7358 97.2318 99.5795C96.0619 98.4296 94.5389 97.8015 92.9647 97.8198C91.2546 97.8198 89.6146 98.5614 88.4053 99.8815C87.1961 101.202 86.5168 102.992 86.5168 104.859C86.5168 106.726 87.1961 108.516 88.4053 109.836C89.6146 111.156 91.2546 111.898 92.9647 111.898C94.5329 111.88 96.0445 111.257 97.2318 110.138C97.3723 110.004 97.5436 109.914 97.7272 109.878C97.9109 109.841 98.1001 109.86 98.2749 109.931C98.4416 110.011 98.5838 110.141 98.6847 110.306C98.7856 110.471 98.8408 110.664 98.8438 110.863V124.63H98.9387Z" fill="black"/>
<path d="M73.5259 42.5632C72.745 41.5775 72.1944 40.4 71.9209 39.1315C71.6475 37.863 71.6593 36.5411 71.9555 35.2786C72.2517 34.0162 72.8234 32.8508 73.6217 31.8819C74.4201 30.9131 75.4214 30.1696 76.5401 29.7149C77.6589 29.2603 78.8618 29.108 80.0462 29.2711C81.2305 29.4342 82.3611 29.9078 83.3414 30.6515C84.3217 31.3952 85.1225 32.3869 85.6754 33.5419C86.2284 34.6968 86.517 35.9807 86.5167 37.2839C86.5466 39.2285 85.9032 41.1139 84.7151 42.5632H98.18V27.8639C99.083 28.7164 100.162 29.3175 101.324 29.616C102.486 29.9146 103.696 29.9016 104.853 29.5783C106.009 29.255 107.077 28.6309 107.964 27.7594C108.852 26.8878 109.533 25.7947 109.949 24.5734C110.366 23.3521 110.505 22.0389 110.356 20.746C110.207 19.453 109.773 18.2188 109.091 17.1487C108.41 16.0785 107.502 15.2043 106.444 14.6007C105.386 13.9971 104.21 13.682 103.016 13.6823C101.235 13.6497 99.5076 14.352 98.18 15.6491V0.949829H60.1558V42.4597H73.5259V42.5632Z" fill="white"/>
<path d="M97.9903 43.5984H84.5253C84.3435 43.5951 84.1664 43.5348 84.0151 43.4247C83.8638 43.3146 83.7446 43.1593 83.6719 42.9773C83.583 42.7915 83.5533 42.5787 83.5877 42.3724C83.622 42.1662 83.7184 41.9783 83.8616 41.8386C84.915 40.5615 85.4903 38.8989 85.4736 37.1804C85.4736 35.3135 84.7942 33.5231 83.585 32.203C82.3758 30.8829 80.7357 30.1413 79.0256 30.1413C77.3154 30.1413 75.6754 30.8829 74.4661 32.203C73.2569 33.5231 72.5775 35.3135 72.5775 37.1804C72.5939 38.8923 73.165 40.5425 74.1896 41.8386C74.3124 41.992 74.3949 42.1789 74.4283 42.3794C74.4617 42.5799 74.4447 42.7865 74.3792 42.9773C74.3065 43.1593 74.1874 43.3146 74.0361 43.4247C73.8848 43.5348 73.7076 43.5951 73.5258 43.5984H60.0608C59.9341 43.6075 59.8071 43.587 59.6883 43.5382C59.5694 43.4895 59.4615 43.4135 59.3717 43.3155C59.2819 43.2175 59.2124 43.0997 59.1677 42.9699C59.123 42.8402 59.1042 42.7015 59.1126 42.5632V1.05339C59.1042 0.915087 59.123 0.776421 59.1677 0.646682C59.2124 0.516942 59.2819 0.399124 59.3717 0.301113C59.4615 0.203102 59.5694 0.127162 59.6883 0.0783761C59.8071 0.0295907 59.9341 0.00908598 60.0608 0.0182357H98.0851C98.2118 0.00908598 98.3388 0.0295907 98.4577 0.0783761C98.5765 0.127162 98.6844 0.203102 98.7742 0.301113C98.864 0.399124 98.9336 0.516942 98.9783 0.646682C99.023 0.776421 99.0417 0.915087 99.0334 1.05339V13.7858C100.23 13.0924 101.566 12.7366 102.921 12.7507C105.134 12.7507 107.257 13.7104 108.822 15.4188C110.386 17.1271 111.266 19.4441 111.266 21.8601C111.266 24.276 110.386 26.593 108.822 28.3014C107.257 30.0097 105.134 30.9695 102.921 30.9695C101.569 30.9583 100.238 30.6039 99.0334 29.9343V42.6668C98.9903 42.9326 98.8614 43.1727 98.67 43.3437C98.4787 43.5146 98.2375 43.605 97.9903 43.5984ZM86.327 41.5281H97.0421V27.864C97.0451 27.6655 97.1003 27.4721 97.2012 27.3069C97.3021 27.1418 97.4443 27.0117 97.611 26.9323C97.7812 26.8352 97.9762 26.8029 98.1651 26.8404C98.354 26.8779 98.5261 26.9831 98.654 27.1394C99.8239 28.2893 101.347 28.9174 102.921 28.8992C104.631 28.8992 106.271 28.1575 107.481 26.8374C108.69 25.5174 109.369 23.7269 109.369 21.8601C109.369 19.9932 108.69 18.2028 107.481 16.8827C106.271 15.5626 104.631 14.821 102.921 14.821C101.353 14.8389 99.8413 15.4623 98.654 16.5808C98.5135 16.7149 98.3423 16.8049 98.1587 16.8414C97.975 16.8778 97.7858 16.8593 97.611 16.7878C97.4443 16.7084 97.3021 16.5784 97.2012 16.4132C97.1003 16.248 97.0451 16.0546 97.0421 15.8562V2.19207H60.9142V41.6316H71.6293C70.9941 40.3253 70.6681 38.8663 70.6811 37.3874C70.6811 34.9715 71.5602 32.6545 73.1251 30.9461C74.69 29.2378 76.8125 28.278 79.0256 28.278C81.2387 28.278 83.3611 29.2378 84.926 30.9461C86.4909 32.6545 87.37 34.9715 87.37 37.3874C87.3486 38.8417 86.9897 40.2663 86.327 41.5281Z" fill="black"/>
<path d="M235.342 365.357C235.342 365.357 236.006 373.534 236.385 377.261C230.127 376.847 198.077 383.265 197.318 386.681C197.205 387.103 197.176 387.547 197.232 387.982C197.289 388.418 197.429 388.836 197.644 389.207C197.859 389.579 198.144 389.897 198.48 390.14C198.817 390.382 199.196 390.544 199.594 390.615H262.841L261.04 364.011L235.342 365.357Z" fill="white"/>
<path d="M199.499 391.857C198.985 391.771 198.492 391.57 198.051 391.267C197.611 390.965 197.232 390.566 196.939 390.097C196.644 389.596 196.449 389.033 196.367 388.444C196.285 387.855 196.319 387.254 196.465 386.681C196.654 385.853 197.128 383.679 214.671 379.745C223.11 377.882 231.549 376.536 235.437 376.433C235.058 372.396 234.489 365.667 234.489 365.667C234.447 365.523 234.442 365.37 234.475 365.223C234.509 365.077 234.579 364.944 234.679 364.839C234.762 364.738 234.865 364.658 234.979 364.604C235.094 364.551 235.218 364.525 235.342 364.528L261.04 363.079C261.159 363.068 261.279 363.083 261.392 363.125C261.506 363.166 261.61 363.233 261.699 363.32C261.788 363.407 261.86 363.514 261.909 363.633C261.959 363.751 261.986 363.88 261.988 364.011L263.79 390.614C263.797 390.92 263.695 391.217 263.505 391.443C263.422 391.544 263.319 391.624 263.204 391.677C263.09 391.731 262.966 391.757 262.841 391.753H199.594C199.499 391.753 199.499 391.753 199.499 391.857ZM260.186 365.253L236.48 366.599C236.67 368.876 237.144 374.466 237.429 377.364C237.443 377.518 237.427 377.673 237.38 377.819C237.332 377.964 237.256 378.096 237.156 378.206C237.056 378.315 236.935 378.398 236.802 378.45C236.668 378.501 236.526 378.519 236.385 378.503C229.748 378.089 199.878 384.403 198.266 387.095C198.121 387.686 198.189 388.316 198.456 388.855C198.597 389.079 198.78 389.268 198.992 389.411C199.205 389.553 199.442 389.646 199.689 389.683H261.798L260.186 365.253Z" fill="black"/>
<path d="M258.669 365.357C258.669 365.357 259.333 373.534 259.712 377.261C253.454 376.847 221.309 383.265 220.645 386.681C220.532 387.103 220.503 387.547 220.559 387.982C220.615 388.418 220.756 388.836 220.971 389.207C221.186 389.579 221.471 389.897 221.807 390.14C222.143 390.382 222.523 390.544 222.921 390.615H286.168L284.366 364.011L258.669 365.357Z" fill="white"/>
<path d="M222.826 391.857C222.311 391.771 221.818 391.57 221.378 391.267C220.937 390.965 220.559 390.566 220.265 390.097C219.97 389.596 219.775 389.033 219.694 388.444C219.612 387.855 219.645 387.254 219.791 386.681C219.981 385.853 220.455 383.679 237.997 379.745C246.437 377.882 254.876 376.536 258.764 376.433C258.384 372.396 257.816 365.667 257.816 365.667C257.773 365.523 257.768 365.37 257.802 365.223C257.835 365.077 257.906 364.944 258.005 364.839C258.089 364.738 258.191 364.658 258.306 364.604C258.42 364.551 258.544 364.525 258.669 364.528L284.366 363.079C284.485 363.068 284.605 363.083 284.719 363.125C284.832 363.166 284.937 363.233 285.026 363.32C285.115 363.407 285.186 363.514 285.236 363.633C285.286 363.751 285.312 363.88 285.314 364.011L287.116 390.614C287.123 390.92 287.021 391.217 286.832 391.443C286.748 391.544 286.645 391.624 286.531 391.677C286.416 391.731 286.292 391.757 286.168 391.753H222.92C222.826 391.753 222.826 391.753 222.826 391.857ZM283.513 365.253L259.807 366.599C259.996 368.876 260.471 374.466 260.755 377.364C260.77 377.518 260.753 377.673 260.706 377.819C260.659 377.964 260.583 378.096 260.483 378.206C260.383 378.315 260.261 378.398 260.128 378.45C259.995 378.501 259.853 378.519 259.712 378.503C253.074 378.089 223.205 384.403 221.593 387.095C221.447 387.686 221.515 388.316 221.783 388.855C221.924 389.079 222.107 389.268 222.319 389.411C222.531 389.553 222.768 389.646 223.015 389.683H285.115L283.513 365.253Z" fill="black"/>
<path d="M218.559 169.194H260.471L272.798 369.29H225.196L218.559 169.194Z" fill="#B7194A"/>
<path d="M242.359 169.194H284.366L296.693 369.29H248.997L242.359 169.194Z" fill="#E6416A"/>
<path d="M244.066 262.876L243.687 253.559C243.687 253.285 243.787 253.022 243.965 252.827C244.143 252.633 244.384 252.524 244.635 252.524C244.887 252.524 245.128 252.633 245.306 252.827C245.484 253.022 245.583 253.285 245.583 253.559L245.963 262.876C245.963 263.15 245.863 263.414 245.685 263.608C245.507 263.802 245.266 263.911 245.015 263.911C244.763 263.911 244.522 263.802 244.344 263.608C244.166 263.414 244.066 263.15 244.066 262.876Z" fill="black"/>
<path d="M248.049 369.29L244.256 272.71C244.256 272.435 244.356 272.172 244.533 271.978C244.711 271.784 244.952 271.675 245.204 271.675C245.455 271.675 245.697 271.784 245.874 271.978C246.052 272.172 246.152 272.435 246.152 272.71L249.945 369.29C249.945 369.565 249.845 369.828 249.667 370.022C249.49 370.216 249.248 370.325 248.997 370.325C248.87 370.334 248.743 370.314 248.624 370.265C248.505 370.216 248.398 370.14 248.308 370.042C248.218 369.944 248.148 369.827 248.104 369.697C248.059 369.567 248.04 369.428 248.049 369.29Z" fill="black"/>
<path d="M166.102 60.1195C166.102 60.1195 164.68 51.7347 165.059 49.4573C165.438 47.18 167.145 46.8694 169.042 48.3187C174.826 52.8733 170.938 65.6058 170.18 71.0921C169.421 76.5785 173.119 80.9261 173.119 80.9261L159.275 90.139C157.508 86.7943 155.038 83.9559 152.068 81.8578C147.327 78.6488 143.724 75.9574 141.638 72.0238C141.638 72.0238 138.509 60.3265 148.655 54.4261C158.801 48.5257 166.102 60.1195 166.102 60.1195Z" fill="white"/>
<path d="M157.948 64.053L170.275 58.0491L154.818 20.1623L142.491 26.1663C143.012 24.2909 142.911 22.2753 142.207 20.4729C141.731 19.2664 140.993 18.2046 140.057 17.3793C139.121 16.5541 138.015 15.9902 136.835 15.7365C135.654 15.4829 134.435 15.547 133.282 15.9235C132.129 16.2999 131.078 16.9773 130.219 17.897C129.36 18.8168 128.719 19.9511 128.352 21.202C127.985 22.4528 127.902 23.7825 128.112 25.0759C128.321 26.3694 128.816 27.5877 129.554 28.6254C130.291 29.6631 131.249 30.4889 132.345 31.0315L120.018 37.0354L125.518 50.4925C126.019 49.3071 126.777 48.2724 127.725 47.4772C128.674 46.682 129.785 46.15 130.963 45.9271C132.142 45.7042 133.352 45.797 134.49 46.1975C135.628 46.5979 136.661 47.2941 137.498 48.2262C138.335 49.1583 138.953 50.2984 139.298 51.5486C139.642 52.7988 139.704 54.1216 139.477 55.4034C139.25 56.6853 138.741 57.8877 137.994 58.9076C137.248 59.9274 136.285 60.734 135.19 61.2581C133.55 62.08 131.686 62.191 129.975 61.5687L135.474 75.0257L147.801 69.0218C147.281 70.8972 147.382 72.9127 148.086 74.7152C148.878 76.6781 150.352 78.2172 152.184 78.9937C154.015 79.7702 156.055 79.7206 157.853 78.8558C159.651 77.991 161.061 76.3818 161.772 74.3823C162.483 72.3828 162.438 70.1566 161.646 68.1937C160.881 66.3942 159.576 64.9336 157.948 64.053Z" fill="#DEDEDE"/>
<path d="M161.551 69.1252C161.29 69.1017 161.047 68.9711 160.871 68.7597C160.695 68.5484 160.599 68.2721 160.602 67.9866C160.777 66.2131 161.31 64.5041 162.163 62.9826C163.015 61.4611 164.167 60.165 165.533 59.1877C165.645 59.1197 165.769 59.0765 165.896 59.0606C166.023 59.0446 166.152 59.0561 166.276 59.0946C166.399 59.133 166.514 59.1976 166.614 59.2846C166.715 59.3717 166.799 59.4794 166.861 59.6018C166.923 59.7241 166.963 59.8586 166.977 59.9977C166.992 60.1367 166.981 60.2776 166.946 60.4121C166.911 60.5467 166.852 60.6724 166.772 60.782C166.692 60.8916 166.594 60.983 166.482 61.051C165.35 61.8504 164.396 62.916 163.691 64.1698C162.985 65.4236 162.546 66.8338 162.404 68.2971C162.499 68.7319 162.025 69.1252 161.551 69.1252Z" fill="black"/>
<path d="M173.024 80.9262C173.024 80.9262 169.326 76.5786 170.085 71.0922C170.843 65.6059 174.826 52.8734 168.947 48.3187C167.05 46.8695 165.344 47.0765 164.964 49.4574C164.585 51.8383 166.007 60.1195 166.007 60.1195" fill="white"/>
<path d="M173.024 81.9612C172.9 81.9648 172.776 81.939 172.661 81.8854C172.547 81.8317 172.444 81.7517 172.361 81.6506C172.171 81.4436 168.378 76.8889 169.137 70.9885C169.293 69.7678 169.515 68.5581 169.8 67.3654C170.938 61.465 172.645 52.5627 168.473 49.2502C167.619 48.5256 166.956 48.4221 166.576 48.6291C166.197 48.8361 166.102 49.3537 166.007 49.7677C165.723 51.5275 166.671 57.842 167.05 60.1193C167.101 60.3939 167.049 60.679 166.907 60.9119C166.764 61.1449 166.543 61.3066 166.292 61.3615C166.04 61.4164 165.779 61.36 165.566 61.2047C165.352 61.0494 165.204 60.8079 165.154 60.5334C164.964 59.7053 163.732 51.9416 164.111 49.4572C164.158 48.8859 164.341 48.3378 164.64 47.8661C164.939 47.3945 165.345 47.0154 165.818 46.7658C166.861 46.2482 168.188 46.6623 169.516 47.6974C174.731 51.8381 172.835 61.5686 171.602 67.9865C171.317 69.3322 171.128 70.5744 170.938 71.5061C170.274 76.4748 173.593 80.4084 173.593 80.4084C173.687 80.5033 173.76 80.6198 173.807 80.7495C173.854 80.8792 173.873 81.0188 173.864 81.1579C173.855 81.297 173.817 81.432 173.754 81.5532C173.691 81.6743 173.603 81.7783 173.498 81.8577C173.345 81.9141 173.186 81.9489 173.024 81.9612Z" fill="black"/>
<path d="M254.288 81.4334C254.288 81.4334 253.624 92.5096 253.15 95.5115C249.642 98.203 242.815 97.1678 242.815 97.1678L241.392 90.1287L240.539 90.3358C228.591 92.4061 226.315 85.16 225.177 80.5017C223.945 75.4295 225.462 70.5642 221.953 69.5291C214.936 67.5623 215.695 64.5603 215.695 64.5603C215.695 60.4197 221.953 60.4197 221.953 60.4197L223.281 56.2791L256.848 56.6931L254.288 81.4334Z" fill="white"/>
<path d="M253.53 92.0955C253.53 92.0955 265.572 92.6131 271.925 102.654C278.279 112.695 312.7 177.6 312.7 177.6L287.382 195.818L278.563 170.975L217.686 168.49L222.333 140.437L222.807 137.746L212.376 141.887C208.957 143.245 205.248 143.479 201.709 142.559C198.169 141.639 194.954 139.606 192.463 136.711L155.207 93.0271L179.577 76.7751L206.412 114.972C206.412 114.972 218.075 104.931 226.799 100.066C231.607 97.2265 236.741 95.1028 242.065 93.7517L253.53 92.0955Z" fill="white"/>
<path d="M260.072 52.449C260.072 52.449 260.452 40.1307 270.693 42.9256C273.822 43.7537 275.434 47.9979 275.813 51.9315C277.046 62.6971 274.296 81.2264 282.546 84.953C277.425 85.7811 264.339 81.1229 262.064 70.3573C260.724 64.5008 260.055 58.4854 260.072 52.449Z" fill="#E6416A"/>
<path d="M226.884 55.0368C226.751 55.0375 226.62 55.0077 226.498 54.9493C226.376 54.891 226.267 54.8053 226.178 54.698C226.088 54.5906 226.021 54.4639 225.979 54.3261C225.937 54.1883 225.923 54.0425 225.936 53.8981L226.315 47.0661C226.315 46.9626 227.453 35.7828 243.668 35.7828C243.919 35.7828 244.161 35.8919 244.338 36.086C244.516 36.2802 244.616 36.5435 244.616 36.818C244.616 37.0925 244.516 37.3558 244.338 37.55C244.161 37.7441 243.919 37.8532 243.668 37.8532C229.16 37.8532 228.212 47.1696 228.212 47.2731L227.832 54.1051C227.83 54.2357 227.803 54.3645 227.754 54.4833C227.704 54.6021 227.633 54.7085 227.544 54.7959C227.455 54.8833 227.35 54.9498 227.237 54.9912C227.123 55.0327 227.003 55.0482 226.884 55.0368Z" fill="black"/>
<path d="M236.651 91.5779C234.244 91.6462 231.861 91.0404 229.729 89.8182C226.315 87.6443 224.988 83.9178 224.229 80.6053C223.888 78.9009 223.666 77.1706 223.565 75.4295C223.376 72.324 223.186 70.7713 221.574 70.2537C218.16 69.322 215.979 67.9763 215.031 66.2166C214.67 65.6035 214.534 64.8639 214.652 64.1463C214.647 63.6034 214.746 63.0653 214.941 62.5664C215.137 62.0674 215.426 61.6183 215.79 61.2478C217.781 59.074 221.669 59.074 221.858 59.074C222.11 59.074 222.351 59.183 222.529 59.3772C222.707 59.5713 222.807 59.8346 222.807 60.1091C222.807 60.3837 222.707 60.647 222.529 60.8411C222.351 61.0352 222.11 61.1443 221.858 61.1443C220.91 61.1443 218.255 61.4548 217.117 62.697C216.76 63.0793 216.555 63.6002 216.548 64.1463V64.4568C216.453 64.9744 217.307 66.8377 222.143 68.1834C225.177 69.115 225.272 72.117 225.462 75.2224C225.523 76.8248 225.714 78.4182 226.031 79.9842C226.789 82.9861 227.832 86.0916 230.677 87.8514C233.806 89.8182 238.453 89.8182 244.711 87.9549C244.837 87.8892 244.975 87.8547 245.114 87.8539C245.254 87.853 245.392 87.8857 245.518 87.9498C245.645 88.0139 245.757 88.1076 245.847 88.2245C245.936 88.3413 246.001 88.4782 246.037 88.6256C246.072 88.7729 246.077 88.927 246.052 89.0768C246.027 89.2266 245.971 89.3685 245.89 89.4923C245.809 89.6161 245.703 89.7188 245.582 89.793C245.46 89.8672 245.324 89.9112 245.185 89.9217C242.44 90.9706 239.559 91.5298 236.651 91.5779Z" fill="black"/>
<path d="M246.039 98.3066C244.93 98.2999 243.822 98.2308 242.72 98.0996C242.536 98.0505 242.368 97.9474 242.234 97.8014C242.101 97.6553 242.006 97.472 241.961 97.2714L240.539 90.2324C240.489 89.9578 240.54 89.6727 240.682 89.4398C240.825 89.2068 241.046 89.0451 241.297 88.9902C241.549 88.9353 241.81 88.9917 242.023 89.147C242.237 89.3023 242.385 89.5438 242.435 89.8183L243.763 96.1328C245.375 96.3398 249.832 96.5468 252.487 94.8906C252.866 91.4746 253.53 81.537 253.53 81.4335C253.555 81.159 253.679 80.9066 253.874 80.7319C254.07 80.5571 254.321 80.4744 254.573 80.5019C254.824 80.5293 255.055 80.6647 255.215 80.8783C255.376 81.0918 255.451 81.366 255.426 81.6406C255.426 82.0546 254.668 92.8203 254.288 95.7187C254.275 95.8616 254.234 95.9998 254.168 96.1246C254.103 96.2493 254.015 96.3579 253.909 96.4433C251.633 97.8925 248.409 98.3066 246.039 98.3066Z" fill="black"/>
<path d="M232.194 66.9412C232.98 66.9412 233.617 66.246 233.617 65.3884C233.617 64.5309 232.98 63.8357 232.194 63.8357C231.409 63.8357 230.772 64.5309 230.772 65.3884C230.772 66.246 231.409 66.9412 232.194 66.9412Z" fill="black"/>
<path d="M238.073 67.6658C238.859 67.6658 239.496 66.9706 239.496 66.113C239.496 65.2555 238.859 64.5603 238.073 64.5603C237.288 64.5603 236.651 65.2555 236.651 66.113C236.651 66.9706 237.288 67.6658 238.073 67.6658Z" fill="black"/>
<path d="M222.143 57.4178L254.668 58.4529L255.426 72.117H259.883C259.883 72.117 264.15 49.9646 254.668 44.4783C246.987 40.0271 238.737 40.1306 232.763 43.1326C225.083 46.8591 222.143 57.4178 222.143 57.4178Z" fill="#E6416A"/>
<path d="M260.547 69.0114C260.295 69.0114 260.054 68.9024 259.876 68.7082C259.698 68.5141 259.598 68.2508 259.598 67.9763L259.124 47.1696C259.124 46.859 258.081 37.8532 243.668 37.8532C243.416 37.8532 243.175 37.7441 242.997 37.55C242.82 37.3558 242.72 37.0925 242.72 36.818C242.72 36.5435 242.82 36.2802 242.997 36.086C243.175 35.8919 243.416 35.7828 243.668 35.7828C259.883 35.7828 261.021 46.9626 261.021 47.0661L261.495 67.9763C261.495 68.2508 261.395 68.5141 261.217 68.7082C261.039 68.9024 260.798 69.0114 260.547 69.0114Z" fill="black"/>
<path d="M265.762 72.8726C265.762 78.3589 264.34 82.8101 260.167 82.8101C255.995 82.8101 252.676 81.982 252.676 72.8726C252.676 63.7632 255.995 62.9351 260.167 62.9351C264.34 62.9351 265.762 67.3552 265.762 72.8726Z" fill="white"/>
<path d="M260.262 83.8143C255.047 83.8143 251.823 81.951 251.823 72.8416C251.823 63.7322 255.047 61.8689 260.262 61.8689C262.728 61.8689 266.805 63.3181 266.805 72.8416C266.805 82.365 262.633 83.8143 260.262 83.8143ZM260.262 63.9392C256.469 63.9392 253.719 64.5603 253.719 72.8416C253.719 81.1228 256.374 81.7439 260.262 81.7439C264.15 81.7439 264.909 76.8787 264.909 72.8416C264.909 68.8045 264.055 63.9392 260.262 63.9392Z" fill="black"/>
<path d="M259.314 83.7107H259.029C258.46 83.5037 255.426 82.0545 255.426 72.531C255.426 62.697 258.555 62.1794 259.219 62.0759C259.47 62.0759 259.712 62.185 259.889 62.3791C260.067 62.5732 260.167 62.8365 260.167 63.1111C260.168 63.3686 260.082 63.6173 259.924 63.8087C259.766 64.0002 259.548 64.1205 259.314 64.1462C259.219 64.1462 257.322 65.0779 257.322 72.531C257.322 80.6052 259.503 81.7439 259.598 81.7439C259.824 81.8344 260.014 82.0079 260.135 82.2346C260.256 82.4614 260.301 82.7271 260.262 82.9861C260.178 83.1885 260.045 83.3624 259.879 83.4899C259.712 83.6173 259.517 83.6936 259.314 83.7107Z" fill="black"/>
<path d="M206.118 144.164C203.453 144.157 200.817 143.556 198.371 142.399C195.926 141.242 193.722 139.553 191.894 137.435L154.629 93.7518C154.439 93.5264 154.337 93.2295 154.344 92.9236C154.345 92.7643 154.392 92.6094 154.476 92.4798C154.561 92.3501 154.681 92.2521 154.818 92.199L179.188 75.947C179.382 75.813 179.613 75.7601 179.84 75.7982C180.066 75.8362 180.273 75.9627 180.421 76.1541L206.592 113.523C209.342 111.246 219.014 103.275 226.41 99.1346C231.316 96.2652 236.544 94.1076 241.961 92.7166C242.213 92.6617 242.474 92.7181 242.687 92.8734C242.901 93.0287 243.049 93.2702 243.099 93.5447C243.149 93.8193 243.098 94.1044 242.955 94.3373C242.813 94.5703 242.592 94.732 242.34 94.7869C237.106 96.0867 232.063 98.1772 227.358 100.998C218.824 105.863 207.256 115.697 207.066 115.801C206.876 115.958 206.639 116.032 206.402 116.008C206.271 115.993 206.145 115.948 206.03 115.877C205.916 115.806 205.817 115.709 205.738 115.594L179.472 78.1209L156.809 93.2342L193.317 135.986C195.667 138.746 198.71 140.69 202.066 141.573C205.422 142.457 208.942 142.242 212.186 140.955L222.617 136.814C222.856 136.718 223.12 136.73 223.351 136.846C223.582 136.963 223.762 137.175 223.85 137.435C223.938 137.696 223.927 137.985 223.821 138.237C223.714 138.489 223.52 138.685 223.281 138.781L212.85 142.922C210.684 143.736 208.409 144.155 206.118 144.164Z" fill="black"/>
<path d="M217.791 169.629H217.601C217.475 169.604 217.355 169.552 217.249 169.476C217.142 169.399 217.05 169.3 216.979 169.184C216.909 169.068 216.86 168.938 216.836 168.801C216.813 168.663 216.815 168.523 216.842 168.387L223.006 131.638C223.056 131.364 223.204 131.122 223.418 130.967C223.631 130.812 223.892 130.755 224.144 130.81C224.395 130.865 224.617 131.027 224.759 131.26C224.901 131.493 224.953 131.778 224.902 132.052L218.739 168.801C218.67 169.023 218.544 169.219 218.376 169.366C218.208 169.512 218.005 169.604 217.791 169.629Z" fill="black"/>
<path d="M224.893 127.084H224.703C224.578 127.059 224.458 127.007 224.351 126.931C224.244 126.854 224.152 126.755 224.082 126.639C224.011 126.523 223.962 126.393 223.939 126.256C223.915 126.119 223.917 125.978 223.945 125.842L225.462 116.836C225.512 116.561 225.66 116.32 225.874 116.164C226.087 116.009 226.348 115.953 226.6 116.008C226.851 116.062 227.072 116.224 227.215 116.457C227.357 116.69 227.409 116.975 227.358 117.25L225.841 126.256C225.789 126.489 225.668 126.696 225.496 126.846C225.325 126.996 225.113 127.079 224.893 127.084Z" fill="black"/>
<path d="M287.476 196.957H287.192C287.058 196.913 286.935 196.833 286.836 196.724C286.737 196.616 286.664 196.483 286.623 196.336L264.908 135.365C264.82 135.104 264.831 134.816 264.938 134.564C265.044 134.311 265.238 134.116 265.477 134.02C265.716 133.923 265.98 133.935 266.212 134.051C266.443 134.168 266.622 134.38 266.71 134.641L287.951 194.369L311.562 177.393C307.484 169.732 277.141 112.695 271.262 103.379C265.288 93.8554 253.719 93.2343 253.53 93.2343C253.278 93.2343 253.037 93.1252 252.859 92.9311C252.681 92.7369 252.581 92.4736 252.581 92.1991C252.581 91.9246 252.681 91.6613 252.859 91.4671C253.037 91.273 253.278 91.1639 253.53 91.1639C254.004 91.1639 266.141 91.785 272.684 102.24C278.942 112.281 313.174 176.564 313.553 177.289C313.666 177.512 313.699 177.773 313.646 178.021C313.594 178.27 313.459 178.488 313.268 178.635L287.96 196.854C287.815 196.95 287.644 196.987 287.476 196.957Z" fill="black"/>
<path d="M291.933 191.75C291.933 191.75 296.94 204.172 297.196 210.3C297.48 216.811 300.989 216.666 300.989 216.666C300.989 216.666 303.388 216.666 303.663 213.333C304.052 208.841 304.459 204.472 304.459 204.472C304.459 204.472 323.045 230.869 328.734 223.912C328.734 223.912 330.754 221.904 327.862 218.737C327.862 218.737 331.38 220.879 333.011 219.244C334.642 217.608 333.532 214.265 331.958 212.888C331.958 212.888 335.637 213.043 335.865 210.528C336.036 208.675 333.504 206.677 333.504 206.677L323.215 198.479C323.215 198.479 330.507 201.926 331.892 198.292C332.309 196.543 331.636 195.114 329.047 194.152C326.458 193.189 311.979 184.587 309.087 179.659C307.446 180.808 291.933 191.75 291.933 191.75Z" fill="white"/>
<path d="M298.599 216.615L298.4 216.439C297.139 215.217 296.504 213.209 296.362 210.404C296.143 204.534 291.203 192.288 291.194 192.164C291.129 191.962 291.124 191.743 291.178 191.537C291.232 191.331 291.344 191.149 291.497 191.015L308.565 178.976C308.658 178.906 308.763 178.857 308.874 178.832C308.985 178.807 309.099 178.807 309.21 178.831C309.428 178.912 309.626 179.046 309.789 179.225C312.463 183.81 326.857 192.392 329.294 193.272C332.84 194.493 333.087 196.822 332.698 198.499L332.641 198.572C332.495 198.989 332.271 199.368 331.981 199.684C331.692 200 331.345 200.245 330.963 200.404C329.878 200.806 328.721 200.923 327.587 200.746L334.092 205.859C334.348 206.087 336.937 208.271 336.775 210.58C336.605 212.433 335.173 213.199 333.713 213.561C334.274 214.532 334.6 215.644 334.661 216.791C334.713 217.364 334.642 217.943 334.455 218.482C334.267 219.021 333.968 219.505 333.58 219.896C333.085 220.329 332.501 220.625 331.878 220.756C331.255 220.888 330.612 220.852 330.005 220.652C330.181 221.143 330.271 221.666 330.27 222.194C330.244 223.084 329.924 223.933 329.37 224.585C328.969 225.075 328.471 225.458 327.914 225.705C327.357 225.953 326.755 226.058 326.155 226.014C319.774 225.724 308.859 211.894 305.123 206.843C304.934 208.571 304.753 210.983 304.526 213.53C304.55 214.578 304.2 215.595 303.551 216.367C302.902 217.139 302.004 217.606 301.046 217.67C300.148 217.611 299.291 217.241 298.599 216.615ZM292.986 192.081C294.038 194.897 297.784 204.803 297.974 210.279C298.163 215.755 300.733 215.776 300.818 215.755C301.122 215.755 302.478 215.559 302.61 213.323C302.952 208.892 303.407 204.451 303.464 204.379C303.491 204.205 303.558 204.041 303.659 203.904C303.761 203.766 303.892 203.659 304.042 203.592C304.198 203.557 304.36 203.565 304.512 203.615C304.665 203.666 304.803 203.758 304.915 203.882C308.821 209.441 320.267 223.861 325.928 224.109C326.295 224.151 326.667 224.092 327.008 223.936C327.35 223.78 327.65 223.534 327.881 223.219L327.938 223.146C328.074 222.993 328.181 222.811 328.252 222.612C328.324 222.413 328.359 222.201 328.355 221.987C328.245 220.924 327.763 219.948 327.009 219.265C326.869 219.099 326.786 218.886 326.774 218.662C326.762 218.437 326.821 218.215 326.942 218.033C327.059 217.857 327.23 217.734 327.424 217.686C327.617 217.639 327.82 217.67 327.995 217.774C328.763 218.209 331.152 219.368 332.129 218.333C332.326 218.121 332.478 217.865 332.574 217.583C332.671 217.3 332.71 216.998 332.688 216.697C332.654 216.054 332.5 215.425 332.236 214.848C331.972 214.271 331.603 213.76 331.152 213.343C331.021 213.218 330.93 213.05 330.891 212.864C330.852 212.678 330.867 212.484 330.934 212.308C330.997 212.136 331.104 211.987 331.241 211.879C331.379 211.771 331.542 211.708 331.712 211.698C331.712 211.698 334.557 211.749 334.746 210.217C334.822 209.234 333.419 207.764 332.764 207.184L322.476 198.975C322.391 198.917 322.317 198.842 322.259 198.752C322.201 198.663 322.16 198.562 322.138 198.455C322.116 198.348 322.113 198.238 322.131 198.13C322.148 198.022 322.185 197.919 322.239 197.826C322.284 197.726 322.347 197.637 322.424 197.564C322.501 197.491 322.591 197.434 322.688 197.399C322.785 197.363 322.887 197.349 322.989 197.357C323.091 197.364 323.19 197.394 323.282 197.443C324.543 198.075 328.213 199.41 329.995 198.613C330.322 198.472 330.592 198.208 330.754 197.868C330.925 197.185 331.152 195.849 328.488 194.928C325.823 194.007 312.434 186.026 308.575 180.86L292.986 192.081Z" fill="black"/>
<path d="M327.89 218.706C327.89 218.706 316.834 211.242 313.449 204.969L327.89 218.706Z" fill="white"/>
<path d="M320.01 213.654C317.166 211.17 314.245 208.116 312.709 205.373C312.593 205.16 312.56 204.906 312.616 204.666C312.672 204.426 312.813 204.221 313.008 204.094C313.203 203.968 313.435 203.932 313.655 203.993C313.875 204.054 314.063 204.208 314.179 204.42C317.469 210.373 328.222 217.805 328.289 217.878C328.386 217.938 328.471 218.021 328.538 218.12C328.604 218.22 328.651 218.333 328.674 218.454C328.697 218.574 328.697 218.698 328.673 218.818C328.649 218.939 328.602 219.052 328.535 219.151C328.475 219.254 328.397 219.344 328.305 219.414C328.213 219.484 328.109 219.533 327.999 219.558C327.89 219.583 327.776 219.584 327.666 219.56C327.556 219.536 327.452 219.489 327.359 219.42C327.16 219.254 323.633 216.853 320.01 213.654Z" fill="black"/>
<path d="M331.968 212.723C331.968 212.723 321.442 206.315 318.275 201.646L331.968 212.723Z" fill="white"/>
<path d="M321.148 206.087C319.83 204.962 318.637 203.673 317.592 202.247C317.51 202.154 317.446 202.042 317.407 201.92C317.367 201.798 317.352 201.668 317.363 201.539C317.374 201.409 317.41 201.284 317.469 201.172C317.528 201.059 317.608 200.962 317.705 200.887C317.802 200.811 317.912 200.76 318.029 200.735C318.145 200.711 318.265 200.714 318.381 200.745C318.496 200.776 318.604 200.833 318.697 200.914C318.79 200.994 318.866 201.096 318.92 201.212C321.935 205.632 332.195 211.936 332.404 211.977C332.512 212.029 332.609 212.105 332.69 212.199C332.77 212.294 332.832 212.406 332.871 212.527C332.91 212.649 332.926 212.778 332.917 212.907C332.909 213.035 332.876 213.161 332.822 213.275C332.767 213.39 332.691 213.49 332.6 213.572C332.508 213.653 332.402 213.713 332.288 213.747C332.174 213.782 332.055 213.79 331.938 213.773C331.821 213.755 331.708 213.711 331.607 213.644C327.955 211.409 324.459 208.884 321.148 206.087Z" fill="black"/>
<path d="M360.273 393.006H1.59265C1.34116 393.006 1.09997 392.897 0.92214 392.703C0.744312 392.509 0.644409 392.245 0.644409 391.971C0.644409 391.696 0.744312 391.433 0.92214 391.239C1.09997 391.045 1.34116 390.936 1.59265 390.936H360.405C360.532 390.926 360.659 390.947 360.778 390.996C360.897 391.044 361.005 391.12 361.094 391.218C361.184 391.316 361.254 391.434 361.298 391.564C361.343 391.694 361.362 391.832 361.354 391.971C361.355 392.12 361.327 392.267 361.271 392.403C361.215 392.54 361.133 392.661 361.031 392.759C360.928 392.857 360.807 392.93 360.676 392.973C360.545 393.016 360.408 393.027 360.273 393.006Z" fill="black"/>
<path d="M270.19 188.541C270.065 188.545 269.942 188.519 269.827 188.465C269.712 188.412 269.61 188.332 269.526 188.231C269.353 188.037 269.255 187.777 269.255 187.506C269.255 187.235 269.353 186.975 269.526 186.781C269.526 186.781 273.13 182.641 270 170.943C268.578 165.768 264.975 159.764 261.371 153.967C256.346 145.686 251.605 137.818 252.458 131.607C253.122 126.535 255.018 123.326 256.82 120.221C258.716 116.908 260.708 113.596 261.466 107.695C262.889 96.3085 259.285 85.3359 259.285 85.2323C259.197 84.9715 259.208 84.6832 259.315 84.4309C259.421 84.1785 259.615 83.9827 259.854 83.8866C260.093 83.7905 260.357 83.802 260.588 83.9185C260.82 84.035 260.999 84.2469 261.087 84.5077C263.383 92.0353 264.159 100.016 263.363 107.902C262.604 114.32 260.518 117.84 258.432 121.359C256.333 124.481 254.937 128.098 254.355 131.918C253.596 137.404 258.432 145.272 262.983 152.828C266.587 158.729 270.285 164.94 271.802 170.426C275.311 183.365 271.044 188.127 270.854 188.334C270.647 188.45 270.422 188.521 270.19 188.541Z" fill="black"/>
<path d="M276.999 197.651C276.865 197.666 276.731 197.629 276.619 197.547C267.232 192.889 267.421 181.606 267.421 181.399C267.421 181.124 267.521 180.861 267.699 180.667C267.877 180.473 268.118 180.364 268.37 180.364C268.621 180.364 268.862 180.473 269.04 180.667C269.218 180.861 269.318 181.124 269.318 181.399C269.318 181.813 269.223 191.543 277.473 195.58C277.696 195.693 277.871 195.897 277.96 196.148C278.048 196.399 278.044 196.678 277.947 196.926C277.863 197.128 277.73 197.302 277.563 197.43C277.397 197.557 277.202 197.634 276.999 197.651Z" fill="black"/>
</svg>
