<svg xmlns="http://www.w3.org/2000/svg" fill="none" viewBox="0 0.5 649.32 594.75">
<mask id="mask0_132_16372" style="mask-type:alpha" maskUnits="userSpaceOnUse" x="0" y="0" width="650" height="596">
<path d="M373.068 113.808C392.587 102.859 416.397 102.859 435.916 113.808L449.446 121.397C458.824 126.654 469.349 129.474 480.074 129.605L495.587 129.796C517.965 130.073 538.585 141.979 550.014 161.22L557.937 174.558C563.419 183.789 571.128 191.497 580.358 196.979L593.696 204.902C612.938 216.331 624.843 236.952 625.12 259.329L625.312 274.842C625.448 285.587 628.271 296.122 633.519 305.47L641.109 319.001C646.491 328.582 649.321 339.409 649.321 350.424C649.321 361.44 646.491 372.267 641.109 381.848L633.519 395.378C628.271 404.726 625.448 415.262 625.312 426.006L625.12 441.519C624.843 463.897 612.938 484.517 593.696 495.947L580.358 503.869C571.128 509.352 563.419 517.06 557.937 526.29L550.014 539.629C538.585 558.87 517.965 570.775 495.587 571.052L480.074 571.244C469.349 571.375 458.824 574.195 449.446 579.451L435.916 587.041C416.397 597.99 392.587 597.99 373.068 587.041L359.538 579.451C350.16 574.195 339.635 571.375 328.91 571.244L313.397 571.052C291.019 570.775 270.399 558.87 258.97 539.629L251.047 526.29C245.565 517.06 237.856 509.352 228.626 503.869L215.287 495.946C196.046 484.517 184.141 463.897 183.864 441.519L183.672 426.006C183.536 415.262 180.713 404.726 175.465 395.378L167.876 381.848C162.493 372.267 159.664 361.44 159.664 350.424C159.664 339.409 162.493 328.582 167.876 319.001L175.465 305.47C180.713 296.122 183.536 285.587 183.672 274.842L183.864 259.329C184.141 236.952 196.046 216.331 215.288 204.902L228.626 196.979C237.856 191.497 245.565 183.789 251.047 174.558L258.97 161.22C270.399 141.979 291.019 130.073 313.397 129.796L328.91 129.605C339.635 129.474 350.16 126.654 359.538 121.397L373.068 113.808Z" fill="#FFD9DD"/>
<path d="M21.5 344L0 594.722H340.763H388.56C407.148 594.722 617.79 439.115 617.79 439.115V161.359L424 0.5L220 62L86 192L21.5 344Z" fill="#FFD9DD"/>
</mask>
<g mask="url(#mask0_132_16372)">
<path d="M373.068 113.808C392.587 102.859 416.397 102.859 435.916 113.808L449.446 121.397C458.824 126.654 469.349 129.474 480.074 129.605L495.587 129.796C517.965 130.073 538.585 141.979 550.014 161.22L557.937 174.558C563.419 183.789 571.128 191.497 580.358 196.979L593.696 204.902C612.938 216.331 624.843 236.952 625.12 259.329L625.312 274.842C625.448 285.587 628.271 296.122 633.519 305.47L641.109 319.001C646.491 328.582 649.321 339.409 649.321 350.424C649.321 361.44 646.491 372.267 641.109 381.848L633.519 395.378C628.271 404.726 625.448 415.262 625.312 426.006L625.12 441.519C624.843 463.897 612.938 484.517 593.696 495.947L580.358 503.869C571.128 509.352 563.419 517.06 557.937 526.29L550.014 539.629C538.585 558.87 517.965 570.775 495.587 571.052L480.074 571.244C469.349 571.375 458.824 574.195 449.446 579.451L435.916 587.041C416.397 597.99 392.587 597.99 373.068 587.041L359.538 579.451C350.16 574.195 339.635 571.375 328.91 571.244L313.397 571.052C291.019 570.775 270.399 558.87 258.97 539.629L251.047 526.29C245.565 517.06 237.856 509.352 228.626 503.869L215.287 495.946C196.046 484.517 184.141 463.897 183.864 441.519L183.672 426.006C183.536 415.262 180.713 404.726 175.465 395.378L167.876 381.848C162.493 372.267 159.664 361.44 159.664 350.424C159.664 339.409 162.493 328.582 167.876 319.001L175.465 305.47C180.713 296.122 183.536 285.587 183.672 274.842L183.864 259.329C184.141 236.952 196.046 216.331 215.288 204.902L228.626 196.979C237.856 191.497 245.565 183.789 251.047 174.558L258.97 161.22C270.399 141.979 291.019 130.073 313.397 129.796L328.91 129.605C339.635 129.474 350.16 126.654 359.538 121.397L373.068 113.808Z" fill="#FFD9DD"/>
<path d="M145.806 323.142H129.851V594.318H145.806V323.142Z" fill="#FFBE21"/>
<path d="M145.813 326.871H129.851" stroke="#A15842" stroke-width="4" stroke-miterlimit="10"/>
<path d="M57.4499 539.905C59.0661 535.27 62.0844 531.252 66.0863 528.409C70.0882 525.567 74.8754 524.039 79.7842 524.039C84.6931 524.039 89.4803 525.567 93.4822 528.409C97.4841 531.252 100.502 535.27 102.119 539.905C103.661 535.48 106.483 531.612 110.227 528.794C113.971 525.975 118.468 524.332 123.147 524.073C121.058 520.35 118.571 516.865 115.728 513.679L107.14 504.019C104.47 501.018 102.789 497.268 102.324 493.278C101.859 489.288 102.633 485.252 104.542 481.717L111.831 468.172C109.784 470.232 97.9544 481.308 79.9986 481.308C62.0428 481.308 50.213 470.232 48.1667 468.172H48.1342L55.4295 481.717C57.3295 485.259 58.0919 489.3 57.613 493.291C57.1341 497.281 55.4371 501.028 52.7531 504.019L44.1714 513.64C41.324 516.826 38.83 520.311 36.7332 524.034C41.3621 524.357 45.7941 526.033 49.4776 528.855C53.1611 531.677 55.9335 535.519 57.4499 539.905Z" fill="#4756DF"/>
<path d="M124.453 553.593C119.543 553.593 114.754 555.122 110.752 557.967C106.75 560.812 103.733 564.832 102.119 569.47C100.505 564.831 97.4884 560.811 93.4861 557.965C89.4838 555.12 84.695 553.591 79.7843 553.591C74.8736 553.591 70.0848 555.12 66.0825 557.965C62.0802 560.811 59.0631 564.831 57.45 569.47C55.4966 563.865 51.5088 559.2 46.277 556.397C41.0453 553.595 34.9517 552.86 29.204 554.34C29.534 569.331 35.5755 583.631 46.0944 594.318H113.78C124.277 583.654 130.317 569.391 130.67 554.431C128.644 553.875 126.553 553.593 124.453 553.593Z" fill="#4756DF"/>
<path d="M79.9467 481.334C97.9025 481.334 109.732 470.258 111.779 468.198H48.1147C50.1611 470.238 61.9909 481.334 79.9467 481.334Z" fill="#30242A"/>
<path d="M57.45 569.47C59.0631 564.831 62.0802 560.811 66.0825 557.965C70.0847 555.12 74.8736 553.591 79.7843 553.591C84.695 553.591 89.4838 555.12 93.4861 557.965C97.4884 560.811 100.505 564.831 102.119 569.47C104.088 563.806 108.136 559.102 113.443 556.31C118.75 553.518 124.919 552.846 130.702 554.431C130.969 543.817 128.363 533.328 123.16 524.073C118.481 524.332 113.984 525.975 110.24 528.794C106.496 531.612 103.674 535.48 102.132 539.905C100.515 535.27 97.4971 531.252 93.4952 528.409C89.4934 525.567 84.7061 524.039 79.7973 524.039C74.8884 524.039 70.1012 525.567 66.0993 528.409C62.0974 531.252 59.0791 535.27 57.4629 539.905C55.9372 535.53 53.1607 531.7 49.4779 528.889C45.7952 526.078 41.3682 524.411 36.7462 524.093C31.5662 533.316 28.9654 543.764 29.217 554.34C34.9647 552.86 41.0583 553.595 46.29 556.397C51.5217 559.199 55.5095 563.865 57.4629 569.47H57.45Z" fill="#3EC1F3"/>
<path d="M84.663 479.476C85.9622 471.525 91.8674 440.005 106.718 422.874" stroke="#30242A" stroke-width="4" stroke-miterlimit="10" stroke-linecap="round"/>
<path d="M77.8093 479.704C77.7119 470.674 76.7829 426.336 67.9674 399.883" stroke="#30242A" stroke-width="4" stroke-miterlimit="10" stroke-linecap="round"/>
<path d="M116.882 448.68C129.903 442.951 139.413 435.931 138.125 433.002C136.836 430.073 125.235 432.343 112.214 438.072C99.1933 443.801 89.6826 450.821 90.9715 453.75C92.2604 456.679 103.861 454.409 116.882 448.68Z" fill="#30242A"/>
<path d="M116.874 368.083C121.555 361.754 123.561 355.301 121.355 353.669C119.148 352.036 113.565 355.844 108.883 362.172C104.202 368.501 102.196 374.954 104.403 376.586C106.609 378.218 112.193 374.411 116.874 368.083Z" fill="#30242A"/>
<path d="M46.3768 453.179C63.3515 450.612 76.7447 446.101 76.2913 443.103C75.838 440.105 61.7098 439.756 44.7351 442.324C27.7604 444.891 14.3673 449.402 14.8206 452.4C15.274 455.397 29.4022 455.746 46.3768 453.179Z" fill="#30242A"/>
<path d="M34.5179 408.9V408.946C37.0259 410.348 38.9176 412.639 39.8199 415.368C40.7221 418.096 40.5696 421.063 39.3922 423.684C38.2149 426.306 36.0982 428.391 33.4595 429.529C30.8208 430.666 27.8516 430.774 25.1372 429.831V429.87C39.3641 436.263 53.0129 436.75 55.6114 430.962C58.2099 425.173 48.7513 415.293 34.5179 408.9Z" fill="#FF7235"/>
<path d="M76.5815 362.568C73.5543 361.782 69.6175 366.362 66.7396 373.45C63.2771 364.842 58.2554 359.08 54.8709 360.197C51.4863 361.315 50.8821 368.928 53.2273 377.906C46.692 373.93 40.8063 372.592 38.838 375.028C36.3304 378.134 41.1636 386.189 49.6348 393.03C52.0449 394.993 54.638 396.72 57.3784 398.188C57.8456 396.332 58.7689 394.623 60.0645 393.215C61.3601 391.807 62.987 390.745 64.7973 390.125C66.6077 389.505 68.5441 389.348 70.4308 389.667C72.3174 389.986 74.0945 390.771 75.6006 391.951C76.8703 389.219 77.8837 386.374 78.6279 383.454C81.3628 372.924 80.4468 363.569 76.5815 362.568Z" fill="#FF7235"/>
<path d="M142.623 410.388C141.688 407.4 135.717 406.49 128.182 407.789C133.652 400.299 135.886 392.991 133.151 390.71C130.416 388.43 123.628 391.945 117.248 398.681C117.17 391.029 115.189 385.325 112.084 384.942C108.128 384.455 103.84 392.822 102.515 403.619C102.122 406.705 102.026 409.823 102.229 412.928C104.052 412.341 105.992 412.218 107.874 412.572C109.756 412.926 111.519 413.745 113.004 414.954C114.489 416.163 115.648 417.724 116.376 419.495C117.103 421.267 117.376 423.192 117.17 425.095C120.162 424.717 123.113 424.065 125.986 423.147C136.361 419.918 143.812 414.195 142.623 410.388Z" fill="#FF7235"/>
<path d="M113.091 415.02C111.605 413.78 109.83 412.937 107.931 412.568C106.032 412.199 104.071 412.316 102.229 412.908C102.599 418.047 103.899 422.003 105.854 423.439C107.679 425.128 111.902 425.693 117.158 425.076C117.362 423.194 117.098 421.291 116.389 419.536C115.679 417.782 114.546 416.23 113.091 415.02Z" fill="#30242A"/>
<path d="M64.9141 390.087C63.0773 390.693 61.4233 391.753 60.1059 393.169C58.7885 394.586 57.8503 396.312 57.3784 398.188C61.9258 400.591 65.9665 401.566 68.2403 400.682C70.6374 400.033 73.3464 396.739 75.6006 391.951C74.1116 390.783 72.3565 390.001 70.4918 389.675C68.6271 389.35 66.7109 389.491 64.9141 390.087Z" fill="#30242A"/>
<path d="M35.7847 428.188C34.5631 427.507 33.6419 426.391 33.2035 425.063C32.7651 423.735 32.8414 422.29 33.4174 421.016C33.9934 419.741 35.0271 418.729 36.3137 418.181C37.6004 417.632 39.0461 417.587 40.3646 418.053C40.2121 416.174 39.5989 414.361 38.5791 412.775C37.5594 411.188 36.1646 409.878 34.5179 408.959L25.1178 429.831C26.8945 430.452 28.7963 430.626 30.6562 430.34C32.5161 430.053 34.2772 429.314 35.7847 428.188Z" fill="#F5EBDD"/>
<path d="M33.3941 421.022C32.8275 422.297 32.7587 423.737 33.2011 425.06C33.6436 426.382 34.5653 427.491 35.7847 428.168C37.3461 427.007 38.586 425.467 39.3873 423.694C40.1886 421.921 40.5249 419.973 40.3646 418.034C39.04 417.562 37.5861 417.608 36.2937 418.162C35.0013 418.716 33.9657 419.738 33.3941 421.022Z" fill="#4856DF"/>
<path d="M462.71 431.507H297.489L300.282 420.425H372.807L400.468 312.248C404.237 297.513 412.803 284.451 424.816 275.124C436.829 265.796 451.606 260.733 466.815 260.732C504.033 260.732 531.265 295.812 522.034 331.867L504.942 398.707C502.543 408.088 497.091 416.402 489.444 422.341C481.797 428.28 472.392 431.505 462.71 431.507Z" fill="#FFB7D5"/>
<path d="M298.769 533.883V545.615H404.067V533.883H298.769Z" fill="#A15842"/>
<path d="M421.412 588.017L394.024 424.991H308.805L281.417 588.017C281.288 588.792 281.329 589.586 281.538 590.344C281.746 591.102 282.118 591.805 282.626 592.405C283.134 593.005 283.767 593.487 284.481 593.817C285.194 594.147 285.971 594.318 286.757 594.318C287.992 594.317 289.19 593.894 290.151 593.118C291.113 592.343 291.781 591.263 292.045 590.056L327.917 424.991H374.938L410.797 590.056C411.06 591.264 411.728 592.345 412.69 593.12C413.652 593.895 414.85 594.318 416.085 594.318C416.87 594.316 417.646 594.144 418.358 593.813C419.069 593.482 419.701 593 420.207 592.4C420.714 591.801 421.084 591.098 421.293 590.341C421.501 589.584 421.542 588.791 421.412 588.017Z" fill="#A15842"/>
<path d="M386.001 533.883V545.615H491.3V533.883H386.001Z" fill="#FFBE21"/>
<path d="M508.645 588.017L481.231 424.991H396.044L368.656 588.017C368.527 588.792 368.568 589.586 368.777 590.344C368.986 591.102 369.357 591.805 369.865 592.405C370.374 593.005 371.006 593.487 371.72 593.817C372.433 594.147 373.21 594.318 373.996 594.318C375.231 594.318 376.428 593.895 377.389 593.119C378.35 592.344 379.016 591.263 379.277 590.056L415.137 424.991H462.164L498.024 590.056C498.286 591.265 498.955 592.347 499.918 593.122C500.882 593.897 502.081 594.319 503.318 594.318C504.103 594.316 504.878 594.144 505.59 593.813C506.302 593.482 506.933 593 507.44 592.4C507.947 591.801 508.317 591.098 508.525 590.341C508.733 589.584 508.774 588.791 508.645 588.017Z" fill="#FFBE21"/>
<path d="M422.575 398.707L433.021 357.852H363.79C350.214 357.852 337.024 362.372 326.3 370.697C315.576 379.022 307.929 390.681 304.563 403.833L297.489 431.507H380.336C390.019 431.506 399.427 428.282 407.075 422.343C414.723 416.404 420.176 408.089 422.575 398.707Z" fill="#FFB7D5"/>
<path d="M301.991 419.34H389.886" stroke="#A15842" stroke-width="4" stroke-linecap="round" stroke-linejoin="round"/>
<path d="M373.119 418.93L388.522 358.71" stroke="#A15842" stroke-width="4" stroke-linecap="round" stroke-linejoin="round"/>
<path d="M514.362 356.455H472.785" stroke="#A15842" stroke-width="4" stroke-linecap="round" stroke-linejoin="round"/>
<path d="M522.157 327.222H468.888" stroke="#A15842" stroke-width="4" stroke-linecap="round" stroke-linejoin="round"/>
<path d="M328.119 314.021C328.119 314.021 275.999 328.216 253.859 339.292C217.357 357.54 217.48 369.584 195.224 437.01C174.676 499.322 172.415 529.524 144.072 530.719C122.433 531.629 115.339 538.71 111.831 548.415L197.458 589.043C198.44 589.507 199.562 589.579 200.594 589.243C201.627 588.908 202.492 588.19 203.013 587.237C203.543 586.263 203.672 585.12 203.372 584.053C203.073 582.985 202.368 582.076 201.408 581.52L199.609 580.481C207.567 570.84 222.918 550.299 238.223 519.097L247.967 523.645C247.967 523.645 263.708 503.188 266.202 479.983C269.451 450.015 267.502 429.818 281.189 418.092L440.804 313.995L328.119 314.021Z" fill="#FF7235"/>
<path d="M135.659 535.533C137.355 532.005 146.774 510.515 152.192 513.114C159.241 516.492 140.947 538.066 140.947 538.066L135.659 535.533Z" fill="#30242A"/>
<path d="M111.824 548.72L197.452 589.342C198.443 589.815 199.579 589.886 200.622 589.539C201.664 589.193 202.532 588.456 203.043 587.484C203.554 586.511 203.668 585.379 203.362 584.324C203.056 583.269 202.354 582.374 201.402 581.826L199.602 580.786L199.784 580.565L140.928 552.781C141.809 550.337 142.428 547.807 142.773 545.232C151.582 546.758 169.407 548.402 169.498 541.055C169.596 534.208 150.126 536.956 143.013 538.891C142.86 536.26 142.348 533.661 141.493 531.167C121.867 532.519 115.189 539.405 111.824 548.72Z" fill="#30242A"/>
<path d="M253.86 339.292C249.76 341.338 246.129 343.307 242.874 345.282L237.879 361.282L257.108 347.737L274.836 361.873L268.301 342.495L288.381 333.296L272.861 331.347C266.391 333.656 260.048 336.308 253.86 339.292Z" fill="#FFB7D5"/>
<path d="M310.514 330.964L309.215 339.429L317.686 336.174L310.514 330.964Z" fill="#FFB7D5"/>
<path d="M261.655 373.307L249.28 389.593L231.688 381.128L242.108 398.714L225.821 412.395L246.668 409.79L253.84 433.898L261.005 409.79L283.807 403.274L261.655 394.154V373.307Z" fill="#FFB7D5"/>
<path d="M192.08 497.659L193.6 493.32L214.388 492.215L197.498 480.717L205.02 462.703L188.006 474.045L184.758 470.537C182.16 479.093 179.86 486.713 177.612 493.411H177.716C177.963 492.677 178.21 491.936 178.457 491.182L192.08 497.659Z" fill="#FFB7D5"/>
<path d="M192.08 497.659L178.437 491.208C178.19 491.962 177.944 492.703 177.697 493.437C169.453 517.993 161.943 530.271 144.085 531.024C143.208 531.024 142.363 531.109 141.532 531.167C142.387 533.661 142.898 536.26 143.052 538.891C150.198 536.943 169.635 534.208 169.537 541.055C169.433 548.402 151.62 546.758 142.811 545.232C142.461 547.807 141.836 550.338 140.947 552.781L199.804 580.565C207.807 570.821 223.028 550.383 238.216 519.441L192.08 497.659Z" fill="#EAA58B"/>
<path d="M244.063 448.229L242.114 465.821L223.873 465.171L239.509 476.904L233.662 497.75L249.312 484.063L263.377 493.443C263.766 492.2 264.124 490.942 264.449 489.669L259.057 476.241L267.411 467.088C267.547 465.386 267.677 463.71 267.801 462.079L253.21 464.515L244.063 448.229Z" fill="#FFB7D5"/>
<path d="M203.429 411.661C201.785 416.741 200.018 422.257 198.069 428.253L215.401 429.312L203.429 411.661Z" fill="#FFB7D5"/>
<path d="M264.63 570.366C264.903 566.468 265.754 543.017 271.744 543.439C279.539 543.985 270.477 570.775 270.477 570.775L264.63 570.366Z" fill="#30242A"/>
<path d="M408.907 314.976C408.907 314.976 343.756 327.06 307.922 342.04C271.744 357.17 272.095 384.039 278.604 457.025C284.451 522.365 294.897 554.093 273.407 563.863C253.697 572.828 246.85 584.067 247.786 594.344H344.808C345.355 594.344 345.896 594.236 346.402 594.027C346.907 593.818 347.366 593.511 347.752 593.124C348.139 592.738 348.446 592.279 348.655 591.773C348.864 591.268 348.972 590.727 348.972 590.18C348.972 589.075 348.533 588.016 347.752 587.235C346.972 586.454 345.912 586.016 344.808 586.016H343.171C346.231 576.005 350.668 556.464 351.278 524.125H363.309C363.309 524.125 369.494 495.542 362.66 470.05C355.514 443.344 348.979 438.783 345.074 420.542H403.457C448.041 420.542 481.412 379.303 471.713 335.791C468.686 322.194 464.295 315.002 464.295 315.002L408.907 314.976Z" fill="#FF7235"/>
<path d="M368.513 353.11L356.553 368.155L337.928 361.756L348.966 379.823L334.635 399.37L353.526 391.548L364.056 410.959L365.252 389.593L383.493 385.689L367.863 375.912L368.513 353.11Z" fill="#FFB7D5"/>
<path d="M342.489 469.251L353.533 487.317L339.202 506.865L358.093 499.069L365.096 511.977C366.122 501.947 366.629 487.109 363.355 472.863L361.12 475.676L342.489 469.251Z" fill="#FFB7D5"/>
<path d="M293.779 524.099L292.941 514.03L314.093 505.871L294.072 501.719L296.28 479.742L283.288 496.743L282.898 496.581C284.145 507.072 285.237 516.239 285.847 524.171V524.099H293.779Z" fill="#FFB7D5"/>
<path d="M344.808 585.99H343.171C346.231 575.979 350.668 556.438 351.278 524.099H285.828V524.158C285.88 524.807 285.925 525.457 285.971 526.107C285.971 526.165 285.971 526.23 285.971 526.289C287.329 546.59 285.113 558.465 273.381 563.798C253.671 572.763 246.824 584.002 247.76 594.279H344.808C345.912 594.279 346.972 593.84 347.752 593.059C348.533 592.278 348.972 591.219 348.972 590.115C348.972 589.01 348.533 587.951 347.752 587.17C346.972 586.389 345.912 585.951 344.808 585.951V585.99Z" fill="#EAA58B"/>
<path d="M431.677 316.659L401.748 319.309L404.866 331.341L385.722 341.553L409.57 344.742L417.638 362.614L425.934 344.106L450.191 340.273L429.124 329.424L431.677 316.659Z" fill="#FFB7D5"/>
<path d="M289.031 401.319L296.177 378.517L317.023 381.765L300.737 367.434L312.43 353.753L290.934 361.549L287.497 355.656C281.969 361.919 278.63 369.695 276.844 379.693L280.507 379.81L289.031 401.319Z" fill="#FFB7D5"/>
<path d="M344.808 329.788C340.41 331.009 336.031 332.289 331.757 333.608L348.979 345.301L344.808 329.788Z" fill="#FFB7D5"/>
<path d="M316.393 435.197L307.272 416.306L302.712 437.153L285.776 435.853L301.406 449.535L291.636 472.337L308.597 456.525L322.655 472.733L318.348 448.229L332.679 429.338L316.393 435.197Z" fill="#FFB7D5"/>
<path d="M277.72 578.37C286.335 575.992 303.147 569.872 300.107 563.188C297.274 556.951 280.839 567.735 275.232 572.536C273.817 569.939 272.009 567.577 269.873 565.533C252.866 574.192 246.895 584.677 247.785 594.318H344.808C345.912 594.318 346.971 593.879 347.752 593.098C348.533 592.317 348.972 591.258 348.972 590.154C348.972 589.049 348.533 587.99 347.752 587.209C346.971 586.428 345.912 585.99 344.808 585.99H279.26C279.016 583.403 278.5 580.848 277.72 578.37Z" fill="#30242A"/>
<path d="M344.808 421.977L328.034 421.743" stroke="#A15842" stroke-width="4" stroke-miterlimit="10" stroke-linecap="round"/>
<path d="M357.281 326.943C339.903 331.373 321.33 336.811 307.259 342.683C277.246 355.254 272.38 375.886 275.297 424.27" stroke="#A15842" stroke-width="4" stroke-miterlimit="10" stroke-linecap="round"/>
<path d="M577.818 323.142H561.863V594.318H577.818V323.142Z" fill="#FFBE21"/>
<path d="M577.818 326.871H561.863" stroke="#A15842" stroke-width="4" stroke-miterlimit="10"/>
<path d="M346.361 119.229C337.266 117.93 316.432 127.707 315.743 147.034C315.055 166.36 332.309 172.571 335.07 173.954L375.107 167.737L377.868 123.563L346.361 119.229Z" fill="#A15842"/>
<path d="M417.092 71.2347C434.278 71.2347 448.21 57.303 448.21 40.1173C448.21 22.9317 434.278 9 417.092 9C399.907 9 385.975 22.9317 385.975 40.1173C385.975 57.303 399.907 71.2347 417.092 71.2347Z" fill="#A15842"/>
<path d="M396.908 61.5162C398.805 62.3932 382.831 24.4872 374.678 30.3989C367.006 35.9792 387.274 57.0727 396.908 61.5162Z" fill="#30242A"/>
<path d="M397.792 63.8354C399.533 65.9142 440.291 51.6548 434.652 43.4305C429.26 35.5179 396.051 61.7501 397.792 63.8354Z" fill="#30242A"/>
<path d="M451.9 168.088C451.9 168.088 479.262 145.286 461.644 119.879C450.432 103.684 419.944 110.135 419.944 110.135C420.685 101.241 423.102 75.6197 403.834 61.5422C384.565 47.4647 360.12 54.877 351.213 65.9857C342.307 77.0944 344.548 97.8501 341.586 112.668C338.623 127.486 340.598 137.562 349.732 142.304C358.041 146.618 367.818 144.013 367.818 144.013L366.779 159.65C366.779 159.65 347.939 160.358 336.395 164.535C308.578 174.604 259.706 243.66 259.706 243.66C229.089 242.361 200.421 241.061 200.421 241.061L215.408 285.366C215.408 285.366 253.19 297.742 280.553 290.563C308.312 283.294 334.628 244.31 334.628 244.31L343.723 270.366L328.086 314.015H464.249L441.447 273.621C445.39 237.8 451.9 168.088 451.9 168.088Z" fill="#EAA58B"/>
<path d="M408.147 158.025L372.417 222.813L357.801 160.299C351.376 160.949 342.814 162.209 336.46 164.509C308.578 174.604 259.706 243.66 259.706 243.66C229.089 242.361 200.421 241.061 200.421 241.061L215.408 285.366C215.408 285.366 253.19 297.742 280.553 290.563C308.312 283.294 334.628 244.31 334.628 244.31L343.723 270.366L328.086 314.015H464.249L441.447 273.627C445.345 237.794 451.841 168.082 451.841 168.082C445.809 164.409 439.204 161.774 432.3 160.286C424.524 158.532 415.975 159.578 408.147 158.025Z" fill="#4756DF"/>
<path d="M223.112 309.461H335.94L310.287 228.439C309.532 226.051 308.037 223.966 306.017 222.486C303.997 221.006 301.558 220.208 299.054 220.208H203.701C201.849 220.207 200.022 220.643 198.369 221.481C196.717 222.318 195.285 223.534 194.19 225.029C193.096 226.524 192.37 228.256 192.071 230.085C191.772 231.913 191.908 233.787 192.469 235.552L213.673 302.555C214.309 304.56 215.567 306.309 217.264 307.551C218.961 308.793 221.01 309.462 223.112 309.461Z" fill="#30242A"/>
<path d="M239.925 256.86C242.92 252.768 256.503 263.578 257.504 264.468C258.024 263.578 265.098 252.774 270.282 256.86C274.784 260.407 264.89 276.252 262.259 280.293C262.149 280.415 262.014 280.513 261.864 280.58C261.713 280.647 261.55 280.682 261.385 280.682C261.221 280.682 261.058 280.647 260.907 280.58C260.757 280.513 260.622 280.415 260.512 280.293C255.711 276.252 237.326 260.407 239.925 256.86Z" fill="#A15842"/>
<path d="M256.385 259.6C257.518 259.247 257.561 256.148 256.481 252.678C255.4 249.208 253.605 246.681 252.471 247.034C251.337 247.387 251.294 250.487 252.375 253.957C253.455 257.427 255.251 259.954 256.385 259.6Z" fill="#A15842"/>
<path d="M401.456 300.34C401.782 301.388 401.858 302.499 401.677 303.581C401.496 304.664 401.063 305.689 400.414 306.574C399.764 307.459 398.915 308.179 397.936 308.676C396.957 309.173 395.875 309.433 394.778 309.435H223.112C221.01 309.436 218.961 308.767 217.264 307.525C215.567 306.283 214.309 304.534 213.673 302.529L212.972 300.314L401.456 300.34Z" fill="#30242A"/>
<path d="M605.31 309.461H102.359V325.747H605.31V309.461Z" fill="#FFBE21"/>
<path d="M504.935 398.707L515.382 357.852H454.446C440.871 357.853 427.682 362.372 416.959 370.698C406.236 379.023 398.59 390.681 395.226 403.833L388.145 431.507H462.69C472.374 431.507 481.782 428.283 489.431 422.344C497.08 416.405 502.535 408.089 504.935 398.707Z" fill="#FFB7D5"/>
<path d="M389.587 420.795L387.177 430.981" stroke="#A15842" stroke-width="4" stroke-linecap="round" stroke-linejoin="round"/>
<path d="M194.99 243.406C187.409 247.194 183.621 253.508 183.621 257.932C183.621 264.39 190.196 265.604 190.196 265.604C190.196 265.604 185.291 273.316 193.821 276.934C193.821 276.934 193.821 284.872 201.766 284.872C201.766 284.872 200.713 291.063 209.002 291.648C217.292 292.233 225.821 287.906 226.542 285.106C227.368 281.8 225.139 279.032 219.124 278.155C219.124 278.155 227.244 274.361 225.958 269.574C224.672 264.786 219.182 264.896 219.182 264.896C219.182 264.896 224.438 261.746 221.631 257.101C218.825 252.456 213.459 254.067 213.459 254.067C213.459 254.067 214.862 250.819 212.407 248.344C209.483 245.42 196.913 249.11 196.913 249.11L194.99 243.406Z" fill="#EAA58A"/>
<path d="M201.824 285.178C208.665 283.538 215.302 281.141 221.612 278.032" stroke="#A15842" stroke-width="4" stroke-miterlimit="10" stroke-linecap="round"/>
<path d="M193.801 276.895C203.286 274.294 212.341 270.327 220.683 265.117" stroke="#A15842" stroke-width="4" stroke-miterlimit="10" stroke-linecap="round"/>
<path d="M189.546 266.527C198.335 263.927 206.639 259.904 214.128 254.619" stroke="#A15842" stroke-width="4" stroke-miterlimit="10" stroke-linecap="round"/>
<path d="M461.677 119.879C450.464 103.684 419.977 110.135 419.977 110.135C420.717 101.241 423.134 75.6197 403.866 61.5422C384.598 47.4647 360.152 54.877 351.246 65.9857C347.621 70.5331 345.847 76.6526 344.814 83.3308C350.726 84.3248 359.399 82.2914 359.399 82.2914C371.254 95.6284 381.876 97.7462 381.876 97.7462C390.172 89.4504 404.723 89.7232 407.088 102.294C409.544 115.345 388.697 121.211 388.697 121.211C388.697 121.211 386.748 144.663 397.142 153.134C400.332 155.662 404.104 157.353 408.115 158.051C415.91 159.604 424.492 158.558 432.326 160.299C439.23 161.787 445.835 164.422 451.867 168.095C454.247 165.998 456.423 163.679 458.364 161.17C465.198 152.504 473.37 136.77 461.677 119.879Z" fill="#A15842"/>
<path d="M371.768 77.5361C367.87 80.7843 363.322 82.7332 358.086 84.0324" stroke="#EAA58B" stroke-width="4" stroke-miterlimit="10" stroke-linecap="round"/>
<path d="M367.604 145.475C370.629 144.465 373.547 143.16 376.315 141.577" stroke="#A15842" stroke-width="4" stroke-miterlimit="10" stroke-linecap="round"/>
<path d="M389.496 108.108L395.421 104.405" stroke="#A15842" stroke-width="4" stroke-miterlimit="10" stroke-linecap="round"/>
<path d="M355.501 125.498C356.729 126.258 361.348 126.85 363.18 123.322" stroke="#A15842" stroke-width="4" stroke-miterlimit="10" stroke-linecap="round"/>
<path d="M367.571 108.829C368.798 108.829 369.793 107.834 369.793 106.607C369.793 105.38 368.798 104.385 367.571 104.385C366.344 104.385 365.349 105.38 365.349 106.607C365.349 107.834 366.344 108.829 367.571 108.829Z" fill="#30242A"/>
<path d="M349.154 105.886C350.381 105.886 351.376 104.891 351.376 103.664C351.376 102.437 350.381 101.443 349.154 101.443C347.927 101.443 346.932 102.437 346.932 103.664C346.932 104.891 347.927 105.886 349.154 105.886Z" fill="#30242A"/>
<path d="M355.41 112.246C354.968 113.643 354.585 115.163 354.838 115.669C355.186 116.312 355.715 116.838 356.358 117.183" stroke="#A15842" stroke-width="4" stroke-miterlimit="10" stroke-linecap="round"/>
<path d="M392.283 129.877C396.581 129.877 400.066 126.393 400.066 122.094C400.066 117.796 396.581 114.312 392.283 114.312C387.985 114.312 384.5 117.796 384.5 122.094C384.5 126.393 387.985 129.877 392.283 129.877Z" fill="#F5EBDD"/>
<path d="M354.844 104.913C356.19 97.9931 352.231 91.4005 346.001 90.1884C339.771 88.9763 333.629 93.6036 332.283 100.524C330.936 107.444 334.895 114.037 341.125 115.249C347.355 116.461 353.497 111.834 354.844 104.913Z" stroke="#30242A" stroke-width="4" stroke-miterlimit="10" stroke-linecap="round"/>
<path d="M383.07 108.374C384.417 101.454 380.458 94.8615 374.228 93.6494C367.998 92.4373 361.856 97.0647 360.509 103.985C359.163 110.905 363.122 117.498 369.352 118.71C375.582 119.922 381.724 115.295 383.07 108.374Z" stroke="#30242A" stroke-width="4" stroke-miterlimit="10" stroke-linecap="round"/>
<path d="M355.377 103.866L359.866 104.346" stroke="#30242A" stroke-width="4" stroke-miterlimit="10" stroke-linecap="round"/>
<path d="M421.464 110.992L420.172 119.307" stroke="#30242A" stroke-width="4" stroke-miterlimit="10" stroke-linecap="round"/>
<path d="M327.469 227.374L333.758 245.674" stroke="#30242A" stroke-width="4" stroke-linecap="round" stroke-linejoin="round"/>
<path d="M360.691 269.067H344.158" stroke="#30242A" stroke-width="4" stroke-linecap="round" stroke-linejoin="round"/>
<path d="M373.723 222.164L378.933 247.571V271.022" stroke="#30242A" stroke-width="4" stroke-linecap="round" stroke-linejoin="round"/>
<path d="M339.072 163.944L348.966 186.33L337.24 185.031L378.933 247.571" stroke="#30242A" stroke-width="4" stroke-linecap="round" stroke-linejoin="round"/>
<path d="M435.47 161.28L418.678 185.031L434.314 183.725L376.978 234.539" stroke="#30242A" stroke-width="4" stroke-linecap="round" stroke-linejoin="round"/>
<path d="M444.202 240.918L431.709 223.469" stroke="#30242A" stroke-width="4" stroke-linecap="round" stroke-linejoin="round"/>
<path d="M458.656 305.232C451.854 302.965 439.648 298.586 432.287 294.188" stroke="#30242A" stroke-width="4" stroke-linecap="round" stroke-linejoin="round"/>
<path d="M271.042 143.584C278.1 143.584 283.821 137.863 283.821 130.806C283.821 123.749 278.1 118.028 271.042 118.028C263.985 118.028 258.264 123.749 258.264 130.806C258.264 137.863 263.985 143.584 271.042 143.584Z" fill="#FFB7D5"/>
<path d="M232.852 79.9529L225.412 70.9822C224.267 69.6013 222.219 69.4103 220.838 70.5554L220.678 70.6881C219.298 71.8333 219.107 73.881 220.252 75.2619L227.691 84.2327C228.837 85.6135 230.884 85.8045 232.265 84.6594L232.425 84.5267C233.806 83.3815 233.997 81.3338 232.852 79.9529Z" fill="#4756DF"/>
<path d="M246.233 90.8536L238.749 81.8237L104.23 193.365C103.057 194.339 102.318 195.739 102.177 197.257C102.036 198.775 102.503 200.286 103.476 201.46L103.626 201.642C104.107 202.222 104.698 202.703 105.366 203.055C106.033 203.407 106.763 203.624 107.514 203.694C108.265 203.764 109.022 203.685 109.743 203.462C110.464 203.24 111.133 202.877 111.714 202.395L153.771 167.51V289.92H165.51V157.766L246.233 90.8536Z" fill="#3EC1F3"/>
<path d="M224.555 93.4521L228.303 97.9995C229.609 99.5772 230.601 101.39 231.226 103.339" stroke="#4756DF" stroke-width="4" stroke-miterlimit="10"/>
<path d="M159.637 170.219C168.093 170.219 174.949 163.364 174.949 154.907C174.949 146.451 168.093 139.595 159.637 139.595C151.181 139.595 144.325 146.451 144.325 154.907C144.325 163.364 151.181 170.219 159.637 170.219Z" fill="#4756DF"/>
<path d="M159.637 160.793C162.887 160.793 165.523 158.158 165.523 154.907C165.523 151.657 162.887 149.022 159.637 149.022C156.386 149.022 153.751 151.657 153.751 154.907C153.751 158.158 156.386 160.793 159.637 160.793Z" fill="#3EC1F3"/>
<path d="M281.534 123.549L261.947 139.738" stroke="#A15842" stroke-width="4" stroke-miterlimit="10"/>
<path d="M256.159 89.2165C252.041 88.7326 248.267 86.6806 245.622 83.4868L240.425 77.2048C238.588 74.9934 235.949 73.6014 233.086 73.3346C230.224 73.0679 227.373 73.9482 225.159 75.7821C224.063 76.6906 223.157 77.806 222.493 79.0646C221.829 80.3231 221.419 81.7003 221.287 83.1173C221.154 84.5344 221.303 85.9636 221.723 87.3233C222.143 88.683 222.827 89.9467 223.736 91.042L228.933 97.3434C231.566 100.528 232.876 104.603 232.591 108.725L231.291 127.72C230.647 137.014 233.007 146.27 238.022 154.121L239.685 156.72L302.004 105.029L299.769 102.93C292.986 96.5486 284.332 92.5154 275.083 91.4253L256.159 89.2165Z" fill="#3EC1F3"/>
<path d="M165.51 289.92H153.771L136.419 294.65C133.17 295.536 130.303 297.466 128.259 300.143C126.215 302.819 125.109 306.093 125.109 309.461H194.165C194.165 306.093 193.057 302.818 191.012 300.141C188.967 297.464 186.098 295.535 182.848 294.65L165.51 289.92Z" fill="#3EC1F3"/>
<path d="M290.18 95.8362L233.149 142.974" stroke="#4756DF" stroke-width="4" stroke-miterlimit="10" stroke-linecap="round"/>
<path d="M153.485 288.575H165.51" stroke="#4756DF" stroke-width="4" stroke-miterlimit="10" stroke-linecap="round"/>
<path d="M127.389 301.341H191.495" stroke="#4756DF" stroke-width="4" stroke-miterlimit="10" stroke-linecap="round"/>
<path d="M581.556 477.053C580.256 466.009 580.906 441.219 595.237 422.328C609.568 403.437 590.04 411.284 584.193 416.481C574.839 424.797 566.601 432.768 559.436 459.48L581.556 477.053Z" fill="#30242A"/>
<path d="M408.513 594.318H332.032V591.817C332.034 588.291 333.436 584.91 335.929 582.418C338.423 579.926 341.805 578.525 345.33 578.525H408.91L408.513 594.318Z" fill="#A15842"/>
<path d="M595.081 521.299L578.951 594.318H548.977V589.771C548.977 586.839 550.139 584.026 552.209 581.95C554.28 579.874 557.089 578.703 560.021 578.694C560.021 578.694 545.04 567.462 535.919 556.386C535.919 556.386 520.283 575.44 498.13 572.178L496.526 579.974C495.691 584.02 493.488 587.655 490.288 590.268C487.087 592.88 483.084 594.311 478.953 594.318H406.305C374.083 594.318 358.232 589.4 357.322 571.055C357.294 570.355 357.408 569.657 357.657 569.002C357.905 568.347 358.284 567.749 358.769 567.245C359.255 566.74 359.837 566.338 360.482 566.064C361.126 565.79 361.819 565.649 362.52 565.65H382.801C383.637 565.651 384.463 565.464 385.218 565.103C385.972 564.742 386.636 564.216 387.16 563.564L395.794 552.852C398.353 549.682 401.768 547.313 405.634 546.027C409.5 544.74 413.654 544.591 417.602 545.596L434.966 550.033C434.966 550.033 465.733 505.819 493.602 475.111C520.237 445.793 570.337 442.629 590.072 480.814C596.418 493.311 598.19 507.633 595.081 521.299Z" fill="#A15842"/>
<path d="M413.47 594.318V591.817C413.47 590.071 413.814 588.342 414.482 586.729C415.151 585.116 416.13 583.65 417.365 582.416C418.6 581.182 420.066 580.203 421.68 579.535C423.293 578.868 425.022 578.525 426.768 578.525H435.622" stroke="#30242A" stroke-width="4" stroke-miterlimit="10"/>
<path d="M534.711 556.906C530.163 551.494 514.644 531.57 515.755 512.081C516.943 491.228 529.436 480.158 529.436 480.158" stroke="#30242A" stroke-width="4" stroke-miterlimit="10" stroke-linecap="round"/>
<path d="M502.073 544.647C502.073 544.647 501.242 560.063 499.572 571.574" stroke="#30242A" stroke-width="4" stroke-miterlimit="10" stroke-linecap="round"/>
<path d="M564.613 587.646V593.668" stroke="#30242A" stroke-width="4" stroke-miterlimit="10" stroke-linecap="round"/>
<path d="M557.448 587.646V593.668" stroke="#30242A" stroke-width="4" stroke-miterlimit="10" stroke-linecap="round"/>
<path d="M427.801 587.646V593.668" stroke="#30242A" stroke-width="4" stroke-miterlimit="10" stroke-linecap="round"/>
<path d="M420.635 587.646V593.668" stroke="#30242A" stroke-width="4" stroke-miterlimit="10" stroke-linecap="round"/>
<path d="M401.419 570.054C399.801 570.054 398.49 568.743 398.49 567.124C398.49 565.506 399.801 564.195 401.419 564.195C403.038 564.195 404.349 565.506 404.349 567.124C404.349 568.743 403.038 570.054 401.419 570.054Z" fill="#30242A"/>
<path d="M417.407 545.537V545.459L434.992 550.007L417.628 545.57L417.407 545.537Z" fill="#30242A"/>
<path d="M460.685 578.818C465.778 581.416 472.976 586.503 472.379 594.208H444.094L438.15 584.833C437.178 583.3 435.835 582.037 434.245 581.162C432.655 580.286 430.87 579.826 429.055 579.825H427.164L417.472 545.732L417.615 545.583L434.98 550.02L451.604 571.315C454.051 574.445 457.15 577.005 460.685 578.818Z" fill="#30242A"/>
<path d="M501.995 491.027C501.995 491.027 509.862 518.259 484.455 528.543C471.573 533.74 460.874 529.797 453.448 524.645C464.667 509.703 479.512 490.682 493.609 475.143C497.143 471.254 501.115 467.786 505.445 464.807C509.291 470.043 513.5 482.997 501.995 491.027Z" fill="#EAA58B"/>
<path d="M566.894 510.775C560.956 510.775 556.142 505.962 556.142 500.024C556.142 494.086 560.956 489.273 566.894 489.273C572.831 489.273 577.645 494.086 577.645 500.024C577.645 505.962 572.831 510.775 566.894 510.775Z" fill="#EAA58B"/>
<path d="M362.493 565.65H366.391C366.606 566.737 366.577 567.858 366.308 568.932C366.038 570.007 365.534 571.008 364.832 571.865C364.13 572.722 363.247 573.413 362.246 573.888C361.245 574.364 360.152 574.612 359.044 574.615C358.586 574.614 358.129 574.571 357.68 574.485C357.481 573.35 357.353 572.205 357.296 571.055C357.268 570.355 357.382 569.657 357.631 569.002C357.879 568.347 358.258 567.749 358.743 567.245C359.228 566.74 359.811 566.338 360.455 566.064C361.1 565.79 361.793 565.649 362.493 565.65Z" fill="#30242A"/>
<path d="M347.019 587.646V593.519" stroke="#30242A" stroke-width="4" stroke-miterlimit="10" stroke-linecap="round"/>
<path d="M339.854 587.646V593.519" stroke="#30242A" stroke-width="4" stroke-miterlimit="10" stroke-linecap="round"/>
<path d="M386.335 593.538C370.406 591.934 360.908 587.62 357.459 578.441" stroke="#30242A" stroke-width="4" stroke-linecap="round" stroke-linejoin="round"/>
<path d="M432.359 251.748C424.342 251.03 416.282 250.941 408.251 251.481C396.765 252.423 381.324 255.431 375.12 258.432C368.916 261.434 345.159 272.029 351.558 275.583C357.404 278.831 369.669 273.946 369.669 273.946C369.669 273.946 357.43 285.197 355.325 289.907C353.221 294.617 360.178 297.261 360.178 297.261C362.01 305.303 370.209 301.847 370.209 301.847C375.373 312.833 403.275 289.03 403.275 289.03C409.913 289.72 416.616 289.438 423.173 288.192C423.173 288.192 426.707 290.173 432.378 292.928L432.359 251.748Z" fill="#EAA58A"/>
<path d="M502.064 306.856C554.184 282.099 478.632 189.598 451.9 168.088L436.919 228.679L455.81 254.736C447.534 253.307 439.622 252.326 432.359 251.748V292.928C448.898 300.97 483.654 315.626 502.064 306.856Z" fill="#4756DF"/>
<path d="M367.175 274.628C371.8 270.802 379.479 264.617 385.208 260.888" stroke="#A15842" stroke-width="4" stroke-miterlimit="10" stroke-linecap="round"/>
<path d="M391.523 270.028C378.212 278.649 366.083 290.167 360.081 296.196" stroke="#A15842" stroke-width="4" stroke-miterlimit="10" stroke-linecap="round"/>
<path d="M397.428 279.779C388.333 286.022 377.777 295.488 370.884 301.984" stroke="#A15842" stroke-width="4" stroke-miterlimit="10" stroke-linecap="round"/>
<path d="M553.794 276.278C554.779 276.28 555.723 276.672 556.42 277.368C557.116 278.065 557.509 279.009 557.51 279.994V280.546C557.509 281.531 557.116 282.475 556.42 283.172C555.723 283.868 554.779 284.26 553.794 284.262H534.65V276.278H553.794ZM553.794 271.081H530.154C530.062 271.081 529.97 271.099 529.884 271.135C529.799 271.171 529.721 271.223 529.656 271.289C529.591 271.354 529.539 271.433 529.504 271.518C529.469 271.604 529.452 271.696 529.453 271.789V288.777C529.453 288.963 529.527 289.141 529.658 289.273C529.79 289.404 529.968 289.478 530.154 289.478H553.794C554.966 289.478 556.127 289.247 557.21 288.798C558.292 288.349 559.276 287.691 560.104 286.861C560.932 286.031 561.588 285.046 562.034 283.963C562.481 282.879 562.71 281.718 562.707 280.546V279.974C562.707 277.61 561.768 275.343 560.097 273.672C558.425 272 556.158 271.061 553.794 271.061V271.081Z" fill="#3EC1F3"/>
<path d="M525.211 268.281C505.852 268.281 496.906 252.852 496.906 252.852L509.899 309.461H540.483L553.476 252.852C550.459 257.609 546.282 261.52 541.337 264.219C536.393 266.918 530.843 268.316 525.211 268.281Z" fill="#3EC1F3"/>
<path d="M525.211 268.281C530.85 268.322 536.407 266.928 541.359 264.229C546.311 261.53 550.494 257.615 553.515 252.852H496.906C496.906 252.852 505.852 268.281 525.211 268.281Z" fill="#30242A"/>
</g>
</svg>