<svg xmlns="http://www.w3.org/2000/svg" fill="none" viewBox="0.24 0 656.08 679.25">
<mask id="mask0_1889_11448" style="mask-type:alpha" maskUnits="userSpaceOnUse" x="0" y="0" width="657" height="680">
<path d="M380.069 197.808C399.587 186.859 423.398 186.859 442.916 197.808L456.447 205.397C465.825 210.654 476.349 213.474 487.075 213.605L502.587 213.796C524.965 214.073 545.586 225.979 557.015 245.22L564.938 258.558C570.42 267.789 578.128 275.497 587.358 280.979L600.697 288.902C619.938 300.331 631.843 320.952 632.12 343.329L632.312 358.842C632.448 369.587 635.271 380.122 640.519 389.47L648.109 403.001C653.492 412.582 656.321 423.409 656.321 434.424C656.321 445.44 653.492 456.267 648.109 465.848L640.519 479.378C635.271 488.726 632.448 499.262 632.312 510.007L632.12 525.519C631.843 547.897 619.938 568.517 600.697 579.947L587.358 587.869C578.128 593.352 570.42 601.06 564.938 610.29L557.014 623.629C545.586 642.87 524.965 654.775 502.587 655.052L487.075 655.244C476.349 655.375 465.825 658.195 456.447 663.451L442.916 671.041C423.398 681.99 399.587 681.99 380.069 671.041L366.538 663.451C357.16 658.195 346.635 655.375 335.91 655.244L320.398 655.052C298.02 654.775 277.399 642.87 265.97 623.629L258.047 610.29C252.565 601.06 244.857 593.352 235.626 587.869L222.288 579.946C203.047 568.517 191.142 547.897 190.864 525.519L190.672 510.007C190.537 499.262 187.714 488.726 182.466 479.378L174.876 465.848C169.494 456.267 166.664 445.44 166.664 434.424C166.664 423.409 169.494 412.582 174.876 403.001L182.466 389.47C187.714 380.122 190.537 369.587 190.672 358.842L190.865 343.329C191.142 320.952 203.047 300.331 222.288 288.902L235.627 280.979C244.857 275.497 252.565 267.789 258.047 258.558L265.971 245.22C277.399 225.979 298.02 214.073 320.398 213.796L335.91 213.605C346.635 213.474 357.16 210.654 366.538 205.397L380.069 197.808Z" fill="#FFD9DD"/>
<path d="M0.23877 441.328V678.722H347.763H395.56C414.148 678.722 624.79 523.115 624.79 523.115V245.36L384.21 0L86.805 245.36L0.23877 441.328Z" fill="#FFD9DD"/>
</mask>
<g mask="url(#mask0_1889_11448)">
<path d="M380.069 197.808C399.587 186.859 423.398 186.859 442.916 197.808L456.447 205.397C465.825 210.654 476.349 213.474 487.075 213.605L502.587 213.796C524.965 214.073 545.586 225.979 557.015 245.22L564.938 258.558C570.42 267.789 578.128 275.497 587.358 280.979L600.697 288.902C619.938 300.331 631.843 320.952 632.12 343.329L632.313 358.842C632.448 369.587 635.271 380.122 640.519 389.47L648.109 403.001C653.492 412.582 656.321 423.409 656.321 434.424C656.321 445.44 653.492 456.267 648.109 465.848L640.519 479.378C635.271 488.726 632.448 499.262 632.313 510.007L632.12 525.519C631.843 547.897 619.938 568.517 600.697 579.947L587.358 587.869C578.128 593.352 570.42 601.06 564.938 610.29L557.014 623.629C545.586 642.87 524.965 654.775 502.587 655.052L487.075 655.244C476.35 655.375 465.825 658.195 456.447 663.451L442.916 671.041C423.398 681.99 399.587 681.99 380.069 671.041L366.538 663.451C357.16 658.195 346.635 655.375 335.91 655.244L320.398 655.052C298.02 654.775 277.399 642.87 265.97 623.629L258.047 610.29C252.565 601.06 244.857 593.352 235.626 587.869L222.288 579.946C203.047 568.517 191.142 547.897 190.864 525.519L190.672 510.007C190.537 499.262 187.714 488.726 182.466 479.378L174.876 465.848C169.494 456.267 166.664 445.44 166.664 434.424C166.664 423.409 169.494 412.582 174.876 403.001L182.466 389.47C187.714 380.122 190.537 369.587 190.672 358.842L190.865 343.329C191.142 320.952 203.047 300.331 222.288 288.902L235.627 280.979C244.857 275.497 252.565 267.789 258.047 258.558L265.971 245.22C277.399 225.979 298.02 214.073 320.398 213.796L335.91 213.605C346.635 213.474 357.16 210.654 366.538 205.397L380.069 197.808Z" fill="#FFD9DD"/>
<path d="M472.084 510.718H302.914L305.775 499.371H380.033L408.355 388.609C412.213 373.522 420.984 360.148 433.285 350.597C445.585 341.047 460.715 335.862 476.287 335.862C514.394 335.862 542.277 371.78 532.826 408.697L515.325 477.134C512.869 486.739 507.286 495.252 499.457 501.333C491.627 507.414 481.997 510.716 472.084 510.718Z" fill="#FFB7D5"/>
<path d="M304.225 615.54V627.553H412.04V615.54H304.225Z" fill="#A15842"/>
<path d="M429.8 670.968L401.757 504.047H314.501L286.458 670.968C286.326 671.762 286.368 672.575 286.582 673.351C286.796 674.127 287.176 674.847 287.697 675.461C288.217 676.075 288.865 676.568 289.595 676.907C290.326 677.245 291.121 677.42 291.926 677.42C293.191 677.418 294.417 676.985 295.402 676.192C296.386 675.398 297.071 674.292 297.34 673.056L334.07 504.047H382.214L418.931 673.056C419.2 674.292 419.883 675.399 420.868 676.193C421.853 676.987 423.08 677.42 424.345 677.42C425.149 677.418 425.943 677.242 426.672 676.902C427.4 676.563 428.047 676.07 428.566 675.456C429.085 674.842 429.464 674.123 429.677 673.348C429.89 672.573 429.932 671.76 429.8 670.968Z" fill="#A15842"/>
<path d="M393.542 615.54V627.553H501.357V615.54H393.542Z" fill="#FFBE21"/>
<path d="M519.117 670.968L491.047 504.047H403.825L375.782 670.968C375.65 671.762 375.692 672.575 375.906 673.351C376.12 674.127 376.5 674.847 377.021 675.461C377.541 676.075 378.189 676.568 378.919 676.907C379.65 677.245 380.445 677.42 381.25 677.42C382.514 677.419 383.74 676.986 384.724 676.192C385.708 675.399 386.39 674.292 386.658 673.056L423.374 504.047H471.525L508.241 673.056C508.511 674.293 509.195 675.401 510.182 676.195C511.168 676.989 512.396 677.421 513.663 677.42C514.466 677.418 515.26 677.242 515.989 676.902C516.718 676.563 517.364 676.07 517.883 675.456C518.402 674.842 518.781 674.123 518.994 673.348C519.207 672.573 519.249 671.76 519.117 670.968Z" fill="#FFBE21"/>
<path d="M430.99 477.134L441.686 435.303H370.8C356.9 435.303 343.394 439.93 332.414 448.455C321.434 456.979 313.604 468.916 310.158 482.382L302.914 510.718H387.742C397.656 510.717 407.288 507.416 415.119 501.335C422.95 495.254 428.534 486.74 430.99 477.134Z" fill="#FFB7D5"/>
<path d="M307.524 498.26H397.52" stroke="#A15842" stroke-width="4" stroke-linecap="round" stroke-linejoin="round"/>
<path d="M380.352 497.841L396.123 436.181" stroke="#A15842" stroke-width="4" stroke-linecap="round" stroke-linejoin="round"/>
<path d="M524.97 433.873H482.4" stroke="#A15842" stroke-width="4" stroke-linecap="round" stroke-linejoin="round"/>
<path d="M532.952 403.941H478.409" stroke="#A15842" stroke-width="4" stroke-linecap="round" stroke-linejoin="round"/>
<path d="M334.277 390.425C334.277 390.425 280.911 404.958 258.243 416.299C220.868 434.983 220.994 447.315 198.206 516.352C177.167 580.154 174.852 611.077 145.831 612.301C123.675 613.232 116.411 620.482 112.82 630.42L200.494 672.018C201.499 672.494 202.647 672.567 203.705 672.224C204.762 671.88 205.648 671.145 206.181 670.169C206.724 669.172 206.856 668.002 206.549 666.909C206.242 665.815 205.521 664.885 204.538 664.316L202.695 663.252C210.844 653.381 226.561 632.349 242.232 600.401L252.21 605.057C252.21 605.057 268.326 584.111 270.881 560.352C274.206 529.668 272.211 508.989 286.226 496.983L449.655 390.398L334.277 390.425Z" fill="#FF7235"/>
<path d="M137.217 617.23C138.953 613.618 148.598 591.614 154.146 594.275C161.363 597.734 142.632 619.824 142.632 619.824L137.217 617.23Z" fill="#30242A"/>
<path d="M112.813 630.732L200.487 672.324C201.502 672.809 202.665 672.881 203.732 672.526C204.8 672.172 205.688 671.417 206.211 670.422C206.734 669.426 206.852 668.267 206.538 667.187C206.225 666.107 205.506 665.19 204.531 664.629L202.689 663.564L202.875 663.338L142.612 634.889C143.515 632.388 144.148 629.797 144.501 627.16C153.52 628.723 171.772 630.406 171.865 622.883C171.965 615.873 152.03 618.686 144.747 620.668C144.59 617.974 144.066 615.313 143.191 612.76C123.096 614.143 116.258 621.194 112.813 630.732Z" fill="#30242A"/>
<path d="M258.243 416.299C254.045 418.394 250.327 420.41 246.995 422.432L241.88 438.815L261.568 424.946L279.72 439.42L273.029 419.578L293.589 410.16L277.698 408.164C271.073 410.528 264.579 413.244 258.243 416.299Z" fill="#FFB7D5"/>
<path d="M316.251 407.772L314.921 416.439L323.594 413.106L316.251 407.772Z" fill="#FFB7D5"/>
<path d="M266.224 451.127L253.553 467.802L235.541 459.135L246.21 477.141L229.534 491.149L250.879 488.482L258.223 513.166L265.559 488.482L288.906 481.81L266.224 472.472V451.127Z" fill="#FFB7D5"/>
<path d="M194.986 578.451L196.543 574.008L217.828 572.877L200.534 561.104L208.236 542.659L190.816 554.273L187.49 550.681C184.829 559.441 182.475 567.243 180.173 574.101H180.28C180.532 573.349 180.785 572.591 181.038 571.819L194.986 578.451Z" fill="#FFB7D5"/>
<path d="M194.986 578.451L181.018 571.846C180.765 572.618 180.512 573.376 180.26 574.127C171.819 599.27 164.13 611.842 145.844 612.613C144.946 612.613 144.082 612.7 143.23 612.76C144.106 615.313 144.63 617.974 144.787 620.668C152.104 618.673 172.005 615.873 171.905 622.883C171.799 630.406 153.56 628.723 144.541 627.16C144.181 629.797 143.541 632.388 142.632 634.889L202.895 663.338C211.09 653.361 226.674 632.435 242.226 600.754L194.986 578.451Z" fill="#EAA58B"/>
<path d="M248.212 527.839L246.216 545.852L227.539 545.187L243.549 557.199L237.563 578.544L253.586 564.529L267.987 574.134C268.386 572.861 268.752 571.573 269.085 570.27L263.564 556.521L272.118 547.149C272.257 545.406 272.39 543.69 272.517 542.02L257.577 544.515L248.212 527.839Z" fill="#FFB7D5"/>
<path d="M206.607 490.398C204.924 495.599 203.114 501.246 201.119 507.386L218.865 508.47L206.607 490.398Z" fill="#FFB7D5"/>
<path d="M269.271 652.895C269.55 648.904 270.421 624.892 276.554 625.324C284.536 625.883 275.257 653.314 275.257 653.314L269.271 652.895Z" fill="#30242A"/>
<path d="M416.995 391.402C416.995 391.402 350.287 403.774 313.597 419.113C276.554 434.604 276.913 462.115 283.578 536.845C289.565 603.747 300.26 636.233 278.257 646.237C258.076 655.416 251.066 666.923 252.023 677.446H351.364C351.924 677.446 352.479 677.336 352.996 677.122C353.513 676.907 353.983 676.593 354.379 676.197C354.775 675.801 355.089 675.331 355.303 674.814C355.518 674.297 355.628 673.742 355.628 673.182C355.628 672.052 355.179 670.967 354.379 670.168C353.58 669.368 352.495 668.919 351.364 668.919H349.688C352.821 658.669 357.364 638.661 357.989 605.549H370.308C370.308 605.549 376.64 576.283 369.643 550.182C362.326 522.837 355.635 518.168 351.637 499.49H411.415C457.064 499.49 491.233 457.266 481.303 412.714C478.203 398.792 473.707 391.429 473.707 391.429L416.995 391.402Z" fill="#FF7235"/>
<path d="M375.636 430.447L363.39 445.852L344.32 439.3L355.621 457.798L340.948 477.813L360.291 469.804L371.073 489.679L372.297 467.802L390.974 463.805L374.971 453.794L375.636 430.447Z" fill="#FFB7D5"/>
<path d="M348.99 549.364L360.297 567.862L345.624 587.876L364.967 579.894L372.137 593.111C373.188 582.841 373.707 567.649 370.355 553.062L368.066 555.942L348.99 549.364Z" fill="#FFB7D5"/>
<path d="M299.116 605.523L298.258 595.213L319.916 586.858L299.416 582.608L301.677 560.106L288.374 577.513L287.975 577.347C289.252 588.089 290.369 597.474 290.995 605.596V605.523H299.116Z" fill="#FFB7D5"/>
<path d="M351.364 668.892H349.688C352.821 658.642 357.364 638.634 357.989 605.523H290.975V605.583C291.028 606.248 291.075 606.913 291.121 607.578C291.121 607.638 291.121 607.705 291.121 607.765C292.511 628.551 290.243 640.71 278.231 646.171C258.05 655.35 251.039 666.857 251.997 677.38H351.364C352.495 677.38 353.58 676.93 354.379 676.131C355.179 675.331 355.628 674.247 355.628 673.116C355.628 671.985 355.179 670.901 354.379 670.101C353.58 669.302 352.495 668.852 351.364 668.852V668.892Z" fill="#EAA58B"/>
<path d="M440.309 393.125L409.665 395.839L412.858 408.158L393.256 418.614L417.674 421.88L425.935 440.178L434.429 421.228L459.266 417.304L437.695 406.196L440.309 393.125Z" fill="#FFB7D5"/>
<path d="M294.254 479.808L301.571 456.461L322.916 459.787L306.24 445.114L318.213 431.106L296.203 439.087L292.684 433.054C287.024 439.467 283.605 447.429 281.776 457.665L285.527 457.785L294.254 479.808Z" fill="#FFB7D5"/>
<path d="M351.364 406.568C346.861 407.818 342.378 409.129 338.001 410.479L355.635 422.452L351.364 406.568Z" fill="#FFB7D5"/>
<path d="M322.271 514.496L312.932 495.153L308.262 516.498L290.922 515.168L306.925 529.176L296.921 552.523L314.289 536.333L328.683 552.929L324.273 527.839L338.946 508.496L322.271 514.496Z" fill="#FFB7D5"/>
<path d="M282.674 661.09C291.494 658.656 308.708 652.39 305.595 645.545C302.695 639.16 285.867 650.201 280.126 655.117C278.677 652.458 276.826 650.04 274.639 647.947C257.225 656.813 251.112 667.549 252.023 677.42H351.364C352.495 677.42 353.58 676.97 354.379 676.171C355.179 675.371 355.628 674.287 355.628 673.156C355.628 672.025 355.179 670.941 354.379 670.141C353.58 669.342 352.495 668.892 351.364 668.892H284.25C284.001 666.243 283.472 663.628 282.674 661.09Z" fill="#30242A"/>
<path d="M351.364 500.96L334.19 500.721" stroke="#A15842" stroke-width="4" stroke-miterlimit="10" stroke-linecap="round"/>
<path d="M364.135 403.655C346.342 408.191 327.326 413.758 312.918 419.771C282.188 432.642 277.206 453.767 280.193 503.308" stroke="#A15842" stroke-width="4" stroke-miterlimit="10" stroke-linecap="round"/>
<path d="M589.943 399.763H573.606V677.419H589.943V399.763Z" fill="#FFBE21"/>
<path d="M589.943 403.581H573.606" stroke="#A15842" stroke-width="4" stroke-miterlimit="10"/>
<path d="M352.954 190.978C343.642 189.647 322.31 199.658 321.605 219.446C320.9 239.235 338.567 245.594 341.394 247.01L382.387 240.645L385.214 195.414L352.954 190.978Z" fill="#A15842"/>
<path d="M425.376 141.836C442.973 141.836 457.237 127.571 457.237 109.975C457.237 92.3785 442.973 78.1139 425.376 78.1139C407.78 78.1139 393.515 92.3785 393.515 109.975C393.515 127.571 407.78 141.836 425.376 141.836Z" fill="#A15842"/>
<path d="M404.71 131.885C406.652 132.783 390.296 93.9712 381.948 100.024C374.093 105.738 394.846 127.335 404.71 131.885Z" fill="#30242A"/>
<path d="M405.615 134.26C407.397 136.388 449.129 121.788 443.355 113.367C437.835 105.266 403.832 132.125 405.615 134.26Z" fill="#30242A"/>
<path d="M461.015 241.004C461.015 241.004 489.032 217.657 470.993 191.643C459.512 175.06 428.296 181.665 428.296 181.665C429.055 172.559 431.529 146.326 411.8 131.912C392.072 117.498 367.042 125.087 357.923 136.461C348.804 147.836 351.098 169.087 348.065 184.259C345.032 199.432 347.054 209.748 356.406 214.604C364.914 219.021 374.924 216.353 374.924 216.353L373.86 232.364C373.86 232.364 354.57 233.089 342.751 237.366C314.269 247.675 264.229 318.382 264.229 318.382C232.88 317.051 203.527 315.721 203.527 315.721L218.872 361.085C218.872 361.085 257.557 373.756 285.574 366.406C313.996 358.963 340.941 319.047 340.941 319.047L350.254 345.726L334.243 390.418H473.66L450.313 349.059C454.351 312.382 461.015 241.004 461.015 241.004Z" fill="#EAA58B"/>
<path d="M416.217 230.701L379.634 297.037L364.668 233.029C358.089 233.694 349.322 234.984 342.817 237.339C314.269 247.675 264.229 318.382 264.229 318.382C232.88 317.051 203.527 315.721 203.527 315.721L218.872 361.085C218.872 361.085 257.557 373.756 285.574 366.406C313.996 358.963 340.941 319.047 340.941 319.047L350.254 345.726L334.243 390.418H473.66L450.313 349.065C454.304 312.375 460.956 240.997 460.956 240.997C454.779 237.237 448.016 234.539 440.948 233.015C432.986 231.219 424.232 232.29 416.217 230.701Z" fill="#4756DF"/>
<path d="M226.761 385.755H342.285L316.018 302.797C315.246 300.352 313.715 298.217 311.647 296.701C309.579 295.186 307.081 294.369 304.518 294.369H206.886C204.989 294.368 203.118 294.815 201.426 295.672C199.734 296.53 198.268 297.775 197.148 299.306C196.027 300.836 195.283 302.61 194.977 304.482C194.671 306.354 194.811 308.272 195.385 310.08L217.096 378.685C217.747 380.737 219.035 382.528 220.773 383.8C222.51 385.071 224.608 385.756 226.761 385.755Z" fill="#30242A"/>
<path d="M243.975 331.898C247.041 327.707 260.95 338.775 261.974 339.687C262.506 338.775 269.75 327.714 275.058 331.898C279.667 335.529 269.537 351.752 266.843 355.89C266.73 356.015 266.592 356.115 266.438 356.184C266.284 356.253 266.117 356.288 265.948 356.288C265.78 356.288 265.613 356.253 265.459 356.184C265.305 356.115 265.167 356.015 265.054 355.89C260.138 351.752 241.314 335.529 243.975 331.898Z" fill="#A15842"/>
<path d="M260.828 334.703C261.989 334.341 262.033 331.168 260.926 327.615C259.82 324.062 257.982 321.475 256.821 321.837C255.66 322.198 255.616 325.372 256.722 328.925C257.829 332.478 259.667 335.065 260.828 334.703Z" fill="#A15842"/>
<path d="M409.366 376.416C409.7 377.49 409.778 378.626 409.593 379.735C409.407 380.844 408.964 381.893 408.299 382.799C407.634 383.705 406.765 384.443 405.762 384.951C404.76 385.46 403.652 385.726 402.528 385.729H226.761C224.608 385.729 222.51 385.044 220.773 383.773C219.035 382.502 217.747 380.71 217.096 378.658L216.378 376.39L409.366 376.416Z" fill="#30242A"/>
<path d="M618.092 385.755H103.121V402.431H618.092V385.755Z" fill="#FFBE21"/>
<path d="M515.319 477.134L526.014 435.303H463.623C449.723 435.303 436.219 439.931 425.24 448.455C414.261 456.98 406.432 468.916 402.987 482.382L395.737 510.718H472.064C481.979 510.717 491.612 507.416 499.444 501.336C507.276 495.255 512.861 486.74 515.319 477.134Z" fill="#FFB7D5"/>
<path d="M397.214 499.75L394.746 510.179" stroke="#A15842" stroke-width="4" stroke-linecap="round" stroke-linejoin="round"/>
<path d="M197.966 318.122C190.204 322 186.326 328.465 186.326 332.995C186.326 339.607 193.057 340.85 193.057 340.85C193.057 340.85 188.035 348.746 196.769 352.451C196.769 352.451 196.769 360.579 204.904 360.579C204.904 360.579 203.826 366.918 212.314 367.517C220.801 368.115 229.534 363.685 230.273 360.818C231.117 357.433 228.836 354.599 222.677 353.701C222.677 353.701 230.991 349.817 229.674 344.915C228.357 340.012 222.737 340.125 222.737 340.125C222.737 340.125 228.118 336.899 225.244 332.144C222.371 327.388 216.876 329.037 216.876 329.037C216.876 329.037 218.313 325.712 215.799 323.177C212.806 320.184 199.935 323.962 199.935 323.962L197.966 318.122Z" fill="#EAA58A"/>
<path d="M204.964 360.892C211.968 359.213 218.763 356.758 225.224 353.575" stroke="#A15842" stroke-width="4" stroke-miterlimit="10" stroke-linecap="round"/>
<path d="M196.749 352.411C206.46 349.748 215.732 345.686 224.273 340.352" stroke="#A15842" stroke-width="4" stroke-miterlimit="10" stroke-linecap="round"/>
<path d="M192.392 341.795C201.391 339.133 209.894 335.014 217.562 329.603" stroke="#A15842" stroke-width="4" stroke-miterlimit="10" stroke-linecap="round"/>
<path d="M471.026 191.643C459.545 175.06 428.33 181.665 428.33 181.665C429.088 172.559 431.562 146.326 411.834 131.912C392.105 117.498 367.075 125.087 357.956 136.461C354.244 141.117 352.429 147.383 351.371 154.221C357.424 155.239 366.304 153.157 366.304 153.157C378.443 166.812 389.318 168.981 389.318 168.981C397.812 160.487 412.712 160.766 415.133 173.637C417.647 187 396.302 193.006 396.302 193.006C396.302 193.006 394.307 217.018 404.949 225.692C408.216 228.281 412.078 230.012 416.184 230.727C424.166 232.317 432.952 231.246 440.974 233.029C448.043 234.553 454.806 237.251 460.982 241.011C463.419 238.863 465.646 236.489 467.634 233.92C474.631 225.047 482.999 208.937 471.026 191.643Z" fill="#A15842"/>
<path d="M378.968 148.288C374.977 151.614 370.321 153.609 364.96 154.939" stroke="#EAA58B" stroke-width="4" stroke-miterlimit="10" stroke-linecap="round"/>
<path d="M374.705 217.85C377.802 216.817 380.79 215.48 383.624 213.859" stroke="#A15842" stroke-width="4" stroke-miterlimit="10" stroke-linecap="round"/>
<path d="M397.12 179.59L403.187 175.799" stroke="#A15842" stroke-width="4" stroke-miterlimit="10" stroke-linecap="round"/>
<path d="M362.313 197.396C363.57 198.175 368.299 198.78 370.175 195.168" stroke="#A15842" stroke-width="4" stroke-miterlimit="10" stroke-linecap="round"/>
<path d="M374.671 180.328C375.928 180.328 376.946 179.31 376.946 178.054C376.946 176.797 375.928 175.779 374.671 175.779C373.415 175.779 372.397 176.797 372.397 178.054C372.397 179.31 373.415 180.328 374.671 180.328Z" fill="#30242A"/>
<path d="M355.814 177.315C357.071 177.315 358.089 176.297 358.089 175.04C358.089 173.784 357.071 172.766 355.814 172.766C354.558 172.766 353.539 173.784 353.539 175.04C353.539 176.297 354.558 177.315 355.814 177.315Z" fill="#30242A"/>
<path d="M362.22 183.827C361.767 185.257 361.375 186.814 361.634 187.333C361.991 187.99 362.532 188.529 363.191 188.882" stroke="#A15842" stroke-width="4" stroke-miterlimit="10" stroke-linecap="round"/>
<path d="M399.974 201.879C404.375 201.879 407.943 198.312 407.943 193.911C407.943 189.51 404.375 185.942 399.974 185.942C395.573 185.942 392.005 189.51 392.005 193.911C392.005 198.312 395.573 201.879 399.974 201.879Z" fill="#F5EBDD"/>
<path d="M361.64 176.319C363.018 169.234 358.965 162.484 352.586 161.242C346.207 160.001 339.918 164.739 338.54 171.825C337.161 178.911 341.215 185.661 347.594 186.902C353.972 188.143 360.261 183.405 361.64 176.319Z" stroke="#30242A" stroke-width="4" stroke-miterlimit="10" stroke-linecap="round"/>
<path d="M390.541 179.863C391.92 172.777 387.866 166.027 381.487 164.786C375.108 163.545 368.819 168.283 367.441 175.369C366.062 182.454 370.116 189.205 376.495 190.446C382.874 191.687 389.162 186.949 390.541 179.863Z" stroke="#30242A" stroke-width="4" stroke-miterlimit="10" stroke-linecap="round"/>
<path d="M362.187 175.247L366.783 175.739" stroke="#30242A" stroke-width="4" stroke-miterlimit="10" stroke-linecap="round"/>
<path d="M429.853 182.543L428.529 191.057" stroke="#30242A" stroke-width="4" stroke-miterlimit="10" stroke-linecap="round"/>
<path d="M333.611 301.706L340.05 320.444" stroke="#30242A" stroke-width="4" stroke-linecap="round" stroke-linejoin="round"/>
<path d="M367.627 344.396H350.699" stroke="#30242A" stroke-width="4" stroke-linecap="round" stroke-linejoin="round"/>
<path d="M380.971 296.372L386.305 322.386V346.398" stroke="#30242A" stroke-width="4" stroke-linecap="round" stroke-linejoin="round"/>
<path d="M345.491 236.76L355.622 259.682L343.615 258.351L386.305 322.386" stroke="#30242A" stroke-width="4" stroke-linecap="round" stroke-linejoin="round"/>
<path d="M444.194 234.033L426.999 258.351L443.01 257.014L384.303 309.043" stroke="#30242A" stroke-width="4" stroke-linecap="round" stroke-linejoin="round"/>
<path d="M453.133 315.575L440.342 297.708" stroke="#30242A" stroke-width="4" stroke-linecap="round" stroke-linejoin="round"/>
<path d="M467.933 381.425C460.969 379.104 448.471 374.621 440.934 370.117" stroke="#30242A" stroke-width="4" stroke-linecap="round" stroke-linejoin="round"/>
<path d="M275.836 215.914C283.062 215.914 288.919 210.057 288.919 202.831C288.919 195.605 283.062 189.747 275.836 189.747C268.61 189.747 262.752 195.605 262.752 202.831C262.752 210.057 268.61 215.914 275.836 215.914Z" fill="#FFB7D5"/>
<path d="M236.733 150.762L229.115 141.577C227.943 140.163 225.846 139.968 224.432 141.14L224.269 141.276C222.855 142.449 222.659 144.545 223.832 145.959L231.449 155.144C232.622 156.558 234.718 156.754 236.132 155.581L236.296 155.445C237.71 154.273 237.905 152.176 236.733 150.762Z" fill="#4756DF"/>
<path d="M250.434 161.924L242.771 152.678L105.037 266.885C103.836 267.882 103.08 269.315 102.935 270.869C102.791 272.424 103.269 273.972 104.266 275.173L104.419 275.359C104.912 275.954 105.517 276.445 106.2 276.806C106.883 277.166 107.63 277.389 108.399 277.461C109.168 277.532 109.944 277.452 110.682 277.224C111.42 276.995 112.105 276.624 112.7 276.131L155.762 240.412V365.747H167.781V230.435L250.434 161.924Z" fill="#3EC1F3"/>
<path d="M228.237 164.584L232.075 169.24C233.412 170.856 234.428 172.711 235.068 174.708" stroke="#4756DF" stroke-width="4" stroke-miterlimit="10"/>
<path d="M161.768 243.186C170.427 243.186 177.446 236.166 177.446 227.508C177.446 218.849 170.427 211.83 161.768 211.83C153.11 211.83 146.091 218.849 146.091 227.508C146.091 236.166 153.11 243.186 161.768 243.186Z" fill="#4756DF"/>
<path d="M161.768 233.534C165.097 233.534 167.795 230.836 167.795 227.508C167.795 224.18 165.097 221.482 161.768 221.482C158.44 221.482 155.742 224.18 155.742 227.508C155.742 230.836 158.44 233.534 161.768 233.534Z" fill="#3EC1F3"/>
<path d="M286.578 195.401L266.524 211.977" stroke="#A15842" stroke-width="4" stroke-miterlimit="10"/>
<path d="M260.597 160.247C256.38 159.752 252.516 157.651 249.808 154.381L244.487 147.949C242.606 145.684 239.904 144.259 236.973 143.986C234.042 143.713 231.123 144.614 228.856 146.492C227.734 147.422 226.807 148.564 226.126 149.853C225.446 151.141 225.026 152.552 224.891 154.002C224.756 155.453 224.908 156.917 225.338 158.309C225.768 159.701 226.469 160.995 227.399 162.116L232.72 168.568C235.417 171.829 236.757 176.001 236.465 180.222L235.135 199.671C234.476 209.187 236.891 218.664 242.026 226.703L243.729 229.364L307.537 176.437L305.249 174.289C298.304 167.755 289.443 163.625 279.973 162.509L260.597 160.247Z" fill="#3EC1F3"/>
<path d="M167.781 365.747H155.762L137.996 370.59C134.669 371.497 131.733 373.474 129.641 376.214C127.548 378.955 126.415 382.307 126.415 385.755H197.121C197.121 382.306 195.987 378.953 193.893 376.212C191.799 373.472 188.862 371.496 185.534 370.59L167.781 365.747Z" fill="#3EC1F3"/>
<path d="M295.431 167.025L237.037 215.289" stroke="#4756DF" stroke-width="4" stroke-miterlimit="10" stroke-linecap="round"/>
<path d="M155.469 364.37H167.781" stroke="#4756DF" stroke-width="4" stroke-miterlimit="10" stroke-linecap="round"/>
<path d="M128.75 377.441H194.387" stroke="#4756DF" stroke-width="4" stroke-miterlimit="10" stroke-linecap="round"/>
<path d="M583.599 557.416C582.269 546.109 582.934 520.726 597.608 501.384C612.281 482.041 592.286 490.076 586.3 495.397C576.722 503.911 568.288 512.073 560.951 539.424L583.599 557.416Z" fill="#30242A"/>
<path d="M406.422 677.484H328.113V674.923C328.115 671.313 329.55 667.851 332.103 665.299C334.657 662.747 338.119 661.314 341.729 661.314H406.828L406.422 677.484Z" fill="#A15842"/>
<path d="M597.448 602.72L580.932 677.484H550.242V672.828C550.242 669.826 551.432 666.946 553.552 664.82C555.671 662.694 558.547 661.496 561.55 661.487C561.55 661.487 546.211 649.986 536.872 638.645C536.872 638.645 520.862 658.154 498.18 654.815L496.537 662.797C495.683 666.94 493.427 670.662 490.15 673.337C486.873 676.012 482.775 677.476 478.545 677.484H404.16C371.169 677.484 354.939 672.448 354.007 653.664C353.979 652.948 354.095 652.233 354.35 651.563C354.604 650.892 354.992 650.28 355.489 649.763C355.986 649.247 356.582 648.835 357.242 648.555C357.902 648.274 358.612 648.13 359.329 648.13H380.095C380.951 648.131 381.797 647.94 382.569 647.57C383.342 647.201 384.021 646.662 384.558 645.995L393.398 635.027C396.018 631.781 399.515 629.355 403.473 628.038C407.432 626.721 411.685 626.568 415.727 627.597L433.507 632.14C433.507 632.14 465.009 586.87 493.544 555.428C520.815 525.409 572.112 522.17 592.32 561.268C598.816 574.063 600.631 588.728 597.448 602.72Z" fill="#A15842"/>
<path d="M411.497 677.484V674.923C411.497 673.135 411.849 671.365 412.534 669.713C413.218 668.062 414.221 666.561 415.485 665.298C416.75 664.034 418.251 663.031 419.903 662.348C421.555 661.664 423.325 661.313 425.113 661.314H434.179" stroke="#30242A" stroke-width="4" stroke-miterlimit="10"/>
<path d="M535.635 639.177C530.979 633.637 515.088 613.236 516.226 593.282C517.443 571.93 530.234 560.596 530.234 560.596" stroke="#30242A" stroke-width="4" stroke-miterlimit="10" stroke-linecap="round"/>
<path d="M502.218 626.626C502.218 626.626 501.366 642.41 499.657 654.197" stroke="#30242A" stroke-width="4" stroke-miterlimit="10" stroke-linecap="round"/>
<path d="M566.252 670.653V676.819" stroke="#30242A" stroke-width="4" stroke-miterlimit="10" stroke-linecap="round"/>
<path d="M558.915 670.653V676.819" stroke="#30242A" stroke-width="4" stroke-miterlimit="10" stroke-linecap="round"/>
<path d="M426.17 670.653V676.819" stroke="#30242A" stroke-width="4" stroke-miterlimit="10" stroke-linecap="round"/>
<path d="M418.834 670.653V676.819" stroke="#30242A" stroke-width="4" stroke-miterlimit="10" stroke-linecap="round"/>
<path d="M399.158 652.64C397.501 652.64 396.158 651.297 396.158 649.64C396.158 647.984 397.501 646.64 399.158 646.64C400.815 646.64 402.158 647.984 402.158 649.64C402.158 651.297 400.815 652.64 399.158 652.64Z" fill="#30242A"/>
<path d="M415.528 627.537V627.457L433.534 632.113L415.754 627.57L415.528 627.537Z" fill="#30242A"/>
<path d="M459.84 661.613C465.055 664.274 472.425 669.482 471.813 677.371H442.852L436.766 667.773C435.771 666.203 434.396 664.91 432.768 664.013C431.14 663.116 429.312 662.646 427.454 662.644H425.518L415.594 627.737L415.741 627.584L433.52 632.127L450.542 653.931C453.047 657.136 456.22 659.757 459.84 661.613Z" fill="#30242A"/>
<path d="M502.138 571.724C502.138 571.724 510.193 599.607 484.178 610.137C470.988 615.458 460.033 611.42 452.431 606.146C463.918 590.847 479.117 571.371 493.551 555.461C497.17 551.479 501.236 547.928 505.67 544.878C509.607 550.239 513.918 563.503 502.138 571.724Z" fill="#EAA58B"/>
<path d="M568.587 591.945C562.507 591.945 557.578 587.016 557.578 580.936C557.578 574.857 562.507 569.928 568.587 569.928C574.667 569.928 579.595 574.857 579.595 580.936C579.595 587.016 574.667 591.945 568.587 591.945Z" fill="#EAA58B"/>
<path d="M359.302 648.13H363.293C363.513 649.243 363.484 650.391 363.208 651.491C362.932 652.591 362.416 653.617 361.697 654.494C360.978 655.372 360.073 656.079 359.049 656.566C358.024 657.053 356.904 657.306 355.77 657.31C355.301 657.309 354.834 657.265 354.373 657.176C354.17 656.015 354.039 654.842 353.981 653.664C353.952 652.948 354.069 652.233 354.323 651.563C354.578 650.892 354.965 650.28 355.462 649.763C355.959 649.247 356.555 648.835 357.215 648.555C357.875 648.274 358.585 648.13 359.302 648.13Z" fill="#30242A"/>
<path d="M441.007 326.663C432.799 325.928 424.546 325.836 416.324 326.39C404.564 327.354 388.753 330.434 382.401 333.507C376.048 336.58 351.724 347.429 358.275 351.067C364.262 354.393 376.82 349.391 376.82 349.391C376.82 349.391 364.288 360.912 362.133 365.734C359.978 370.556 367.102 373.264 367.102 373.264C368.978 381.498 377.372 377.96 377.372 377.96C382.66 389.207 411.228 364.836 411.228 364.836C418.025 365.542 424.889 365.253 431.602 363.978C431.602 363.978 435.221 366.007 441.027 368.827L441.007 326.663Z" fill="#EAA58A"/>
<path d="M512.379 383.088C565.744 357.739 488.387 263.027 461.015 241.004L445.677 303.043L465.02 329.722C456.546 328.259 448.444 327.255 441.007 326.663V368.827C457.942 377.062 493.528 392.068 512.379 383.088Z" fill="#4756DF"/>
<path d="M374.266 350.09C379.002 346.172 386.864 339.84 392.73 336.022" stroke="#A15842" stroke-width="4" stroke-miterlimit="10" stroke-linecap="round"/>
<path d="M399.196 345.38C385.567 354.207 373.148 366 367.002 372.173" stroke="#A15842" stroke-width="4" stroke-miterlimit="10" stroke-linecap="round"/>
<path d="M405.242 355.364C395.93 361.756 385.121 371.448 378.064 378.099" stroke="#A15842" stroke-width="4" stroke-miterlimit="10" stroke-linecap="round"/>
<path d="M565.345 351.779C566.354 351.781 567.32 352.182 568.034 352.895C568.747 353.609 569.148 354.575 569.15 355.584V356.149C569.148 357.158 568.747 358.124 568.034 358.838C567.32 359.551 566.354 359.952 565.345 359.954H545.743V351.779H565.345ZM565.345 346.458H541.14C541.045 346.458 540.951 346.477 540.864 346.513C540.776 346.55 540.697 346.603 540.63 346.671C540.563 346.738 540.51 346.818 540.475 346.906C540.439 346.994 540.421 347.088 540.422 347.183V364.577C540.422 364.767 540.497 364.95 540.632 365.085C540.767 365.219 540.95 365.295 541.14 365.295H565.345C566.545 365.295 567.734 365.058 568.842 364.598C569.951 364.139 570.958 363.465 571.805 362.615C572.653 361.765 573.325 360.757 573.782 359.648C574.24 358.538 574.474 357.349 574.471 356.149V355.564C574.471 353.143 573.51 350.822 571.798 349.111C570.087 347.399 567.766 346.438 565.345 346.438V346.458Z" fill="#3EC1F3"/>
<path d="M536.078 343.591C516.257 343.591 507.097 327.794 507.097 327.794L520.401 385.755H551.716L565.019 327.794C561.93 332.664 557.653 336.669 552.59 339.432C547.528 342.196 541.846 343.627 536.078 343.591Z" fill="#3EC1F3"/>
<path d="M536.078 343.591C541.852 343.634 547.543 342.206 552.613 339.442C557.683 336.678 561.966 332.67 565.059 327.794H507.097C507.097 327.794 516.257 343.591 536.078 343.591Z" fill="#30242A"/>
</g>
</svg>