<svg width="1036" height="920" viewBox="0 0 1036 920" fill="none" xmlns="http://www.w3.org/2000/svg">
<g clip-path="url(#clip0_2_1177)">
<path d="M561.041 28.92H572.571C616.141 28.9306 657.924 46.2465 688.729 77.0594C719.535 107.872 736.841 149.659 736.841 193.23V506.69H396.681V193.23C396.681 171.648 400.932 150.278 409.193 130.34C417.453 110.401 429.561 92.2859 444.824 77.0276C460.086 61.7694 478.206 49.6674 498.147 41.413C518.087 33.1586 539.459 28.9134 561.041 28.92Z" fill="#FFB7D5"/>
<path d="M628.52 318V511.57H477.58V318H628.52ZM632.52 314H473.58V515.57H632.52V314Z" fill="#CA7358"/>
<path d="M632.52 313.99H473.58V355.66H632.52V313.99Z" fill="#CA7358"/>
<path d="M472.731 213.33V512.54H381.881V213.33H472.731ZM476.731 209.33H377.881V516.54H476.731V209.33Z" fill="#CA7358"/>
<path d="M753.29 152.76V511.57H633.37V152.76H753.29ZM757.29 148.76H629.37V515.57H757.29V148.76Z" fill="#CA7358"/>
<path d="M681.37 197.7H682.52C686.865 197.7 691.031 199.426 694.103 202.498C697.175 205.569 698.9 209.736 698.9 214.08V251H664.98V214.08C664.98 211.928 665.404 209.797 666.228 207.809C667.052 205.821 668.26 204.015 669.782 202.494C671.304 200.973 673.111 199.767 675.099 198.944C677.088 198.121 679.219 197.699 681.37 197.7Z" fill="#CA7358"/>
<path d="M661.11 226.77H702.78" stroke="#FFB7D5" stroke-width="4" stroke-linecap="round" stroke-linejoin="round"/>
<path d="M681.37 293.32H682.52C686.865 293.32 691.031 295.046 694.103 298.118C697.175 301.189 698.9 305.356 698.9 309.7V346.62H664.98V309.7C664.98 307.548 665.404 305.417 666.228 303.429C667.052 301.441 668.26 299.635 669.782 298.114C671.304 296.593 673.111 295.387 675.099 294.564C677.088 293.741 679.219 293.319 681.37 293.32Z" fill="#F5EBDD"/>
<path d="M661.11 322.39H702.78" stroke="#FFB7D5" stroke-width="4" stroke-linecap="round" stroke-linejoin="round"/>
<path d="M681.37 388.94H682.52C686.865 388.94 691.031 390.666 694.103 393.738C697.175 396.809 698.9 400.976 698.9 405.32V442.24H664.98V405.32C664.98 400.976 666.706 396.809 669.778 393.738C672.85 390.666 677.016 388.94 681.36 388.94H681.37Z" fill="#F5EBDD"/>
<path d="M661.11 418.01H702.78" stroke="#FFB7D5" stroke-width="4" stroke-linecap="round" stroke-linejoin="round"/>
<path d="M681.37 484.56H682.52C686.865 484.56 691.031 486.286 694.103 489.358C697.175 492.429 698.9 496.596 698.9 500.94V534.86H664.98V500.94C664.98 498.788 665.404 496.657 666.228 494.669C667.052 492.681 668.26 490.875 669.782 489.354C671.304 487.833 673.111 486.627 675.099 485.804C677.088 484.981 679.219 484.559 681.37 484.56Z" fill="#30242A"/>
<path d="M757.29 148.76H629.37V164.75H757.29V148.76Z" fill="#CA7358"/>
<path d="M476.731 201.58H377.881V217.57H476.731V201.58Z" fill="#CA7358"/>
<path d="M536.09 393.46H502.17V437.07H536.09V393.46Z" fill="#F5EBDD"/>
<path d="M498.29 412.84H539.97" stroke="#FFB7D5" stroke-width="4" stroke-linecap="round" stroke-linejoin="round"/>
<path d="M519.131 439.01V412.84" stroke="#FFB7D5" stroke-width="4" stroke-linecap="round" stroke-linejoin="round"/>
<path d="M536.09 472.22H502.17V515.83H536.09V472.22Z" fill="#CA7358"/>
<path d="M498.29 491.6H539.97" stroke="#FFB7D5" stroke-width="4" stroke-linecap="round" stroke-linejoin="round"/>
<path d="M519.131 517.77V491.6" stroke="#FFB7D5" stroke-width="4" stroke-linecap="round" stroke-linejoin="round"/>
<path d="M600.051 393.46H566.131V437.07H600.051V393.46Z" fill="#30242A"/>
<path d="M562.261 412.84H603.931" stroke="#FFB7D5" stroke-width="4" stroke-linecap="round" stroke-linejoin="round"/>
<path d="M583.091 439.01V412.84" stroke="#FFB7D5" stroke-width="4" stroke-linecap="round" stroke-linejoin="round"/>
<path d="M600.051 472.22H566.131V515.83H600.051V472.22Z" fill="#F5EBDD"/>
<path d="M562.261 491.6H603.931" stroke="#FFB7D5" stroke-width="4" stroke-linecap="round" stroke-linejoin="round"/>
<path d="M583.091 517.77V491.6" stroke="#FFB7D5" stroke-width="4" stroke-linecap="round" stroke-linejoin="round"/>
<path d="M496.11 147.31C510.028 147.31 521.31 136.028 521.31 122.11C521.31 108.192 510.028 96.91 496.11 96.91C482.193 96.91 470.91 108.192 470.91 122.11C470.91 136.028 482.193 147.31 496.11 147.31Z" fill="#F5EBDD"/>
<path d="M780.45 506.85H353.07V535.92H780.45V506.85Z" fill="#F5EBDD"/>
<path d="M573.511 0H560.041C453.781 0 367.641 86.14 367.641 192.4V535.92H765.951V192.4C765.921 86.14 679.771 0 573.511 0ZM552.231 506.85H396.681V264.57H552.231V506.85ZM552.231 235.5H396.681V193.39C396.682 151.329 412.813 110.87 441.75 80.3451C470.688 49.8205 510.229 31.5549 552.231 29.31V235.5ZM736.841 506.85H581.301V264.57H736.841V506.85ZM736.841 235.5H581.301V29.31C623.301 31.555 662.841 49.8209 691.777 80.3458C720.713 110.871 736.842 151.33 736.841 193.39V235.5Z" fill="#F5EBDD"/>
<path d="M39.6604 918.72C61.067 918.72 78.4204 901.367 78.4204 879.96C78.4204 858.553 61.067 841.2 39.6604 841.2C18.2538 841.2 0.900391 858.553 0.900391 879.96C0.900391 901.367 18.2538 918.72 39.6604 918.72Z" fill="#FFB7D5"/>
<path d="M904.091 564C904.097 565.07 903.879 566.129 903.451 567.11C900.451 573.94 887.631 574.95 874.881 569.36C864.201 564.69 856.941 556.87 856.631 550.44V635.72H904.121V564H904.091Z" fill="#FFBE21"/>
<path d="M885.831 544.65C873.081 539.06 860.281 540.07 857.261 546.9C856.775 548.021 856.559 549.24 856.631 550.46C856.941 556.89 864.201 564.71 874.881 569.38C887.631 574.97 900.431 573.96 903.451 567.13C903.879 566.149 904.097 565.09 904.091 564.02C904.121 557.51 896.771 549.43 885.831 544.65Z" fill="#A15842"/>
<path d="M940.5 592.13C940.19 598.56 932.93 606.38 922.25 611.06C909.49 616.64 896.7 615.64 893.67 608.8C893.247 607.821 893.029 606.766 893.03 605.7V635.7H940.51V592.13H940.5Z" fill="#FFBE21"/>
<path d="M939.87 588.57C936.87 581.74 924.05 580.73 911.29 586.32C900.36 591.11 893.01 599.18 893.03 605.7C893.029 606.766 893.247 607.821 893.67 608.8C896.67 615.64 909.49 616.64 922.25 611.06C932.93 606.38 940.19 598.56 940.5 592.13C940.572 590.91 940.356 589.691 939.87 588.57Z" fill="#A15842"/>
<path d="M894.42 635.74V606.67" stroke="#A15842" stroke-width="4" stroke-miterlimit="10" stroke-linecap="round"/>
<path d="M880.37 538.34V554.82" stroke="#30242A" stroke-width="4" stroke-linecap="round" stroke-linejoin="round"/>
<path d="M916.771 580.02V597.46" stroke="#30242A" stroke-width="4" stroke-linecap="round" stroke-linejoin="round"/>
<path d="M677.041 919C675.828 919.001 674.633 918.714 673.554 918.163C672.474 917.612 671.54 916.813 670.829 915.831C670.119 914.849 669.651 913.712 669.466 912.514C669.28 911.316 669.381 910.091 669.761 908.94L693.761 835.8C694.267 834.267 695.245 832.932 696.553 831.986C697.862 831.04 699.436 830.53 701.051 830.53H717.871C719.207 830.529 720.52 830.878 721.68 831.541C722.84 832.205 723.806 833.161 724.482 834.313C725.159 835.466 725.522 836.775 725.535 838.111C725.549 839.447 725.213 840.764 724.561 841.93L683.701 915.07C683.04 916.258 682.074 917.248 680.904 917.938C679.733 918.629 678.4 918.996 677.041 919Z" fill="#30242A"/>
<path d="M998.56 919C999.773 919.001 1000.97 918.714 1002.05 918.163C1003.13 917.612 1004.06 916.813 1004.77 915.831C1005.48 914.849 1005.95 913.712 1006.14 912.514C1006.32 911.316 1006.22 910.091 1005.84 908.94L981.84 835.8C981.334 834.268 980.358 832.935 979.052 831.989C977.745 831.043 976.174 830.533 974.56 830.53H957.73C956.395 830.532 955.084 830.883 953.926 831.547C952.768 832.211 951.803 833.167 951.127 834.318C950.451 835.469 950.088 836.777 950.073 838.112C950.058 839.448 950.391 840.763 951.04 841.93L991.9 915.07C992.563 916.256 993.529 917.245 994.699 917.936C995.869 918.626 997.202 918.994 998.56 919Z" fill="#30242A"/>
<path d="M1035.67 635.74H641.24V861.54H1035.67V635.74Z" fill="#A15842"/>
<path d="M1006.59 664.81H670.311V832.47H1006.59V664.81Z" fill="#FFB7D5"/>
<path d="M838.091 661.91V835.38" stroke="#A15842" stroke-width="4" stroke-miterlimit="10"/>
<path d="M877.721 758.8C883.332 758.8 887.88 754.251 887.88 748.64C887.88 743.029 883.332 738.48 877.721 738.48C872.109 738.48 867.561 743.029 867.561 748.64C867.561 754.251 872.109 758.8 877.721 758.8Z" fill="#30242A"/>
<path d="M799.181 758.8C804.792 758.8 809.341 754.251 809.341 748.64C809.341 743.029 804.792 738.48 799.181 738.48C793.569 738.48 789.021 743.029 789.021 748.64C789.021 754.251 793.569 758.8 799.181 758.8Z" fill="#30242A"/>
<path d="M156.82 825V841.47H299.28V825H156.82Z" fill="#A15842"/>
<path d="M322.75 910.48L287.46 698.73H309.04C311.353 698.73 313.571 697.811 315.206 696.176C316.841 694.541 317.76 692.323 317.76 690.01C317.76 687.697 316.841 685.479 315.206 683.844C313.571 682.209 311.353 681.29 309.04 681.29H147.23C144.917 681.29 142.699 682.209 141.064 683.844C139.429 685.479 138.51 687.697 138.51 690.01C138.51 692.323 139.429 694.541 141.064 696.176C142.699 697.811 144.917 698.73 147.23 698.73H168.64L133.35 910.48C133.176 911.528 133.232 912.602 133.515 913.627C133.797 914.651 134.299 915.602 134.986 916.412C135.674 917.223 136.529 917.875 137.493 918.321C138.457 918.768 139.507 919 140.57 919C142.241 919.001 143.861 918.431 145.162 917.383C146.463 916.335 147.366 914.873 147.72 913.24L194.48 698.73H261.62L308.37 913.24C308.728 914.873 309.633 916.334 310.935 917.381C312.238 918.429 313.859 919 315.53 919C316.593 919 317.643 918.768 318.607 918.321C319.571 917.875 320.426 917.223 321.114 916.412C321.801 915.602 322.303 914.651 322.585 913.627C322.868 912.602 322.924 911.528 322.75 910.48Z" fill="#FFBE21"/>
<path d="M309.041 698.73C311.353 698.73 313.571 697.811 315.207 696.176C316.842 694.541 317.761 692.323 317.761 690.01C317.761 687.697 316.842 685.479 315.207 683.844C313.571 682.209 311.353 681.29 309.041 681.29H147.231C144.918 681.29 142.7 682.209 141.065 683.844C139.429 685.479 138.511 687.697 138.511 690.01C138.511 692.323 139.429 694.541 141.065 696.176C142.7 697.811 144.918 698.73 147.231 698.73H168.641V699H194.461L194.521 698.73H261.661L261.721 699H287.541V698.73H309.041Z" fill="#A15842"/>
<path d="M318.631 824.72H421.631C422.911 802.85 427.481 773.84 431.271 734.65C434.641 699.9 437.541 670.73 437.351 646.65C437.031 606.51 334.351 655.09 334.351 655.09C334.351 663.86 336.121 672.28 336.171 680.44C336.291 701.64 325.551 719.68 317.881 745.25C306.251 784.02 315.941 824.72 315.941 824.72H318.631Z" fill="#4856DF"/>
<path d="M427.121 908.06H336.951C335.699 908.459 334.631 909.292 333.939 910.408C333.248 911.525 332.977 912.852 333.178 914.15C333.378 915.448 334.036 916.632 335.032 917.489C336.028 918.345 337.297 918.817 338.611 918.82L471.301 919C472.471 906.1 465.141 896.39 444.461 882C432.661 892.23 427.121 908.06 427.121 908.06Z" fill="#3EC1F3"/>
<path d="M439.81 878.87C435.527 876.101 431.827 872.52 428.92 868.33C421.92 858.06 420.44 844.23 421.59 824.72H332.33C332.503 839.307 333.554 853.87 335.48 868.33C337.76 884.7 340.84 895.96 343.31 907.8H338.62C338.053 907.799 337.49 907.887 336.95 908.06H427.12C427.12 908.06 432.66 892.23 444.46 882.06C442.98 881.013 441.43 879.95 439.81 878.87Z" fill="#A15842"/>
<path d="M422.67 807.2C417.15 796.211 413.387 784.425 411.52 772.27C404.99 726.9 408.86 703.64 390.45 683.27H336.58" stroke="#30242A" stroke-width="4" stroke-linecap="round" stroke-linejoin="round"/>
<path d="M456.26 828.59L456.36 828.83L535.88 791.59C529.69 773.07 523.22 748.43 512.59 716.18C502.63 686 496.04 663.45 489.8 646C481.074 652.286 470.312 655.083 459.629 653.842C448.946 652.601 439.113 647.411 432.059 639.292C425.006 631.173 421.242 620.71 421.507 609.958C421.772 599.207 426.046 588.942 433.49 581.18C391.04 562 240.27 549.49 240.27 549.49L154.98 536.89C150.48 544.33 146.65 556.12 144.57 569.89H174.37V601.76C174.354 608.204 171.785 614.379 167.224 618.932C162.664 623.485 156.484 626.045 150.04 626.05H148.34C147.94 626.05 147.54 626.05 147.15 626.05C155.29 656.05 176.23 681.32 218.97 681.32H391.47C409.88 701.67 406.01 724.93 412.54 770.32C417.88 807.45 443.19 834.82 443.19 834.82L456.26 828.59Z" fill="#4856DF"/>
<path d="M577.4 871.24L498.2 907.16C496.859 908.097 495.919 909.504 495.568 911.102C495.216 912.7 495.477 914.372 496.301 915.786C497.124 917.199 498.449 918.252 500.012 918.734C501.576 919.217 503.263 919.094 504.74 918.39L624.92 862.39C620.21 849.39 608.1 844.39 579.41 839.39L578.18 839.16C575.803 849.697 575.538 860.6 577.4 871.24Z" fill="#3EC1F3"/>
<path d="M578.18 839.12C569.92 837.54 563.44 834.79 558.09 830.63C548.23 822.95 542.19 810.45 535.88 791.63L456.36 828.87C463.1 844.36 472.56 860.65 481.57 874.87C489.44 887.25 496.95 898.04 502 905.27L499.13 906.66C498.805 906.819 498.493 907.006 498.2 907.22L577.4 871.3C575.525 860.628 575.79 849.689 578.18 839.12Z" fill="#A15842"/>
<path d="M464.621 654.15C473.663 654.156 482.476 651.303 489.801 646C477.391 611.12 466.631 596.59 434.091 581.45L433.491 581.18C427.641 587.279 423.713 594.964 422.195 603.277C420.677 611.591 421.636 620.167 424.953 627.94C428.27 635.713 433.799 642.34 440.851 646.996C447.904 651.652 456.17 654.133 464.621 654.13V654.15Z" fill="#3EC1F3"/>
<path d="M150.041 626.05C156.497 626.05 162.689 623.486 167.255 618.922C171.822 614.357 174.388 608.166 174.391 601.71V569.84H144.591C141.961 587.13 142.111 607.47 147.151 626.02C147.541 626.02 147.941 626.02 148.341 626.02L150.041 626.05Z" fill="#3EC1F3"/>
<path d="M390 683.71H419.07" stroke="#30242A" stroke-width="4" stroke-linecap="round" stroke-linejoin="round"/>
<path d="M515.041 375.53C515.041 375.53 462.711 315.45 400.881 293.66" stroke="#30242A" stroke-width="4" stroke-linecap="round" stroke-linejoin="round"/>
<path d="M350.9 317.13C349 312.54 355.34 305.34 365.9 299.26C351.6 295.7 341.44 289.07 342.46 283.5C343.48 277.93 355.32 275.31 369.96 277.03C362.26 267.63 358.87 258.65 362.27 255.03C366.6 250.4 380.34 256.24 392.95 268.03C403.95 278.33 410.45 289.79 409.07 295.62C408.3 301.56 398.17 309.98 384.25 315.74C368.24 322.38 353.33 323 350.9 317.13Z" fill="#4756DF"/>
<mask id="mask0_2_1177" style="mask-type:luminance" maskUnits="userSpaceOnUse" x="342" y="253" width="68" height="69">
<path d="M350.9 317.13C349 312.54 355.34 305.34 365.9 299.26C351.6 295.7 341.44 289.07 342.46 283.5C343.48 277.93 355.32 275.31 369.96 277.03C362.26 267.63 358.87 258.65 362.27 255.03C366.6 250.4 380.34 256.24 392.95 268.03C403.95 278.33 410.45 289.79 409.07 295.62C408.3 301.56 398.17 309.98 384.25 315.74C368.24 322.38 353.33 323 350.9 317.13Z" fill="white"/>
</mask>
<g mask="url(#mask0_2_1177)">
<path d="M409.59 314.28C419.675 314.28 427.85 306.105 427.85 296.02C427.85 285.935 419.675 277.76 409.59 277.76C399.505 277.76 391.33 285.935 391.33 296.02C391.33 306.105 399.505 314.28 409.59 314.28Z" fill="#30242A"/>
</g>
<path d="M448.064 319.537C453.081 317.674 450.8 299.069 442.97 277.981C435.14 256.894 424.726 241.309 419.709 243.171C414.692 245.034 416.972 263.639 424.802 284.727C432.632 305.815 443.047 321.4 448.064 319.537Z" fill="#30242A"/>
<path d="M447.17 323.2C447.17 323.2 454.93 344.52 451.05 366.81" stroke="#30242A" stroke-width="4" stroke-linecap="round" stroke-linejoin="round"/>
<path d="M305.661 238.28C289.121 256.89 271.541 261 271.541 261C260.171 248.6 239.541 248.6 236.391 266.17C232.961 285.64 257.041 291 257.041 291C257.041 291 263.111 316.12 253.801 328.53C245.581 339.53 235.021 341.34 213.381 343.76C241.581 391.41 270.381 387.65 279.971 387.65C302.971 387.65 309.451 360.96 311.261 347.2C306.024 345.374 300.681 343.868 295.261 342.69L292.161 324.09C292.161 324.09 306.631 329.25 319.041 322.02C331.451 314.79 334.551 301.34 330.411 280.67C327.961 268.42 328.051 253.27 325.951 239.73C317.761 241.12 305.661 238.28 305.661 238.28Z" fill="#A15842"/>
<path d="M477.7 342.1C473.31 324.53 438.94 315 438.94 315C438.94 315 441 275.56 432.15 274.3C425.37 273.3 418.58 289.81 412.77 321.79C406.27 357.53 409.86 423.54 409.86 423.54C409.86 423.54 402.67 417.01 392.47 407.92C391.451 409.98 389.887 411.722 387.948 412.956C386.008 414.19 383.768 414.87 381.47 414.92C382.92 416.758 383.829 418.965 384.094 421.291C384.358 423.618 383.968 425.972 382.967 428.089C381.966 430.206 380.395 432.002 378.429 433.274C376.463 434.546 374.181 435.244 371.84 435.29C373.29 437.128 374.199 439.335 374.464 441.661C374.728 443.988 374.338 446.342 373.337 448.459C372.336 450.576 370.765 452.372 368.799 453.644C366.833 454.916 364.551 455.614 362.21 455.66C363.732 457.59 364.655 459.923 364.866 462.372C365.077 464.821 364.565 467.278 363.395 469.439C362.225 471.6 360.448 473.372 358.282 474.534C356.117 475.697 353.658 476.199 351.21 475.98C372.44 489.8 401.3 505.92 420.53 505.92C521.31 505.88 480.61 353.73 477.7 342.1Z" fill="#A15842"/>
<path d="M363.671 468.79C364.671 466.673 365.061 464.32 364.797 461.993C364.534 459.667 363.628 457.46 362.181 455.62C364.522 455.574 366.804 454.876 368.77 453.604C370.736 452.332 372.307 450.536 373.308 448.419C374.309 446.302 374.699 443.948 374.434 441.621C374.17 439.295 373.261 437.088 371.811 435.25C374.152 435.204 376.434 434.506 378.4 433.234C380.366 431.962 381.937 430.166 382.938 428.049C383.939 425.932 384.329 423.578 384.064 421.251C383.8 418.925 382.891 416.718 381.441 414.88C383.739 414.83 385.979 414.15 387.918 412.916C389.858 411.682 391.422 409.94 392.441 407.88C374.861 392.22 348.351 369 334.241 358.57C327.411 353.52 318.711 349.78 311.241 347.2C309.481 361 303.041 387.65 280.041 387.65C270.491 387.65 241.651 391.41 213.451 343.76L204.391 344.76C173.191 348.23 158.991 365.02 150.631 385.08C145.461 397.49 141.321 420.23 141.321 420.23C138.113 441.078 136.462 462.136 136.381 483.23L176.951 520.78L285.871 523.47C294.591 510.61 310.591 486.86 315.871 477.75C322.651 466.12 323.621 456.43 323.621 456.43C323.621 456.43 335.261 465.53 351.211 475.92C353.767 476.144 356.331 475.581 358.558 474.307C360.785 473.032 362.569 471.107 363.671 468.79Z" fill="#FFBE21"/>
<path d="M317.04 215.53C304.64 200.03 270.52 189.69 243.64 209.33C216.76 228.97 218.83 261.02 219.86 273.43C219.86 273.43 190.92 264.12 170.24 285.83C164.255 292.037 159.896 299.626 157.552 307.923C155.207 316.221 154.949 324.969 156.8 333.39C156.8 333.39 118.72 332.32 111.31 367.51C107.1 387.51 114.96 400.82 123.68 409.06C128.794 413.859 134.769 417.649 141.29 420.23C141.29 420.23 145.43 397.49 150.6 385.08C158.96 365.02 173.16 348.23 204.36 344.76L213.42 343.76C235.06 341.34 245.62 339.5 253.84 328.53C263.14 316.12 257.04 291 257.04 291C257.04 291 232.93 285.64 236.36 266.19C239.47 248.62 260.14 248.62 271.51 261.02C271.51 261.02 289.09 256.89 305.63 238.28C305.63 238.28 317.73 241.12 325.98 239.73C324.57 230.41 322.09 221.86 317.04 215.53Z" fill="#30242A"/>
<path d="M479.85 355.91C476.92 354.56 475.17 351.16 475.67 344.66C475.67 344.66 469.61 352.26 463.16 348.88C456.71 345.5 459.29 338.22 459.29 338.22C459.29 338.22 453.47 342.1 448.63 337.22C444.24 332.83 447.63 325.59 447.63 325.59C447.63 325.59 441.19 328.22 438.91 323.65C436.04 317.93 439.53 311.94 443.31 307.35" stroke="#30242A" stroke-width="8" stroke-linecap="round" stroke-linejoin="round"/>
<path d="M154.96 334.23C156.056 339.411 158.031 344.366 160.8 348.88" stroke="black" stroke-width="4" stroke-miterlimit="10" stroke-linecap="round"/>
<path d="M407.92 424.79L410.35 455" stroke="#30242A" stroke-width="4" stroke-linecap="round" stroke-linejoin="round"/>
<path d="M320.221 423C326.551 434.4 326.471 448.08 325.651 456.19" stroke="#30242A" stroke-width="4" stroke-linecap="round" stroke-linejoin="round"/>
<path d="M263.04 455L232.03 455.97" stroke="#30242A" stroke-width="4" stroke-linecap="round" stroke-linejoin="round"/>
<path d="M291.631 326C287.297 324.299 283.069 322.339 278.971 320.13" stroke="#30242A" stroke-width="4" stroke-linecap="round" stroke-linejoin="round"/>
<path d="M299.38 354.7L297.69 343.99" stroke="#30242A" stroke-width="4" stroke-linecap="round" stroke-linejoin="round"/>
<path d="M217.771 273.82L219.921 291.7" stroke="black" stroke-width="4" stroke-miterlimit="10" stroke-linecap="round"/>
<path d="M320.22 295.1C318.03 296.52 310.77 296.99 307.29 290.66" stroke="#30242A" stroke-width="4" stroke-linecap="round" stroke-linejoin="round"/>
<path d="M262.071 274.74L252.381 269.9" stroke="#30242A" stroke-width="4" stroke-linecap="round" stroke-linejoin="round"/>
<path d="M306.81 270.45C305.26 272.56 297.95 276.65 292.45 271.98" stroke="#30242A" stroke-width="4" stroke-linecap="round" stroke-linejoin="round"/>
<path d="M330.36 267.4C329.203 267.646 328.008 267.661 326.845 267.445C325.681 267.229 324.572 266.785 323.58 266.14" stroke="#30242A" stroke-width="4" stroke-linecap="round" stroke-linejoin="round"/>
<path d="M317.251 271C318.361 273.51 319.431 276.28 319.201 277.34C318.859 278.629 318.091 279.764 317.021 280.56" stroke="#30242A" stroke-width="4" stroke-linecap="round" stroke-linejoin="round"/>
<path d="M256.76 286.45L243.53 298.93C242.814 299.605 242.283 300.453 241.987 301.392C241.692 302.331 241.642 303.33 241.843 304.294C242.043 305.258 242.487 306.154 243.133 306.898C243.778 307.641 244.604 308.206 245.53 308.54L261.17 314.09C262.1 314.419 263.098 314.503 264.07 314.336C265.041 314.168 265.954 313.754 266.719 313.133C267.485 312.511 268.078 311.704 268.443 310.788C268.807 309.872 268.93 308.877 268.8 307.9L266.39 289.9C266.249 288.854 265.823 287.866 265.159 287.046C264.495 286.225 263.618 285.602 262.624 285.246C261.63 284.89 260.558 284.814 259.523 285.027C258.489 285.239 257.533 285.731 256.76 286.45Z" fill="#F4E6D8"/>
<path d="M446.69 289.77C446.69 289.77 453.47 285.89 459.29 287.83C468.29 290.83 466.97 299.21 466.97 299.21C466.97 299.21 479.59 294.66 482.04 308C482.04 308 493.42 310.55 490.86 321.93C490.86 321.93 500.07 322.42 498.24 334.49C496.41 346.56 488.36 356.59 483.52 356.59C478.52 356.59 474.99 353.52 475.67 344.59C475.67 344.59 469.61 352.19 463.16 348.81C456.71 345.43 459.29 338.15 459.29 338.15C459.29 338.15 453.47 342.03 448.63 337.15C444.24 332.76 447.63 325.52 447.63 325.52C447.63 325.52 441.19 328.15 438.91 323.58C434.06 313.89 447.4 303.47 449.57 300.33L446.69 289.77Z" fill="#A15842"/>
<path d="M443.811 329.05C450.471 322.94 461.811 311.41 467.191 299.31" stroke="#30242A" stroke-width="4" stroke-linecap="round" stroke-linejoin="round"/>
<path d="M456.04 343C467.108 333.588 476.142 322.019 482.59 309" stroke="#30242A" stroke-width="4" stroke-linecap="round" stroke-linejoin="round"/>
<path d="M473.17 350.18C476.17 346.52 486.66 333.37 491.86 322.96" stroke="#30242A" stroke-width="4" stroke-linecap="round" stroke-linejoin="round"/>
<path d="M471.29 572.75H303.45L341.6 452.22C342.728 448.671 344.957 445.574 347.963 443.377C350.969 441.18 354.597 439.997 358.32 440H500.15C502.906 439.999 505.623 440.647 508.081 441.893C510.539 443.139 512.669 444.946 514.298 447.169C515.927 449.392 517.008 451.968 517.455 454.687C517.902 457.406 517.702 460.193 516.87 462.82L485.32 562.49C484.372 565.467 482.502 568.066 479.98 569.91C477.458 571.754 474.415 572.749 471.29 572.75Z" fill="#30242A"/>
<path d="M206.04 559.18C205.545 560.741 205.425 562.397 205.69 564.014C205.954 565.63 206.596 567.162 207.564 568.483C208.531 569.805 209.796 570.88 211.257 571.622C212.718 572.363 214.332 572.75 215.97 572.75H471.29C474.412 572.743 477.451 571.743 479.968 569.895C482.485 568.047 484.349 565.447 485.29 562.47L486.29 559.18H206.04Z" fill="#30242A"/>
<path d="M445.58 496C441.68 490.66 423.95 504.76 422.65 505.93C421.97 504.76 412.75 490.66 405.98 496C400.11 500.63 412.98 521.3 416.45 526.57C416.594 526.73 416.769 526.859 416.966 526.946C417.162 527.034 417.375 527.08 417.59 527.08C417.805 527.08 418.018 527.034 418.215 526.946C418.411 526.859 418.587 526.73 418.73 526.57C425.04 521.25 448.97 500.58 445.58 496Z" fill="#FFBE21"/>
<path d="M429.38 492.226C430.789 487.701 430.73 483.66 429.249 483.198C427.767 482.737 425.424 486.03 424.014 490.554C422.605 495.079 422.664 499.12 424.146 499.582C425.627 500.043 427.971 496.75 429.38 492.226Z" fill="#FFBE21"/>
<path d="M109.87 463.47C112.048 464.31 114.417 464.528 116.713 464.101C119.008 463.673 121.139 462.617 122.87 461.05C123.075 463.385 123.929 465.616 125.336 467.492C126.742 469.367 128.645 470.812 130.829 471.662C133.014 472.513 135.392 472.736 137.697 472.307C140.001 471.877 142.139 470.811 143.87 469.23C144.08 471.562 144.938 473.79 146.345 475.661C147.753 477.533 149.655 478.974 151.838 479.823C154.02 480.673 156.397 480.896 158.699 480.467C161.001 480.039 163.139 478.977 164.87 477.4C165.03 479.241 165.595 481.025 166.524 482.622C167.452 484.22 168.722 485.594 170.243 486.644C171.763 487.695 173.497 488.397 175.32 488.701C177.143 489.004 179.011 488.901 180.79 488.4L195.91 447.79C201.733 432.201 204.494 415.635 204.04 399L202.51 345C202.51 345 167.62 347.9 147.27 373.1C136.83 386.03 116.34 420.19 103.21 457.33C104.59 460.133 106.964 462.322 109.87 463.47Z" fill="#FFBE21"/>
<path d="M172.861 488C170.671 487.156 168.761 485.716 167.347 483.843C165.933 481.969 165.072 479.738 164.861 477.4C163.129 478.977 160.992 480.039 158.69 480.467C156.387 480.896 154.011 480.673 151.829 479.823C149.646 478.974 147.744 477.533 146.336 475.661C144.929 473.79 144.071 471.562 143.861 469.23C142.13 470.811 139.992 471.877 137.687 472.307C135.383 472.736 133.004 472.513 130.82 471.662C128.636 470.812 126.733 469.367 125.327 467.492C123.92 465.616 123.066 463.385 122.861 461.05C121.421 462.361 119.697 463.32 117.824 463.851C115.951 464.383 113.98 464.472 112.067 464.113C110.153 463.753 108.349 462.954 106.797 461.779C105.244 460.604 103.986 459.084 103.121 457.34C91.7408 489.53 85.8808 523.97 96.9008 548.76C120.621 602.15 191.811 583.36 208.611 578.42C225.411 573.48 258.051 556.67 279.801 559.64C301.551 562.61 326.261 573.48 330.221 559.64C330.221 559.64 343.531 559.3 339.341 546.64C339.341 546.64 346.031 545.81 347.021 540.87C349.021 530.98 325.271 522.09 325.271 522.09C325.271 522.09 344.061 525.09 348.011 521.09C353.011 516.09 348.151 508.02 317.461 500.58C283.751 492.42 239.261 497.36 173.021 509.22L180.771 488.39C178.162 489.123 175.385 488.986 172.861 488Z" fill="#A15842"/>
<path d="M196.17 442.4L174.04 507" stroke="#30242A" stroke-width="4" stroke-linecap="round" stroke-linejoin="round"/>
<path d="M331.24 522.8C320.5 518.72 302.62 512.46 288.74 510.2" stroke="#30242A" stroke-width="4" stroke-linecap="round" stroke-linejoin="round"/>
<path d="M339.62 546.12C325.82 539.91 299.46 528.64 285.28 526.52" stroke="#30242A" stroke-width="4" stroke-linecap="round" stroke-linejoin="round"/>
<path d="M173.181 507.14C165.741 508.34 154.061 510.33 142.391 512.66" stroke="#30242A" stroke-width="4" stroke-linecap="round" stroke-linejoin="round"/>
<path d="M329.81 561C319.46 555.73 297.65 545.25 282.32 542.33" stroke="#30242A" stroke-width="4" stroke-linecap="round" stroke-linejoin="round"/>
<path d="M793.041 433.4C793.041 433.4 785.181 451.08 764.561 451.08C743.941 451.08 736.041 433.4 736.041 433.4C736.041 433.4 678.041 566 735.041 635.74H793.971C850.941 566 793.041 433.4 793.041 433.4Z" fill="#3EC1F3"/>
<path d="M764.51 451.08C785.13 451.08 792.99 433.4 792.99 433.4H735.99C735.99 433.4 743.88 451.08 764.51 451.08Z" fill="#30242A"/>
<path d="M817.78 551.45C785.72 552.02 747.78 563.6 718.58 604.45" stroke="#F5EBDD" stroke-width="4" stroke-linecap="round" stroke-linejoin="round"/>
<path d="M713.45 519C734.97 513.75 775.72 508.75 815.22 518.15" stroke="#F5EBDD" stroke-width="4" stroke-linecap="round" stroke-linejoin="round"/>
<path d="M815.04 585.49C800.7 585.66 774.19 601.91 777.11 634.66" stroke="#F5EBDD" stroke-width="4" stroke-linecap="round" stroke-linejoin="round"/>
<path d="M760.901 445.2C760.301 430.95 756.511 374.32 734.011 341.1" stroke="#30242A" stroke-width="4" stroke-miterlimit="10" stroke-linecap="round"/>
<path d="M756.211 401.655C759.088 396.779 743.84 382.455 722.154 369.661C700.468 356.866 680.557 350.447 677.68 355.323C674.804 360.198 690.051 374.522 711.737 387.317C733.423 400.111 753.335 406.53 756.211 401.655Z" fill="#30242A"/>
<path d="M747.79 260.331C752.012 257.924 749.842 246.164 742.943 234.063C736.044 221.963 727.029 214.106 722.807 216.513C718.585 218.92 720.755 230.681 727.654 242.781C734.553 254.881 743.568 262.738 747.79 260.331Z" fill="#30242A"/>
<path d="M673.52 311.63C675.79 306.58 686.47 306.21 699.45 310.08C691.45 295.77 689 282.46 694.29 279.03C699.58 275.6 710.76 283.19 720.57 296.36C722.3 282.93 726.98 273.36 732.57 273.3C739.63 273.3 745.41 288.87 745.48 308.13C745.523 313.638 745.034 319.136 744.02 324.55C740.942 323.14 737.56 322.522 734.182 322.751C730.804 322.981 727.537 324.051 724.677 325.864C721.818 327.677 719.457 330.176 717.809 333.134C716.161 336.092 715.278 339.414 715.24 342.8C710.063 341.53 705.015 339.783 700.16 337.58C682.53 329.69 670.63 318.08 673.52 311.63Z" fill="#4756DF"/>
<path d="M724.45 326C727.319 324.135 730.614 323.026 734.027 322.776C737.439 322.526 740.86 323.143 743.97 324.57C742.25 333.52 739.14 340.16 735.4 342.32C731.84 344.91 724.3 345.01 715.19 342.82C715.228 339.47 716.093 336.182 717.708 333.247C719.324 330.313 721.64 327.823 724.45 326Z" fill="#30242A"/>
<path d="M768.4 444.34C771.16 428.6 785.53 351.43 808.53 307.77" stroke="#30242A" stroke-width="4" stroke-miterlimit="10" stroke-linecap="round"/>
<path d="M886.162 414.717C887.816 409.61 865.723 397.879 836.816 388.514C807.908 379.149 783.132 375.697 781.478 380.804C779.824 385.911 801.917 397.643 830.824 407.008C859.732 416.372 884.508 419.824 886.162 414.717Z" fill="#30242A"/>
<path d="M804.2 240.12C809.72 239.62 815.28 248.75 818.27 261.96C826.79 247.96 837.21 239.3 842.8 242.23C848.39 245.16 847.25 258.62 840.58 273.63C853.14 268.56 863.81 267.92 866.58 272.74C870.06 278.88 859.31 291.57 842.58 301.07C837.809 303.805 832.786 306.075 827.58 307.85C827.295 304.48 826.174 301.234 824.318 298.407C822.461 295.579 819.929 293.259 816.95 291.658C813.971 290.056 810.64 289.223 807.257 289.234C803.875 289.245 800.549 290.099 797.58 291.72C796.152 286.581 795.198 281.323 794.73 276.01C792.88 256.83 797.17 240.76 804.2 240.12Z" fill="#4756DF"/>
<path d="M816.671 291.54C819.703 293.127 822.286 295.453 824.179 298.305C826.073 301.156 827.215 304.439 827.501 307.85C818.851 310.74 811.501 311.29 807.821 309.09C803.821 307.26 800.031 300.73 797.471 291.72C800.408 290.108 803.698 289.248 807.048 289.216C810.398 289.185 813.704 289.983 816.671 291.54Z" fill="#30242A"/>
<path d="M863.821 331.67V331.75C859.117 333.689 855.312 337.321 853.154 341.928C850.996 346.535 850.644 351.783 852.165 356.637C853.687 361.492 856.972 365.6 861.373 368.151C865.774 370.703 870.972 371.512 875.941 370.42V370.5C849.591 378.75 825.511 376.75 822.151 366.02C818.791 355.29 837.471 339.92 863.821 331.67Z" fill="#4756DF"/>
<path d="M857.55 365.3C859.861 364.374 861.737 362.609 862.802 360.359C863.866 358.108 864.041 355.538 863.291 353.165C862.541 350.791 860.922 348.788 858.757 347.557C856.593 346.327 854.044 345.96 851.62 346.53C852.285 343.252 853.747 340.188 855.879 337.609C858.01 335.031 860.745 333.019 863.84 331.75L875.96 370.42C872.707 371.139 869.327 371.048 866.117 370.155C862.907 369.263 859.965 367.595 857.55 365.3Z" fill="#FFB7D5"/>
<path d="M863.25 353.2C863.993 355.564 863.819 358.121 862.763 360.363C861.707 362.604 859.846 364.367 857.551 365.3C855.054 362.929 853.201 359.963 852.164 356.68C851.127 353.397 850.94 349.905 851.62 346.53C854.043 345.976 856.585 346.354 858.74 347.59C860.895 348.827 862.506 350.83 863.25 353.2Z" fill="#30242A"/>
</g>
<defs>
<clipPath id="clip0_2_1177">
<rect width="1034.77" height="919.02" fill="white" transform="translate(0.900391)"/>
</clipPath>
</defs>
</svg>
