<svg width="1128" height="902" viewBox="0 0 1128 902" fill="none" xmlns="http://www.w3.org/2000/svg">
<path d="M203.38 483.57H178.82V901H203.38V483.57Z" fill="#FFBE21"/>
<path d="M203.39 489.31H178.82" stroke="#A15842" stroke-width="4" stroke-miterlimit="10"/>
<path d="M67.3705 817.24C69.8583 810.105 74.5045 803.921 80.6647 799.545C86.825 795.169 94.1941 792.818 101.75 792.818C109.307 792.818 116.676 795.169 122.836 799.545C128.996 803.921 133.643 810.105 136.13 817.24C138.505 810.428 142.849 804.475 148.612 800.136C154.376 795.798 161.298 793.268 168.5 792.87C165.285 787.139 161.456 781.774 157.08 776.87L143.86 762C139.751 757.38 137.162 751.608 136.446 745.466C135.731 739.324 136.923 733.111 139.86 727.67L151.08 706.82C147.93 709.99 129.72 727.04 102.08 727.04C74.4405 727.04 56.2305 709.99 53.0805 706.82H53.0305L64.2605 727.67C67.1852 733.122 68.3588 739.343 67.6216 745.486C66.8844 751.628 64.2721 757.395 60.1405 762L46.9305 776.81C42.5473 781.714 38.7083 787.079 35.4805 792.81C42.6059 793.306 49.4282 795.887 55.0984 800.231C60.7685 804.574 65.0362 810.489 67.3705 817.24Z" fill="#8B4483"/>
<path d="M170.511 838.31C162.952 838.311 155.581 840.665 149.421 845.044C143.26 849.424 138.616 855.612 136.131 862.75C133.647 855.61 129.003 849.421 122.842 845.041C116.681 840.661 109.31 838.307 101.751 838.307C94.1915 838.307 86.8198 840.661 80.659 845.041C74.4981 849.421 69.8538 855.61 67.3706 862.75C64.3637 854.123 58.2251 846.941 50.1718 842.627C42.1184 838.313 32.7382 837.183 23.8906 839.46C24.3986 862.537 33.6986 884.549 49.8906 901H154.081C170.24 884.584 179.537 862.628 180.081 839.6C176.963 838.745 173.744 838.311 170.511 838.31Z" fill="#8B4483"/>
<path d="M102.001 727.08C129.641 727.08 147.851 710.03 151.001 706.86H53.001C56.151 710 74.361 727.08 102.001 727.08Z" fill="#30242A"/>
<path d="M67.3704 862.75C69.8536 855.61 74.4979 849.421 80.6587 845.041C86.8196 840.661 94.1912 838.307 101.75 838.307C109.31 838.307 116.681 840.661 122.842 845.041C129.003 849.421 133.647 855.61 136.13 862.75C139.162 854.032 145.393 846.79 153.562 842.492C161.731 838.195 171.228 837.161 180.13 839.6C180.541 823.262 176.53 807.116 168.52 792.87C161.318 793.268 154.396 795.798 148.632 800.136C142.869 804.475 138.525 810.428 136.15 817.24C133.663 810.105 129.016 803.921 122.856 799.545C116.696 795.169 109.327 792.818 101.77 792.818C94.2141 792.818 86.8449 795.169 80.6846 799.545C74.5244 803.921 69.8782 810.105 67.3904 817.24C65.0417 810.506 60.7678 804.61 55.0988 800.283C49.4298 795.956 42.6152 793.389 35.5004 792.9C27.5267 807.098 23.5232 823.181 23.9104 839.46C32.758 837.183 42.1382 838.313 50.1915 842.627C58.2449 846.941 64.3835 854.123 67.3904 862.75H67.3704Z" fill="#E190D5"/>
<path d="M109.261 724.22C111.261 711.98 120.351 663.46 143.211 637.09" stroke="#30242A" stroke-width="4" stroke-miterlimit="10" stroke-linecap="round"/>
<path d="M98.7105 724.57C98.5605 710.67 97.1305 642.42 83.5605 601.7" stroke="#30242A" stroke-width="4" stroke-miterlimit="10" stroke-linecap="round"/>
<path d="M158.856 676.814C178.9 667.995 193.54 657.19 191.556 652.681C189.572 648.172 171.715 651.666 151.671 660.485C131.627 669.305 116.987 680.11 118.971 684.619C120.956 689.128 138.812 685.634 158.856 676.814Z" fill="#30242A"/>
<path d="M158.845 552.749C166.051 543.007 169.139 533.073 165.742 530.56C162.345 528.048 153.75 533.908 146.544 543.65C139.339 553.392 136.251 563.326 139.647 565.838C143.044 568.351 151.639 562.49 158.845 552.749Z" fill="#30242A"/>
<path d="M50.3255 683.74C76.4552 679.788 97.0717 672.844 96.3739 668.23C95.676 663.615 73.928 663.078 47.7983 667.03C21.6686 670.982 1.05205 677.926 1.7499 682.54C2.44776 687.155 24.1958 687.692 50.3255 683.74Z" fill="#30242A"/>
<path d="M32.0708 615.58V615.65C35.9316 617.809 38.8435 621.336 40.2324 625.536C41.6213 629.735 41.3864 634.303 39.5741 638.338C37.7618 642.373 34.5035 645.583 30.4417 647.334C26.3798 649.086 21.8092 649.252 17.6309 647.8V647.86C39.5309 657.7 60.5408 658.45 64.5408 649.54C68.5408 640.63 53.9808 625.42 32.0708 615.58Z" fill="#3EC1F3"/>
<path d="M96.8205 544.26C92.1605 543.05 86.1005 550.1 81.6705 561.01C76.3405 547.76 68.6105 538.89 63.4005 540.61C58.1905 542.33 57.2605 554.05 60.8705 567.87C50.8105 561.75 41.7505 559.69 38.7205 563.44C34.8605 568.22 42.3005 580.62 55.3405 591.15C59.0504 594.172 63.042 596.831 67.2605 599.09C67.9796 596.234 69.4008 593.602 71.3952 591.435C73.3896 589.267 75.8939 587.633 78.6806 586.679C81.4673 585.725 84.4482 585.483 87.3524 585.974C90.2566 586.465 92.9921 587.673 95.3105 589.49C97.2649 585.283 98.825 580.905 99.9705 576.41C104.18 560.2 102.77 545.8 96.8205 544.26Z" fill="#3EC1F3"/>
<path d="M198.48 617.87C197.04 613.27 187.851 611.87 176.251 613.87C184.671 602.34 188.111 591.09 183.901 587.58C179.691 584.07 169.24 589.48 159.42 599.85C159.3 588.07 156.251 579.29 151.471 578.7C145.381 577.95 138.78 590.83 136.74 607.45C136.136 612.202 135.989 617 136.3 621.78C139.106 620.876 142.093 620.688 144.99 621.232C147.887 621.777 150.602 623.037 152.887 624.899C155.173 626.76 156.957 629.163 158.077 631.89C159.197 634.616 159.618 637.579 159.3 640.51C163.906 639.927 168.448 638.923 172.871 637.51C188.841 632.54 200.31 623.73 198.48 617.87Z" fill="#3EC1F3"/>
<path d="M153.021 625C150.734 623.092 148.002 621.794 145.078 621.226C142.155 620.658 139.136 620.838 136.301 621.75C136.871 629.66 138.871 635.75 141.881 637.96C144.691 640.56 151.191 641.43 159.281 640.48C159.596 637.583 159.189 634.654 158.097 631.953C157.005 629.252 155.261 626.863 153.021 625Z" fill="#30242A"/>
<path d="M78.8607 586.62C76.0332 587.553 73.4872 589.185 71.4592 591.365C69.4313 593.545 67.9871 596.203 67.2607 599.09C74.2607 602.79 80.4807 604.29 83.9807 602.93C87.6707 601.93 91.8408 596.86 95.3108 589.49C93.0187 587.691 90.317 586.487 87.4466 585.987C84.5763 585.486 81.6265 585.703 78.8607 586.62Z" fill="#30242A"/>
<path d="M34.0206 645.27C32.1401 644.221 30.722 642.505 30.0471 640.46C29.3723 638.416 29.4898 636.192 30.3765 634.23C31.2632 632.268 32.8543 630.711 34.8349 629.866C36.8154 629.022 39.0409 628.952 41.0706 629.67C40.8358 626.777 39.8918 623.986 38.3221 621.544C36.7524 619.102 34.6053 617.085 32.0706 615.67L17.6006 647.8C20.3355 648.755 23.263 649.024 26.1261 648.583C28.9891 648.141 31.7 647.004 34.0206 645.27Z" fill="#F5EBDD"/>
<path d="M30.3404 634.24C29.4682 636.202 29.3623 638.419 30.0434 640.455C30.7245 642.491 32.1433 644.198 34.0204 645.24C36.4239 643.453 38.3324 641.083 39.5659 638.353C40.7994 635.624 41.3172 632.625 41.0704 629.64C39.0313 628.914 36.7933 628.984 34.8039 629.837C32.8144 630.69 31.2203 632.262 30.3404 634.24Z" fill="#4756DF"/>
<path d="M691.201 650.38H436.871L441.171 633.32H552.811L595.391 466.8C601.192 444.118 614.378 424.012 632.871 409.653C651.363 395.295 674.109 387.501 697.521 387.5C754.811 387.5 796.731 441.5 782.521 497L756.211 599.89C752.518 614.329 744.125 627.128 732.354 636.27C720.584 645.412 706.105 650.376 691.201 650.38Z" fill="#FFB7D5"/>
<path d="M438.841 807.97V826.03H600.931V807.97H438.841Z" fill="#A15842"/>
<path d="M627.631 891.3L585.471 640.35H454.291L412.131 891.3C411.932 892.494 411.995 893.716 412.317 894.883C412.638 896.05 413.21 897.132 413.993 898.055C414.775 898.979 415.749 899.72 416.847 900.229C417.945 900.737 419.141 901 420.351 901C422.252 900.998 424.096 900.347 425.576 899.154C427.057 897.961 428.085 896.297 428.491 894.44L483.711 640.35H556.091L611.291 894.44C611.695 896.298 612.723 897.962 614.204 899.156C615.685 900.349 617.529 901 619.431 901C620.639 900.998 621.833 900.732 622.929 900.223C624.024 899.713 624.996 898.971 625.776 898.048C626.556 897.125 627.126 896.043 627.446 894.878C627.767 893.713 627.83 892.492 627.631 891.3Z" fill="#A15842"/>
<path d="M573.121 807.97V826.03H735.211V807.97H573.121Z" fill="#FFBE21"/>
<path d="M761.911 891.3L719.711 640.35H588.581L546.421 891.3C546.222 892.494 546.285 893.716 546.607 894.883C546.928 896.05 547.5 897.132 548.283 898.055C549.065 898.979 550.039 899.72 551.137 900.229C552.235 900.737 553.431 901 554.641 901C556.542 901 558.385 900.349 559.864 899.155C561.343 897.962 562.369 896.298 562.771 894.44L617.971 640.35H690.361L745.561 894.44C745.965 896.3 746.995 897.965 748.478 899.159C749.961 900.353 751.807 901.002 753.711 901C754.919 900.998 756.113 900.732 757.209 900.223C758.304 899.713 759.276 898.971 760.056 898.048C760.836 897.125 761.406 896.043 761.726 894.878C762.047 893.713 762.11 892.492 761.911 891.3Z" fill="#FFBE21"/>
<path d="M629.421 599.89L645.501 537H538.931C518.033 537.001 497.729 543.957 481.222 556.773C464.714 569.588 452.942 587.534 447.761 607.78L436.871 650.38H564.401C579.307 650.378 593.788 645.415 605.56 636.273C617.333 627.131 625.728 614.331 629.421 599.89Z" fill="#FFB7D5"/>
<path d="M443.801 631.65H579.101" stroke="#A15842" stroke-width="4" stroke-linecap="round" stroke-linejoin="round"/>
<path d="M553.291 631.02L577.001 538.32" stroke="#A15842" stroke-width="4" stroke-linecap="round" stroke-linejoin="round"/>
<path d="M770.711 534.85H706.711" stroke="#A15842" stroke-width="4" stroke-linecap="round" stroke-linejoin="round"/>
<path d="M782.711 489.85H700.711" stroke="#A15842" stroke-width="4" stroke-linecap="round" stroke-linejoin="round"/>
<path d="M484.021 469.53C484.021 469.53 403.791 491.38 369.711 508.43C313.521 536.52 313.711 555.06 279.451 658.85C247.821 754.77 244.341 801.26 200.711 803.1C167.401 804.5 156.481 815.4 151.081 830.34L282.891 892.88C284.402 893.595 286.129 893.705 287.718 893.189C289.308 892.672 290.64 891.567 291.441 890.1C292.257 888.601 292.456 886.842 291.995 885.198C291.533 883.554 290.448 882.156 288.971 881.3L286.201 879.7C298.451 864.86 322.081 833.24 345.641 785.21L360.641 792.21C360.641 792.21 384.871 760.72 388.711 725C393.711 678.87 390.711 647.78 411.781 629.73L657.481 469.49L484.021 469.53Z" fill="#FF7235"/>
<path d="M187.761 810.51C190.371 805.08 204.871 772 213.211 776C224.061 781.2 195.901 814.41 195.901 814.41L187.761 810.51Z" fill="#30242A"/>
<path d="M151.07 830.81L282.88 893.34C284.406 894.068 286.155 894.177 287.759 893.644C289.364 893.11 290.7 891.976 291.486 890.48C292.273 888.983 292.449 887.24 291.978 885.616C291.507 883.992 290.426 882.614 288.96 881.77L286.19 880.17L286.47 879.83L195.87 837.06C197.228 833.299 198.18 829.403 198.71 825.44C212.27 827.79 239.71 830.32 239.85 819.01C240 808.47 210.03 812.7 199.08 815.68C198.844 811.629 198.057 807.629 196.74 803.79C166.53 805.87 156.25 816.47 151.07 830.81Z" fill="#30242A"/>
<path d="M369.71 508.43C363.4 511.58 357.81 514.61 352.8 517.65L345.11 542.28L374.71 521.43L402 543.19L391.94 513.36L422.85 499.2L398.96 496.2C389 499.754 379.236 503.836 369.71 508.43Z" fill="#FFB7D5"/>
<path d="M456.921 495.61L454.921 508.64L467.961 503.63L456.921 495.61Z" fill="#FFB7D5"/>
<path d="M381.711 560.79L362.661 585.86L335.581 572.83L351.621 599.9L326.551 620.96L358.641 616.95L369.681 654.06L380.711 616.95L415.811 606.92L381.711 592.88V560.79Z" fill="#FFB7D5"/>
<path d="M274.611 752.21L276.951 745.53L308.951 743.83L282.951 726.13L294.531 698.4L268.341 715.86L263.341 710.46C259.341 723.63 255.801 735.36 252.341 745.67H252.501C252.881 744.54 253.261 743.4 253.641 742.24L274.611 752.21Z" fill="#FFB7D5"/>
<path d="M274.61 752.21L253.61 742.28C253.23 743.44 252.85 744.58 252.47 745.71C239.78 783.51 228.22 802.41 200.73 803.57C199.38 803.57 198.08 803.7 196.8 803.79C198.117 807.629 198.904 811.629 199.14 815.68C210.14 812.68 240.06 808.47 239.91 819.01C239.75 830.32 212.33 827.79 198.77 825.44C198.23 829.404 197.268 833.3 195.9 837.06L286.5 879.83C298.82 864.83 322.25 833.37 345.63 785.74L274.61 752.21Z" fill="#EAA58B"/>
<path d="M354.631 676.12L351.631 703.2L323.551 702.2L347.621 720.26L338.621 752.35L362.711 731.28L384.361 745.72C384.961 743.807 385.511 741.87 386.011 739.91L377.711 719.24L390.571 705.15C390.781 702.53 390.981 699.95 391.171 697.44L368.711 701.19L354.631 676.12Z" fill="#FFB7D5"/>
<path d="M292.081 619.83C289.551 627.65 286.831 636.14 283.831 645.37L310.511 647L292.081 619.83Z" fill="#FFB7D5"/>
<path d="M386.291 864.13C386.711 858.13 388.021 822.03 397.241 822.68C409.241 823.52 395.291 864.76 395.291 864.76L386.291 864.13Z" fill="#30242A"/>
<path d="M608.381 471C608.381 471 508.091 489.6 452.931 512.66C397.241 535.95 397.781 577.31 407.801 689.66C416.801 790.24 432.881 839.08 399.801 854.12C369.461 867.92 358.921 885.22 360.361 901.04H509.711C510.552 901.04 511.386 900.874 512.164 900.552C512.941 900.23 513.648 899.758 514.243 899.163C514.838 898.567 515.311 897.861 515.633 897.083C515.955 896.305 516.121 895.472 516.121 894.63C516.121 892.93 515.445 891.3 514.243 890.097C513.041 888.895 511.411 888.22 509.711 888.22H507.191C511.901 872.81 518.731 842.73 519.671 792.95H538.191C538.191 792.95 547.711 748.95 537.191 709.71C526.191 668.6 516.131 661.58 510.121 633.5H599.991C668.621 633.5 719.991 570.02 705.061 503.04C700.401 482.11 693.641 471.04 693.641 471.04L608.381 471Z" fill="#FF7235"/>
<path d="M546.201 529.7L527.791 552.86L499.121 543.01L516.111 570.82L494.051 600.91L523.131 588.87L539.341 618.75L541.181 585.86L569.261 579.85L545.201 564.8L546.201 529.7Z" fill="#FFB7D5"/>
<path d="M506.141 708.48L523.141 736.29L501.081 766.38L530.161 754.38L540.941 774.25C542.521 758.81 543.301 735.97 538.261 714.04L534.821 718.37L506.141 708.48Z" fill="#FFB7D5"/>
<path d="M431.161 792.91L429.871 777.41L462.431 764.85L431.611 758.46L435.011 724.63L415.011 750.8L414.411 750.55C416.331 766.7 418.011 780.81 418.951 793.02V792.91H431.161Z" fill="#FFB7D5"/>
<path d="M509.711 888.18H507.191C511.901 872.77 518.731 842.69 519.671 792.91H418.921V793C419.001 794 419.071 795 419.141 796C419.141 796.09 419.141 796.19 419.141 796.28C421.231 827.53 417.821 845.81 399.761 854.02C369.421 867.82 358.881 885.12 360.321 900.94H509.711C511.411 900.94 513.041 900.265 514.243 899.062C515.445 897.86 516.121 896.23 516.121 894.53C516.121 892.83 515.445 891.2 514.243 889.997C513.041 888.795 511.411 888.12 509.711 888.12V888.18Z" fill="#EAA58B"/>
<path d="M643.43 473.59L597.36 477.67L602.16 496.19L572.69 511.91L609.4 516.82L621.82 544.33L634.59 515.84L671.93 509.94L639.5 493.24L643.43 473.59Z" fill="#FFB7D5"/>
<path d="M423.851 603.91L434.851 568.81L466.941 573.81L441.871 551.75L459.871 530.69L426.781 542.69L421.491 533.62C412.981 543.26 407.841 555.23 405.091 570.62L410.731 570.8L423.851 603.91Z" fill="#FFB7D5"/>
<path d="M509.711 493.8C502.941 495.68 496.201 497.65 489.621 499.68L516.131 517.68L509.711 493.8Z" fill="#FFB7D5"/>
<path d="M465.971 656.06L451.931 626.98L444.911 659.07L418.841 657.07L442.901 678.13L427.861 713.23L453.971 688.89L475.611 713.84L468.981 676.12L491.041 647.04L465.971 656.06Z" fill="#FFB7D5"/>
<path d="M406.441 876.45C419.701 872.79 445.581 863.37 440.901 853.08C436.541 843.48 411.241 860.08 402.611 867.47C400.433 863.473 397.65 859.837 394.361 856.69C368.181 870.02 358.991 886.16 360.361 901H509.711C511.411 901 513.041 900.325 514.244 899.123C515.446 897.92 516.121 896.29 516.121 894.59C516.121 892.89 515.446 891.26 514.244 890.058C513.041 888.855 511.411 888.18 509.711 888.18H408.811C408.436 884.198 407.642 880.266 406.441 876.45Z" fill="#30242A"/>
<path d="M509.711 635.71L483.891 635.35" stroke="#A15842" stroke-width="4" stroke-miterlimit="10" stroke-linecap="round"/>
<path d="M528.911 489.42C502.161 496.24 473.571 504.61 451.911 513.65C405.711 533 398.221 564.76 402.711 639.24" stroke="#A15842" stroke-width="4" stroke-miterlimit="10" stroke-linecap="round"/>
<path d="M868.391 483.57H843.831V901H868.391V483.57Z" fill="#FFBE21"/>
<path d="M868.391 489.31H843.831" stroke="#A15842" stroke-width="4" stroke-miterlimit="10"/>
<path d="M512.1 169.68C498.1 167.68 466.03 182.73 464.97 212.48C463.91 242.23 490.47 251.79 494.72 253.92L556.35 244.35L560.6 176.35L512.1 169.68Z" fill="#A15842"/>
<path d="M620.981 95.8C647.436 95.8 668.881 74.3544 668.881 47.9C668.881 21.4456 647.436 0 620.981 0C594.527 0 573.081 21.4456 573.081 47.9C573.081 74.3544 594.527 95.8 620.981 95.8Z" fill="#A15842"/>
<path d="M589.911 80.84C592.831 82.19 568.241 23.84 555.691 32.94C543.881 41.53 575.081 74 589.911 80.84Z" fill="#30242A"/>
<path d="M591.271 84.41C593.951 87.61 656.691 65.66 648.011 53C639.711 40.82 588.591 81.2 591.271 84.41Z" fill="#30242A"/>
<path d="M674.56 244.89C674.56 244.89 716.68 209.79 689.56 170.68C672.3 145.75 625.37 155.68 625.37 155.68C626.51 141.99 630.23 102.55 600.57 80.88C570.91 59.21 533.28 70.62 519.57 87.72C505.86 104.82 509.31 136.77 504.75 159.58C500.19 182.39 503.23 197.9 517.29 205.2C530.08 211.84 545.13 207.83 545.13 207.83L543.53 231.9C543.53 231.9 514.53 232.99 496.76 239.42C453.94 254.92 378.71 361.22 378.71 361.22C331.58 359.22 287.45 357.22 287.45 357.22L310.52 425.42C310.52 425.42 368.68 444.47 410.8 433.42C453.53 422.23 494.04 362.22 494.04 362.22L508.04 402.33L483.97 469.52H693.57L658.47 407.34C664.54 352.2 674.56 244.89 674.56 244.89Z" fill="#EAA58B"/>
<path d="M607.21 229.4L552.21 329.13L529.71 232.9C519.82 233.9 506.64 235.84 496.86 239.38C453.94 254.92 378.71 361.22 378.71 361.22C331.58 359.22 287.45 357.22 287.45 357.22L310.52 425.42C310.52 425.42 368.68 444.47 410.8 433.42C453.53 422.23 494.04 362.22 494.04 362.22L508.04 402.33L483.97 469.52H693.57L658.47 407.35C664.47 352.19 674.47 244.88 674.47 244.88C665.185 239.227 655.017 235.171 644.39 232.88C632.42 230.18 619.26 231.79 607.21 229.4Z" fill="#D93761"/>
<path d="M322.381 462.51H496.061L456.571 337.79C455.41 334.114 453.108 330.904 449.999 328.626C446.889 326.348 443.135 325.12 439.281 325.12H292.501C289.648 325.118 286.836 325.789 284.292 327.079C281.748 328.368 279.545 330.24 277.86 332.541C276.175 334.843 275.057 337.509 274.597 340.324C274.137 343.138 274.347 346.022 275.211 348.74L307.851 451.88C308.83 454.965 310.766 457.659 313.378 459.57C315.991 461.481 319.144 462.511 322.381 462.51Z" fill="#30242A"/>
<path d="M348.26 381.54C352.87 375.24 373.78 391.88 375.32 393.25C376.12 391.88 387.01 375.25 394.99 381.54C401.92 387 386.69 411.39 382.64 417.61C382.471 417.798 382.263 417.949 382.031 418.052C381.8 418.155 381.549 418.209 381.295 418.209C381.042 418.209 380.791 418.155 380.559 418.052C380.327 417.949 380.12 417.798 379.95 417.61C372.56 411.39 344.26 387 348.26 381.54Z" fill="#A15842"/>
<path d="M373.597 385.758C375.343 385.214 375.409 380.443 373.745 375.102C372.081 369.76 369.318 365.871 367.572 366.414C365.827 366.958 365.761 371.729 367.425 377.07C369.088 382.412 371.852 386.301 373.597 385.758Z" fill="#A15842"/>
<path d="M596.911 448.47C597.413 450.083 597.53 451.792 597.251 453.459C596.973 455.126 596.306 456.704 595.306 458.066C594.306 459.428 593 460.537 591.493 461.301C589.986 462.066 588.32 462.467 586.63 462.47H322.38C319.144 462.471 315.991 461.441 313.378 459.53C310.766 457.619 308.83 454.925 307.851 451.84L306.771 448.43L596.911 448.47Z" fill="#30242A"/>
<path d="M910.711 462.51H136.501V487.58H910.711V462.51Z" fill="#FFBE21"/>
<path d="M756.201 599.89L772.281 537H678.481C657.584 537.001 637.282 543.958 620.776 556.774C604.27 569.589 592.5 587.535 587.321 607.78L576.421 650.38H691.171C706.078 650.379 720.56 645.416 732.335 636.274C744.109 627.132 752.506 614.332 756.201 599.89Z" fill="#FFB7D5"/>
<path d="M578.641 633.89L574.931 649.57" stroke="#A15842" stroke-width="4" stroke-linecap="round" stroke-linejoin="round"/>
<path d="M279.091 360.83C267.421 366.66 261.591 376.38 261.591 383.19C261.591 393.13 271.711 395 271.711 395C271.711 395 264.161 406.87 277.291 412.44C277.291 412.44 277.291 424.66 289.521 424.66C289.521 424.66 287.901 434.19 300.661 435.09C313.421 435.99 326.551 429.33 327.661 425.02C328.931 419.93 325.501 415.67 316.241 414.32C316.241 414.32 328.741 408.48 326.761 401.11C324.781 393.74 316.331 393.91 316.331 393.91C316.331 393.91 324.421 389.06 320.101 381.91C315.781 374.76 307.521 377.24 307.521 377.24C307.521 377.24 309.681 372.24 305.901 368.43C301.401 363.93 282.051 369.61 282.051 369.61L279.091 360.83Z" fill="#EAA58A"/>
<path d="M289.61 425.13C300.141 422.606 310.357 418.916 320.07 414.13" stroke="#A15842" stroke-width="4" stroke-miterlimit="10" stroke-linecap="round"/>
<path d="M277.261 412.38C291.861 408.377 305.8 402.269 318.641 394.25" stroke="#A15842" stroke-width="4" stroke-miterlimit="10" stroke-linecap="round"/>
<path d="M270.711 396.42C284.241 392.417 297.023 386.225 308.551 378.09" stroke="#A15842" stroke-width="4" stroke-miterlimit="10" stroke-linecap="round"/>
<path d="M689.611 170.68C672.351 145.75 625.421 155.68 625.421 155.68C626.561 141.99 630.281 102.55 600.621 80.88C570.961 59.21 533.331 70.62 519.621 87.72C514.041 94.72 511.311 104.14 509.721 114.42C518.821 115.95 532.171 112.82 532.171 112.82C550.421 133.35 566.771 136.61 566.771 136.61C579.541 123.84 601.941 124.26 605.581 143.61C609.361 163.7 577.271 172.73 577.271 172.73C577.271 172.73 574.271 208.83 590.271 221.87C595.181 225.762 600.988 228.365 607.161 229.44C619.161 231.83 632.371 230.22 644.431 232.9C655.057 235.191 665.225 239.247 674.511 244.9C678.174 241.672 681.523 238.102 684.511 234.24C695.031 220.9 707.611 196.68 689.611 170.68Z" fill="#A15842"/>
<path d="M551.21 105.5C545.21 110.5 538.21 113.5 530.15 115.5" stroke="#EAA58B" stroke-width="4" stroke-miterlimit="10" stroke-linecap="round"/>
<path d="M544.801 210.08C549.457 208.527 553.949 206.517 558.211 204.08" stroke="#A15842" stroke-width="4" stroke-miterlimit="10" stroke-linecap="round"/>
<path d="M578.501 152.56L587.621 146.86" stroke="#A15842" stroke-width="4" stroke-miterlimit="10" stroke-linecap="round"/>
<path d="M526.171 179.33C528.061 180.5 535.171 181.41 537.991 175.98" stroke="#A15842" stroke-width="4" stroke-miterlimit="10" stroke-linecap="round"/>
<path d="M544.751 153.67C546.64 153.67 548.171 152.139 548.171 150.25C548.171 148.361 546.64 146.83 544.751 146.83C542.862 146.83 541.331 148.361 541.331 150.25C541.331 152.139 542.862 153.67 544.751 153.67Z" fill="#30242A"/>
<path d="M516.4 149.14C518.289 149.14 519.82 147.609 519.82 145.72C519.82 143.831 518.289 142.3 516.4 142.3C514.512 142.3 512.98 143.831 512.98 145.72C512.98 147.609 514.512 149.14 516.4 149.14Z" fill="#30242A"/>
<path d="M526.031 158.93C525.351 161.08 524.761 163.42 525.151 164.2C525.687 165.188 526.5 165.998 527.491 166.53" stroke="#A15842" stroke-width="4" stroke-miterlimit="10" stroke-linecap="round"/>
<path d="M582.791 186.07C589.407 186.07 594.771 180.706 594.771 174.09C594.771 167.474 589.407 162.11 582.791 162.11C576.174 162.11 570.811 167.474 570.811 174.09C570.811 180.706 576.174 186.07 582.791 186.07Z" fill="#F5EBDD"/>
<path d="M525.159 147.643C527.232 136.99 521.138 126.842 511.548 124.976C501.958 123.11 492.503 130.233 490.431 140.886C488.358 151.539 494.452 161.687 504.042 163.553C513.632 165.419 523.087 158.295 525.159 147.643Z" stroke="#30242A" stroke-width="4" stroke-miterlimit="10" stroke-linecap="round"/>
<path d="M568.609 152.971C570.681 142.318 564.587 132.17 554.997 130.304C545.407 128.438 535.952 135.561 533.88 146.214C531.807 156.866 537.901 167.015 547.491 168.88C557.081 170.746 566.536 163.623 568.609 152.971Z" stroke="#30242A" stroke-width="4" stroke-miterlimit="10" stroke-linecap="round"/>
<path d="M525.98 146.03L532.89 146.77" stroke="#30242A" stroke-width="4" stroke-miterlimit="10" stroke-linecap="round"/>
<path d="M627.711 157L625.721 169.8" stroke="#30242A" stroke-width="4" stroke-miterlimit="10" stroke-linecap="round"/>
<path d="M483.021 336.15L492.701 364.32" stroke="#30242A" stroke-width="4" stroke-linecap="round" stroke-linejoin="round"/>
<path d="M534.161 400.33H508.711" stroke="#30242A" stroke-width="4" stroke-linecap="round" stroke-linejoin="round"/>
<path d="M554.221 328.13L562.241 367.24V403.34" stroke="#30242A" stroke-width="4" stroke-linecap="round" stroke-linejoin="round"/>
<path d="M500.881 238.51L516.111 272.97L498.061 270.97L562.241 367.24" stroke="#30242A" stroke-width="4" stroke-linecap="round" stroke-linejoin="round"/>
<path d="M649.27 234.41L623.42 270.97L647.49 268.96L559.23 347.18" stroke="#30242A" stroke-width="4" stroke-linecap="round" stroke-linejoin="round"/>
<path d="M662.71 357L643.48 330.14" stroke="#30242A" stroke-width="4" stroke-linecap="round" stroke-linejoin="round"/>
<path d="M684.961 456C674.491 452.51 655.701 445.77 644.371 439" stroke="#30242A" stroke-width="4" stroke-linecap="round" stroke-linejoin="round"/>
<path d="M396.16 207.17C407.024 207.17 415.83 198.363 415.83 187.5C415.83 176.637 407.024 167.83 396.16 167.83C385.297 167.83 376.49 176.637 376.49 187.5C376.49 198.363 385.297 207.17 396.16 207.17Z" fill="#FFB7D5"/>
<path d="M337.373 109.22L325.92 95.4112C324.158 93.2857 321.005 92.9916 318.88 94.7544L318.634 94.9587C316.508 96.7215 316.214 99.8736 317.977 101.999L329.429 115.808C331.192 117.934 334.344 118.228 336.469 116.465L336.716 116.261C338.841 114.498 339.135 111.346 337.373 109.22Z" fill="#61317E"/>
<path d="M357.971 126L346.451 112.1L139.381 283.8C137.575 285.299 136.438 287.453 136.221 289.79C136.003 292.126 136.723 294.454 138.221 296.26L138.451 296.54C139.192 297.434 140.102 298.173 141.129 298.715C142.156 299.257 143.279 299.591 144.435 299.699C145.592 299.807 146.758 299.686 147.867 299.343C148.976 299 150.007 298.442 150.901 297.7L215.641 244V432.43H233.711V229L357.971 126Z" fill="#B07CCF"/>
<path d="M324.601 130L330.371 137C332.38 139.429 333.907 142.219 334.871 145.22" stroke="#61317E" stroke-width="4" stroke-miterlimit="10"/>
<path d="M224.671 248.17C237.688 248.17 248.241 237.617 248.241 224.6C248.241 211.583 237.688 201.03 224.671 201.03C211.653 201.03 201.101 211.583 201.101 224.6C201.101 237.617 211.653 248.17 224.671 248.17Z" fill="#7B4998"/>
<path d="M224.67 233.66C229.674 233.66 233.73 229.604 233.73 224.6C233.73 219.596 229.674 215.54 224.67 215.54C219.667 215.54 215.61 219.596 215.61 224.6C215.61 229.604 219.667 233.66 224.67 233.66Z" fill="#CD96EB"/>
<path d="M412.311 176.33L382.161 201.25" stroke="#A15842" stroke-width="4" stroke-miterlimit="10"/>
<path d="M373.251 123.48C366.911 122.735 361.102 119.576 357.031 114.66L349.031 104.99C346.203 101.586 342.14 99.4431 337.734 99.0325C333.328 98.6219 328.939 99.9769 325.531 102.8C323.844 104.198 322.45 105.915 321.427 107.853C320.404 109.79 319.773 111.91 319.57 114.091C319.367 116.273 319.595 118.473 320.242 120.566C320.889 122.659 321.942 124.604 323.341 126.29L331.341 135.99C335.394 140.892 337.409 147.164 336.971 153.51L334.971 182.75C333.98 197.057 337.611 211.304 345.331 223.39L347.891 227.39L443.821 147.82L440.381 144.59C429.94 134.767 416.618 128.558 402.381 126.88L373.251 123.48Z" fill="#B07CCF"/>
<path d="M233.711 432.43H215.641L188.931 439.71C183.929 441.075 179.516 444.046 176.37 448.166C173.224 452.286 171.52 457.326 171.521 462.51H277.82C277.821 457.325 276.115 452.284 272.967 448.163C269.819 444.043 265.403 441.073 260.401 439.71L233.711 432.43Z" fill="#B07CCF"/>
<path d="M425.621 133.67L337.831 206.23" stroke="#61317E" stroke-width="4" stroke-miterlimit="10" stroke-linecap="round"/>
<path d="M215.2 430.36H233.71" stroke="#61317E" stroke-width="4" stroke-miterlimit="10" stroke-linecap="round"/>
<path d="M175.03 450.01H273.71" stroke="#61317E" stroke-width="4" stroke-miterlimit="10" stroke-linecap="round"/>
<path d="M743.77 720.49C745.77 703.49 744.77 665.33 722.71 636.25C700.65 607.17 730.71 619.25 739.71 627.25C754.11 640.05 766.79 652.32 777.82 693.44L743.77 720.49Z" fill="#30242A"/>
<path d="M1010.14 901H1127.87V897.15C1127.87 891.723 1125.71 886.519 1121.87 882.682C1118.03 878.845 1112.83 876.69 1107.4 876.69H1009.53L1010.14 901Z" fill="#A15842"/>
<path d="M722.951 788.6L747.781 901H793.921V894C793.921 889.487 792.131 885.158 788.945 881.962C785.758 878.765 781.434 876.963 776.921 876.95C776.921 876.95 799.981 859.66 814.021 842.61C814.021 842.61 838.091 871.94 872.191 866.92L874.661 878.92C875.945 885.148 879.336 890.744 884.263 894.766C889.19 898.787 895.351 900.989 901.711 901H1013.54C1063.14 901 1087.54 893.43 1088.94 865.19C1088.98 864.113 1088.81 863.038 1088.43 862.03C1088.04 861.022 1087.46 860.102 1086.71 859.325C1085.97 858.548 1085.07 857.93 1084.08 857.508C1083.09 857.086 1082.02 856.869 1080.94 856.87H1049.72C1048.43 856.871 1047.16 856.584 1046 856.028C1044.84 855.472 1043.82 854.663 1043.01 853.66L1029.72 837.17C1025.78 832.29 1020.52 828.644 1014.57 826.664C1008.62 824.684 1002.23 824.453 996.151 826L969.421 832.83C969.421 832.83 922.061 764.77 879.161 717.5C838.161 672.37 761.041 667.5 730.661 726.28C720.893 745.516 718.166 767.564 722.951 788.6Z" fill="#A15842"/>
<path d="M1002.51 901V897.15C1002.51 894.462 1001.98 891.801 1000.95 889.318C999.923 886.835 998.415 884.579 996.514 882.679C994.613 880.779 992.356 879.272 989.873 878.245C987.389 877.217 984.728 876.689 982.04 876.69H968.41" stroke="#30242A" stroke-width="4" stroke-miterlimit="10"/>
<path d="M815.881 843.41C822.881 835.08 846.771 804.41 845.061 774.41C843.231 742.31 824.001 725.27 824.001 725.27" stroke="#30242A" stroke-width="4" stroke-miterlimit="10" stroke-linecap="round"/>
<path d="M866.121 824.54C866.121 824.54 867.401 848.27 869.971 865.99" stroke="#30242A" stroke-width="4" stroke-miterlimit="10" stroke-linecap="round"/>
<path d="M769.851 890.73V900" stroke="#30242A" stroke-width="4" stroke-miterlimit="10" stroke-linecap="round"/>
<path d="M780.881 890.73V900" stroke="#30242A" stroke-width="4" stroke-miterlimit="10" stroke-linecap="round"/>
<path d="M980.451 890.73V900" stroke="#30242A" stroke-width="4" stroke-miterlimit="10" stroke-linecap="round"/>
<path d="M991.48 890.73V900" stroke="#30242A" stroke-width="4" stroke-miterlimit="10" stroke-linecap="round"/>
<path d="M1021.06 863.65C1023.55 863.65 1025.57 861.631 1025.57 859.14C1025.57 856.649 1023.55 854.63 1021.06 854.63C1018.57 854.63 1016.55 856.649 1016.55 859.14C1016.55 861.631 1018.57 863.65 1021.06 863.65Z" fill="#30242A"/>
<path d="M996.451 825.91V825.79L969.381 832.79L996.111 825.96L996.451 825.91Z" fill="#30242A"/>
<path d="M929.831 877.14C921.991 881.14 910.911 888.97 911.831 900.83H955.371L964.521 886.4C966.017 884.04 968.084 882.096 970.531 880.748C972.979 879.4 975.727 878.692 978.521 878.69H981.431L996.351 826.21L996.131 825.98L969.401 832.81L943.811 865.59C940.044 870.409 935.274 874.35 929.831 877.14Z" fill="#30242A"/>
<path d="M866.24 742C866.24 742 854.13 783.92 893.24 799.75C913.07 807.75 929.54 801.68 940.97 793.75C923.7 770.75 900.85 741.47 879.15 717.55C873.709 711.563 867.595 706.225 860.93 701.64C855.01 709.7 848.53 729.64 866.24 742Z" fill="#EAA58B"/>
<path d="M766.341 772.4C775.481 772.4 782.891 764.99 782.891 755.85C782.891 746.71 775.481 739.3 766.341 739.3C757.201 739.3 749.791 746.71 749.791 755.85C749.791 764.99 757.201 772.4 766.341 772.4Z" fill="#EAA58B"/>
<path d="M1080.98 856.87H1074.98C1074.65 858.543 1074.69 860.269 1075.11 861.923C1075.52 863.577 1076.3 865.119 1077.38 866.438C1078.46 867.757 1079.82 868.82 1081.36 869.552C1082.9 870.284 1084.59 870.665 1086.29 870.67C1087 870.67 1087.7 870.603 1088.39 870.47C1088.7 868.724 1088.89 866.96 1088.98 865.19C1089.02 864.113 1088.85 863.038 1088.47 862.03C1088.08 861.022 1087.5 860.102 1086.75 859.325C1086.01 858.548 1085.11 857.93 1084.12 857.508C1083.13 857.086 1082.06 856.869 1080.98 856.87Z" fill="#30242A"/>
<path d="M1104.8 890.73V899.77" stroke="#30242A" stroke-width="4" stroke-miterlimit="10" stroke-linecap="round"/>
<path d="M1115.83 890.73V899.77" stroke="#30242A" stroke-width="4" stroke-miterlimit="10" stroke-linecap="round"/>
<path d="M1044.28 899.8C1068.8 897.33 1083.42 890.69 1088.73 876.56" stroke="#30242A" stroke-width="4" stroke-linecap="round" stroke-linejoin="round"/>
<path d="M644.48 373.67C632.14 372.565 619.732 372.428 607.37 373.26C589.69 374.71 565.92 379.34 556.37 383.96C546.82 388.58 510.25 404.89 520.1 410.36C529.1 415.36 547.98 407.84 547.98 407.84C547.98 407.84 529.14 425.16 525.9 432.41C522.66 439.66 533.37 443.73 533.37 443.73C536.19 456.11 548.81 450.79 548.81 450.79C556.76 467.7 599.71 431.06 599.71 431.06C609.929 432.122 620.247 431.687 630.34 429.77C630.34 429.77 635.78 432.82 644.51 437.06L644.48 373.67Z" fill="#EAA58A"/>
<path d="M751.78 458.5C832.01 420.39 715.71 278 674.56 244.89L651.5 338.16L680.58 378.27C667.84 376.07 655.66 374.56 644.48 373.67V437.06C669.94 449.44 723.44 472 751.78 458.5Z" fill="#D93761"/>
<path d="M544.141 408.89C551.261 403 563.081 393.48 571.901 387.74" stroke="#A15842" stroke-width="4" stroke-miterlimit="10" stroke-linecap="round"/>
<path d="M581.621 401.81C561.131 415.08 542.461 432.81 533.221 442.09" stroke="#A15842" stroke-width="4" stroke-miterlimit="10" stroke-linecap="round"/>
<path d="M590.711 416.82C576.711 426.43 560.461 441 549.851 451" stroke="#A15842" stroke-width="4" stroke-miterlimit="10" stroke-linecap="round"/>
<path d="M831.41 411.43C832.927 411.433 834.38 412.036 835.452 413.108C836.524 414.18 837.128 415.634 837.131 417.15V418C837.128 419.516 836.524 420.97 835.452 422.042C834.38 423.114 832.927 423.717 831.41 423.72H801.94V411.43H831.41ZM831.41 403.43H795.021C794.878 403.43 794.737 403.458 794.605 403.513C794.473 403.568 794.354 403.649 794.253 403.75C794.153 403.851 794.074 403.971 794.02 404.104C793.966 404.236 793.939 404.377 793.94 404.52V430.67C793.94 430.956 794.054 431.231 794.257 431.434C794.459 431.636 794.734 431.75 795.021 431.75H831.41C833.215 431.75 835.001 431.394 836.668 430.703C838.334 430.011 839.848 428.998 841.123 427.721C842.397 426.444 843.407 424.928 844.095 423.26C844.783 421.592 845.134 419.804 845.131 418V417.12C845.131 413.481 843.685 409.992 841.112 407.419C838.539 404.846 835.049 403.4 831.41 403.4V403.43Z" fill="#3EC1F3"/>
<path d="M787.411 399.12C757.611 399.12 743.841 375.37 743.841 375.37L763.841 462.51H810.921L830.921 375.37C826.276 382.692 819.846 388.713 812.235 392.868C804.624 397.022 796.082 399.174 787.411 399.12Z" fill="#3EC1F3"/>
<path d="M787.411 399.12C796.092 399.184 804.646 397.037 812.269 392.882C819.891 388.727 826.331 382.701 830.981 375.37H743.841C743.841 375.37 757.611 399.12 787.411 399.12Z" fill="#30242A"/>
</svg>
