<svg width="571" height="680" viewBox="0 0 571 680" fill="none" xmlns="http://www.w3.org/2000/svg">
<mask id="mask0_1889_11448" style="mask-type:alpha" maskUnits="userSpaceOnUse" x="0" y="0" width="571" height="680">
<path d="M294.069 197.808C313.587 186.859 337.398 186.859 356.916 197.808L370.447 205.397C379.825 210.654 390.349 213.474 401.075 213.605L416.587 213.796C438.965 214.073 459.586 225.979 471.015 245.22L478.938 258.558C484.42 267.789 492.128 275.497 501.358 280.979L514.697 288.902C533.938 300.331 545.843 320.952 546.12 343.329L546.313 358.842C546.448 369.587 549.271 380.122 554.519 389.47L562.109 403.001C567.492 412.582 570.321 423.409 570.321 434.424C570.321 445.44 567.492 456.267 562.109 465.848L554.519 479.378C549.271 488.726 546.448 499.262 546.313 510.007L546.12 525.519C545.843 547.897 533.938 568.517 514.697 579.947L501.358 587.869C492.128 593.352 484.42 601.06 478.938 610.29L471.014 623.629C459.586 642.87 438.965 654.775 416.587 655.052L401.075 655.244C390.349 655.375 379.825 658.195 370.447 663.451L356.916 671.041C337.398 681.99 313.587 681.99 294.069 671.041L280.538 663.451C271.16 658.195 260.635 655.375 249.91 655.244L234.398 655.052C212.02 654.775 191.399 642.87 179.97 623.629L172.047 610.29C166.565 601.06 158.857 593.352 149.626 587.869L136.288 579.946C117.047 568.517 105.142 547.897 104.864 525.519L104.672 510.007C104.537 499.262 101.714 488.726 96.4657 479.378L88.876 465.848C83.4936 456.267 80.6642 445.44 80.6642 434.424C80.6642 423.409 83.4936 412.582 88.876 403.001L96.4657 389.47C101.714 380.122 104.537 369.587 104.672 358.842L104.865 343.329C105.142 320.952 117.047 300.331 136.288 288.902L149.627 280.979C158.857 275.497 166.565 267.789 172.047 258.558L179.971 245.22C191.399 225.979 212.02 214.073 234.398 213.796L249.91 213.605C260.635 213.474 271.16 210.654 280.538 205.397L294.069 197.808Z" fill="#FFD9DD"/>
<path d="M7.99999 437L8 678.722L261.763 678.722H309.56C328.148 678.722 538.79 523.115 538.79 523.115V245.359L298.21 0L0.804993 245.359L7.99999 437Z" fill="#FFD9DD"/>
</mask>
<g mask="url(#mask0_1889_11448)">
<path d="M294.069 197.808C313.587 186.859 337.398 186.859 356.916 197.808L370.447 205.397C379.825 210.654 390.349 213.474 401.075 213.605L416.587 213.796C438.965 214.073 459.586 225.979 471.015 245.22L478.938 258.558C484.42 267.789 492.128 275.497 501.358 280.979L514.697 288.902C533.938 300.331 545.843 320.952 546.12 343.329L546.313 358.842C546.448 369.587 549.271 380.122 554.519 389.47L562.109 403.001C567.492 412.582 570.321 423.409 570.321 434.424C570.321 445.44 567.492 456.267 562.109 465.848L554.519 479.378C549.271 488.726 546.448 499.262 546.313 510.007L546.12 525.519C545.843 547.897 533.938 568.517 514.697 579.947L501.358 587.869C492.128 593.352 484.42 601.06 478.938 610.29L471.014 623.629C459.586 642.87 438.965 654.775 416.587 655.052L401.075 655.244C390.35 655.375 379.825 658.195 370.447 663.451L356.916 671.041C337.398 681.99 313.587 681.99 294.069 671.041L280.538 663.451C271.16 658.195 260.635 655.375 249.91 655.244L234.398 655.052C212.02 654.775 191.399 642.87 179.97 623.629L172.047 610.29C166.565 601.06 158.857 593.352 149.626 587.869L136.288 579.946C117.047 568.517 105.142 547.897 104.864 525.519L104.672 510.007C104.537 499.262 101.714 488.726 96.4657 479.378L88.876 465.848C83.4936 456.267 80.6642 445.44 80.6642 434.424C80.6642 423.409 83.4936 412.582 88.876 403.001L96.4657 389.47C101.714 380.122 104.537 369.587 104.672 358.842L104.865 343.329C105.142 320.952 117.047 300.331 136.288 288.902L149.627 280.979C158.857 275.497 166.565 267.789 172.047 258.558L179.971 245.22C191.399 225.979 212.02 214.073 234.398 213.796L249.91 213.605C260.635 213.474 271.16 210.654 280.538 205.397L294.069 197.808Z" fill="#FFD9DD"/>
<path d="M386.084 510.718H216.914L219.775 499.371H294.033L322.355 388.609C326.213 373.522 334.984 360.148 347.285 350.597C359.585 341.047 374.715 335.862 390.287 335.862C428.394 335.862 456.277 371.78 446.826 408.697L429.325 477.134C426.869 486.739 421.286 495.252 413.457 501.333C405.627 507.414 395.997 510.716 386.084 510.718Z" fill="#FFB7D5"/>
<path d="M218.225 615.54V627.553H326.04V615.54H218.225Z" fill="#A15842"/>
<path d="M343.8 670.968L315.757 504.047H228.501L200.458 670.968C200.326 671.762 200.368 672.575 200.582 673.351C200.796 674.127 201.176 674.847 201.697 675.461C202.217 676.075 202.865 676.568 203.595 676.907C204.326 677.245 205.121 677.42 205.926 677.42C207.191 677.418 208.417 676.985 209.402 676.192C210.386 675.398 211.071 674.292 211.34 673.056L248.07 504.047H296.214L332.931 673.056C333.2 674.292 333.883 675.399 334.868 676.193C335.853 676.987 337.08 677.42 338.345 677.42C339.149 677.418 339.943 677.242 340.672 676.902C341.4 676.563 342.047 676.07 342.566 675.456C343.085 674.842 343.464 674.123 343.677 673.348C343.89 672.573 343.932 671.76 343.8 670.968Z" fill="#A15842"/>
<path d="M307.542 615.54V627.553H415.357V615.54H307.542Z" fill="#FFBE21"/>
<path d="M433.117 670.968L405.047 504.047H317.825L289.782 670.968C289.65 671.762 289.692 672.575 289.906 673.351C290.12 674.127 290.5 674.847 291.021 675.461C291.541 676.075 292.189 676.568 292.919 676.907C293.65 677.245 294.445 677.42 295.25 677.42C296.514 677.419 297.74 676.986 298.724 676.192C299.708 675.399 300.39 674.292 300.658 673.056L337.374 504.047H385.525L422.241 673.056C422.511 674.293 423.195 675.401 424.182 676.195C425.168 676.989 426.396 677.421 427.663 677.42C428.466 677.418 429.26 677.242 429.989 676.902C430.718 676.563 431.364 676.07 431.883 675.456C432.402 674.842 432.781 674.123 432.994 673.348C433.207 672.573 433.249 671.76 433.117 670.968Z" fill="#FFBE21"/>
<path d="M344.99 477.134L355.686 435.303H284.8C270.9 435.303 257.394 439.93 246.414 448.455C235.434 456.979 227.604 468.916 224.158 482.382L216.914 510.718H301.742C311.656 510.717 321.288 507.416 329.119 501.335C336.95 495.254 342.534 486.74 344.99 477.134Z" fill="#FFB7D5"/>
<path d="M221.524 498.26H311.52" stroke="#A15842" stroke-width="4" stroke-linecap="round" stroke-linejoin="round"/>
<path d="M294.352 497.841L310.123 436.181" stroke="#A15842" stroke-width="4" stroke-linecap="round" stroke-linejoin="round"/>
<path d="M438.97 433.873H396.4" stroke="#A15842" stroke-width="4" stroke-linecap="round" stroke-linejoin="round"/>
<path d="M446.952 403.941H392.409" stroke="#A15842" stroke-width="4" stroke-linecap="round" stroke-linejoin="round"/>
<path d="M248.277 390.425C248.277 390.425 194.911 404.958 172.243 416.299C134.868 434.983 134.994 447.315 112.206 516.352C91.1668 580.154 88.852 611.077 59.8313 612.301C37.6749 613.232 30.4114 620.482 26.8196 630.42L114.494 672.018C115.499 672.494 116.647 672.567 117.705 672.224C118.762 671.88 119.648 671.145 120.181 670.169C120.724 669.172 120.856 668.002 120.549 666.909C120.242 665.815 119.521 664.885 118.538 664.316L116.695 663.252C124.844 653.381 140.561 632.349 156.232 600.401L166.21 605.057C166.21 605.057 182.326 584.111 184.881 560.352C188.206 529.668 186.211 508.989 200.226 496.983L363.655 390.398L248.277 390.425Z" fill="#FF7235"/>
<path d="M51.2174 617.23C52.9535 613.618 62.5982 591.614 68.1456 594.275C75.3626 597.734 56.6318 619.824 56.6318 619.824L51.2174 617.23Z" fill="#30242A"/>
<path d="M26.8129 630.732L114.487 672.324C115.502 672.809 116.665 672.881 117.732 672.526C118.8 672.172 119.688 671.417 120.211 670.422C120.734 669.426 120.852 668.267 120.538 667.187C120.225 666.107 119.506 665.19 118.531 664.629L116.689 663.564L116.875 663.338L56.6119 634.889C57.5148 632.388 58.1481 629.797 58.5009 627.16C67.5204 628.723 85.7723 630.406 85.8654 622.883C85.9652 615.873 66.0305 618.686 58.747 620.668C58.59 617.974 58.0664 615.313 57.1906 612.76C37.0962 614.143 30.2584 621.194 26.8129 630.732Z" fill="#30242A"/>
<path d="M172.243 416.299C168.045 418.394 164.327 420.41 160.995 422.432L155.88 438.815L175.568 424.946L193.72 439.42L187.029 419.578L207.589 410.16L191.698 408.164C185.073 410.528 178.579 413.244 172.243 416.299Z" fill="#FFB7D5"/>
<path d="M230.251 407.772L228.921 416.439L237.594 413.106L230.251 407.772Z" fill="#FFB7D5"/>
<path d="M180.224 451.127L167.553 467.802L149.541 459.135L160.21 477.141L143.534 491.149L164.879 488.482L172.223 513.166L179.559 488.482L202.906 481.81L180.224 472.472V451.127Z" fill="#FFB7D5"/>
<path d="M108.986 578.451L110.543 574.008L131.828 572.877L114.534 561.104L122.236 542.659L104.816 554.273L101.49 550.681C98.8293 559.441 96.4747 567.243 94.1732 574.101H94.2796C94.5324 573.349 94.7852 572.591 95.0379 571.819L108.986 578.451Z" fill="#FFB7D5"/>
<path d="M108.986 578.451L95.0179 571.846C94.7651 572.618 94.5124 573.376 94.2596 574.127C85.8188 599.27 78.1295 611.842 59.8444 612.613C58.9464 612.613 58.0818 612.7 57.2304 612.76C58.1062 615.313 58.6298 617.974 58.7868 620.668C66.1035 618.673 86.005 615.873 85.9052 622.883C85.7988 630.406 67.5602 628.723 58.5407 627.16C58.1814 629.797 57.5415 632.388 56.6317 634.889L116.895 663.338C125.09 653.361 140.674 632.435 156.226 600.754L108.986 578.451Z" fill="#EAA58B"/>
<path d="M162.212 527.839L160.216 545.852L141.539 545.187L157.549 557.199L151.563 578.544L167.586 564.529L181.987 574.134C182.386 572.861 182.752 571.573 183.085 570.27L177.564 556.521L186.118 547.149C186.257 545.406 186.39 543.69 186.517 542.02L171.577 544.515L162.212 527.839Z" fill="#FFB7D5"/>
<path d="M120.607 490.398C118.924 495.599 117.114 501.246 115.119 507.386L132.865 508.47L120.607 490.398Z" fill="#FFB7D5"/>
<path d="M183.271 652.895C183.55 648.904 184.421 624.892 190.554 625.324C198.536 625.883 189.257 653.314 189.257 653.314L183.271 652.895Z" fill="#30242A"/>
<path d="M330.995 391.402C330.995 391.402 264.287 403.774 227.597 419.113C190.554 434.604 190.913 462.115 197.578 536.845C203.565 603.747 214.26 636.233 192.257 646.237C172.076 655.416 165.066 666.923 166.023 677.446H265.364C265.924 677.446 266.479 677.336 266.996 677.122C267.513 676.907 267.983 676.593 268.379 676.197C268.775 675.801 269.089 675.331 269.303 674.814C269.518 674.297 269.628 673.742 269.628 673.183C269.628 672.052 269.179 670.967 268.379 670.168C267.58 669.368 266.495 668.919 265.364 668.919H263.688C266.821 658.669 271.364 638.661 271.989 605.549H284.308C284.308 605.549 290.64 576.283 283.643 550.182C276.326 522.837 269.635 518.168 265.637 499.49H325.415C371.064 499.49 405.233 457.266 395.303 412.714C392.203 398.792 387.707 391.429 387.707 391.429L330.995 391.402Z" fill="#FF7235"/>
<path d="M289.636 430.447L277.39 445.852L258.32 439.3L269.621 457.798L254.948 477.813L274.291 469.804L285.073 489.679L286.297 467.802L304.974 463.805L288.971 453.794L289.636 430.447Z" fill="#FFB7D5"/>
<path d="M262.99 549.364L274.297 567.862L259.624 587.876L278.967 579.894L286.137 593.111C287.188 582.841 287.707 567.649 284.355 553.062L282.066 555.942L262.99 549.364Z" fill="#FFB7D5"/>
<path d="M213.116 605.523L212.258 595.213L233.916 586.858L213.416 582.608L215.677 560.106L202.374 577.513L201.975 577.347C203.252 588.089 204.369 597.474 204.995 605.596V605.523H213.116Z" fill="#FFB7D5"/>
<path d="M265.364 668.892H263.688C266.821 658.642 271.364 638.634 271.989 605.523H204.975V605.583C205.028 606.248 205.075 606.913 205.121 607.578C205.121 607.638 205.121 607.705 205.121 607.765C206.511 628.551 204.243 640.71 192.231 646.171C172.05 655.35 165.039 666.857 165.997 677.38H265.364C266.495 677.38 267.58 676.93 268.379 676.131C269.179 675.331 269.628 674.247 269.628 673.116C269.628 671.985 269.179 670.901 268.379 670.101C267.58 669.302 266.495 668.852 265.364 668.852V668.892Z" fill="#EAA58B"/>
<path d="M354.309 393.125L323.665 395.839L326.858 408.158L307.256 418.614L331.674 421.88L339.935 440.178L348.429 421.228L373.266 417.304L351.695 406.196L354.309 393.125Z" fill="#FFB7D5"/>
<path d="M208.254 479.808L215.571 456.461L236.916 459.787L220.24 445.114L232.213 431.106L210.203 439.087L206.684 433.054C201.024 439.467 197.605 447.429 195.776 457.665L199.527 457.785L208.254 479.808Z" fill="#FFB7D5"/>
<path d="M265.364 406.568C260.861 407.818 256.378 409.129 252.001 410.479L269.635 422.452L265.364 406.568Z" fill="#FFB7D5"/>
<path d="M236.271 514.496L226.932 495.153L222.262 516.498L204.922 515.168L220.925 529.176L210.921 552.523L228.289 536.333L242.683 552.929L238.273 527.839L252.946 508.496L236.271 514.496Z" fill="#FFB7D5"/>
<path d="M196.674 661.09C205.494 658.656 222.708 652.39 219.595 645.545C216.695 639.16 199.867 650.201 194.126 655.117C192.677 652.458 190.826 650.04 188.639 647.947C171.225 656.813 165.112 667.549 166.023 677.42H265.364C266.495 677.42 267.58 676.97 268.379 676.171C269.179 675.371 269.628 674.287 269.628 673.156C269.628 672.025 269.179 670.941 268.379 670.141C267.58 669.342 266.495 668.892 265.364 668.892H198.25C198.001 666.243 197.472 663.628 196.674 661.09Z" fill="#30242A"/>
<path d="M265.364 500.96L248.19 500.721" stroke="#A15842" stroke-width="4" stroke-miterlimit="10" stroke-linecap="round"/>
<path d="M278.135 403.655C260.342 408.191 241.326 413.758 226.918 419.771C196.188 432.642 191.206 453.767 194.193 503.308" stroke="#A15842" stroke-width="4" stroke-miterlimit="10" stroke-linecap="round"/>
<path d="M503.943 399.763H487.606V677.419H503.943V399.763Z" fill="#FFBE21"/>
<path d="M503.943 403.581H487.606" stroke="#A15842" stroke-width="4" stroke-miterlimit="10"/>
<path d="M266.954 190.978C257.642 189.647 236.31 199.658 235.605 219.446C234.9 239.235 252.567 245.594 255.394 247.01L296.387 240.645L299.214 195.414L266.954 190.978Z" fill="#A15842"/>
<path d="M339.376 141.836C356.973 141.836 371.237 127.571 371.237 109.975C371.237 92.3785 356.973 78.1139 339.376 78.1139C321.78 78.1139 307.515 92.3785 307.515 109.975C307.515 127.571 321.78 141.836 339.376 141.836Z" fill="#A15842"/>
<path d="M318.71 131.885C320.652 132.783 304.296 93.9712 295.948 100.024C288.093 105.738 308.846 127.335 318.71 131.885Z" fill="#30242A"/>
<path d="M319.615 134.26C321.397 136.388 363.129 121.788 357.355 113.367C351.835 105.266 317.832 132.125 319.615 134.26Z" fill="#30242A"/>
<path d="M375.015 241.004C375.015 241.004 403.032 217.657 384.993 191.643C373.512 175.06 342.296 181.665 342.296 181.665C343.055 172.559 345.529 146.326 325.8 131.912C306.072 117.498 281.042 125.087 271.923 136.461C262.804 147.836 265.098 169.087 262.065 184.259C259.032 199.432 261.054 209.748 270.406 214.604C278.914 219.021 288.924 216.353 288.924 216.353L287.86 232.364C287.86 232.364 268.57 233.089 256.751 237.366C228.269 247.675 178.229 318.382 178.229 318.382C146.88 317.051 117.527 315.721 117.527 315.721L132.872 361.085C132.872 361.085 171.557 373.756 199.574 366.406C227.996 358.963 254.941 319.047 254.941 319.047L264.254 345.726L248.243 390.418H387.66L364.313 349.059C368.351 312.382 375.015 241.004 375.015 241.004Z" fill="#EAA58B"/>
<path d="M330.217 230.701L293.634 297.037L278.668 233.029C272.089 233.694 263.322 234.984 256.817 237.339C228.269 247.675 178.229 318.382 178.229 318.382C146.88 317.051 117.527 315.721 117.527 315.721L132.872 361.085C132.872 361.085 171.557 373.756 199.574 366.406C227.996 358.963 254.941 319.047 254.941 319.047L264.254 345.726L248.243 390.418H387.66L364.313 349.065C368.304 312.375 374.956 240.997 374.956 240.997C368.779 237.237 362.016 234.539 354.948 233.015C346.986 231.219 338.232 232.29 330.217 230.701Z" fill="#4756DF"/>
<path d="M140.761 385.755H256.285L230.018 302.797C229.246 300.352 227.715 298.217 225.647 296.701C223.579 295.186 221.081 294.369 218.518 294.369H120.886C118.989 294.368 117.118 294.815 115.426 295.672C113.734 296.53 112.268 297.775 111.148 299.306C110.027 300.836 109.283 302.61 108.977 304.482C108.671 306.354 108.811 308.272 109.385 310.08L131.096 378.685C131.747 380.737 133.035 382.528 134.773 383.8C136.51 385.071 138.608 385.756 140.761 385.755Z" fill="#30242A"/>
<path d="M157.975 331.898C161.041 327.707 174.95 338.775 175.974 339.687C176.506 338.775 183.75 327.714 189.058 331.898C193.667 335.529 183.537 351.752 180.843 355.89C180.73 356.015 180.592 356.115 180.438 356.184C180.284 356.253 180.117 356.288 179.948 356.288C179.78 356.288 179.613 356.253 179.459 356.184C179.305 356.115 179.167 356.015 179.054 355.89C174.138 351.752 155.314 335.529 157.975 331.898Z" fill="#A15842"/>
<path d="M174.828 334.703C175.989 334.341 176.033 331.168 174.926 327.615C173.82 324.062 171.982 321.475 170.821 321.837C169.66 322.198 169.616 325.372 170.722 328.925C171.829 332.478 173.667 335.065 174.828 334.703Z" fill="#A15842"/>
<path d="M323.366 376.416C323.7 377.49 323.778 378.626 323.593 379.735C323.407 380.844 322.964 381.893 322.299 382.799C321.634 383.705 320.765 384.443 319.762 384.951C318.76 385.46 317.652 385.726 316.528 385.729H140.761C138.608 385.729 136.51 385.044 134.773 383.773C133.035 382.502 131.747 380.71 131.096 378.658L130.378 376.39L323.366 376.416Z" fill="#30242A"/>
<path d="M532.092 385.755H17.1215V402.431H532.092V385.755Z" fill="#FFBE21"/>
<path d="M429.319 477.134L440.014 435.303H377.623C363.723 435.303 350.219 439.931 339.24 448.455C328.261 456.98 320.432 468.916 316.987 482.382L309.737 510.718H386.064C395.979 510.717 405.612 507.416 413.444 501.336C421.276 495.255 426.861 486.74 429.319 477.134Z" fill="#FFB7D5"/>
<path d="M311.214 499.75L308.746 510.179" stroke="#A15842" stroke-width="4" stroke-linecap="round" stroke-linejoin="round"/>
<path d="M111.966 318.122C104.204 322 100.326 328.465 100.326 332.995C100.326 339.607 107.057 340.85 107.057 340.85C107.057 340.85 102.035 348.746 110.769 352.451C110.769 352.451 110.769 360.579 118.904 360.579C118.904 360.579 117.826 366.918 126.314 367.517C134.801 368.115 143.534 363.685 144.273 360.818C145.117 357.433 142.836 354.599 136.677 353.701C136.677 353.701 144.991 349.817 143.674 344.915C142.357 340.012 136.737 340.125 136.737 340.125C136.737 340.125 142.118 336.899 139.244 332.144C136.371 327.388 130.876 329.037 130.876 329.037C130.876 329.037 132.313 325.712 129.799 323.177C126.806 320.184 113.935 323.962 113.935 323.962L111.966 318.122Z" fill="#EAA58A"/>
<path d="M118.964 360.892C125.968 359.213 132.763 356.758 139.224 353.575" stroke="#A15842" stroke-width="4" stroke-miterlimit="10" stroke-linecap="round"/>
<path d="M110.749 352.411C120.46 349.748 129.732 345.686 138.273 340.352" stroke="#A15842" stroke-width="4" stroke-miterlimit="10" stroke-linecap="round"/>
<path d="M106.392 341.795C115.391 339.133 123.894 335.014 131.562 329.603" stroke="#A15842" stroke-width="4" stroke-miterlimit="10" stroke-linecap="round"/>
<path d="M385.026 191.643C373.545 175.06 342.33 181.665 342.33 181.665C343.088 172.559 345.562 146.326 325.834 131.912C306.105 117.498 281.075 125.087 271.956 136.461C268.244 141.117 266.429 147.383 265.371 154.221C271.424 155.239 280.304 153.157 280.304 153.157C292.443 166.812 303.318 168.981 303.318 168.981C311.812 160.487 326.712 160.766 329.133 173.637C331.647 187 310.302 193.006 310.302 193.006C310.302 193.006 308.307 217.018 318.949 225.692C322.216 228.281 326.078 230.012 330.184 230.727C338.166 232.317 346.952 231.246 354.974 233.029C362.043 234.553 368.806 237.251 374.982 241.011C377.419 238.863 379.646 236.489 381.634 233.92C388.631 225.047 396.999 208.937 385.026 191.643Z" fill="#A15842"/>
<path d="M292.968 148.288C288.977 151.614 284.321 153.609 278.96 154.939" stroke="#EAA58B" stroke-width="4" stroke-miterlimit="10" stroke-linecap="round"/>
<path d="M288.705 217.85C291.802 216.817 294.79 215.48 297.624 213.859" stroke="#A15842" stroke-width="4" stroke-miterlimit="10" stroke-linecap="round"/>
<path d="M311.12 179.59L317.187 175.799" stroke="#A15842" stroke-width="4" stroke-miterlimit="10" stroke-linecap="round"/>
<path d="M276.313 197.396C277.57 198.175 282.299 198.78 284.175 195.168" stroke="#A15842" stroke-width="4" stroke-miterlimit="10" stroke-linecap="round"/>
<path d="M288.671 180.328C289.928 180.328 290.946 179.31 290.946 178.054C290.946 176.797 289.928 175.779 288.671 175.779C287.415 175.779 286.397 176.797 286.397 178.054C286.397 179.31 287.415 180.328 288.671 180.328Z" fill="#30242A"/>
<path d="M269.814 177.315C271.071 177.315 272.089 176.297 272.089 175.04C272.089 173.784 271.071 172.766 269.814 172.766C268.558 172.766 267.539 173.784 267.539 175.04C267.539 176.297 268.558 177.315 269.814 177.315Z" fill="#30242A"/>
<path d="M276.22 183.827C275.767 185.257 275.375 186.814 275.634 187.333C275.991 187.99 276.532 188.529 277.191 188.882" stroke="#A15842" stroke-width="4" stroke-miterlimit="10" stroke-linecap="round"/>
<path d="M313.974 201.879C318.375 201.879 321.943 198.312 321.943 193.911C321.943 189.51 318.375 185.942 313.974 185.942C309.573 185.942 306.005 189.51 306.005 193.911C306.005 198.312 309.573 201.879 313.974 201.879Z" fill="#F5EBDD"/>
<path d="M275.64 176.319C277.018 169.234 272.965 162.484 266.586 161.242C260.207 160.001 253.918 164.739 252.54 171.825C251.161 178.911 255.215 185.661 261.594 186.902C267.972 188.143 274.261 183.405 275.64 176.319Z" stroke="#30242A" stroke-width="4" stroke-miterlimit="10" stroke-linecap="round"/>
<path d="M304.541 179.863C305.92 172.777 301.866 166.027 295.487 164.786C289.108 163.545 282.819 168.283 281.441 175.369C280.062 182.454 284.116 189.205 290.495 190.446C296.874 191.687 303.162 186.949 304.541 179.863Z" stroke="#30242A" stroke-width="4" stroke-miterlimit="10" stroke-linecap="round"/>
<path d="M276.187 175.247L280.783 175.739" stroke="#30242A" stroke-width="4" stroke-miterlimit="10" stroke-linecap="round"/>
<path d="M343.853 182.543L342.529 191.057" stroke="#30242A" stroke-width="4" stroke-miterlimit="10" stroke-linecap="round"/>
<path d="M247.611 301.706L254.05 320.444" stroke="#30242A" stroke-width="4" stroke-linecap="round" stroke-linejoin="round"/>
<path d="M281.627 344.396H264.699" stroke="#30242A" stroke-width="4" stroke-linecap="round" stroke-linejoin="round"/>
<path d="M294.971 296.372L300.305 322.386V346.398" stroke="#30242A" stroke-width="4" stroke-linecap="round" stroke-linejoin="round"/>
<path d="M259.491 236.76L269.622 259.682L257.615 258.351L300.305 322.386" stroke="#30242A" stroke-width="4" stroke-linecap="round" stroke-linejoin="round"/>
<path d="M358.194 234.033L340.999 258.351L357.01 257.014L298.303 309.043" stroke="#30242A" stroke-width="4" stroke-linecap="round" stroke-linejoin="round"/>
<path d="M367.133 315.575L354.342 297.708" stroke="#30242A" stroke-width="4" stroke-linecap="round" stroke-linejoin="round"/>
<path d="M381.933 381.425C374.969 379.104 362.471 374.621 354.934 370.117" stroke="#30242A" stroke-width="4" stroke-linecap="round" stroke-linejoin="round"/>
<path d="M189.836 215.914C197.062 215.914 202.919 210.057 202.919 202.831C202.919 195.605 197.062 189.747 189.836 189.747C182.61 189.747 176.752 195.605 176.752 202.831C176.752 210.057 182.61 215.914 189.836 215.914Z" fill="#FFB7D5"/>
<path d="M150.733 150.762L143.115 141.577C141.943 140.163 139.846 139.968 138.432 141.14L138.269 141.276C136.855 142.449 136.659 144.545 137.832 145.959L145.449 155.144C146.622 156.558 148.718 156.754 150.132 155.581L150.296 155.445C151.71 154.273 151.905 152.176 150.733 150.762Z" fill="#4756DF"/>
<path d="M164.434 161.924L156.771 152.678L19.0372 266.885C17.836 267.882 17.08 269.315 16.9353 270.869C16.7906 272.424 17.2691 273.972 18.2656 275.173L18.4186 275.359C18.9116 275.954 19.5169 276.445 20.1999 276.806C20.8829 277.166 21.6303 277.389 22.3993 277.461C23.1683 277.532 23.9439 277.452 24.6818 277.224C25.4197 276.995 26.1054 276.624 26.6998 276.131L69.762 240.412V365.747H81.7813V230.435L164.434 161.924Z" fill="#3EC1F3"/>
<path d="M142.237 164.584L146.075 169.24C147.412 170.856 148.428 172.711 149.068 174.708" stroke="#4756DF" stroke-width="4" stroke-miterlimit="10"/>
<path d="M75.7683 243.186C84.4269 243.186 91.446 236.166 91.446 227.508C91.446 218.849 84.4269 211.83 75.7683 211.83C67.1097 211.83 60.0906 218.849 60.0906 227.508C60.0906 236.166 67.1097 243.186 75.7683 243.186Z" fill="#4756DF"/>
<path d="M75.7683 233.534C79.0966 233.534 81.7946 230.836 81.7946 227.508C81.7946 224.18 79.0966 221.482 75.7683 221.482C72.4401 221.482 69.742 224.18 69.742 227.508C69.742 230.836 72.4401 233.534 75.7683 233.534Z" fill="#3EC1F3"/>
<path d="M200.578 195.401L180.524 211.977" stroke="#A15842" stroke-width="4" stroke-miterlimit="10"/>
<path d="M174.597 160.247C170.38 159.752 166.516 157.651 163.808 154.381L158.487 147.949C156.606 145.684 153.904 144.259 150.973 143.986C148.042 143.713 145.123 144.614 142.856 146.492C141.734 147.422 140.807 148.564 140.126 149.853C139.446 151.141 139.026 152.552 138.891 154.002C138.756 155.453 138.908 156.917 139.338 158.309C139.768 159.701 140.469 160.995 141.399 162.116L146.72 168.568C149.417 171.829 150.757 176.001 150.465 180.222L149.135 199.671C148.476 209.187 150.891 218.664 156.026 226.703L157.729 229.364L221.537 176.437L219.249 174.289C212.304 167.755 203.443 163.625 193.973 162.509L174.597 160.247Z" fill="#3EC1F3"/>
<path d="M81.7813 365.747H69.7619L51.9956 370.59C48.6691 371.497 45.7334 373.474 43.6407 376.214C41.5481 378.955 40.4147 382.307 40.4152 385.755H111.121C111.121 382.306 109.987 378.953 107.893 376.212C105.799 373.472 102.862 371.496 99.5343 370.59L81.7813 365.747Z" fill="#3EC1F3"/>
<path d="M209.431 167.025L151.037 215.289" stroke="#4756DF" stroke-width="4" stroke-miterlimit="10" stroke-linecap="round"/>
<path d="M69.4693 364.37H81.7813" stroke="#4756DF" stroke-width="4" stroke-miterlimit="10" stroke-linecap="round"/>
<path d="M42.7499 377.441H108.387" stroke="#4756DF" stroke-width="4" stroke-miterlimit="10" stroke-linecap="round"/>
<path d="M497.599 557.416C496.269 546.109 496.934 520.726 511.608 501.384C526.281 482.041 506.286 490.076 500.3 495.397C490.722 503.911 482.288 512.073 474.951 539.424L497.599 557.416Z" fill="#30242A"/>
<path d="M320.422 677.484H242.113V674.923C242.115 671.313 243.55 667.851 246.103 665.299C248.657 662.747 252.119 661.314 255.729 661.314H320.828L320.422 677.484Z" fill="#A15842"/>
<path d="M511.448 602.72L494.932 677.484H464.242V672.828C464.242 669.826 465.432 666.946 467.552 664.82C469.671 662.694 472.547 661.496 475.55 661.487C475.55 661.487 460.211 649.986 450.872 638.645C450.872 638.645 434.862 658.154 412.18 654.815L410.537 662.797C409.683 666.94 407.427 670.662 404.15 673.337C400.873 676.012 396.775 677.476 392.545 677.484H318.16C285.169 677.484 268.939 672.448 268.007 653.664C267.979 652.948 268.095 652.233 268.35 651.563C268.604 650.892 268.992 650.28 269.489 649.763C269.986 649.247 270.582 648.835 271.242 648.555C271.902 648.274 272.612 648.13 273.329 648.13H294.095C294.951 648.131 295.797 647.94 296.569 647.57C297.342 647.201 298.021 646.662 298.558 645.995L307.398 635.027C310.018 631.781 313.515 629.355 317.473 628.038C321.432 626.721 325.685 626.568 329.727 627.597L347.507 632.14C347.507 632.14 379.009 586.87 407.544 555.428C434.815 525.409 486.112 522.17 506.32 561.268C512.816 574.063 514.631 588.728 511.448 602.72Z" fill="#A15842"/>
<path d="M325.497 677.484V674.923C325.497 673.135 325.849 671.365 326.534 669.713C327.218 668.062 328.221 666.561 329.485 665.298C330.75 664.034 332.251 663.031 333.903 662.348C335.555 661.664 337.325 661.313 339.113 661.314H348.179" stroke="#30242A" stroke-width="4" stroke-miterlimit="10"/>
<path d="M449.635 639.177C444.979 633.637 429.088 613.236 430.226 593.282C431.443 571.93 444.234 560.596 444.234 560.596" stroke="#30242A" stroke-width="4" stroke-miterlimit="10" stroke-linecap="round"/>
<path d="M416.218 626.626C416.218 626.626 415.366 642.41 413.657 654.197" stroke="#30242A" stroke-width="4" stroke-miterlimit="10" stroke-linecap="round"/>
<path d="M480.252 670.653V676.819" stroke="#30242A" stroke-width="4" stroke-miterlimit="10" stroke-linecap="round"/>
<path d="M472.915 670.653V676.819" stroke="#30242A" stroke-width="4" stroke-miterlimit="10" stroke-linecap="round"/>
<path d="M340.17 670.653V676.819" stroke="#30242A" stroke-width="4" stroke-miterlimit="10" stroke-linecap="round"/>
<path d="M332.834 670.653V676.819" stroke="#30242A" stroke-width="4" stroke-miterlimit="10" stroke-linecap="round"/>
<path d="M313.158 652.64C311.501 652.64 310.158 651.297 310.158 649.64C310.158 647.984 311.501 646.64 313.158 646.64C314.815 646.64 316.158 647.984 316.158 649.64C316.158 651.297 314.815 652.64 313.158 652.64Z" fill="#30242A"/>
<path d="M329.528 627.537V627.457L347.534 632.113L329.754 627.57L329.528 627.537Z" fill="#30242A"/>
<path d="M373.84 661.613C379.055 664.274 386.425 669.482 385.813 677.371H356.852L350.766 667.773C349.771 666.203 348.396 664.91 346.768 664.013C345.14 663.116 343.312 662.646 341.454 662.644H339.518L329.594 627.737L329.741 627.584L347.52 632.127L364.542 653.931C367.047 657.136 370.22 659.757 373.84 661.613Z" fill="#30242A"/>
<path d="M416.138 571.724C416.138 571.724 424.193 599.607 398.178 610.137C384.988 615.458 374.033 611.42 366.431 606.146C377.918 590.847 393.117 571.371 407.551 555.461C411.17 551.479 415.236 547.928 419.67 544.878C423.607 550.239 427.918 563.503 416.138 571.724Z" fill="#EAA58B"/>
<path d="M482.587 591.945C476.507 591.945 471.578 587.016 471.578 580.936C471.578 574.857 476.507 569.928 482.587 569.928C488.667 569.928 493.595 574.857 493.595 580.936C493.595 587.016 488.667 591.945 482.587 591.945Z" fill="#EAA58B"/>
<path d="M273.302 648.13H277.293C277.513 649.243 277.484 650.391 277.208 651.491C276.932 652.591 276.416 653.617 275.697 654.494C274.978 655.372 274.073 656.079 273.049 656.566C272.024 657.053 270.904 657.306 269.77 657.31C269.301 657.309 268.834 657.265 268.373 657.176C268.17 656.015 268.039 654.842 267.981 653.664C267.952 652.948 268.069 652.233 268.323 651.563C268.578 650.892 268.965 650.28 269.462 649.763C269.959 649.247 270.555 648.835 271.215 648.555C271.875 648.274 272.585 648.13 273.302 648.13Z" fill="#30242A"/>
<path d="M355.007 326.663C346.799 325.928 338.546 325.836 330.324 326.39C318.564 327.354 302.753 330.434 296.401 333.507C290.048 336.58 265.724 347.429 272.275 351.067C278.262 354.393 290.82 349.391 290.82 349.391C290.82 349.391 278.288 360.912 276.133 365.734C273.978 370.556 281.102 373.264 281.102 373.264C282.978 381.498 291.372 377.96 291.372 377.96C296.66 389.207 325.228 364.836 325.228 364.836C332.025 365.542 338.889 365.253 345.602 363.978C345.602 363.978 349.221 366.007 355.027 368.827L355.007 326.663Z" fill="#EAA58A"/>
<path d="M426.379 383.088C479.744 357.739 402.387 263.027 375.015 241.004L359.677 303.043L379.02 329.722C370.546 328.259 362.444 327.255 355.007 326.663V368.827C371.942 377.062 407.528 392.068 426.379 383.088Z" fill="#4756DF"/>
<path d="M288.266 350.09C293.002 346.172 300.864 339.84 306.73 336.022" stroke="#A15842" stroke-width="4" stroke-miterlimit="10" stroke-linecap="round"/>
<path d="M313.196 345.38C299.567 354.207 287.148 366 281.002 372.173" stroke="#A15842" stroke-width="4" stroke-miterlimit="10" stroke-linecap="round"/>
<path d="M319.242 355.364C309.93 361.756 299.121 371.448 292.064 378.099" stroke="#A15842" stroke-width="4" stroke-miterlimit="10" stroke-linecap="round"/>
<path d="M479.345 351.779C480.354 351.781 481.32 352.182 482.034 352.895C482.747 353.609 483.148 354.575 483.15 355.584V356.149C483.148 357.158 482.747 358.124 482.034 358.838C481.32 359.551 480.354 359.952 479.345 359.954H459.743V351.779H479.345ZM479.345 346.458H455.14C455.045 346.458 454.951 346.477 454.864 346.513C454.776 346.55 454.697 346.603 454.63 346.671C454.563 346.738 454.51 346.818 454.475 346.906C454.439 346.994 454.421 347.088 454.422 347.183V364.577C454.422 364.767 454.497 364.95 454.632 365.085C454.767 365.219 454.95 365.295 455.14 365.295H479.345C480.545 365.295 481.734 365.058 482.842 364.598C483.951 364.139 484.958 363.465 485.805 362.615C486.653 361.765 487.325 360.757 487.782 359.648C488.24 358.538 488.474 357.349 488.471 356.149V355.564C488.471 353.143 487.51 350.822 485.798 349.111C484.087 347.399 481.766 346.438 479.345 346.438V346.458Z" fill="#3EC1F3"/>
<path d="M450.078 343.591C430.257 343.591 421.097 327.794 421.097 327.794L434.401 385.755H465.716L479.019 327.794C475.93 332.664 471.653 336.669 466.59 339.432C461.528 342.196 455.846 343.627 450.078 343.591Z" fill="#3EC1F3"/>
<path d="M450.078 343.591C455.852 343.634 461.543 342.206 466.613 339.442C471.683 336.678 475.966 332.67 479.059 327.794H421.097C421.097 327.794 430.257 343.591 450.078 343.591Z" fill="#30242A"/>
</g>
</svg>
