<svg width="789" height="942" viewBox="0 0 789 942" fill="none" xmlns="http://www.w3.org/2000/svg">
<mask id="mask0_105_3" style="mask-type:alpha" maskUnits="userSpaceOnUse" x="0" y="0" width="789" height="942">
<path d="M406.283 274.04C433.324 258.871 466.311 258.871 493.351 274.04L512.096 284.555C525.089 291.837 539.67 295.744 554.528 295.925L576.019 296.191C607.021 296.574 635.588 313.068 651.422 339.724L662.398 358.203C669.993 370.991 680.672 381.67 693.46 389.265L711.938 400.241C738.595 416.075 755.088 444.642 755.472 475.644L755.739 497.135C755.926 512.02 759.837 526.616 767.108 539.567L777.624 558.312C785.08 571.586 789 586.585 789 601.846C789 617.106 785.08 632.106 777.624 645.379L767.108 664.124C759.837 677.075 755.926 691.671 755.739 706.556L755.472 728.047C755.088 759.049 738.595 787.616 711.938 803.45L693.46 814.426C680.672 822.022 669.993 832.7 662.398 845.488L651.421 863.967C635.588 890.624 607.021 907.116 576.019 907.501L554.528 907.767C539.67 907.947 525.088 911.854 512.096 919.137L493.351 929.651C466.311 944.82 433.324 944.82 406.283 929.651L387.538 919.137C374.546 911.854 359.965 907.947 345.107 907.767L323.616 907.501C292.614 907.116 264.046 890.624 248.213 863.967L237.237 845.488C229.642 832.7 218.962 822.022 206.174 814.426L187.696 803.449C161.039 787.616 144.547 759.049 144.162 728.047L143.896 706.556C143.709 691.671 139.798 677.075 132.527 664.124L122.012 645.379C114.556 632.106 110.636 617.106 110.636 601.846C110.636 586.585 114.556 571.586 122.012 558.312L132.527 539.567C139.798 526.616 143.709 512.02 143.896 497.135L144.163 475.644C144.547 444.642 161.039 416.075 187.697 400.241L206.175 389.265C218.962 381.67 229.642 370.991 237.237 358.203L248.213 339.724C264.046 313.068 292.614 296.574 323.616 296.191L345.107 295.925C359.965 295.744 374.546 291.837 387.538 284.555L406.283 274.04Z" fill="#FFD9DD"/>
<path d="M9.96786 605.414L9.96787 940.292L361.528 940.292H427.745C453.497 940.292 745.318 724.717 745.318 724.717V339.918L412.022 0L0 339.918L9.96786 605.414Z" fill="#FFD9DD"/>
</mask>
<g mask="url(#mask0_105_3)">
<path d="M406.283 274.04C433.324 258.871 466.311 258.871 493.351 274.04L512.096 284.555C525.088 291.837 539.67 295.744 554.528 295.925L576.019 296.191C607.021 296.574 635.588 313.068 651.422 339.724L662.398 358.203C669.993 370.991 680.672 381.67 693.46 389.265L711.938 400.241C738.595 416.075 755.088 444.642 755.472 475.644L755.739 497.135C755.926 512.02 759.837 526.616 767.108 539.567L777.623 558.312C785.08 571.586 789 586.585 789 601.846C789 617.106 785.08 632.105 777.623 645.379L767.108 664.124C759.837 677.075 755.926 691.671 755.739 706.556L755.472 728.047C755.088 759.049 738.595 787.616 711.938 803.45L693.46 814.426C680.672 822.022 669.993 832.7 662.398 845.488L651.421 863.967C635.588 890.624 607.021 907.116 576.019 907.501L554.528 907.767C539.67 907.947 525.088 911.854 512.096 919.137L493.351 929.651C466.311 944.82 433.324 944.82 406.283 929.651L387.538 919.137C374.546 911.854 359.965 907.947 345.107 907.767L323.616 907.501C292.614 907.116 264.046 890.624 248.213 863.967L237.237 845.488C229.642 832.7 218.962 822.022 206.174 814.426L187.696 803.449C161.039 787.616 144.547 759.049 144.162 728.047L143.896 706.556C143.709 691.671 139.798 677.075 132.527 664.124L122.012 645.379C114.556 632.106 110.636 617.106 110.636 601.846C110.636 586.585 114.556 571.586 122.012 558.312L132.527 539.567C139.798 526.616 143.709 512.02 143.896 497.135L144.163 475.644C144.547 444.642 161.039 416.075 187.697 400.241L206.175 389.265C218.962 381.67 229.642 370.991 237.237 358.203L248.213 339.724C264.046 313.068 292.614 296.574 323.616 296.191L345.107 295.925C359.965 295.744 374.546 291.837 387.538 284.555L406.283 274.04Z" fill="#FFD9DD"/>
<path d="M533.759 707.542H299.395L303.357 691.821H406.233L445.47 538.373C450.816 517.472 462.967 498.944 480.008 485.713C497.048 472.482 518.009 465.299 539.583 465.299C592.376 465.299 631.005 515.059 617.911 566.203L593.666 661.016C590.263 674.321 582.529 686.116 571.682 694.54C560.835 702.964 547.493 707.539 533.759 707.542Z" fill="#FFB7D5"/>
<path d="M301.209 852.761V869.404H450.575V852.761H301.209Z" fill="#A15842"/>
<path d="M475.179 929.549L436.328 698.299H315.446L276.596 929.549C276.412 930.649 276.471 931.776 276.767 932.851C277.063 933.926 277.59 934.924 278.311 935.775C279.032 936.625 279.93 937.309 280.942 937.777C281.954 938.246 283.055 938.488 284.17 938.488C285.923 938.486 287.621 937.886 288.986 936.787C290.35 935.687 291.298 934.155 291.671 932.443L342.557 698.299H409.255L460.121 932.443C460.494 934.155 461.441 935.689 462.805 936.789C464.17 937.888 465.87 938.488 467.622 938.488C468.736 938.486 469.836 938.241 470.845 937.771C471.855 937.302 472.75 936.618 473.469 935.767C474.188 934.917 474.713 933.92 475.009 932.847C475.304 931.773 475.362 930.648 475.179 929.549Z" fill="#A15842"/>
<path d="M424.947 852.761V869.404H574.313V852.761H424.947Z" fill="#FFBE21"/>
<path d="M598.917 929.549L560.03 698.299H439.194L400.344 929.549C400.16 930.649 400.219 931.776 400.515 932.851C400.811 933.926 401.338 934.924 402.059 935.775C402.78 936.625 403.678 937.309 404.69 937.777C405.702 938.246 406.803 938.488 407.918 938.488C409.67 938.488 411.368 937.888 412.731 936.788C414.094 935.688 415.04 934.155 415.41 932.443L466.277 698.299H532.984L583.851 932.443C584.224 934.157 585.172 935.692 586.539 936.792C587.905 937.891 589.607 938.49 591.361 938.488C592.475 938.486 593.575 938.241 594.584 937.771C595.594 937.302 596.489 936.618 597.208 935.767C597.927 934.917 598.452 933.92 598.747 932.847C599.043 931.773 599.101 930.648 598.917 929.549Z" fill="#FFBE21"/>
<path d="M476.829 661.016L491.647 603.062H393.443C374.185 603.063 355.475 609.473 340.263 621.283C325.052 633.093 314.204 649.63 309.43 668.286L299.395 707.542H416.913C430.649 707.541 443.993 702.967 454.841 694.543C465.69 686.118 473.426 674.323 476.829 661.016Z" fill="#FFB7D5"/>
<path d="M305.78 690.283H430.459" stroke="#A15842" stroke-width="4" stroke-linecap="round" stroke-linejoin="round"/>
<path d="M406.676 689.702L428.524 604.279" stroke="#A15842" stroke-width="4" stroke-linecap="round" stroke-linejoin="round"/>
<path d="M607.028 601.082H548.052" stroke="#A15842" stroke-width="4" stroke-linecap="round" stroke-linejoin="round"/>
<path d="M618.084 559.614H542.521" stroke="#A15842" stroke-width="4" stroke-linecap="round" stroke-linejoin="round"/>
<path d="M342.844 540.889C342.844 540.889 268.912 561.024 237.507 576.735C185.728 602.62 185.903 619.705 154.333 715.347C125.186 803.737 121.979 846.578 81.774 848.273C51.0789 849.563 41.0161 859.608 36.04 873.375L157.503 931.005C158.895 931.664 160.486 931.766 161.951 931.29C163.416 930.814 164.643 929.795 165.382 928.444C166.134 927.062 166.317 925.441 165.892 923.927C165.467 922.412 164.467 921.123 163.105 920.335L160.553 918.86C171.841 905.185 193.616 876.047 215.327 831.788L229.149 838.238C229.149 838.238 251.477 809.22 255.016 776.304C259.623 733.796 256.859 705.146 276.275 688.513L502.687 540.852L342.844 540.889Z" fill="#FF7235"/>
<path d="M69.8398 855.102C72.245 850.098 85.6067 819.615 93.292 823.301C103.29 828.093 77.3409 858.695 77.3409 858.695L69.8398 855.102Z" fill="#30242A"/>
<path d="M36.0303 873.808L157.493 931.429C158.899 932.1 160.511 932.2 161.989 931.709C163.468 931.218 164.698 930.173 165.423 928.793C166.148 927.414 166.31 925.808 165.877 924.311C165.443 922.815 164.446 921.545 163.096 920.767L160.543 919.293L160.801 918.98L77.3134 879.567C78.5644 876.101 79.4417 872.512 79.9305 868.859C92.426 871.025 117.712 873.356 117.841 862.934C117.979 853.222 90.3618 857.119 80.2714 859.866C80.0539 856.132 79.3285 852.446 78.1151 848.909C50.2767 850.826 40.8036 860.594 36.0303 873.808Z" fill="#30242A"/>
<path d="M237.507 576.735C231.692 579.638 226.541 582.43 221.924 585.232L214.838 607.928L242.114 588.715L267.262 608.767L257.992 581.278L286.475 568.23L264.461 565.466C255.282 568.741 246.285 572.503 237.507 576.735Z" fill="#FFB7D5"/>
<path d="M317.87 564.922L316.027 576.929L328.044 572.312L317.87 564.922Z" fill="#FFB7D5"/>
<path d="M248.564 624.985L231.01 648.087L206.055 636.08L220.836 661.025L197.734 680.432L227.305 676.736L237.479 710.933L247.643 676.736L279.987 667.494L248.564 654.556V624.985Z" fill="#FFB7D5"/>
<path d="M149.872 801.378L152.029 795.223L181.517 793.656L157.558 777.346L168.229 751.792L144.095 767.882L139.487 762.906C135.801 775.042 132.539 785.851 129.351 795.352H129.498C129.848 794.31 130.198 793.26 130.549 792.191L149.872 801.378Z" fill="#FFB7D5"/>
<path d="M149.872 801.378L130.52 792.228C130.17 793.297 129.82 794.347 129.47 795.389C117.776 830.221 107.124 847.638 81.7916 848.707C80.5476 848.707 79.3497 848.826 78.1702 848.909C79.3835 852.447 80.1089 856.133 80.3265 859.866C90.4629 857.101 118.034 853.222 117.896 862.935C117.749 873.357 92.481 871.025 79.9855 868.86C79.4878 872.513 78.6012 876.103 77.3408 879.568L160.829 918.98C172.181 905.158 193.772 876.167 215.317 832.276L149.872 801.378Z" fill="#EAA58B"/>
<path d="M223.61 731.261L220.845 756.215L194.97 755.294L217.15 771.936L208.857 801.507L231.056 782.091L251.006 795.398C251.559 793.634 252.066 791.85 252.526 790.044L244.878 770.996L256.729 758.012C256.922 755.598 257.106 753.221 257.281 750.908L236.585 754.363L223.61 731.261Z" fill="#FFB7D5"/>
<path d="M165.971 679.39C163.639 686.596 161.133 694.42 158.368 702.925L182.954 704.427L165.971 679.39Z" fill="#FFB7D5"/>
<path d="M252.784 904.512C253.171 898.983 254.378 865.717 262.875 866.316C273.933 867.09 261.078 905.093 261.078 905.093L252.784 904.512Z" fill="#30242A"/>
<path d="M457.441 542.244C457.441 542.244 365.023 559.383 314.194 580.633C262.875 602.095 263.373 640.208 272.606 743.738C280.9 836.423 295.718 881.429 265.234 895.288C237.276 908.005 227.564 923.947 228.891 938.525H366.516C367.292 938.525 368.06 938.372 368.777 938.075C369.493 937.778 370.145 937.343 370.693 936.795C371.242 936.246 371.677 935.595 371.974 934.878C372.27 934.162 372.423 933.394 372.423 932.618C372.423 931.051 371.801 929.549 370.693 928.441C369.585 927.334 368.083 926.711 366.516 926.711H364.194C368.534 912.511 374.828 884.792 375.694 838.92H392.761C392.761 838.92 401.533 798.374 391.839 762.215C381.703 724.332 372.432 717.863 366.894 691.987H449.709C512.952 691.987 560.289 633.49 546.531 571.768C542.237 552.481 536.008 542.28 536.008 542.28L457.441 542.244Z" fill="#FF7235"/>
<path d="M400.141 596.336L383.176 617.678L356.757 608.601L372.413 634.228L352.085 661.956L378.882 650.861L393.82 678.395L395.515 648.087L421.391 642.549L399.22 628.681L400.141 596.336Z" fill="#FFB7D5"/>
<path d="M363.226 761.081L378.892 786.708L358.563 814.436L385.361 803.378L395.294 821.688C396.75 807.46 397.469 786.413 392.825 766.205L389.655 770.195L363.226 761.081Z" fill="#FFB7D5"/>
<path d="M294.132 838.883L292.944 824.6L322.948 813.026L294.547 807.137L297.68 775.963L279.25 800.079L278.697 799.848C280.467 814.731 282.015 827.733 282.881 838.984V838.883H294.132Z" fill="#FFB7D5"/>
<path d="M366.517 926.674H364.195C368.535 912.474 374.829 884.755 375.695 838.883H282.854V838.966C282.928 839.888 282.992 840.809 283.057 841.731C283.057 841.813 283.057 841.906 283.057 841.989C284.983 870.785 281.841 887.63 265.198 895.196C237.24 907.913 227.527 923.854 228.854 938.432H366.517C368.084 938.432 369.586 937.81 370.694 936.702C371.802 935.595 372.424 934.092 372.424 932.526C372.424 930.959 371.802 929.457 370.694 928.349C369.586 927.241 368.084 926.619 366.517 926.619V926.674Z" fill="#EAA58B"/>
<path d="M489.739 544.63L447.285 548.39L451.708 565.456L424.552 579.942L458.38 584.467L469.825 609.817L481.593 583.564L516.001 578.127L486.117 562.738L489.739 544.63Z" fill="#FFB7D5"/>
<path d="M287.397 664.72L297.533 632.376L327.104 636.983L304.002 616.655L320.589 597.248L290.097 608.306L285.222 599.948C277.38 608.831 272.643 619.862 270.109 634.043L275.307 634.209L287.397 664.72Z" fill="#FFB7D5"/>
<path d="M366.517 563.254C360.278 564.986 354.067 566.802 348.004 568.672L372.433 585.259L366.517 563.254Z" fill="#FFB7D5"/>
<path d="M326.21 712.776L313.272 685.979L306.803 715.55L282.779 713.707L304.951 733.114L291.091 765.458L315.152 743.029L335.093 766.02L328.983 731.261L349.311 704.464L326.21 712.776Z" fill="#FFB7D5"/>
<path d="M271.354 915.866C283.573 912.493 307.422 903.812 303.109 894.33C299.092 885.484 275.778 900.781 267.825 907.59C265.818 903.907 263.253 900.557 260.223 897.657C236.098 909.94 227.629 924.813 228.892 938.488H366.518C368.084 938.488 369.587 937.866 370.694 936.758C371.802 935.651 372.424 934.148 372.424 932.581C372.424 931.015 371.802 929.513 370.694 928.405C369.587 927.297 368.084 926.675 366.518 926.675H273.538C273.193 923.005 272.461 919.382 271.354 915.866Z" fill="#30242A"/>
<path d="M366.517 694.024L342.724 693.692" stroke="#A15842" stroke-width="4" stroke-miterlimit="10" stroke-linecap="round"/>
<path d="M384.208 559.218C359.558 565.502 333.213 573.215 313.253 581.545C270.68 599.376 263.778 628.643 267.915 697.276" stroke="#A15842" stroke-width="4" stroke-miterlimit="10" stroke-linecap="round"/>
<path d="M697.04 553.827H674.408V938.488H697.04V553.827Z" fill="#FFBE21"/>
<path d="M697.04 559.116H674.408" stroke="#A15842" stroke-width="4" stroke-miterlimit="10"/>
<path d="M368.717 264.578C355.816 262.735 326.264 276.603 325.287 304.018C324.31 331.433 348.785 340.242 352.702 342.205L409.494 333.386L413.41 270.724L368.717 264.578Z" fill="#A15842"/>
<path d="M469.051 196.498C493.429 196.498 513.191 176.736 513.191 152.358C513.191 127.98 493.429 108.218 469.051 108.218C444.673 108.218 424.911 127.98 424.911 152.358C424.911 176.736 444.673 196.498 469.051 196.498Z" fill="#A15842"/>
<path d="M440.42 182.712C443.111 183.956 420.451 130.186 408.886 138.572C398.004 146.488 426.754 176.409 440.42 182.712Z" fill="#30242A"/>
<path d="M441.674 186.002C444.143 188.951 501.958 168.724 493.96 157.057C486.311 145.834 439.204 183.044 441.674 186.002Z" fill="#30242A"/>
<path d="M518.425 333.884C518.425 333.884 557.239 301.539 532.248 265.499C516.343 242.526 473.097 251.677 473.097 251.677C474.147 239.061 477.575 202.718 450.244 182.749C422.912 162.78 388.236 173.294 375.602 189.052C362.969 204.809 366.148 234.251 361.946 255.271C357.744 276.29 360.545 290.582 373.501 297.309C385.287 303.428 399.156 299.733 399.156 299.733L397.681 321.913C397.681 321.913 370.958 322.918 354.583 328.843C315.124 343.126 245.8 441.082 245.8 441.082C202.37 439.239 161.704 437.396 161.704 437.396L182.963 500.242C182.963 500.242 236.557 517.796 275.371 507.614C314.747 497.302 352.076 442.003 352.076 442.003L364.977 478.964L342.797 540.88H535.943L503.598 483.581C509.192 432.77 518.425 333.884 518.425 333.884Z" fill="#EAA58B"/>
<path d="M456.362 319.609L405.68 411.51L384.946 322.835C375.833 323.756 363.687 325.544 354.675 328.806C315.124 343.126 245.8 441.081 245.8 441.081C202.37 439.238 161.704 437.395 161.704 437.395L182.963 500.241C182.963 500.241 236.557 517.796 275.371 507.613C314.747 497.302 352.076 442.003 352.076 442.003L364.977 478.964L342.797 540.88H535.943L503.598 483.59C509.127 432.76 518.342 333.874 518.342 333.874C509.786 328.665 500.416 324.927 490.624 322.816C479.593 320.328 467.467 321.812 456.362 319.609Z" fill="#4756DF"/>
<path d="M193.892 534.42H353.938L317.548 419.491C316.478 416.104 314.357 413.146 311.492 411.046C308.627 408.947 305.167 407.815 301.615 407.815H166.358C163.73 407.814 161.138 408.432 158.794 409.621C156.45 410.809 154.419 412.533 152.866 414.654C151.314 416.775 150.284 419.232 149.86 421.826C149.435 424.419 149.629 427.076 150.425 429.581L180.503 524.625C181.405 527.468 183.189 529.95 185.596 531.711C188.004 533.472 190.909 534.421 193.892 534.42Z" fill="#30242A"/>
<path d="M217.741 459.807C221.989 454.001 241.257 469.335 242.676 470.597C243.414 469.335 253.449 454.01 260.802 459.807C267.188 464.838 253.154 487.313 249.422 493.045C249.265 493.219 249.074 493.358 248.861 493.453C248.647 493.548 248.416 493.597 248.182 493.597C247.949 493.597 247.718 493.548 247.504 493.453C247.291 493.358 247.099 493.219 246.943 493.045C240.133 487.313 214.055 464.838 217.741 459.807Z" fill="#A15842"/>
<path d="M241.088 463.693C242.696 463.192 242.757 458.796 241.224 453.874C239.691 448.951 237.145 445.367 235.536 445.868C233.928 446.369 233.867 450.765 235.4 455.688C236.933 460.61 239.48 464.194 241.088 463.693Z" fill="#A15842"/>
<path d="M446.87 521.482C447.334 522.969 447.441 524.544 447.184 526.08C446.928 527.616 446.314 529.07 445.392 530.325C444.47 531.581 443.267 532.602 441.878 533.307C440.489 534.011 438.955 534.38 437.397 534.383H193.891C190.909 534.384 188.003 533.435 185.596 531.674C183.188 529.913 181.404 527.431 180.502 524.588L179.507 521.446L446.87 521.482Z" fill="#30242A"/>
<path d="M736.038 534.42H22.6045V557.522H736.038V534.42Z" fill="#FFBE21"/>
<path d="M593.656 661.016L608.474 603.062H522.037C502.781 603.063 484.072 609.474 468.862 621.284C453.652 633.094 442.806 649.63 438.034 668.286L427.989 707.542H533.731C547.468 707.541 560.813 702.968 571.663 694.544C582.514 686.119 590.251 674.323 593.656 661.016Z" fill="#FFB7D5"/>
<path d="M430.034 692.346L426.615 706.795" stroke="#A15842" stroke-width="4" stroke-linecap="round" stroke-linejoin="round"/>
<path d="M153.999 440.722C143.245 446.095 137.873 455.051 137.873 461.327C137.873 470.487 147.199 472.21 147.199 472.21C147.199 472.21 140.241 483.148 152.341 488.281C152.341 488.281 152.341 499.541 163.61 499.541C163.61 499.541 162.118 508.323 173.876 509.153C185.634 509.982 197.734 503.845 198.756 499.873C199.927 495.183 196.766 491.257 188.233 490.013C188.233 490.013 199.752 484.632 197.927 477.84C196.103 471.049 188.316 471.205 188.316 471.205C188.316 471.205 195.771 466.736 191.79 460.147C187.809 453.559 180.197 455.844 180.197 455.844C180.197 455.844 182.188 451.236 178.705 447.726C174.558 443.579 156.727 448.813 156.727 448.813L153.999 440.722Z" fill="#EAA58A"/>
<path d="M163.694 499.975C173.398 497.649 182.812 494.249 191.763 489.838" stroke="#A15842" stroke-width="4" stroke-miterlimit="10" stroke-linecap="round"/>
<path d="M152.313 488.225C165.767 484.536 178.613 478.908 190.445 471.519" stroke="#A15842" stroke-width="4" stroke-miterlimit="10" stroke-linecap="round"/>
<path d="M146.277 473.518C158.745 469.829 170.524 464.124 181.147 456.627" stroke="#A15842" stroke-width="4" stroke-miterlimit="10" stroke-linecap="round"/>
<path d="M532.294 265.499C516.389 242.526 473.143 251.677 473.143 251.677C474.193 239.061 477.621 202.718 450.29 182.749C422.958 162.78 388.282 173.294 375.648 189.052C370.506 195.502 367.991 204.183 366.525 213.656C374.911 215.066 387.213 212.181 387.213 212.181C404.03 231.1 419.097 234.104 419.097 234.104C430.864 222.336 451.506 222.723 454.86 240.554C458.343 259.067 428.773 267.388 428.773 267.388C428.773 267.388 426.008 300.654 440.752 312.671C445.277 316.258 450.628 318.656 456.316 319.647C467.374 321.849 479.547 320.365 490.66 322.835C500.453 324.946 509.822 328.684 518.379 333.893C521.755 330.918 524.841 327.629 527.594 324.07C537.288 311.777 548.881 289.458 532.294 265.499Z" fill="#A15842"/>
<path d="M404.758 205.436C399.229 210.044 392.779 212.808 385.352 214.651" stroke="#EAA58B" stroke-width="4" stroke-miterlimit="10" stroke-linecap="round"/>
<path d="M398.852 301.806C403.143 300.375 407.282 298.523 411.209 296.277" stroke="#A15842" stroke-width="4" stroke-miterlimit="10" stroke-linecap="round"/>
<path d="M429.906 248.802L438.31 243.549" stroke="#A15842" stroke-width="4" stroke-miterlimit="10" stroke-linecap="round"/>
<path d="M381.685 273.47C383.426 274.548 389.978 275.387 392.577 270.383" stroke="#A15842" stroke-width="4" stroke-miterlimit="10" stroke-linecap="round"/>
<path d="M398.806 249.825C400.546 249.825 401.957 248.414 401.957 246.673C401.957 244.932 400.546 243.521 398.806 243.521C397.065 243.521 395.654 244.932 395.654 246.673C395.654 248.414 397.065 249.825 398.806 249.825Z" fill="#30242A"/>
<path d="M372.682 245.65C374.422 245.65 375.833 244.239 375.833 242.498C375.833 240.758 374.422 239.347 372.682 239.347C370.941 239.347 369.53 240.758 369.53 242.498C369.53 244.239 370.941 245.65 372.682 245.65Z" fill="#30242A"/>
<path d="M381.555 254.672C380.928 256.653 380.384 258.809 380.744 259.528C381.238 260.439 381.987 261.185 382.9 261.675" stroke="#A15842" stroke-width="4" stroke-miterlimit="10" stroke-linecap="round"/>
<path d="M433.86 279.681C439.957 279.681 444.899 274.739 444.899 268.642C444.899 262.545 439.957 257.602 433.86 257.602C427.763 257.602 422.82 262.545 422.82 268.642C422.82 274.739 427.763 279.681 433.86 279.681Z" fill="#F5EBDD"/>
<path d="M380.752 244.27C382.662 234.454 377.046 225.102 368.209 223.383C359.371 221.664 350.659 228.228 348.749 238.044C346.839 247.86 352.455 257.212 361.292 258.931C370.13 260.651 378.842 254.087 380.752 244.27Z" stroke="#30242A" stroke-width="4" stroke-miterlimit="10" stroke-linecap="round"/>
<path d="M420.792 249.18C422.702 239.364 417.086 230.012 408.249 228.293C399.411 226.573 390.699 233.137 388.789 242.954C386.879 252.77 392.495 262.122 401.332 263.841C410.17 265.56 418.882 258.997 420.792 249.18Z" stroke="#30242A" stroke-width="4" stroke-miterlimit="10" stroke-linecap="round"/>
<path d="M381.509 242.784L387.876 243.466" stroke="#30242A" stroke-width="4" stroke-miterlimit="10" stroke-linecap="round"/>
<path d="M475.254 252.893L473.42 264.688" stroke="#30242A" stroke-width="4" stroke-miterlimit="10" stroke-linecap="round"/>
<path d="M341.921 417.98L350.841 443.938" stroke="#30242A" stroke-width="4" stroke-linecap="round" stroke-linejoin="round"/>
<path d="M389.046 477.121H365.594" stroke="#30242A" stroke-width="4" stroke-linecap="round" stroke-linejoin="round"/>
<path d="M407.532 410.589L414.923 446.629V479.895" stroke="#30242A" stroke-width="4" stroke-linecap="round" stroke-linejoin="round"/>
<path d="M358.379 328.004L372.413 359.759L355.78 357.916L414.922 446.629" stroke="#30242A" stroke-width="4" stroke-linecap="round" stroke-linejoin="round"/>
<path d="M495.119 324.226L471.298 357.916L493.479 356.064L412.147 428.143" stroke="#30242A" stroke-width="4" stroke-linecap="round" stroke-linejoin="round"/>
<path d="M507.506 437.193L489.785 412.441" stroke="#30242A" stroke-width="4" stroke-linecap="round" stroke-linejoin="round"/>
<path d="M528.008 528.421C518.36 525.205 501.045 518.994 490.604 512.756" stroke="#30242A" stroke-width="4" stroke-linecap="round" stroke-linejoin="round"/>
<path d="M261.88 299.125C271.89 299.125 280.006 291.009 280.006 280.999C280.006 270.988 271.89 262.873 261.88 262.873C251.869 262.873 243.754 270.988 243.754 280.999C243.754 291.009 251.869 299.125 261.88 299.125Z" fill="#FFB7D5"/>
<path d="M207.706 208.864L197.153 196.139C195.529 194.18 192.624 193.909 190.665 195.534L190.438 195.722C188.48 197.346 188.209 200.251 189.833 202.21L200.386 214.935C202.011 216.894 204.915 217.165 206.874 215.54L207.101 215.352C209.06 213.727 209.331 210.823 207.706 208.864Z" fill="#4756DF"/>
<path d="M226.688 224.327L216.072 211.518L25.2576 369.739C23.5936 371.12 22.5461 373.106 22.3457 375.259C22.1452 377.412 22.8082 379.557 24.1887 381.221L24.4006 381.479C25.0836 382.303 25.9222 382.984 26.8685 383.483C27.8147 383.983 28.8501 384.291 29.9155 384.39C30.9809 384.489 32.0554 384.378 33.0776 384.062C34.0999 383.746 35.0499 383.231 35.8733 382.548L95.5311 333.063V506.701H112.183V319.241L226.688 224.327Z" fill="#3EC1F3"/>
<path d="M195.937 228.012L201.254 234.463C203.105 236.701 204.513 239.272 205.4 242.038" stroke="#4756DF" stroke-width="4" stroke-miterlimit="10"/>
<path d="M103.852 336.906C115.847 336.906 125.571 327.182 125.571 315.187C125.571 303.191 115.847 293.467 103.852 293.467C91.8561 293.467 82.1318 303.191 82.1318 315.187C82.1318 327.182 91.8561 336.906 103.852 336.906Z" fill="#4756DF"/>
<path d="M103.853 323.535C108.464 323.535 112.201 319.797 112.201 315.186C112.201 310.575 108.464 306.837 103.853 306.837C99.2418 306.837 95.5039 310.575 95.5039 315.186C95.5039 319.797 99.2418 323.535 103.853 323.535Z" fill="#3EC1F3"/>
<path d="M276.763 270.706L248.979 293.67" stroke="#A15842" stroke-width="4" stroke-miterlimit="10"/>
<path d="M240.769 222.005C234.927 221.318 229.574 218.407 225.823 213.877L218.451 204.966C215.845 201.829 212.101 199.855 208.041 199.476C203.98 199.098 199.936 200.347 196.796 202.948C195.242 204.237 193.957 205.819 193.014 207.604C192.072 209.389 191.49 211.343 191.303 213.353C191.115 215.363 191.326 217.39 191.922 219.319C192.518 221.248 193.488 223.04 194.777 224.594L202.149 233.533C205.884 238.05 207.742 243.83 207.337 249.677L205.494 276.622C204.581 289.806 207.928 302.934 215.041 314.072L217.4 317.758L305.8 244.434L302.63 241.457C293.008 232.405 280.732 226.684 267.613 225.138L240.769 222.005Z" fill="#3EC1F3"/>
<path d="M112.181 506.701H95.5296L70.9163 513.41C66.3079 514.667 62.2407 517.405 59.3416 521.202C56.4426 524.998 54.8724 529.643 54.873 534.42H152.828C152.828 529.642 151.257 524.996 148.356 521.199C145.455 517.403 141.386 514.665 136.776 513.41L112.181 506.701Z" fill="#3EC1F3"/>
<path d="M289.028 231.395L208.13 298.258" stroke="#4756DF" stroke-width="4" stroke-miterlimit="10" stroke-linecap="round"/>
<path d="M95.126 504.794H112.183" stroke="#4756DF" stroke-width="4" stroke-miterlimit="10" stroke-linecap="round"/>
<path d="M58.1084 522.901H149.042" stroke="#4756DF" stroke-width="4" stroke-miterlimit="10" stroke-linecap="round"/>
<path d="M688.251 772.237C686.408 756.572 687.329 721.407 707.658 694.61C727.986 667.813 700.286 678.945 691.992 686.317C678.723 698.112 667.038 709.419 656.874 747.311L688.251 772.237Z" fill="#30242A"/>
<path d="M442.792 938.577H334.304V935.029C334.307 930.028 336.295 925.232 339.832 921.697C343.37 918.161 348.166 916.175 353.167 916.175H443.354L442.792 938.577Z" fill="#A15842"/>
<path d="M707.436 835L684.555 938.577H642.037V932.126C642.037 927.967 643.686 923.978 646.623 921.033C649.559 918.087 653.544 916.427 657.703 916.415C657.703 916.415 636.453 900.482 623.515 884.77C623.515 884.77 601.335 911.798 569.912 907.172L567.636 918.23C566.452 923.969 563.327 929.126 558.787 932.831C554.247 936.537 548.569 938.566 542.709 938.577H439.658C393.952 938.577 371.467 931.601 370.177 905.578C370.137 904.585 370.298 903.595 370.651 902.666C371.004 901.737 371.54 900.889 372.229 900.173C372.918 899.457 373.744 898.888 374.658 898.499C375.572 898.11 376.555 897.91 377.549 897.911H406.318C407.504 897.912 408.676 897.647 409.746 897.135C410.816 896.623 411.758 895.877 412.501 894.953L424.748 879.757C428.378 875.261 433.223 871.9 438.706 870.076C444.19 868.251 450.082 868.039 455.683 869.464L480.314 875.758C480.314 875.758 523.957 813.041 563.489 769.482C601.27 727.894 672.336 723.407 700.331 777.572C709.332 795.298 711.845 815.615 707.436 835Z" fill="#A15842"/>
<path d="M449.822 938.577V935.029C449.822 932.552 450.31 930.1 451.258 927.812C452.206 925.524 453.596 923.445 455.347 921.694C457.099 919.943 459.179 918.555 461.467 917.608C463.756 916.661 466.208 916.174 468.685 916.175H481.245" stroke="#30242A" stroke-width="4" stroke-miterlimit="10"/>
<path d="M621.801 885.507C615.35 877.831 593.336 849.569 594.912 821.924C596.598 792.344 614.318 776.642 614.318 776.642" stroke="#30242A" stroke-width="4" stroke-miterlimit="10" stroke-linecap="round"/>
<path d="M575.506 868.119C575.506 868.119 574.326 889.986 571.958 906.315" stroke="#30242A" stroke-width="4" stroke-miterlimit="10" stroke-linecap="round"/>
<path d="M664.218 929.113V937.655" stroke="#30242A" stroke-width="4" stroke-miterlimit="10" stroke-linecap="round"/>
<path d="M654.053 929.113V937.655" stroke="#30242A" stroke-width="4" stroke-miterlimit="10" stroke-linecap="round"/>
<path d="M470.15 929.113V937.655" stroke="#30242A" stroke-width="4" stroke-miterlimit="10" stroke-linecap="round"/>
<path d="M459.987 929.113V937.655" stroke="#30242A" stroke-width="4" stroke-miterlimit="10" stroke-linecap="round"/>
<path d="M432.729 904.159C430.434 904.159 428.573 902.298 428.573 900.003C428.573 897.707 430.434 895.847 432.729 895.847C435.024 895.847 436.885 897.707 436.885 900.003C436.885 902.298 435.024 904.159 432.729 904.159Z" fill="#30242A"/>
<path d="M455.407 869.381V869.271L480.352 875.721L455.72 869.427L455.407 869.381Z" fill="#30242A"/>
<path d="M516.797 916.59C524.022 920.276 534.232 927.491 533.384 938.42H493.262L484.83 925.123C483.452 922.948 481.547 921.156 479.292 919.914C477.036 918.672 474.504 918.02 471.929 918.018H469.248L455.499 869.658L455.702 869.446L480.333 875.74L503.915 905.946C507.386 910.387 511.782 914.018 516.797 916.59Z" fill="#30242A"/>
<path d="M575.396 792.058C575.396 792.058 586.555 830.688 550.515 845.275C532.242 852.647 517.065 847.053 506.532 839.746C522.446 818.551 543.503 791.57 563.499 769.528C568.513 764.011 574.147 759.092 580.289 754.867C585.744 762.294 591.715 780.669 575.396 792.058Z" fill="#EAA58B"/>
<path d="M667.453 820.072C659.031 820.072 652.202 813.244 652.202 804.821C652.202 796.399 659.031 789.571 667.453 789.571C675.876 789.571 682.704 796.399 682.704 804.821C682.704 813.244 675.876 820.072 667.453 820.072Z" fill="#EAA58B"/>
<path d="M377.511 897.911H383.04C383.345 899.453 383.304 901.043 382.922 902.567C382.54 904.091 381.825 905.512 380.829 906.728C379.833 907.943 378.58 908.923 377.16 909.597C375.741 910.272 374.19 910.624 372.618 910.628C371.969 910.628 371.321 910.566 370.683 910.443C370.402 908.834 370.22 907.21 370.139 905.578C370.1 904.585 370.261 903.595 370.614 902.666C370.966 901.737 371.503 900.89 372.191 900.174C372.88 899.457 373.706 898.888 374.62 898.499C375.535 898.11 376.518 897.91 377.511 897.911Z" fill="#30242A"/>
<path d="M490.706 452.554C479.335 451.536 467.901 451.41 456.51 452.177C440.217 453.513 418.313 457.779 409.513 462.037C400.713 466.294 367.014 481.324 376.09 486.364C384.384 490.972 401.782 484.042 401.782 484.042C401.782 484.042 384.421 500.002 381.435 506.683C378.449 513.364 388.319 517.114 388.319 517.114C390.917 528.523 402.547 523.62 402.547 523.62C409.872 539.203 449.451 505.439 449.451 505.439C458.867 506.417 468.376 506.017 477.676 504.25C477.676 504.25 482.689 507.061 490.734 510.968L490.706 452.554Z" fill="#EAA58A"/>
<path d="M589.584 530.725C663.516 495.607 556.345 364.395 518.426 333.884L497.176 419.832L523.973 456.793C512.233 454.766 501.009 453.374 490.707 452.554V510.968C514.168 522.376 563.469 543.165 589.584 530.725Z" fill="#4756DF"/>
<path d="M398.242 485.009C404.803 479.582 415.695 470.809 423.823 465.52" stroke="#A15842" stroke-width="4" stroke-miterlimit="10" stroke-linecap="round"/>
<path d="M432.782 478.485C413.901 490.714 396.696 507.052 388.182 515.603" stroke="#A15842" stroke-width="4" stroke-miterlimit="10" stroke-linecap="round"/>
<path d="M441.158 492.317C428.257 501.173 413.283 514.599 403.506 523.814" stroke="#A15842" stroke-width="4" stroke-miterlimit="10" stroke-linecap="round"/>
<path d="M662.962 487.35C664.359 487.352 665.699 487.909 666.687 488.897C667.675 489.885 668.231 491.224 668.233 492.621V493.404C668.231 494.801 667.675 496.141 666.687 497.129C665.699 498.117 664.359 498.673 662.962 498.675H635.806V487.35H662.962ZM662.962 479.978H629.429C629.297 479.978 629.167 480.004 629.046 480.055C628.925 480.105 628.814 480.179 628.722 480.273C628.629 480.366 628.556 480.477 628.507 480.599C628.457 480.721 628.432 480.851 628.434 480.983V505.08C628.434 505.344 628.538 505.597 628.725 505.783C628.912 505.97 629.165 506.075 629.429 506.075H662.962C664.625 506.075 666.271 505.747 667.807 505.11C669.343 504.473 670.738 503.539 671.912 502.362C673.086 501.185 674.017 499.788 674.651 498.251C675.284 496.714 675.609 495.067 675.605 493.404V492.593C675.605 489.24 674.273 486.024 671.902 483.653C669.531 481.282 666.315 479.95 662.962 479.95V479.978Z" fill="#3EC1F3"/>
<path d="M622.416 476.006C594.956 476.006 582.267 454.121 582.267 454.121L600.697 534.42H644.081L662.511 454.121C658.23 460.868 652.305 466.417 645.292 470.245C638.278 474.073 630.406 476.056 622.416 476.006Z" fill="#3EC1F3"/>
<path d="M622.416 476.006C630.416 476.065 638.299 474.087 645.323 470.259C652.347 466.43 658.281 460.876 662.566 454.121H582.267C582.267 454.121 594.956 476.006 622.416 476.006Z" fill="#30242A"/>
</g>
</svg>
