<svg width="215" height="56" viewBox="0 0 215 56" fill="none" xmlns="http://www.w3.org/2000/svg">
<g clip-path="url(#clip0_123_91)">
<path fill-rule="evenodd" clip-rule="evenodd" d="M4.5 5.42542H43.5C44.6919 5.4302 45.8335 5.87309 46.6763 6.65766C47.5191 7.44223 47.9949 8.50496 48 9.61451V19.3418H0V9.61451C0.0041182 8.50467 0.479546 7.44138 1.32257 6.65661C2.16559 5.87183 3.30779 5.42925 4.5 5.42542ZM14.1836 8.97087C14.9029 8.97087 15.606 9.16942 16.204 9.54142C16.8021 9.91342 17.2682 10.4422 17.5435 11.0608C17.8187 11.6794 17.8908 12.3601 17.7504 13.0168C17.6101 13.6735 17.2637 14.2767 16.7551 14.7502C16.2465 15.2237 15.5985 15.5461 14.8931 15.6767C14.1876 15.8074 13.4564 15.7403 12.7919 15.4841C12.1274 15.2278 11.5594 14.7939 11.1598 14.2372C10.7602 13.6804 10.5469 13.0259 10.5469 12.3563C10.5469 11.4584 10.93 10.5973 11.612 9.96245C12.2941 9.32755 13.2191 8.97087 14.1836 8.97087ZM33.6328 8.97087C34.3521 8.97087 35.0552 9.16942 35.6533 9.54142C36.2513 9.91342 36.7174 10.4422 36.9927 11.0608C37.268 11.6794 37.34 12.3601 37.1997 13.0168C37.0593 13.6735 36.713 14.2767 36.2044 14.7502C35.6958 15.2237 35.0478 15.5461 34.3423 15.6767C33.6368 15.8074 32.9056 15.7403 32.2411 15.4841C31.5766 15.2278 31.0086 14.7939 30.609 14.2372C30.2094 13.6804 29.9961 13.0259 29.9961 12.3563C29.9961 11.4584 30.3792 10.5973 31.0613 9.96245C31.7433 9.32755 32.6683 8.97087 33.6328 8.97087Z" fill="#E6416A"/>
<path d="M43.5 46.9999H4.5C3.30811 46.9952 2.1665 46.5523 1.3237 45.7677C0.480896 44.9831 0.00513975 43.9204 0 42.8109L0 17.5454H48V42.8036C47.9979 43.9147 47.5234 44.9798 46.6802 45.7662C45.8369 46.5525 44.6936 46.9961 43.5 46.9999V46.9999Z" fill="#808080"/>
<path fill-rule="evenodd" clip-rule="evenodd" d="M4.98047 45.6581H43.0195C43.9569 45.6543 44.8547 45.306 45.5175 44.689C46.1803 44.0719 46.5545 43.2362 46.5586 42.3636V17.5454H1.44141V42.3563C1.4445 43.2292 1.81835 44.0655 2.48139 44.6827C3.14442 45.3 4.0428 45.648 4.98047 45.6509V45.6581Z" fill="white"/>
<path fill-rule="evenodd" clip-rule="evenodd" d="M33.6328 8.31995C34.6369 8.31895 35.6103 8.6421 36.3872 9.23434C37.164 9.82658 37.6962 10.6513 37.8931 11.5678C38.0899 12.4844 37.9393 13.4362 37.4668 14.261C36.9943 15.0858 36.2292 15.7325 35.3019 16.091C34.3746 16.4495 33.3424 16.4976 32.3813 16.227C31.4202 15.9565 30.5896 15.384 30.031 14.6073C29.4725 13.8305 29.2206 12.8975 29.3182 11.9672C29.4158 11.0369 29.8569 10.1669 30.5664 9.5054L30.6094 9.46904C31.4169 8.73252 32.5023 8.31999 33.6328 8.31995V8.31995ZM33.6328 8.97086C34.3521 8.97086 35.0552 9.16941 35.6533 9.54141C36.2513 9.91341 36.7174 10.4421 36.9927 11.0608C37.2679 11.6794 37.34 12.3601 37.1996 13.0168C37.0593 13.6735 36.713 14.2767 36.2044 14.7502C35.6957 15.2237 35.0477 15.5461 34.3423 15.6767C33.6368 15.8073 32.9056 15.7403 32.2411 15.4841C31.5766 15.2278 31.0086 14.7939 30.609 14.2372C30.2094 13.6804 29.9961 13.0259 29.9961 12.3563C29.9961 11.4584 30.3792 10.5973 31.0613 9.96243C31.7433 9.32754 32.6683 8.97086 33.6328 8.97086V8.97086Z" fill="#AB154B"/>
<path fill-rule="evenodd" clip-rule="evenodd" d="M14.1836 8.31995C15.1877 8.31895 16.1611 8.6421 16.9379 9.23434C17.7148 9.82658 18.247 10.6513 18.4439 11.5678C18.6407 12.4844 18.4901 13.4362 18.0176 14.261C17.5451 15.0858 16.78 15.7325 15.8527 16.091C14.9254 16.4495 13.8932 16.4976 12.9321 16.227C11.971 15.9565 11.1404 15.384 10.5818 14.6073C10.0233 13.8305 9.77133 12.8975 9.86895 11.9672C9.96658 11.0369 10.4077 10.1669 11.1172 9.5054L11.1601 9.46904C11.9681 8.73318 13.0533 8.32076 14.1836 8.31995ZM14.1836 8.97086C14.9029 8.97086 15.606 9.16941 16.204 9.54141C16.8021 9.91341 17.2682 10.4421 17.5435 11.0608C17.8187 11.6794 17.8907 12.3601 17.7504 13.0168C17.6101 13.6735 17.2637 14.2767 16.7551 14.7502C16.2465 15.2237 15.5985 15.5461 14.8931 15.6767C14.1876 15.8073 13.4564 15.7403 12.7919 15.4841C12.1274 15.2278 11.5594 14.7939 11.1598 14.2372C10.7602 13.6804 10.5469 13.0259 10.5469 12.3563C10.5469 11.4584 10.93 10.5973 11.612 9.96243C12.2941 9.32754 13.2191 8.97086 14.1836 8.97086Z" fill="#AB154B"/>
<path d="M31.4609 4.65818C31.4609 3.72727 32.4219 3 33.6328 3C34.8437 3 35.8047 3.72727 35.8047 4.65818V12.3709C35.8047 13.2836 34.8359 14.0291 33.6328 14.0291C32.4297 14.0291 31.4609 13.3018 31.4609 12.3709V4.65818V4.65818Z" fill="#1A1A1A"/>
<path d="M12.0117 4.65818C12.0117 3.72727 12.9844 3 14.1836 3C15.3828 3 16.3555 3.72727 16.3555 4.65818V12.3709C16.3555 13.2836 15.3867 14.0291 14.1836 14.0291C12.9805 14.0291 12.0117 13.3018 12.0117 12.3709V4.65818Z" fill="#1A1A1A"/>
<g clip-path="url(#clip1_123_91)">
<path fill-rule="evenodd" clip-rule="evenodd" d="M36.6795 30.3361C37.7615 30.3361 38.6377 31.0819 38.6377 32.0028C38.6377 32.9218 37.7615 33.6696 36.6795 33.6696C36.0137 33.6696 35.4265 33.3862 35.0728 32.9553H31.7922L28.3152 40.9801L26.1721 40.984L19.6804 26.2174L16.6796 32.357L16.386 32.9592H10.2295V31.0091H14.8625L18.6793 23.1968L20.804 23.2302L27.2309 37.8512L29.9196 31.6486L30.1947 31.013H35.1028C35.4612 30.6037 36.0322 30.3361 36.6795 30.3361Z" fill="black"/>
</g>
</g>
<path d="M59.195 45V11.7H67.565V45H59.195ZM74.1856 45V21.015H82.5556V45H74.1856ZM78.3706 16.47C76.8406 16.47 75.6556 16.125 74.8156 15.435C73.9756 14.715 73.5556 13.71 73.5556 12.42C73.5556 11.22 73.9756 10.245 74.8156 9.495C75.6856 8.715 76.8706 8.325 78.3706 8.325C79.8706 8.325 81.0406 8.685 81.8806 9.405C82.7506 10.095 83.1856 11.1 83.1856 12.42C83.1856 13.62 82.7506 14.595 81.8806 15.345C81.0106 16.095 79.8406 16.47 78.3706 16.47ZM90.1557 45V20.475C90.1557 18.825 90.5157 17.325 91.2357 15.975C91.9557 14.625 92.9607 13.545 94.2507 12.735C95.5407 11.925 97.0407 11.52 98.7507 11.52C99.9507 11.52 101.046 11.685 102.036 12.015C103.056 12.345 104.001 12.81 104.871 13.41L102.621 19.395C102.231 19.275 101.871 19.185 101.541 19.125C101.211 19.035 100.926 18.99 100.686 18.99C100.176 18.99 99.7557 19.08 99.4257 19.26C99.1257 19.44 98.9007 19.71 98.7507 20.07C98.6307 20.43 98.5707 20.865 98.5707 21.375V45H94.3857C93.3657 45 92.4957 45 91.7757 45C91.0857 45 90.5457 45 90.1557 45ZM86.7807 28.485V21.78H103.161V28.485H86.7807ZM117.473 45.45C114.743 45.45 112.388 44.925 110.408 43.875C108.428 42.795 106.898 41.325 105.818 39.465C104.738 37.575 104.198 35.43 104.198 33.03C104.198 31.23 104.498 29.565 105.098 28.035C105.698 26.505 106.538 25.185 107.618 24.075C108.698 22.935 109.973 22.065 111.443 21.465C112.943 20.835 114.578 20.52 116.348 20.52C118.088 20.52 119.663 20.82 121.073 21.42C122.513 22.02 123.743 22.875 124.763 23.985C125.813 25.095 126.608 26.4 127.148 27.9C127.718 29.4 127.973 31.05 127.913 32.85L127.868 34.74H108.968L107.933 30.555H121.163L120.353 31.455V30.6C120.353 29.94 120.173 29.37 119.813 28.89C119.483 28.38 119.033 27.99 118.463 27.72C117.893 27.45 117.248 27.315 116.528 27.315C115.508 27.315 114.653 27.525 113.963 27.945C113.303 28.335 112.793 28.905 112.433 29.655C112.073 30.405 111.893 31.305 111.893 32.355C111.893 33.555 112.133 34.59 112.613 35.46C113.123 36.33 113.858 37.005 114.818 37.485C115.808 37.965 117.008 38.205 118.418 38.205C119.348 38.205 120.158 38.085 120.848 37.845C121.568 37.605 122.333 37.185 123.143 36.585L127.013 42.03C125.963 42.87 124.898 43.545 123.818 44.055C122.768 44.535 121.718 44.88 120.668 45.09C119.618 45.33 118.553 45.45 117.473 45.45ZM132.32 45V11.7H140.69V45H132.32ZM147.311 45V21.015H155.681V45H147.311ZM151.496 16.47C149.966 16.47 148.781 16.125 147.941 15.435C147.101 14.715 146.681 13.71 146.681 12.42C146.681 11.22 147.101 10.245 147.941 9.495C148.811 8.715 149.996 8.325 151.496 8.325C152.996 8.325 154.166 8.685 155.006 9.405C155.876 10.095 156.311 11.1 156.311 12.42C156.311 13.62 155.876 14.595 155.006 15.345C154.136 16.095 152.966 16.47 151.496 16.47ZM162.246 45V21.015H170.076L170.436 25.875L168.726 26.415C169.026 25.275 169.611 24.27 170.481 23.4C171.351 22.5 172.386 21.795 173.586 21.285C174.786 20.775 176.046 20.52 177.366 20.52C179.166 20.52 180.681 20.895 181.911 21.645C183.171 22.365 184.116 23.46 184.746 24.93C185.406 26.37 185.736 28.14 185.736 30.24V45H177.366V30.915C177.366 30.135 177.246 29.49 177.006 28.98C176.766 28.44 176.406 28.035 175.926 27.765C175.446 27.495 174.876 27.375 174.216 27.405C173.706 27.405 173.226 27.48 172.776 27.63C172.356 27.78 171.981 28.02 171.651 28.35C171.321 28.65 171.066 28.995 170.886 29.385C170.736 29.775 170.661 30.21 170.661 30.69V45H166.476C165.456 45 164.586 45 163.866 45C163.176 45 162.636 45 162.246 45ZM203.21 45.45C200.48 45.45 198.125 44.925 196.145 43.875C194.165 42.795 192.635 41.325 191.555 39.465C190.475 37.575 189.935 35.43 189.935 33.03C189.935 31.23 190.235 29.565 190.835 28.035C191.435 26.505 192.275 25.185 193.355 24.075C194.435 22.935 195.71 22.065 197.18 21.465C198.68 20.835 200.315 20.52 202.085 20.52C203.825 20.52 205.4 20.82 206.81 21.42C208.25 22.02 209.48 22.875 210.5 23.985C211.55 25.095 212.345 26.4 212.885 27.9C213.455 29.4 213.71 31.05 213.65 32.85L213.605 34.74H194.705L193.67 30.555H206.9L206.09 31.455V30.6C206.09 29.94 205.91 29.37 205.55 28.89C205.22 28.38 204.77 27.99 204.2 27.72C203.63 27.45 202.985 27.315 202.265 27.315C201.245 27.315 200.39 27.525 199.7 27.945C199.04 28.335 198.53 28.905 198.17 29.655C197.81 30.405 197.63 31.305 197.63 32.355C197.63 33.555 197.87 34.59 198.35 35.46C198.86 36.33 199.595 37.005 200.555 37.485C201.545 37.965 202.745 38.205 204.155 38.205C205.085 38.205 205.895 38.085 206.585 37.845C207.305 37.605 208.07 37.185 208.88 36.585L212.75 42.03C211.7 42.87 210.635 43.545 209.555 44.055C208.505 44.535 207.455 44.88 206.405 45.09C205.355 45.33 204.29 45.45 203.21 45.45Z" fill="black"/>
<circle cx="78.5" cy="11.5" r="5.5" fill="#E6416A"/>
<circle cx="151.5" cy="11.5" r="5.5" fill="#E6416A"/>
<defs>
<clipPath id="clip0_123_91">
<rect width="48" height="44" fill="white" transform="translate(0 3)"/>
</clipPath>
<clipPath id="clip1_123_91">
<rect width="28.4082" height="17.7872" fill="white" transform="translate(10.2295 23.1968)"/>
</clipPath>
</defs>
</svg>
