<svg width="52" height="52" viewBox="0 0 52 52" fill="none" xmlns="http://www.w3.org/2000/svg">
<path d="M22.6629 0.872073C24.7357 -0.290691 27.2643 -0.290691 29.3371 0.872073L30.774 1.67805C31.7699 2.23629 32.8876 2.5358 34.0266 2.54967L35.6739 2.57001C38.0504 2.59942 40.2403 3.86371 41.454 5.90708L42.2954 7.32359C42.8776 8.30382 43.6962 9.1224 44.6764 9.70464L46.0929 10.546C48.1363 11.7598 49.4005 13.9496 49.43 16.326L49.4504 17.9734C49.4648 19.1145 49.7646 20.2333 50.3219 21.226L51.128 22.6629C51.6995 23.6804 52 24.8302 52 26C52 27.1698 51.6995 28.3196 51.128 29.3371L50.3219 30.774C49.7645 31.7667 49.4648 32.8855 49.4504 34.0266L49.43 35.674C49.4005 38.0504 48.1363 40.2402 46.0929 41.454L44.6764 42.2954C43.6962 42.8776 42.8776 43.6962 42.2954 44.6764L41.4539 46.0929C40.2402 48.1363 38.0504 49.4005 35.6739 49.43L34.0266 49.4504C32.8876 49.4642 31.7699 49.7637 30.774 50.3219L29.3371 51.1279C27.2643 52.2907 24.7357 52.2907 22.6629 51.1279L21.226 50.3219C20.2301 49.7637 19.1124 49.4642 17.9734 49.4504L16.326 49.43C13.9496 49.4005 11.7597 48.1363 10.546 46.0929L9.7046 44.6764C9.12239 43.6962 8.30378 42.8776 7.32351 42.2954L5.90703 41.4539C3.86369 40.2402 2.59944 38.0504 2.56993 35.674L2.54958 34.0266C2.5352 32.8855 2.2354 31.7667 1.67806 30.774L0.872064 29.3371C0.30047 28.3196 0 27.1698 0 26C0 24.8302 0.30047 23.6804 0.872064 22.6629L1.67806 21.226C2.2354 20.2333 2.5352 19.1145 2.54958 17.9734L2.57 16.326C2.59944 13.9496 3.86369 11.7598 5.9071 10.546L7.32358 9.70464C8.30378 9.1224 9.12239 8.30382 9.7046 7.32359L10.546 5.90708C11.7597 3.86371 13.9496 2.59942 16.326 2.57001L17.9734 2.54967C19.1124 2.5358 20.2301 2.23629 21.226 1.67805L22.6629 0.872073Z" fill="#B7194A"/>
</svg>
