<svg width="40" height="40" viewBox="0 0 40 40" fill="none" xmlns="http://www.w3.org/2000/svg">
<path d="M17.433 0.670825C19.0274 -0.223608 20.9725 -0.223608 22.567 0.670825L23.6723 1.29081C24.4384 1.72022 25.2981 1.95062 26.1743 1.96128L27.4415 1.97693C29.2695 1.99955 30.954 2.97209 31.8877 4.54391L32.5349 5.63353C32.9827 6.38756 33.6124 7.01723 34.3664 7.46511L35.456 8.1123C37.0279 9.04597 38.0004 10.7304 38.023 12.5585L38.0387 13.8257C38.0498 14.7034 38.2804 15.5641 38.7091 16.3277L39.3292 17.433C39.7689 18.2157 40 19.1002 40 20C40 20.8998 39.7689 21.7843 39.3292 22.567L38.7091 23.6723C38.2804 24.4359 38.0498 25.2966 38.0387 26.1743L38.023 27.4415C38.0004 29.2696 37.0279 30.954 35.456 31.8877L34.3664 32.5349C33.6124 32.9828 32.9827 33.6124 32.5349 34.3665L31.8876 35.4561C30.954 37.0279 29.2695 38.0004 27.4415 38.0231L26.1743 38.0388C25.2981 38.0494 24.4384 38.2798 23.6723 38.7092L22.567 39.3292C20.9725 40.2236 19.0274 40.2236 17.433 39.3292L16.3277 38.7092C15.5616 38.2798 14.7018 38.0494 13.8257 38.0388L12.5585 38.0231C10.7304 38.0004 9.04593 37.0279 8.11227 35.4561L7.46507 34.3665C7.01722 33.6124 6.38752 32.9828 5.63347 32.5349L4.54387 31.8876C2.97207 30.954 1.99957 29.2696 1.97687 27.4415L1.96122 26.1743C1.95015 25.2966 1.71954 24.4359 1.29082 23.6723L0.670818 22.567C0.231131 21.7843 0 20.8998 0 20C0 19.1002 0.231131 18.2157 0.670818 17.433L1.29082 16.3277C1.71954 15.5641 1.95015 14.7034 1.96122 13.8257L1.97692 12.5585C1.99957 10.7304 2.97207 9.04597 4.54392 8.1123L5.63352 7.46511C6.38752 7.01723 7.01722 6.38756 7.46507 5.63353L8.11232 4.54391C9.04592 2.97209 10.7304 1.99955 12.5585 1.97693L13.8257 1.96128C14.7018 1.95062 15.5616 1.72022 16.3277 1.29081L17.433 0.670825Z" fill="#B7194A"/>
</svg>
